<svg width="124" height="124" viewBox="0 0 124 124" fill="none" xmlns="http://www.w3.org/2000/svg">
<path d="M18.4062 43.8359C25.1042 43.8359 31.2347 40.1712 34.4061 34.2715C36.0346 31.2524 39.6214 29.3047 43.5451 29.3047H51.3924C55.3161 29.3047 58.9029 31.2524 60.5277 34.2678C63.7028 40.1712 69.8333 43.8359 76.5312 43.8359C86.5464 43.8359 94.6953 35.6871 94.6953 25.6719C94.6953 15.6567 86.5464 7.50781 76.5312 7.50781C69.8333 7.50781 63.7028 11.1726 60.5314 17.0723C58.9029 20.0914 55.3161 22.0391 51.3924 22.0391H43.5451C39.6214 22.0391 36.0346 20.0914 34.4098 17.0759C31.2347 11.1726 25.1042 7.50781 18.4062 7.50781C8.39107 7.50781 0 15.6567 0 25.6719C0 35.6871 8.39107 43.8359 18.4062 43.8359ZM72.8984 22.0391H80.1641V29.3047H72.8984V22.0391Z" fill="#4AB3FF"/>
<path d="M18.4062 116.492C25.1042 116.492 31.2347 112.827 34.4061 106.928C36.0346 103.909 39.6214 101.961 43.5451 101.961H51.3924C55.3161 101.961 58.9029 103.909 60.5277 106.924C63.7028 112.827 69.8333 116.492 76.5312 116.492C86.5464 116.492 94.6953 108.343 94.6953 98.3281C94.6953 88.3129 86.5464 80.1641 76.5312 80.1641C69.8333 80.1641 63.7028 83.8288 60.5314 89.7285C58.9029 92.7476 55.3161 94.6953 51.3924 94.6953H43.5451C39.6214 94.6953 36.0346 92.7476 34.4098 89.7322C31.2347 83.8288 25.1042 80.1641 18.4062 80.1641C8.39107 80.1641 0 88.3129 0 98.3281C0 108.343 8.39107 116.492 18.4062 116.492ZM72.8984 94.6953H80.1641V101.961H72.8984V94.6953Z" fill="#4AB3FF"/>
<path d="M89.5939 53.4004C87.9654 56.4195 84.3786 58.3672 80.4549 58.3672H72.6076C68.6839 58.3672 65.0971 56.4195 63.4723 53.404C60.2972 47.5007 54.1667 43.8359 47.4688 43.8359C37.4536 43.8359 29.3047 51.9848 29.3047 62C29.3047 72.0152 37.4536 80.1641 47.4688 80.1641C54.1667 80.1641 60.2972 76.4993 63.4686 70.5996C65.0971 67.5805 68.6839 65.6328 72.6076 65.6328H80.4549C84.3786 65.6328 87.9654 67.5805 89.5902 70.596C92.7653 76.4993 98.8958 80.1641 105.594 80.1641C115.609 80.1641 124 72.0152 124 62C124 51.9848 115.609 43.8359 105.594 43.8359C98.8958 43.8359 92.7653 47.5007 89.5939 53.4004ZM51.1016 65.6328H43.8359V58.3672H51.1016V65.6328Z" fill="#4AB3FF"/>
</svg>
