<svg width="124" height="124" viewBox="0 0 124 124" fill="none" xmlns="http://www.w3.org/2000/svg">
<g clip-path="url(#clip0_1_11614)">
<path d="M39.8659 91.5599C37.4215 95.2281 37.4215 99.975 39.8659 103.647L51.7115 121.413C52.3855 122.425 53.5209 123.031 54.734 123.031H83.7965C85.1731 123.031 86.4289 122.254 87.0462 121.023L98.7073 97.6975C101.159 92.791 99.5695 86.799 95.0071 83.7552L72.8983 69.0181V54.0078C72.8983 49.995 69.6455 46.7422 65.6327 46.7422C61.6199 46.7422 58.3671 49.995 58.3671 54.0078V90.3359C58.3671 92.3422 56.7405 93.9688 54.7343 93.9688C52.728 93.9688 51.1015 92.3422 51.1015 90.3359V74.7049L39.8659 91.5599Z" fill="#4AB3FF"/>
<path d="M121.772 10.6944C121.141 10.4319 105.821 4.06014 84.3079 1.00543C83.2614 0.856485 82.2076 1.16503 81.4167 1.86035C80.6218 2.54889 80.1641 3.54913 80.1641 4.60288V20.0971C85.3241 19.4395 90.5401 18.5352 95.891 17.3073C99.2816 16.5442 102.653 17.4342 105.129 19.4112C107.726 21.4792 109.227 24.5872 109.227 27.9289V57.665C112.725 58.7013 116.236 59.8064 118.966 60.9931C120.081 61.4583 121.367 61.3411 122.379 60.6632C123.393 59.9892 124 58.8575 124 57.6407V14.047C124 12.5818 123.12 11.2621 121.772 10.6944Z" fill="#4AB3FF"/>
<path d="M5.03411 60.9932C7.71609 59.8268 11.2414 58.7108 14.7734 57.6583V27.9288C14.7734 24.5868 16.274 21.4791 18.8853 19.4001C21.4099 17.3757 24.8312 16.5404 28.1306 17.3105C33.4703 18.5367 38.6805 19.4396 43.8362 20.0969V4.60272C43.8362 3.54897 43.3784 2.54873 42.5838 1.86044C41.7892 1.16512 40.7284 0.856326 39.6926 1.00551C18.1793 4.05998 2.85951 10.4317 2.22788 10.6942C0.879867 11.2619 0 12.5816 0 14.0468V57.6406C0 58.8573 0.60668 59.9891 1.6212 60.6631C2.63282 61.3417 3.91932 61.4584 5.03411 60.9932Z" fill="#4AB3FF"/>
<path d="M101.961 64.4417V28.1135C101.961 27.0067 101.457 25.96 100.592 25.2719C99.726 24.5803 98.5907 24.3318 97.5158 24.573C73.2922 30.1358 50.708 30.1358 26.4844 24.573C25.4023 24.3211 24.2706 24.58 23.4086 25.2719C22.5428 25.96 22.0391 27.0067 22.0391 28.1135V64.4417C22.0391 66.1338 23.2098 67.6027 24.8596 67.9822C31.5239 69.5109 38.1353 70.4939 44.6901 71.2248L51.1016 61.6071V54.008C51.1016 45.9937 57.6186 39.4767 65.6328 39.4767C73.647 39.4767 80.1641 45.9937 80.1641 54.008V65.13L87.6416 70.1139C91.4648 69.4959 95.2925 68.8647 99.1404 67.9822C100.79 67.6027 101.961 66.1338 101.961 64.4417Z" fill="#4AB3FF"/>
</g>
<defs>
<clipPath id="clip0_1_11614">
<rect width="124" height="124" fill="white"/>
</clipPath>
</defs>
</svg>
