<svg width="50" height="50" viewBox="0 0 50 50" fill="none" xmlns="http://www.w3.org/2000/svg">
<path d="M26.9365 24.2979C26.7905 24.3754 26.6992 24.5271 26.6992 24.6924V36.0408C27.7562 35.8718 28.7918 35.5456 29.7658 35.0603L29.8785 35.0039C33.536 33.1812 35.8076 29.5109 35.8076 25.4252V25.3617C35.8076 23.5427 35.354 21.804 34.5285 20.2734L26.9365 24.2979Z" fill="#0094FF"/>
<path d="M18.5804 38.0779C16.2271 36.9035 14.2521 35.1007 12.8687 32.8641C11.4853 30.6275 10.7541 28.0554 10.7541 25.4254V25.247C10.7541 22.8737 11.3506 20.5501 12.4828 18.4757L2.33838 12.9012C2.19844 12.8244 2.02734 12.9256 2.02734 13.0852V37.7456C2.02734 38.8363 2.64395 39.8331 3.61983 40.3202L22.9632 49.9736C23.1028 50.0433 23.2669 49.9418 23.2669 49.7857V39.5032C21.6865 39.3102 20.1337 38.8531 18.6841 38.1297L18.5804 38.0779Z" fill="#0094FF"/>
<path d="M4.39008 10.1084L14.4988 15.6632C15.6804 14.3817 17.0922 13.3237 18.6735 12.5493C22.639 10.6075 27.3568 10.6415 31.2936 12.6402L31.5111 12.7505C33.07 13.5419 34.4345 14.5915 35.5673 15.8307L45.6056 10.5095C45.7559 10.4298 45.7541 10.2138 45.6023 10.1367L26.2496 0.311685C25.4439 -0.0973017 24.493 -0.104138 23.6816 0.293228L4.39886 9.73586C4.24613 9.81067 4.24105 10.0266 4.39008 10.1084Z" fill="#0094FF"/>
<path d="M23.0343 24.2759L15.4947 20.1328C14.6411 21.7004 14.1914 23.4558 14.1914 25.2484V25.4269C14.1914 29.5101 16.461 33.1793 20.1145 35.0025L20.2182 35.0544C21.1862 35.5375 22.2153 35.8634 23.2656 36.0339V24.6672C23.2657 24.5043 23.1771 24.3543 23.0343 24.2759Z" fill="#0094FF"/>
<path d="M47.6646 13.306L37.5689 18.6576C38.6516 20.6743 39.2463 22.9632 39.2463 25.3574V25.4209C39.2463 28.0522 38.5143 30.6255 37.1296 32.8629C35.7448 35.1002 33.7681 36.9032 31.413 38.0767L31.3003 38.1331C29.8449 38.8584 28.2857 39.3155 26.6992 39.5064V49.788C26.6992 49.944 26.8633 50.0456 27.0028 49.9759L46.379 40.3194C47.3557 39.8327 47.973 38.8353 47.973 37.7441V13.4914C47.9729 13.3332 47.8044 13.2319 47.6646 13.306Z" fill="#0094FF"/>
<path d="M29.9572 15.8141L29.7397 15.7037C28.2266 14.9354 26.5604 14.5508 24.8943 14.5508C23.2799 14.5508 21.6655 14.9117 20.1886 15.6351C19.2521 16.0937 18.3943 16.6841 17.6367 17.3836L24.7902 21.3146C24.9221 21.387 25.0814 21.3882 25.2144 21.3178L32.3976 17.5101C31.6788 16.8456 30.8608 16.2729 29.9572 15.8141Z" fill="#0094FF"/>
</svg>
