<svg width="50" height="51" viewBox="0 0 50 51" fill="none" xmlns="http://www.w3.org/2000/svg">
<g clip-path="url(#clip0_7075_105563)">
<path d="M33.5928 23.0098C33.5928 22.7876 33.5938 24.5362 33.5938 14.9102C28.9873 14.6064 24.584 12.877 20.9961 9.95312C17.4082 12.877 13.0049 14.6064 8.39844 14.9102V22.8887C8.39844 30.96 13.4404 38.1152 20.9961 40.8486C21.4951 40.668 21.9834 40.4678 22.46 40.249C21.2075 32.4092 26.1171 25.0347 33.5928 23.0098ZM22.0322 28.5918C21.4635 29.1606 20.5343 29.1662 19.96 28.5918L16.835 25.4668C16.2637 24.8945 16.2637 23.9668 16.835 23.3945C17.4072 22.8232 18.335 22.8232 18.9072 23.3945L20.9961 25.4844L27.04 19.4395C27.6123 18.8682 28.54 18.8682 29.1123 19.4395C29.6836 20.0117 29.6836 20.9395 29.1123 21.5117L22.0322 28.5918Z" fill="#0094FF"/>
<path d="M23.2135 43.1189C22.6423 43.3646 22.0575 43.5885 21.4593 43.7879C21.1588 43.8881 20.8335 43.8881 20.5328 43.7879C11.5226 40.7844 5.46875 32.3852 5.46875 22.8876V13.4919C5.46875 12.683 6.12461 12.0271 6.93359 12.0271C11.6167 12.0271 16.1366 10.3288 19.661 7.24497L20.0314 6.92075C20.5838 6.43755 21.4084 6.43755 21.9607 6.92075L22.3312 7.24497C25.8556 10.3288 30.3756 12.0271 35.0586 12.0271C35.8676 12.0271 36.5234 12.683 36.5234 13.4919V22.5145C38.371 22.386 40.2072 22.5868 41.9658 23.1101C42.002 22.2579 41.9922 23.142 41.9922 8.80444C41.9922 7.99585 41.3359 7.3396 40.5273 7.3396C33.9471 7.3396 27.4517 5.11792 21.9316 0.548584C21.3887 0.0983887 20.6035 0.0983887 20.0605 0.548584C14.5536 5.10708 8.06211 7.3396 1.46484 7.3396C0.65625 7.3396 0 7.99585 0 8.80444V21.8611C0 34.6226 8.16465 46.1146 20.543 50.1394C20.8358 50.2344 21.1562 50.2345 21.4492 50.1394C23.1172 49.5964 24.7188 48.9167 26.2412 48.1091C26.2334 48.1013 26.2266 48.0925 26.2188 48.0847C24.8967 46.6208 23.8835 44.934 23.2135 43.1189Z" fill="#0094FF"/>
<path d="M39.7469 41.1651C35.1715 39.7102 30.4756 43.1503 30.4688 47.9517C34.7551 50.9592 40.4396 50.9592 44.7262 47.9517C44.7217 44.7745 42.6275 42.0771 39.7469 41.1651Z" fill="#0094FF"/>
<path d="M37.5977 25.4062C30.759 25.4062 25.1953 30.9699 25.1953 37.8086C25.1953 40.6049 26.1327 43.2971 27.8505 45.4779C28.5685 42.6658 30.4743 40.3234 33 39.0195C32.5088 38.21 32.2266 37.2598 32.2266 36.2461C32.2266 33.2842 34.6357 30.875 37.5977 30.875C40.5596 30.875 42.9688 33.2842 42.9688 36.2461C42.9688 37.2598 42.6865 38.21 42.1953 39.0195C44.721 40.3234 46.6269 42.6658 47.3448 45.478C49.0625 43.2972 50 40.6049 50 37.8086C50 30.9699 44.4363 25.4062 37.5977 25.4062Z" fill="#0094FF"/>
<path d="M35.9463 38.043C36.8779 38.9014 38.3148 38.9037 39.249 38.043C39.7344 37.5967 40.0391 36.9561 40.0391 36.2461C40.0391 34.8994 38.9443 33.8047 37.5977 33.8047C36.251 33.8047 35.1562 34.8994 35.1562 36.2461C35.1562 36.9561 35.4609 37.5967 35.9463 38.043Z" fill="#0094FF"/>
</g>
<defs>
<clipPath id="clip0_7075_105563">
<rect width="50" height="50" fill="white" transform="translate(0 0.210938)"/>
</clipPath>
</defs>
</svg>
