<svg width="72" height="72" viewBox="0 0 72 72" fill="none" xmlns="http://www.w3.org/2000/svg">
<path d="M6.19336 29.2266C6.22908 35.519 11.3577 40.6276 17.6584 40.6276C23.959 40.6276 29.0877 35.5191 29.1234 29.2266H6.19336Z" fill="#0094FF"/>
<path d="M42.8789 29.2266C42.9146 35.519 48.0432 40.6276 54.3439 40.6276C60.6447 40.6276 65.7732 35.5191 65.809 29.2266H42.8789Z" fill="#0094FF"/>
<path d="M38.112 8.15334H51.1087L43.6732 24.996H48.2855L54.3461 11.2674L60.4068 24.996H65.019L55.7209 3.93391H38.112V0H33.8926V3.93391H16.2835L6.98545 24.9962H11.5977L17.6583 11.2676L23.719 24.9962H28.3312L20.8959 8.15334H33.8926V45.1348H6.14648V49.3542H23.9221V52.0407L21.2269 54.7361C20.5519 54.4489 19.8097 54.2897 19.0309 54.2897C15.9288 54.2897 13.405 56.8134 13.405 59.9156C13.405 63.0177 15.9288 65.5415 19.0309 65.5415C22.133 65.5415 24.6568 63.0177 24.6568 59.9156C24.6568 59.1369 24.4976 58.3947 24.2104 57.7198L28.1415 53.7885V49.3542H33.8926V61.16C31.8331 61.9964 30.3764 64.0177 30.3764 66.374C30.3764 69.4761 32.9002 71.9999 36.0023 71.9999C39.1044 71.9999 41.6282 69.4761 41.6282 66.374C41.6282 64.0177 40.1715 61.9964 38.112 61.16V49.3542H43.8631V53.7885L47.7942 57.7196C47.507 58.3946 47.3478 59.1368 47.3478 59.9154C47.3478 63.0175 49.8716 65.5413 52.9737 65.5413C56.0758 65.5413 58.5996 63.0175 58.5996 59.9154C58.5996 56.8133 56.0758 54.2895 52.9737 54.2895C52.195 54.2895 51.4529 54.4487 50.7779 54.7359L48.0827 52.0407V49.3542H65.8583V45.1348H38.112V8.15334Z" fill="#0094FF"/>
</svg>
