<svg width="48" height="48" viewBox="0 0 48 48" fill="none" xmlns="http://www.w3.org/2000/svg">
<g clip-path="url(#clip0_3955_12153)">
<path d="M32.3729 43.9805L28.2111 33.2344L25.5078 40.2143L28.5252 48.0052L32.3729 43.9805Z" fill="#4AB3FF"/>
<path d="M32.7084 28.6051C31.7715 29.1473 30.7961 29.4597 29.8359 29.6378L34.9931 42.9537L40.5481 43.3368L34.3601 27.3594C33.8761 27.822 33.3319 28.2444 32.7084 28.6051Z" fill="#4AB3FF"/>
<path d="M13.0003 42.9537L18.1575 29.6378C17.1973 29.4597 16.2219 29.1473 15.285 28.6052C14.6615 28.2445 14.1173 27.822 13.6333 27.3594L7.44531 43.3368L13.0003 42.9537Z" fill="#4AB3FF"/>
<path d="M26.4961 29.8628C26.1235 29.858 24.4484 29.8125 23.9982 29.8125C23.5481 29.8125 21.6011 29.8654 21.0883 29.8659L15.625 43.9723L19.4728 47.997L26.4961 29.8628Z" fill="#4AB3FF"/>
<path d="M23.9935 0.053625C23.0179 0.053625 22.0247 0 21.0542 0C19.4808 0 17.968 0.141 16.6907 0.880031C14.5601 2.11266 13.5542 4.65994 12.3216 6.7905C11.1268 8.85563 9.39062 10.9709 9.39062 13.5283C9.39062 16.0857 11.1268 18.201 12.3216 20.2661C13.5542 22.3967 14.5601 24.9439 16.6907 26.1766C17.968 26.9156 19.4807 27.0565 21.054 27.0565C22.0243 27.0565 23.0178 27.0029 23.9934 27.0029C24.969 27.0029 25.9624 27.0565 26.9328 27.0565C28.5062 27.0565 30.0188 26.9156 31.2962 26.1765C33.4267 24.9439 34.4326 22.3966 35.6652 20.266C36.86 18.2009 38.5962 16.0856 38.5962 13.5282C38.5962 10.9708 36.86 8.85553 35.6652 6.79041C34.4326 4.65984 33.4267 2.11266 31.2962 0.879937C30.0188 0.140906 28.5063 0 26.9328 0C25.9626 0 24.969 0.053625 23.9935 0.053625ZM27.7169 9.10209L25.5157 10.8529C25.2891 10.5679 24.4454 9.88491 23.7332 10.2054C23.3708 10.3684 23.2718 10.6297 23.2449 10.7709C23.2235 10.8833 23.2414 11.1035 23.4347 11.3267C23.8218 11.774 24.7741 11.9671 25.4738 12.1822C26.5192 12.5034 27.3047 13.2642 27.7257 14.2025C28.1362 15.1177 28.1523 16.1796 27.7699 17.1161C27.3506 18.1431 26.4689 18.9311 25.3997 19.3052V21.8407H22.5872V19.3641C21.4908 19.0747 20.5233 18.439 19.7429 17.4812L21.9232 15.7046C22.4943 16.4056 23.1522 16.732 23.9935 16.732C24.6087 16.732 25.0326 16.3801 25.1661 16.0531C25.2591 15.8253 25.2643 15.5668 25.1596 15.3537C24.9934 15.0157 24.7434 14.9063 24.0408 14.6622C23.0108 14.3045 22.1184 14.0036 21.3867 13.2533C20.6132 12.4602 20.2749 11.3362 20.4817 10.2465C20.6978 9.10837 21.4818 8.13431 22.5793 7.64062C22.5819 7.63941 22.5845 7.63856 22.5872 7.63734V5.21578H25.3997V7.51275C26.4032 7.83994 27.2372 8.499 27.7169 9.10209Z" fill="#4AB3FF"/>
</g>
<defs>
<clipPath id="clip0_3955_12153">
<rect width="48" height="48" fill="white"/>
</clipPath>
</defs>
</svg>
