<svg width="37" height="37" viewBox="0 0 37 37" fill="none" xmlns="http://www.w3.org/2000/svg">
<g clip-path="url(#clip0_4959_50984)">
<path d="M24.9979 6.02895C24.9988 5.19954 25.2314 4.42336 25.6343 3.76172H3.64551C2.09223 3.76172 0.833008 5.02095 0.833008 6.57422V8.30658H22.7548C24.0077 8.30658 24.9965 7.28177 24.9979 6.02895Z" fill="white"/>
<path d="M18.8334 15.9258C18.7157 15.9258 18.2591 16.2731 17.829 17.3915C17.4446 18.3911 17.1921 19.7144 17.1074 21.1289H20.5593C20.4746 19.7143 20.2223 18.3911 19.8377 17.3915C19.4076 16.2731 18.951 15.9258 18.8334 15.9258Z" fill="white"/>
<path d="M17.829 26.9757C18.2591 28.0941 18.7157 28.4414 18.8334 28.4414C18.951 28.4414 19.4076 28.0941 19.8377 26.9757C20.2222 25.9761 20.4746 24.6528 20.5593 23.2383H17.1074C17.1921 24.6529 17.4446 25.9761 17.829 26.9757Z" fill="white"/>
<path d="M12.6641 21.1309H14.9936C15.0809 19.4709 15.3732 17.9254 15.8392 16.6914C14.1909 17.5931 12.9907 19.2149 12.6641 21.1309Z" fill="white"/>
<path d="M12.6641 23.2383C12.9907 25.1543 14.1908 26.7761 15.8392 27.6778C15.3733 26.4438 15.0809 24.8983 14.9936 23.2383H12.6641Z" fill="white"/>
<path d="M21.8262 27.6778C23.4745 26.7762 24.6747 25.1543 25.0013 23.2383H22.6718C22.5845 24.8983 22.2921 26.4438 21.8262 27.6778Z" fill="white"/>
<path d="M21.8262 16.6914C22.2921 17.9254 22.5845 19.4709 22.6718 21.1309H25.0013C24.6747 19.2149 23.4745 17.5931 21.8262 16.6914Z" fill="white"/>
<path d="M34.0205 3.76172H29.3653C28.1271 3.76952 27.1205 4.77239 27.1074 6.00947C27.0817 8.43293 25.1489 10.416 22.7253 10.416H0.833008V31.1836C0.833008 32.7369 2.09223 33.9961 3.64551 33.9961H34.0205C35.5738 33.9961 36.833 32.7369 36.833 31.1836V6.57422C36.833 5.02095 35.5738 3.76172 34.0205 3.76172ZM18.833 30.5508C14.2193 30.5508 10.4658 26.7973 10.4658 22.1836C10.4658 17.5699 14.2193 13.8164 18.833 13.8164C23.4467 13.8164 27.2002 17.5699 27.2002 22.1836C27.2002 26.7973 23.4467 30.5508 18.833 30.5508ZM32.1221 8.33238C31.5396 8.33238 31.0674 7.86016 31.0674 7.2777C31.0674 6.69516 31.5396 6.22301 32.1221 6.22301C32.7045 6.22301 33.1768 6.69516 33.1768 7.2777C33.1768 7.86016 32.7045 8.33238 32.1221 8.33238Z" fill="white"/>
</g>
<defs>
<clipPath id="clip0_4959_50984">
<rect width="36" height="36" fill="white" transform="translate(0.833008 0.878906)"/>
</clipPath>
</defs>
</svg>
