<svg width="36" height="36" viewBox="0 0 36 36" fill="none" xmlns="http://www.w3.org/2000/svg">
<g clip-path="url(#clip0_4056_12017)">
<path d="M13.1808 21.9988V20.9413C13.1808 17.3055 10.234 14.3594 6.59953 14.3594H6.58195C4.76367 14.3594 3.11836 15.0955 1.92797 16.2873C0.736875 17.4777 0 19.123 0 20.9413C0 22.6387 0.724922 24.2566 1.99195 25.3865L2.15156 25.5292V31.3469H8.78766V29.0934H11.115C12.0255 29.0934 12.7645 28.3544 12.7645 27.4445V25.4863H13.9402C14.3965 25.4863 14.767 25.1165 14.767 24.6602C14.767 24.4991 14.7199 24.3416 14.6313 24.2066L13.1808 21.9988ZM5.8507 23.9739L3.25055 21.3737L4.74258 19.8817L5.8507 20.9905L8.71875 18.1232L10.2101 19.6145L5.8507 23.9739Z" fill="#C6E7FF"/>
<path d="M34.0734 16.2873C32.883 15.0955 31.2377 14.3594 29.4195 14.3594H29.4019C25.7674 14.3594 22.8206 17.3055 22.8206 20.9413V21.9988L21.3701 24.2066C21.2815 24.3416 21.2344 24.4991 21.2344 24.6602C21.2344 25.1165 21.6049 25.4863 22.0612 25.4863H23.2369V27.4445C23.2369 28.3544 23.9759 29.0934 24.8864 29.0934H27.2137V31.3469H33.8498V25.5292L34.0095 25.3865C35.2765 24.2566 36.0014 22.6387 36.0014 20.9413C36.0014 19.123 35.2645 17.4777 34.0734 16.2873ZM28.4815 23.9739L25.8806 21.3737L27.3727 19.8817L28.4815 20.9905L31.3488 18.1232L32.8402 19.6145L28.4815 23.9739Z" fill="#C6E7FF"/>
<path d="M22.8105 9.73695V11.8463H28.837V5.81977H26.7276V8.24809C24.3501 5.92609 21.2176 4.64844 17.8883 4.64844C14.5077 4.64844 11.3295 5.96497 8.93899 8.35538L7.47656 9.81781L8.9681 11.3094L10.4305 9.84692C12.4226 7.8549 15.0712 6.75781 17.8883 6.75781C20.6528 6.75781 23.2546 7.81496 25.2334 9.73695H22.8105Z" fill="#C6E7FF"/>
</g>
<defs>
<clipPath id="clip0_4056_12017">
<rect width="36" height="36" fill="white"/>
</clipPath>
</defs>
</svg>
