<svg width="46" height="45" viewBox="0 0 46 45" fill="none" xmlns="http://www.w3.org/2000/svg">
<g clip-path="url(#clip0_298_22436)">
<path d="M9.67969 25.2578H13.2448V27.8893H9.67969V25.2578Z" fill="#4AB3FF"/>
<path d="M41.1307 18.2876H5.87148C4.57898 18.2876 3.53125 19.3353 3.53125 20.6278V40.5258C3.53125 41.8182 4.57898 42.866 5.87148 42.866H41.1307C42.4232 42.866 43.4709 41.8182 43.4709 40.5257V20.6278C43.4709 19.3353 42.4232 18.2876 41.1307 18.2876ZM12.9695 37.7879H7.17719V35.4477H12.9695V37.7879ZM15.5784 28.2796C15.5784 29.3549 14.7036 30.2298 13.6283 30.2298H9.28305C8.20773 30.2298 7.33289 29.3549 7.33289 28.2796V24.8681C7.33289 23.7928 8.20773 22.9179 9.28305 22.9179H13.6282C14.7035 22.9179 15.5784 23.7928 15.5784 24.8681L15.5784 28.2796ZM21.9213 37.7879H16.129V35.4477H21.9213V37.7879ZM30.8732 37.7879H25.0809V35.4477H30.8732V37.7879ZM39.825 37.7879H34.0327V35.4477H39.825V37.7879Z" fill="#4AB3FF"/>
<path d="M34.9549 8.55102L29.9555 3.55164C29.0416 2.63773 27.5599 2.63773 26.6459 3.55164L14.25 15.9476H27.9809L34.9549 8.55102Z" fill="#4AB3FF"/>
<path d="M34.8013 15.9476L38.4606 12.0665L36.6006 10.2065L31.1875 15.9476H34.8013Z" fill="#4AB3FF"/>
<path d="M41.1343 15.9476C41.637 15.9476 42.121 16.0283 42.5752 16.1756L40.1218 13.7222L38.0234 15.9477L41.1343 15.9476Z" fill="#4AB3FF"/>
</g>
<defs>
<clipPath id="clip0_298_22436">
<rect width="40" height="40" fill="white" transform="translate(3.5 2.86621)"/>
</clipPath>
</defs>
</svg>
