<svg width="51" height="50" viewBox="0 0 51 50" fill="none" xmlns="http://www.w3.org/2000/svg">
<path d="M31.6083 28.1006C29.7246 28.1006 27.8833 28.6591 26.3171 29.7056C24.751 30.7521 23.5303 32.2395 22.8094 33.9798C22.0886 35.72 21.9 37.6349 22.2675 39.4824C22.635 41.3298 23.542 43.0268 24.8739 44.3587C26.2059 45.6906 27.9028 46.5977 29.7503 46.9652C31.5977 47.3327 33.5126 47.144 35.2529 46.4232C36.9931 45.7024 38.4805 44.4817 39.527 42.9155C40.5735 41.3493 41.1321 39.508 41.1321 37.6244C41.1321 35.0985 40.1287 32.6761 38.3426 30.89C36.5566 29.104 34.1341 28.1006 31.6083 28.1006ZM36.1956 39.926C36.0637 40.1877 35.8618 40.4079 35.6125 40.562C35.3631 40.7161 35.076 40.7981 34.7829 40.799C34.5339 40.802 34.2881 40.7419 34.0686 40.6244L30.894 39.0371C30.6322 38.9052 30.4121 38.7034 30.258 38.454C30.1039 38.2047 30.0219 37.9175 30.021 37.6244V34.4498C30.021 34.0288 30.1882 33.6251 30.4859 33.3274C30.7836 33.0297 31.1873 32.8625 31.6083 32.8625C32.0292 32.8625 32.433 33.0297 32.7307 33.3274C33.0283 33.6251 33.1956 34.0288 33.1956 34.4498V36.6403L35.4972 37.799C35.871 37.9893 36.1543 38.3198 36.2852 38.7184C36.4161 39.1169 36.3838 39.5511 36.1956 39.926Z" fill="#4AB3FF"/>
<path d="M25.2672 4.2914C25.2672 3.87042 25.1 3.46669 24.8023 3.16901C24.5046 2.87133 24.1009 2.7041 23.6799 2.7041H17.3307C16.9097 2.7041 16.506 2.87133 16.2083 3.16901C15.9106 3.46669 15.7434 3.87042 15.7434 4.2914V5.8787H25.2672V4.2914Z" fill="#4AB3FF"/>
<path d="M18.913 37.6251C18.913 34.2573 20.2508 31.0274 22.6322 28.646C25.0136 26.2646 28.2435 24.9267 31.6113 24.9267V12.2283C31.6113 11.3864 31.2769 10.5789 30.6815 9.98353C30.0862 9.38818 29.2787 9.05371 28.4367 9.05371H12.5638C11.7218 9.05371 10.9143 9.38818 10.319 9.98353C9.72363 10.5789 9.38916 11.3864 9.38916 12.2283V43.9743C9.38916 44.8162 9.72363 45.6237 10.319 46.2191C10.9143 46.8144 11.7218 47.1489 12.5638 47.1489H23.2463C21.8889 45.9604 20.8003 44.4963 20.0531 42.8541C19.3059 41.2119 18.9172 39.4293 18.913 37.6251Z" fill="#4AB3FF"/>
</svg>
