<svg width="48" height="48" viewBox="0 0 48 48" fill="none" xmlns="http://www.w3.org/2000/svg">
<path d="M24 18.9375C26.8689 18.9375 29.2031 16.6033 29.2031 13.7344C29.2031 10.8655 26.8689 8.53125 24 8.53125C21.1311 8.53125 18.7969 10.8655 18.7969 13.7344C18.7969 16.6033 21.1311 18.9375 24 18.9375Z" fill="#4AB3FF"/>
<path d="M24 26.4375C30.9738 26.4375 36.7031 20.7949 36.7031 13.7344C36.7031 6.72986 31.0045 1.03125 24 1.03125C16.9955 1.03125 11.2969 6.72986 11.2969 13.7344C11.2969 20.7924 17.0229 26.4375 24 26.4375ZM24 5.71875C28.4198 5.71875 32.0156 9.31458 32.0156 13.7344C32.0156 18.1542 28.4198 21.75 24 21.75C19.5802 21.75 15.9844 18.1542 15.9844 13.7344C15.9844 9.31458 19.5802 5.71875 24 5.71875Z" fill="#4AB3FF"/>
<path d="M42.7013 21.75H37.2876C35.8931 24.0604 33.891 26.0175 31.3923 27.375H36.3281V30.1875H11.6719V27.375H16.608C14.0812 26.0024 12.0908 24.0344 10.712 21.75H5.29871L0 32.9052V35.8125H48V32.9052L42.7013 21.75Z" fill="#4AB3FF"/>
<path d="M0 38.625H48V47.0625H0V38.625Z" fill="#4AB3FF"/>
</svg>
