<svg width="51" height="50" viewBox="0 0 51 50" fill="none" xmlns="http://www.w3.org/2000/svg">
<g clip-path="url(#clip0_298_20852)">
<path d="M25.4141 28.0514C26.1333 28.0514 26.7162 27.4685 26.7162 26.7493C26.7162 26.0302 26.1333 25.4473 25.4141 25.4473C24.695 25.4473 24.1121 26.0302 24.1121 26.7493C24.1121 27.4685 24.695 28.0514 25.4141 28.0514Z" fill="#4AB3FF"/>
<path d="M40.5162 13.2097C39.9277 9.23579 36.4937 6.17632 32.3587 6.17632C30.9898 6.17632 29.6771 6.50558 28.4946 7.13822C27.7403 6.01061 26.7622 5.04421 25.6141 4.3002C24.003 3.25592 22.1329 2.7041 20.2059 2.7041C14.7015 2.7041 10.2233 7.18231 10.2233 12.6867C10.2233 12.865 10.228 13.0432 10.2375 13.2212C6.29973 13.8413 3.27881 17.2581 3.27881 21.3673C3.27881 23.96 4.50311 26.3405 6.46232 27.871C7.65676 26.394 9.48219 25.4472 11.5253 25.4472H21.7319C22.2694 23.9316 23.7167 22.843 25.4142 22.843C27.1117 22.843 28.559 23.9316 29.0965 25.4472H39.3031C41.3463 25.4472 43.1717 26.394 44.3661 27.871C46.3253 26.3405 47.5496 23.96 47.5496 21.3673C47.5496 17.2322 44.4902 13.7983 40.5162 13.2097ZM31.8592 22.1457C31.3507 22.6542 30.5264 22.6542 30.0178 22.1457C28.7905 20.9184 27.1556 20.2425 25.4143 20.2425C23.6729 20.2425 22.038 20.9183 20.8107 22.1457C20.5564 22.3999 20.2232 22.5271 19.89 22.5271C19.5568 22.5271 19.2235 22.3999 18.9693 22.1457C18.4608 21.6373 18.4608 20.8128 18.9693 20.3043C20.6884 18.5851 22.9775 17.6383 25.4143 17.6383H25.4145C27.8514 17.6383 30.1403 18.5851 31.8594 20.3043C32.3677 20.8127 32.3677 21.6372 31.8592 22.1457ZM35.542 18.4628C35.0336 18.9712 34.2091 18.9712 33.7006 18.4628C29.1313 13.8936 21.6969 13.8936 17.1278 18.4628C16.8735 18.717 16.5403 18.8442 16.2071 18.8442C15.8739 18.8442 15.5406 18.717 15.2864 18.4628C14.7779 17.9544 14.7779 17.1299 15.2864 16.6214C20.8709 11.0368 29.9576 11.0368 35.5421 16.6214C36.0505 17.1299 36.0505 17.9544 35.542 18.4628Z" fill="#4AB3FF"/>
<path d="M40.1711 38.8882L43.2093 40.1034V35.0957L40.1711 36.311V38.8882Z" fill="#4AB3FF"/>
<path d="M7.61914 31.958V43.2427C7.61914 45.4001 9.36801 47.149 11.5254 47.149H12.8275V28.0518H11.5254C9.36801 28.0518 7.61914 29.8006 7.61914 31.958Z" fill="#4AB3FF"/>
<path d="M39.3032 28.0518H29.0966C28.5591 29.5673 27.1118 30.6559 25.4143 30.6559C23.7168 30.6559 22.2695 29.5673 21.732 28.0518H15.4316V47.149H39.3032C41.4605 47.149 43.2094 45.4001 43.2094 43.2427V42.909L38.3855 40.9794C37.8912 40.7817 37.5671 40.303 37.5671 39.7705V35.4302C37.5671 34.8978 37.8912 34.419 38.3855 34.2213L43.2094 32.2918V31.958C43.2094 29.8006 41.4605 28.0518 39.3032 28.0518Z" fill="#4AB3FF"/>
</g>
<defs>
<clipPath id="clip0_298_20852">
<rect width="44.4444" height="44.4444" fill="white" transform="translate(3.27783 2.70312)"/>
</clipPath>
</defs>
</svg>
