<svg width="48" height="48" viewBox="0 0 48 48" fill="none" xmlns="http://www.w3.org/2000/svg">
<g clip-path="url(#clip0_3028_25455)">
<path d="M24.003 21.8148C22.2065 21.8477 20.431 21.6845 18.7108 21.1248C18.5064 21.0583 18.3028 20.9879 18.1039 20.9066C16.0677 20.0746 15.5435 19.0999 15.9725 16.9506C16.7553 13.0288 20.2176 10.2174 24.1366 10.3212C28.2132 10.4292 31.5051 13.3553 32.0755 17.378C32.3277 19.1566 31.9255 19.9385 30.3066 20.7142C28.7724 21.4493 27.1193 21.6938 25.4435 21.8098C24.9655 21.8428 24.4833 21.8148 24.003 21.8148Z" fill="#4AB3FF"/>
<path d="M13.2793 37.7576C12.2202 38.0571 11.0987 38.3406 9.99978 38.6945C8.90141 39.0483 7.82575 39.4725 6.69301 39.8829C3.03565 35.7112 1.07814 30.833 0.82998 25.2143H11.1593C11.3912 27.3338 11.5275 29.4647 11.8808 31.559C12.2311 33.6353 12.8 35.6748 13.2793 37.7576Z" fill="#4AB3FF"/>
<path d="M41.3218 39.8158C39.0827 39.0951 36.8858 38.3879 34.6055 37.6539C35.9842 33.6991 36.6192 29.5214 36.7182 25.2161H47.0867C47.7784 28.5344 44.4977 36.7876 41.3218 39.8158Z" fill="#4AB3FF"/>
<path d="M12.6534 25.1968H23.2726V36.6146C23.1533 36.6307 23.0295 36.6588 22.905 36.6626C20.3362 36.741 17.7787 36.9363 15.2502 37.4166C14.9118 37.4809 14.7584 37.3935 14.6421 37.0532C13.5652 33.8999 12.9784 30.6537 12.7594 27.3359C12.7137 26.6443 12.6902 25.9513 12.6534 25.1968Z" fill="#4AB3FF"/>
<path d="M24.7052 36.6276V25.2155H35.3314C35.2972 25.9596 35.2784 26.6987 35.2268 27.4354C34.9968 30.7182 34.4181 33.9333 33.3456 37.0526C33.2455 37.3438 33.1383 37.4876 32.7915 37.4228C30.2295 36.9445 27.6401 36.7334 25.0375 36.6627C24.94 36.6601 24.843 36.6426 24.7052 36.6276Z" fill="#4AB3FF"/>
<path d="M31.7193 12.8262C34.809 11.7965 38.4611 13.6862 39.6036 16.8882C39.7908 17.4127 39.8839 17.9744 39.985 18.5254C40.1797 19.5865 39.7288 20.3751 38.7827 20.783C37.9265 21.1523 37.0183 21.499 36.103 21.6112C34.6992 21.7833 33.2697 21.7476 31.8508 21.7935C31.7421 21.797 31.6316 21.748 31.4631 21.7103C31.5975 21.6076 31.6816 21.5355 31.7731 21.4746C33.2081 20.521 33.7349 19.1918 33.5062 17.4957C33.2899 15.8917 32.7822 14.4127 31.8627 13.0782C31.8172 13.0122 31.7828 12.9386 31.7193 12.8262Z" fill="#4AB3FF"/>
<path d="M16.2481 12.8053C15.9203 13.4046 15.5787 13.9674 15.2963 14.5585C14.7621 15.6767 14.5206 16.8692 14.4462 18.1048C14.3641 19.4689 14.9236 20.5052 15.99 21.3063C16.0694 21.3659 16.1498 21.4242 16.2308 21.4816C16.3098 21.5375 16.3903 21.5914 16.5123 21.6752C16.4226 21.7212 16.3745 21.7652 16.3231 21.7694C14.1285 21.95 11.957 21.8907 9.86133 21.1096C9.61464 21.0177 9.378 20.8942 9.14609 20.7681C8.26923 20.2912 7.89333 19.5809 7.98969 18.5592C8.35455 14.6906 11.9909 11.9443 15.8156 12.6833C15.9571 12.7106 16.094 12.7612 16.2481 12.8053Z" fill="#4AB3FF"/>
<path d="M23.2784 38.0734V46.7626C22.0641 46.6145 21.0215 46.1213 20.0703 45.412C18.943 44.5714 18.0093 43.5403 17.2662 42.3569C16.5655 41.2409 15.9449 40.0746 15.2906 38.9329C16.0327 38.4853 21.4895 38.0047 23.2784 38.0734Z" fill="#4AB3FF"/>
<path d="M24.7175 38.052C27.3943 38.1029 30.0188 38.3079 32.6955 38.8165C30.9057 42.3965 29.0641 45.8047 24.7175 46.8261V38.052Z" fill="#4AB3FF"/>
<path d="M24.0114 0.617205C26.0918 0.623486 27.7729 2.3064 27.7711 4.38105C27.7694 6.45061 26.0799 8.1412 24.0051 8.14946C21.9172 8.15777 20.2079 6.44173 20.2206 4.35014C20.2332 2.27987 21.928 0.610915 24.0114 0.617205Z" fill="#4AB3FF"/>
<path d="M40.2042 21.5696C42.2168 19.5949 41.2729 17.5265 40.5394 15.4102C41.4879 14.8397 42.5512 14.719 43.6506 14.8721C45.9032 15.1859 47.6953 17.1656 47.8603 19.4429C47.9125 20.164 47.6552 20.7337 47.0226 20.983C46.1552 21.3249 45.2469 21.6233 44.3291 21.7636C42.9842 21.9692 41.6215 21.8968 40.2042 21.5696Z" fill="#4AB3FF"/>
<path d="M7.39533 15.3733C7.14939 16.2823 6.87227 17.1447 6.6877 18.0264C6.40924 19.3567 6.63301 20.5684 7.84971 21.5579C7.40321 21.6392 7.06357 21.723 6.71891 21.7602C5.10988 21.9339 3.5114 21.9126 1.94845 21.4271C0.233686 20.8945 -0.152968 20.1843 0.31802 18.4564C1.11565 15.5301 4.41018 13.9876 7.16795 15.2503C7.27078 15.2974 7.36737 15.3581 7.39533 15.3733Z" fill="#4AB3FF"/>
<path d="M40.2213 41.0103C36.6321 44.4621 32.4483 46.56 27.5945 47.3623C27.6046 47.3125 27.6012 47.2725 27.6161 47.2639C30.4418 45.6168 32.172 43.0515 33.5505 40.1911C33.5577 40.1762 33.5642 40.161 33.5712 40.146C34.0813 39.0494 34.0934 39.0091 35.2308 39.3493C36.8278 39.827 38.4049 40.3716 39.9898 40.8894C40.0483 40.9085 40.1006 40.9465 40.2213 41.0103Z" fill="#4AB3FF"/>
<path d="M20.531 47.3793C15.542 46.5656 11.3568 44.4561 7.73571 40.9749C8.55532 40.6706 9.28081 40.3616 10.0306 40.132C11.1514 39.7889 12.294 39.5178 13.4172 39.1822C13.8161 39.0629 13.989 39.1513 14.1554 39.5384C15.0428 41.6022 16.1415 43.5484 17.7382 45.1499C18.4558 45.8697 19.3139 46.4497 20.1101 47.0909C20.2078 47.1696 20.3173 47.2337 20.531 47.3793Z" fill="#4AB3FF"/>
<path d="M14.5602 10.8052C12.8756 10.8064 11.5328 9.47245 11.525 7.79014C11.5173 6.11554 12.8599 4.74907 14.5306 4.73112C16.2036 4.71313 17.6082 6.11026 17.6017 7.78593C17.5952 9.45473 16.2361 10.8039 14.5602 10.8052Z" fill="#4AB3FF"/>
<path d="M33.3902 10.804C31.7172 10.7835 30.3625 9.40165 30.3904 7.74423C30.4185 6.07466 31.7962 4.71915 33.453 4.73102C35.1411 4.74312 36.4999 6.14103 36.4669 7.83149C36.434 9.51507 35.0784 10.8247 33.3902 10.804Z" fill="#4AB3FF"/>
<path d="M7.41411 11.1845C7.40965 12.4691 6.39352 13.4767 5.10727 13.472C3.82973 13.4673 2.80917 12.4407 2.81334 11.1644C2.8175 9.89054 3.84558 8.87455 5.12742 8.87758C6.41062 8.88062 7.41857 9.89749 7.41411 11.1845Z" fill="#4AB3FF"/>
<path d="M42.8807 13.4722C41.5952 13.4752 40.5805 12.466 40.5775 11.1814C40.5745 9.8943 41.5834 8.87935 42.8673 8.87777C44.1486 8.8762 45.1753 9.89369 45.1783 11.168C45.1814 12.4433 44.1583 13.4693 42.8807 13.4722Z" fill="#4AB3FF"/>
</g>
<defs>
<clipPath id="clip0_3028_25455">
<rect width="48" height="48" fill="white"/>
</clipPath>
</defs>
</svg>
