<svg width="49" height="49" viewBox="0 0 49 49" fill="none" xmlns="http://www.w3.org/2000/svg">
<g clip-path="url(#clip0_3949_10603)">
<path d="M21.4258 26.9375H12.9883V35.375H21.4258C22.2024 35.375 22.832 34.7454 22.832 33.9688V28.3438C22.832 27.5671 22.2024 26.9375 21.4258 26.9375Z" fill="#4AB3FF"/>
<path d="M1.73828 26.9375C0.961656 26.9375 0.332031 27.5671 0.332031 28.3438V33.9688C0.332031 34.7454 0.961656 35.375 1.73828 35.375H10.1758V26.9375H1.73828Z" fill="#4AB3FF"/>
<path d="M27.2383 26.9375C26.4617 26.9375 25.832 27.5671 25.832 28.3438V33.9688C25.832 34.7454 26.4617 35.375 27.2383 35.375H39.8945V26.9375H27.2383Z" fill="#4AB3FF"/>
<path d="M46.9258 26.9375H42.707V35.375H46.9258C47.7024 35.375 48.332 34.7454 48.332 33.9688V28.3438C48.332 27.5671 47.7024 26.9375 46.9258 26.9375Z" fill="#4AB3FF"/>
<path d="M1.73828 40.0625C0.961656 40.0625 0.332031 40.6921 0.332031 41.4688V47.0938C0.332031 47.8704 0.961656 48.5 1.73828 48.5H14.3945V40.0625H1.73828Z" fill="#4AB3FF"/>
<path d="M21.4258 40.0625H17.207V48.5H21.4258C22.2024 48.5 22.832 47.8704 22.832 47.0938V41.4688C22.832 40.6921 22.2024 40.0625 21.4258 40.0625Z" fill="#4AB3FF"/>
<path d="M27.2383 40.0625C26.4617 40.0625 25.832 40.6921 25.832 41.4688V47.0938C25.832 47.8704 26.4617 48.5 27.2383 48.5H31.457V40.0625H27.2383Z" fill="#4AB3FF"/>
<path d="M46.9258 40.0625H34.2695V48.5H46.9258C47.7024 48.5 48.332 47.8704 48.332 47.0938V41.4688C48.332 40.6921 47.7024 40.0625 46.9258 40.0625Z" fill="#4AB3FF"/>
<path d="M11.582 11.75C8.99322 11.75 6.89453 9.65131 6.89453 7.0625V5.1875C6.89453 2.59869 8.99322 0.5 11.582 0.5C14.1708 0.5 16.2695 2.59869 16.2695 5.1875V7.0625C16.2695 9.65131 14.1708 11.75 11.582 11.75Z" fill="#4AB3FF"/>
<path d="M17.2747 11.9375C15.8981 13.5427 13.8575 14.5627 11.582 14.5627C9.30653 14.5627 7.26597 13.5427 5.88934 11.9375C3.92697 13.5725 2.67578 16.0335 2.67578 18.7814V20.6564C2.67578 21.4331 3.30541 22.0627 4.08203 22.0627H19.082C19.8587 22.0627 20.4883 21.4331 20.4883 20.6564V18.7814C20.4883 16.0335 19.2371 13.5725 17.2747 11.9375Z" fill="#4AB3FF"/>
<path d="M42.7747 11.9375C41.3981 13.5427 39.3575 14.5627 37.082 14.5627C34.8065 14.5627 32.766 13.5427 31.3893 11.9375C29.427 13.5725 28.1758 16.0335 28.1758 18.7814V20.6564C28.1758 21.4331 28.8054 22.0627 29.582 22.0627H44.582C45.3587 22.0627 45.9883 21.4331 45.9883 20.6564V18.7814C45.9883 16.0335 44.7371 13.5725 42.7747 11.9375Z" fill="#4AB3FF"/>
<path d="M37.082 11.75C34.4932 11.75 32.3945 9.65131 32.3945 7.0625V5.1875C32.3945 2.59869 34.4932 0.5 37.082 0.5C39.6708 0.5 41.7695 2.59869 41.7695 5.1875V7.0625C41.7695 9.65131 39.6708 11.75 37.082 11.75Z" fill="#4AB3FF"/>
</g>
<defs>
<clipPath id="clip0_3949_10603">
<rect width="48" height="48" fill="white" transform="translate(0.332031 0.5)"/>
</clipPath>
</defs>
</svg>
