<svg width="46" height="46" viewBox="0 0 46 46" fill="none" xmlns="http://www.w3.org/2000/svg">
<g id="Switch container" clip-path="url(#clip0_298_20937)">
<g id="Switch">
<path id="Vector" d="M5.2113 31.544C3.0909 27.2217 2.64359 22.2763 3.95149 17.6189C5.2686 12.9288 8.26747 8.91694 12.3956 6.32232C15.3613 4.45826 18.7686 3.42006 22.2492 3.31998C24.7332 3.24801 27.211 3.65348 29.5382 4.49801C29.7945 3.6376 30.2302 2.85435 30.8018 2.19063C28.0591 1.13951 25.1206 0.632822 22.1742 0.717024C18.2294 0.830565 14.3689 2.00643 11.0098 4.11763C6.33361 7.05687 2.93665 11.6017 1.44446 16.9149C-0.0368743 22.1899 0.470591 27.7926 2.87354 32.6909L5.2113 31.544Z" fill="#4AB3FF"/>
<path id="Vector_2" d="M42.1729 11.9951L39.907 13.2781C42.3947 17.6717 43.0862 22.7952 41.8541 27.7049C40.6181 32.6298 37.569 36.8308 33.2685 39.5338C30.0758 41.5405 26.4655 42.5469 22.849 42.5468C20.1855 42.5467 17.5191 41.9993 15.0143 40.9049C14.6997 41.7425 14.2117 42.4957 13.5938 43.1206C16.4961 44.4494 19.6605 45.1439 22.8685 45.1439C22.9102 45.1439 22.9523 45.1438 22.9941 45.1436C27.1149 45.1203 31.147 43.9428 34.6542 41.7384C39.5256 38.6765 42.9795 33.9178 44.3797 28.3388C45.7753 22.7775 44.9916 16.9732 42.1729 11.9951Z" fill="#4AB3FF"/>
<path id="Vector_3" d="M26.6184 24.1494C27.4591 22.1213 26.4964 19.7957 24.4683 18.955C22.4402 18.1143 20.1145 19.077 19.2739 21.1051C18.4332 23.1332 19.3958 25.4588 21.424 26.2995C23.4521 27.1402 25.7777 26.1775 26.6184 24.1494Z" fill="#4AB3FF"/>
<path id="Vector_4" d="M36.1998 25.9611V19.2844L33.6438 18.7882C33.5124 18.4187 33.3619 18.0558 33.193 17.7014L34.6526 15.5435L29.9363 10.8177L27.7755 12.2727C27.4145 12.0998 27.0445 11.9459 26.6676 11.8118L26.1714 9.25586H19.4948L18.9986 11.8118C18.6291 11.9433 18.2661 12.0938 17.9119 12.2626L15.754 10.8032L11.028 15.5195L12.4831 17.6803C12.3102 18.0413 12.1563 18.4112 12.0223 18.7882L9.46631 19.2844V25.9611L12.0224 26.4572C12.1538 26.8269 12.3043 27.1896 12.4732 27.5441L11.0137 29.702L15.7299 34.4278L17.8907 32.9728C18.2517 33.1457 18.6217 33.2996 18.9986 33.4336L19.4948 35.9896H26.1714L26.6676 33.4336C27.0371 33.3021 27.4001 33.1516 27.7543 32.9828L29.9122 34.4423L34.6382 29.726L33.1831 27.5651C33.356 27.2041 33.5098 26.8342 33.6439 26.4572L36.1998 25.9611ZM22.9373 29.201C19.3101 29.201 16.3591 26.25 16.3591 22.6228C16.3591 18.9955 19.3101 16.0446 22.9373 16.0446C26.5646 16.0446 29.5155 18.9955 29.5155 22.6228C29.5155 26.25 26.5646 29.201 22.9373 29.201Z" fill="#4AB3FF"/>
<path id="Vector_5" d="M9.12328 42.4746C11.2086 42.4746 12.8991 40.7841 12.8991 38.6987C12.8991 36.6134 11.2086 34.9229 9.12328 34.9229C7.03793 34.9229 5.34741 36.6134 5.34741 38.6987C5.34741 40.7841 7.03793 42.4746 9.12328 42.4746Z" fill="#4AB3FF"/>
<path id="Vector_6" d="M39.0707 7.73544C39.8694 5.80858 38.9548 3.59907 37.0279 2.80038C35.1011 2.00169 32.8916 2.91626 32.0929 4.84313C31.2942 6.77 32.2088 8.9795 34.1356 9.77819C36.0625 10.5769 38.272 9.66231 39.0707 7.73544Z" fill="#4AB3FF"/>
</g>
</g>
<defs>
<clipPath id="clip0_298_20937">
<rect width="44.4444" height="44.4444" fill="white" transform="translate(0.611084 0.703125)"/>
</clipPath>
</defs>
</svg>
