<svg width="51" height="50" viewBox="0 0 51 50" fill="none" xmlns="http://www.w3.org/2000/svg">
<g clip-path="url(#clip0_338_22030)">
<g clip-path="url(#clip1_338_22030)">
<path d="M3.13672 7.45315C3.13672 6.26702 3.47887 5.33941 4.16318 4.67031C4.86269 4.00121 5.82072 3.66666 7.03727 3.66666H11.4624C11.6449 2.49573 12.1392 1.58332 12.9451 0.929431C13.7663 0.260331 14.8612 -0.0742188 16.2298 -0.0742188H34.6604C36.0443 -0.0742188 37.1391 0.260331 37.9451 0.929431C38.7511 1.58332 39.2453 2.49573 39.4278 3.66666H43.853C45.0695 3.66666 46.0199 4.00121 46.7042 4.67031C47.4037 5.33941 47.7535 6.26702 47.7535 7.45315C47.7535 10.5858 47.2517 13.3382 46.248 15.7105C45.2444 18.0675 43.7389 20.0596 41.7316 21.6867C39.7243 23.3139 37.2152 24.5912 34.2042 25.5188C33.5047 26.3856 32.7672 27.1688 31.9916 27.8683C31.2161 28.5526 30.4405 29.1381 29.665 29.6247V39.5471H33.2234C34.8353 39.5471 36.0519 39.9805 36.873 40.8473C37.7094 41.7141 38.1276 42.9078 38.1276 44.4285V48.1922C38.1276 48.7092 37.9527 49.1274 37.603 49.4468C37.2532 49.7661 36.8426 49.9258 36.3712 49.9258H14.519C14.0476 49.9258 13.637 49.7661 13.2873 49.4468C12.9375 49.1274 12.7626 48.7092 12.7626 48.1922V44.4285C12.7626 42.9078 13.1732 41.7141 13.9944 40.8473C14.8308 39.9805 16.0473 39.5471 17.644 39.5471H21.2252V29.6247C20.4497 29.1381 19.6741 28.5526 18.8986 27.8683C18.123 27.1688 17.3779 26.3856 16.6632 25.5188C13.6522 24.5912 11.1431 23.3139 9.13581 21.6867C7.14371 20.0596 5.64584 18.0675 4.64219 15.7105C3.63854 13.3382 3.13672 10.5858 3.13672 7.45315ZM6.39858 7.7725C6.39858 11.0268 7.01446 13.764 8.24621 15.9842C9.47796 18.2044 11.2876 19.9151 13.675 21.1165C12.9755 19.7174 12.4129 18.2196 11.9871 16.6229C11.5613 15.0109 11.3484 13.3306 11.3484 11.5818V7.111H7.06008C6.86239 7.111 6.70272 7.17943 6.58106 7.31629C6.45941 7.43795 6.39858 7.59002 6.39858 7.7725ZM37.1924 21.1165C39.5951 19.9151 41.4123 18.2044 42.644 15.9842C43.8758 13.764 44.4916 11.0268 44.4916 7.7725C44.4916 7.59002 44.4308 7.43795 44.3092 7.31629C44.1875 7.17943 44.0278 7.111 43.8301 7.111H39.5418V11.5818C39.5418 13.3306 39.3289 15.0109 38.9031 16.6229C38.4773 18.2196 37.9071 19.7174 37.1924 21.1165Z" fill="#4AB3FF"/>
</g>
</g>
<defs>
<clipPath id="clip0_338_22030">
<rect width="50" height="50" fill="white" transform="translate(0.167969)"/>
</clipPath>
<clipPath id="clip1_338_22030">
<rect width="50" height="50" fill="white" transform="translate(0.445312 -0.0742188)"/>
</clipPath>
</defs>
</svg>
