<svg width="36" height="36" viewBox="0 0 36 36" fill="none" xmlns="http://www.w3.org/2000/svg">
<g clip-path="url(#clip0_3946_11301)">
<path d="M22.5387 18.0196L18.0068 22.5514C16.339 24.2193 13.6389 24.2198 11.9707 22.5514C10.3067 20.8872 10.3067 18.1794 11.9707 16.5153L16.4685 12.0176C14.8965 10.7455 12.9808 10.1092 11.065 10.1094C8.62031 10.1094 2.40833 10.1094 0 10.1094V20.6976H2.69499C3.04962 22.1987 3.81191 23.6231 4.98275 24.794C5.51944 25.3307 14.5058 34.317 14.9384 34.7498C15.7835 35.5948 17.181 35.6369 18.0343 34.7574C18.8507 33.9158 18.8434 32.572 18.0114 31.74C19.8513 33.5795 19.4486 33.177 19.5078 33.2361C20.3369 34.0577 21.6815 34.106 22.53 33.3028C23.4083 32.4712 23.4311 31.0772 22.5733 30.2193C24.4578 32.1033 23.9953 31.6409 24.0695 31.715C24.9158 32.5541 26.3082 32.5924 27.1583 31.716C27.9747 30.8745 27.9673 29.5307 27.1353 28.6986C29.1621 30.725 28.4922 30.0554 28.6312 30.1943C29.4604 31.0164 30.8052 31.0648 31.6539 30.2615C32.5368 29.4256 32.5512 28.0321 31.6972 27.178L22.5387 18.0196Z" fill="#4AB3FF"/>
<path d="M16.9375 0.585938H19.0551V4.82123H16.9375V0.585938Z" fill="#4AB3FF"/>
<path d="M10.7109 2.85938L12.5872 1.87679L14.4262 5.38835L12.5499 6.37094L10.7109 2.85938Z" fill="#4AB3FF"/>
<path d="M21.5859 5.39062L23.425 1.87906L25.3012 2.86165L23.4622 6.37321L21.5859 5.39062Z" fill="#4AB3FF"/>
<path d="M24.9326 10.1094C22.731 10.1093 20.5293 10.9491 18.8496 12.6288L13.4658 18.0127C12.626 18.8525 12.626 20.2142 13.4658 21.054C14.3056 21.8939 15.6673 21.8939 16.5071 21.054C17.0822 20.4789 21.9074 15.6536 22.5363 15.0248L31.6263 24.1148C32.4554 23.09 33.014 21.9192 33.3027 20.6976H35.9975V10.1094L24.9326 10.1094Z" fill="#4AB3FF"/>
</g>
<defs>
<clipPath id="clip0_3946_11301">
<rect width="36" height="36" fill="white"/>
</clipPath>
</defs>
</svg>
