<svg width="48" height="49" viewBox="0 0 48 49" fill="none" xmlns="http://www.w3.org/2000/svg">
<path d="M19.5 42.298L22.4459 43.9347C23.0132 44.2498 23.2968 44.4073 23.5971 44.4691C23.8629 44.5238 24.1371 44.5238 24.4029 44.4691C24.7032 44.4073 24.9869 44.2498 25.5541 43.9347L28.5 42.298M10.5 37.298L7.64594 35.7124C7.04691 35.3796 6.74737 35.2132 6.52927 34.9766C6.33632 34.7672 6.19029 34.519 6.10097 34.2487C6 33.9431 6 33.6004 6 32.9151V29.798M6 19.798V16.6809C6 15.9956 6 15.653 6.10097 15.3474C6.19029 15.077 6.33632 14.8289 6.52927 14.6195C6.74737 14.3828 7.0469 14.2164 7.64594 13.8836L10.5 12.298M19.5 7.29802L22.4459 5.66139C23.0132 5.34627 23.2968 5.18871 23.5971 5.12694C23.8629 5.07227 24.1371 5.07227 24.4029 5.12694C24.7032 5.18871 24.9869 5.34627 25.5541 5.66138L28.5 7.29802M37.5 12.298L40.3541 13.8836C40.9531 14.2164 41.2526 14.3828 41.4707 14.6195C41.6637 14.8289 41.8097 15.077 41.899 15.3474C42 15.653 42 15.9956 42 16.6809V19.798M42 29.798V32.9151C42 33.6004 42 33.9431 41.899 34.2487C41.8097 34.519 41.6637 34.7672 41.4707 34.9766C41.2526 35.2132 40.9531 35.3796 40.3541 35.7124L37.5 37.298M19.5 22.298L24 24.798M24 24.798L28.5 22.298M24 24.798V29.798M6 14.798L10.5 17.298M37.5 17.298L42 14.798M24 39.798V44.798" stroke="#4AB3FF" stroke-width="4" stroke-linecap="round" stroke-linejoin="round"/>
</svg>
