<svg width="37" height="37" viewBox="0 0 37 37" fill="none" xmlns="http://www.w3.org/2000/svg">
<rect x="0.5" y="0.878906" width="35.9998" height="36" rx="17.9999" fill="white"/>
<g clip-path="url(#clip0_5015_47464)">
<path d="M24.7477 13.0498C23.5825 12.5046 22.3367 12.1084 21.0342 11.8828C20.8742 12.172 20.6873 12.561 20.5585 12.8705C19.1739 12.6622 17.802 12.6622 16.4429 12.8705C16.314 12.561 16.1229 12.172 15.9615 11.8828C14.6576 12.1084 13.4103 12.5061 12.2451 13.0526C9.89498 16.6041 9.25789 20.0672 9.57644 23.4813C11.1352 24.6453 12.6458 25.3524 14.1309 25.8151C14.4976 25.3105 14.8247 24.774 15.1064 24.2086C14.5698 24.0047 14.0559 23.7531 13.5703 23.461C13.6991 23.3656 13.8251 23.2658 13.9469 23.1631C16.9086 24.5484 20.1267 24.5484 23.0531 23.1631C23.1762 23.2658 23.3022 23.3656 23.4296 23.461C22.9426 23.7546 22.4273 24.0062 21.8907 24.2101C22.1724 24.774 22.4981 25.3119 22.8662 25.8166C24.3527 25.3538 25.8647 24.6468 27.4235 23.4813C27.7973 19.5235 26.785 16.0922 24.7477 13.0498ZM15.5099 21.3817C14.6208 21.3817 13.8917 20.5517 13.8917 19.5409C13.8917 18.5301 14.6052 17.6987 15.5099 17.6987C16.4146 17.6987 17.1437 18.5287 17.1281 19.5409C17.1295 20.5517 16.4146 21.3817 15.5099 21.3817ZM21.4901 21.3817C20.601 21.3817 19.8718 20.5517 19.8718 19.5409C19.8718 18.5301 20.5854 17.6987 21.4901 17.6987C22.3947 17.6987 23.1238 18.5287 23.1083 19.5409C23.1083 20.5517 22.3947 21.3817 21.4901 21.3817Z" fill="#000A1E"/>
</g>
<defs>
<clipPath id="clip0_5015_47464">
<rect width="18" height="18" fill="white" transform="translate(9.5 9.87891)"/>
</clipPath>
</defs>
</svg>
