<svg width="48" height="48" viewBox="0 0 48 48" fill="none" xmlns="http://www.w3.org/2000/svg">
<g clip-path="url(#clip0_3955_12084)">
<path d="M40.9375 35.0469C37.0432 35.0469 33.875 38.2151 33.875 42.1093V47.9277H47.9999V42.1093C47.9999 38.2151 44.8317 35.0469 40.9375 35.0469Z" fill="#4AB3FF"/>
<path d="M7.06247 35.0469C3.16819 35.0469 0 38.2151 0 42.1093V47.9277H14.125V42.1093C14.125 38.2151 10.9567 35.0469 7.06247 35.0469Z" fill="#4AB3FF"/>
<path d="M24 35.0469C20.1057 35.0469 16.9375 38.2151 16.9375 42.1093V47.9277H31.0625V42.1093C31.0624 38.2151 27.8942 35.0469 24 35.0469Z" fill="#4AB3FF"/>
<path d="M22.5938 0.078125H25.4062V4.29688H22.5938V0.078125Z" fill="#4AB3FF"/>
<path d="M15.2422 1.6875L17.9169 0.818438L19.2205 4.83047L16.5458 5.69953L15.2422 1.6875Z" fill="#4AB3FF"/>
<path d="M8.75781 5.48438L11.0331 3.83063L13.5137 7.24359L11.2384 8.89734L8.75781 5.48438Z" fill="#4AB3FF"/>
<path d="M3.75781 11.1094L5.41156 8.83406L8.82453 11.3147L7.17078 13.59L3.75781 11.1094Z" fill="#4AB3FF"/>
<path d="M0.742188 18L1.61125 15.3253L5.62328 16.6289L4.75422 19.3036L0.742188 18Z" fill="#4AB3FF"/>
<path d="M0 22.6719H4.21875V25.4844H0V22.6719Z" fill="#4AB3FF"/>
<path d="M43.7812 22.6719H48V25.4844H43.7812V22.6719Z" fill="#4AB3FF"/>
<path d="M42.375 16.625L46.387 15.3214L47.2561 17.9961L43.2441 19.2997L42.375 16.625Z" fill="#4AB3FF"/>
<path d="M39.1797 11.3125L42.5927 8.83188L44.2464 11.1072L40.8334 13.5878L39.1797 11.3125Z" fill="#4AB3FF"/>
<path d="M34.5 7.25L36.9806 3.83703L39.2559 5.49078L36.7753 8.90375L34.5 7.25Z" fill="#4AB3FF"/>
<path d="M28.7734 4.82812L30.077 0.816094L32.7517 1.68516L31.4481 5.69719L28.7734 4.82812Z" fill="#4AB3FF"/>
<path d="M17.9663 17.408C19.3135 16.0609 19.3135 13.8766 17.9663 12.5295C16.6191 11.1823 14.4349 11.1823 13.0877 12.5295C11.7405 13.8766 11.7405 16.0609 13.0877 17.408C14.4349 18.7552 16.6191 18.7552 17.9663 17.408Z" fill="#4AB3FF"/>
<path d="M33.2567 18.3111C35.1108 17.8729 36.2586 16.0146 35.8203 14.1605C35.382 12.3065 33.5237 11.1588 31.6696 11.5971C29.8155 12.0353 28.6678 13.8936 29.106 15.7477C29.5443 17.6017 31.4026 18.7494 33.2567 18.3111Z" fill="#4AB3FF"/>
<path d="M35.1911 34.0912C34.8596 33.3282 34.6748 32.4875 34.6748 31.604C34.6748 28.6343 36.7531 26.1426 39.5312 25.5024V25.4843C39.5312 21.5901 36.363 18.4219 32.4687 18.4219C28.5744 18.4219 25.4062 21.5901 25.4062 25.4843V25.5024C28.1843 26.1426 30.2628 28.6343 30.2628 31.604C30.2628 32.4876 30.0779 33.3284 29.7463 34.0913C30.8423 34.8781 31.7713 35.8832 32.4688 37.043C33.1662 35.8832 34.0953 34.878 35.1911 34.0912Z" fill="#4AB3FF"/>
<path d="M18.2536 34.0913C17.922 33.3284 17.7372 32.4875 17.7372 31.604C17.7372 28.6343 19.8156 26.1426 22.5937 25.5024V25.4843C22.5937 21.5901 19.4255 18.4219 15.5312 18.4219C11.6369 18.4219 8.46875 21.5901 8.46875 25.4843V25.5024C11.2468 26.1426 13.3252 28.6343 13.3252 31.604C13.3252 32.4875 13.1403 33.3282 12.8088 34.0912C13.9047 34.878 14.8337 35.8832 15.5312 37.043C16.2286 35.8832 17.1578 34.8781 18.2536 34.0913Z" fill="#4AB3FF"/>
<path d="M24.5407 35.0086C26.4215 34.7037 27.699 32.932 27.3941 31.0512C27.0893 29.1705 25.3174 27.8931 23.4367 28.198C21.5559 28.5028 20.2784 30.2746 20.5833 32.1553C20.8882 34.0361 22.66 35.3135 24.5407 35.0086Z" fill="#4AB3FF"/>
<path d="M7.85827 34.9518C9.71236 34.5135 10.8601 32.6552 10.4219 30.8012C9.98359 28.9471 8.12527 27.7994 6.27119 28.2377C4.4171 28.676 3.26934 30.5342 3.70761 32.3883C4.14587 34.2423 6.00418 35.39 7.85827 34.9518Z" fill="#4AB3FF"/>
<path d="M43.3725 34.0487C44.7197 32.7015 44.7197 30.5173 43.3725 29.1701C42.0254 27.8229 39.8411 27.8229 38.494 29.1701C37.1468 30.5173 37.1468 32.7015 38.494 34.0487C39.8411 35.3958 42.0254 35.3958 43.3725 34.0487Z" fill="#4AB3FF"/>
</g>
<defs>
<clipPath id="clip0_3955_12084">
<rect width="48" height="48" fill="white"/>
</clipPath>
</defs>
</svg>
