<svg width="51" height="50" viewBox="0 0 51 50" fill="none" xmlns="http://www.w3.org/2000/svg">
<g clip-path="url(#clip0_338_21964)">
<path d="M42.8454 7.32246C38.1235 2.60039 31.8455 0 25.1677 0C18.4898 0 12.212 2.60049 7.49023 7.32246C2.76846 12.0443 0.167969 18.3224 0.167969 25.0002C0.167969 31.678 2.76836 37.956 7.49023 42.6778C12.212 47.3996 18.4899 50 25.1677 50C31.8454 50 38.1234 47.3996 42.8454 42.6777C47.5674 37.956 50.1678 31.6779 50.1678 25.0001C50.1678 18.3223 47.5674 12.0443 42.8454 7.32246ZM44.1197 17.4491C43.2091 17.5191 42.4958 17.2548 41.5926 16.92C40.9725 16.6902 40.2695 16.4297 39.4454 16.2659C37.2245 15.8246 34.9465 17.0354 33.6417 19.3506C33.2617 20.0248 31.4446 23.4962 32.9908 25.626C33.5705 26.4244 34.3461 26.8894 34.9694 27.2628C35.8058 27.7641 36.6704 28.2823 37.6501 28.6776C37.8587 28.7618 38.0652 28.8381 38.2648 28.9117C38.859 29.1311 39.4734 29.3579 39.6932 29.6588C39.8163 29.8273 39.9448 30.207 39.8572 31.0577C39.7985 31.6268 39.5708 32.2478 39.3297 32.9052C38.7357 34.5249 37.9222 36.7435 39.8285 38.9216C40.1697 39.3113 40.5548 39.6414 40.9728 39.9101C37.0064 44.1121 31.3884 46.7392 25.1677 46.7392C13.1808 46.7392 3.42881 36.987 3.42881 25.0002C3.42881 22.6905 3.79219 20.4644 4.4625 18.3744C4.81055 18.8725 5.20352 19.3152 5.58047 19.712C6.78623 20.9814 8.11914 22.1417 9.54814 23.1647C9.6541 23.2406 9.80498 23.3486 9.88359 23.4193C9.9373 23.6595 9.91572 24.0053 9.89141 24.3991C9.83965 25.2338 9.76865 26.3769 10.399 27.5797C10.8097 28.3633 11.3846 28.9664 11.8918 29.4986C12.3857 30.0169 12.8123 30.4644 12.9315 30.8984C13.0165 31.2078 12.9804 31.663 12.942 32.145C12.8893 32.8089 12.8294 33.5615 13.0209 34.3712C13.2783 35.4594 13.8927 36.2657 14.4347 36.9771C14.7764 37.4256 15.0991 37.8493 15.2392 38.2372C15.3471 38.5365 15.3907 38.94 15.4367 39.3672C15.4829 39.7954 15.5354 40.2808 15.6633 40.7806C16.0467 42.2782 17.2897 43.7153 18.9671 43.7152C19.0564 43.7152 19.1474 43.7111 19.2392 43.7027C20.9761 43.544 22.1687 41.9921 22.3516 39.6522C22.3812 39.2735 22.4591 38.2752 22.6522 38.055C22.712 38.0312 22.8576 37.9955 22.9656 37.9691C23.4251 37.8566 24.1193 37.6865 24.693 37.099C25.7495 36.017 25.4582 34.6604 25.2841 33.85C25.2317 33.606 25.1723 33.3292 25.1757 33.185C25.185 32.7987 25.9761 32.123 26.2739 31.8687L29.254 29.3231C30.4143 28.342 30.8482 26.6353 30.334 25.0764C29.9668 23.9635 29.1541 22.9628 27.9835 22.1823C26.5393 21.2197 24.9778 20.9729 23.7002 21.5053C23.2657 21.6862 22.9145 21.9345 22.6321 22.134C22.5467 22.1944 22.4341 22.274 22.3425 22.3321C22.3004 22.2853 22.2519 22.2204 22.2068 22.1378C22.0994 21.9407 22.0029 21.6849 21.9007 21.414C21.7661 21.0575 21.6136 20.6534 21.3879 20.2467C20.1802 18.0704 18.2073 17.829 16.7669 17.6528C16.5207 17.6228 16.2881 17.5942 16.0562 17.5584C14.8436 17.3708 13.61 16.8384 12.663 16.1058C13.0101 15.981 13.4343 15.8848 13.6626 15.8937C13.8278 15.8991 14.0215 15.9212 14.2268 15.9445C14.8149 16.0116 15.5467 16.0949 16.3354 15.8738C17.1315 15.6507 17.7186 15.1922 18.1901 14.8238C18.3247 14.7188 18.4518 14.6194 18.5689 14.5372C18.7896 14.3823 19.219 14.3465 19.6736 14.3085C20.8058 14.214 23.1615 14.0174 23.495 10.7417C23.6601 9.121 23.0681 7.67002 22.5924 6.5041C22.1968 5.53418 21.8129 4.57148 21.4779 3.57529C22.6776 3.36963 23.9102 3.26094 25.1679 3.26094C27.8665 3.26094 30.4512 3.75674 32.8376 4.65938C32.7661 4.72969 32.6944 4.7999 32.623 4.86992C31.8983 5.58066 31.1489 6.31572 30.6332 6.9834C30.4151 7.26572 30.0503 7.73809 29.9427 8.41836C29.7604 9.57246 30.4505 10.4591 30.7452 10.8376C31.1831 11.4004 31.9163 12.3424 33.1273 12.6444C33.3979 12.7118 33.659 12.7407 33.9096 12.7407C34.8221 12.7407 35.5982 12.3586 36.2 12.0622C36.5465 11.8916 36.9048 11.7151 37.1189 11.6979C37.3228 11.6813 37.6828 11.7999 38.0315 11.9142C38.5407 12.0812 39.1178 12.2702 39.7976 12.2949C40.6918 12.327 41.4849 12.003 42.1072 11.3914C43.5509 13.1848 44.7161 15.2108 45.5368 17.4042C45.4206 17.4072 45.3022 17.4089 45.1966 17.4102C44.8767 17.4143 44.5145 17.4188 44.1197 17.4491Z" fill="#0094FF"/>
</g>
<defs>
<clipPath id="clip0_338_21964">
<rect width="50" height="50" fill="white" transform="translate(0.167969)"/>
</clipPath>
</defs>
</svg>
