<svg width="45" height="46" viewBox="0 0 45 46" fill="none" xmlns="http://www.w3.org/2000/svg">
<g id="Button container" clip-path="url(#clip0_298_20817)">
<g id="Button container_2">
<g id="Button">
<path id="Vector" d="M42.5288 20.6147L34.605 11.9057C33.8875 11.1946 32.6685 11.1925 31.915 11.9417C31.5383 12.3184 31.3393 12.8009 31.3393 13.3152C31.3393 13.8295 31.5404 14.3141 31.9044 14.6782L31.9953 14.7692C32.408 15.1819 32.408 15.8528 31.9953 16.2655C31.5911 16.6718 30.935 16.6803 30.5202 16.2866C30.5202 16.2866 30.5202 16.2845 30.5182 16.2845H30.5161C30.5161 16.2845 30.5161 16.2845 30.514 16.2825L30.5119 16.2804C30.5119 16.2804 30.514 16.2804 30.5098 16.2783L28.2897 14.0581C27.5405 13.3089 26.3151 13.3089 25.5659 14.0581C24.8019 14.8221 24.8019 16.0434 25.5532 16.7947L27.7606 19.0021C27.9681 19.2095 28.0696 19.4804 28.0696 19.7513C28.0696 20.0222 27.966 20.2931 27.7606 20.5005C27.3479 20.9132 26.677 20.9132 26.2643 20.5005L21.9405 16.1746C21.1913 15.4254 19.9659 15.4254 19.2167 16.1746C18.4527 16.9386 18.4527 18.1598 19.204 18.9111L23.5278 23.2349C23.7352 23.4424 23.8368 23.7132 23.8368 23.9841C23.8368 24.2551 23.7331 24.5259 23.5278 24.7333C23.1151 25.146 22.4441 25.146 22.0314 24.7333L11.4452 14.1449C11.0686 13.7682 10.5754 13.5798 10.0822 13.5798C9.58909 13.5798 9.09603 13.7682 8.71925 14.1428C7.95734 14.9068 7.95734 16.1301 8.70863 16.8814L24.588 32.7607C24.8694 33.0422 24.969 33.4591 24.8462 33.8358C24.7213 34.2147 24.3975 34.4919 24.0039 34.5533L13.3901 36.221C12.1012 36.4052 11.1404 37.512 11.1404 38.7988C11.1404 39.383 11.6145 39.8571 12.1986 39.8571H32.1542C34.6981 39.8571 37.0896 38.8666 38.8886 37.0677L42.2177 33.7386C44.0145 31.9417 45.0029 29.5544 45.0029 27.0147C45.0029 24.6422 44.1224 22.3692 42.5288 20.6147Z" fill="#4AB3FF"/>
</g>
</g>
<g id="Switch container">
<g id="Switch">
<path id="Vector_2" d="M18.7482 11.61C17.2076 8.20047 13.8044 5.99512 10.0795 5.99512C4.82868 5.99512 0.555664 10.2681 0.555664 15.5189C0.555664 19.2438 2.76092 22.647 6.17045 24.1899C6.31221 24.2534 6.46043 24.283 6.60646 24.283C7.00854 24.283 7.39376 24.0502 7.57154 23.6608C7.81072 23.1275 7.57362 22.501 7.04247 22.2597C4.3885 21.0597 2.67213 18.4142 2.67213 15.5189C2.67213 11.4343 5.99485 8.11149 10.0796 8.11149C12.9748 8.11149 15.6203 9.82786 16.8203 12.4818C17.0595 13.0152 17.6881 13.2543 18.2193 13.0109C18.7525 12.7697 18.9895 12.1433 18.7482 11.61Z" fill="#4AB3FF"/>
</g>
</g>
</g>
<defs>
<clipPath id="clip0_298_20817">
<rect width="44.4444" height="44.4444" fill="white" transform="translate(0.555664 0.703125)"/>
</clipPath>
</defs>
</svg>
