<svg width="50" height="50" viewBox="0 0 50 50" fill="none" xmlns="http://www.w3.org/2000/svg">
<g clip-path="url(#clip0_3028_25660)">
<path d="M45.0268 22.6137L37.103 13.9047C36.3855 13.1936 35.1665 13.1915 34.413 13.9407C34.0363 14.3174 33.8373 14.7999 33.8373 15.3142C33.8373 15.8285 34.0384 16.3131 34.4024 16.6772L34.4934 16.7682C34.9061 17.1809 34.9061 17.8518 34.4934 18.2645C34.0891 18.6709 33.4331 18.6793 33.0183 18.2856C33.0183 18.2856 33.0183 18.2836 33.0162 18.2836H33.0141C33.0141 18.2836 33.0141 18.2836 33.012 18.2815L33.01 18.2794C33.01 18.2794 33.012 18.2794 33.0079 18.2773L30.7877 16.0572C30.0385 15.308 28.8131 15.308 28.0639 16.0572C27.2999 16.8212 27.2999 18.0424 28.0512 18.7937L30.2587 21.0011C30.4661 21.2086 30.5677 21.4794 30.5677 21.7503C30.5677 22.0213 30.464 22.2921 30.2587 22.4995C29.846 22.9122 29.175 22.9122 28.7623 22.4995L24.4385 18.1736C23.6893 17.4244 22.4639 17.4244 21.7147 18.1736C20.9507 18.9376 20.9507 20.1589 21.702 20.9101L26.0258 25.234C26.2333 25.4414 26.3349 25.7122 26.3349 25.9832C26.3349 26.2541 26.2312 26.5249 26.0258 26.7324C25.6131 27.1451 24.9422 27.1451 24.5295 26.7324L13.9433 16.1439C13.5666 15.7672 13.0734 15.5788 12.5803 15.5788C12.0871 15.5788 11.5941 15.7672 11.2173 16.1418C10.4554 16.9058 10.4554 18.1291 11.2067 18.8804L27.086 34.7598C27.3675 35.0412 27.467 35.4582 27.3443 35.8349C27.2194 36.2137 26.8956 36.4909 26.5019 36.5523L15.8881 38.2201C14.5992 38.4042 13.6384 39.511 13.6384 40.7978C13.6384 41.382 14.1125 41.8561 14.6967 41.8561H34.6522C37.1962 41.8561 39.5876 40.8656 41.3866 39.0667L44.7157 35.7376C46.5125 33.9407 47.5009 31.5534 47.5009 29.0137C47.5009 26.6412 46.6205 24.3682 45.0268 22.6137Z" fill="#4AB3FF"/>
<path d="M21.2472 13.611C19.7066 10.2015 16.3034 7.99609 12.5785 7.99609C7.3277 7.99609 3.05469 12.2691 3.05469 17.5199C3.05469 21.2448 5.25995 24.648 8.66947 26.1908C8.81124 26.2543 8.95945 26.284 9.10548 26.284C9.50757 26.284 9.89278 26.0512 10.0706 25.6618C10.3097 25.1284 10.0726 24.5019 9.54149 24.2607C6.88753 23.0607 5.17116 20.4151 5.17116 17.5199C5.17116 13.4353 8.49388 10.1125 12.5786 10.1125C15.4738 10.1125 18.1194 11.8288 19.3194 14.4828C19.5586 15.0161 20.1871 15.2553 20.7183 15.0119C21.2515 14.7707 21.4885 14.1443 21.2472 13.611Z" fill="#4AB3FF"/>
</g>
<defs>
<clipPath id="clip0_3028_25660">
<rect width="44.4444" height="44.4444" fill="white" transform="translate(3.05469 2.70312)"/>
</clipPath>
</defs>
</svg>
