<svg width="50" height="50" viewBox="0 0 50 50" fill="none" xmlns="http://www.w3.org/2000/svg">
<path d="M34.5012 6.32823C33.3354 4.88488 31.7811 3.99667 30.0046 3.88564C17.6807 2.94191 12.4069 11.4355 12.1848 11.8241C12.0738 12.0461 12.0738 12.3237 12.1848 12.5457C12.2959 12.7678 12.5734 12.8788 12.851 12.8788C18.902 12.4902 22.0107 14.5442 24.5088 16.2096C25.6191 16.9313 26.6183 17.5975 27.7286 17.9305C28.2837 18.0971 28.8389 18.2081 29.394 18.2081C30.4487 18.2081 31.5035 17.875 32.5027 17.2644C32.7803 17.0978 33.0024 16.9313 33.2799 16.7092L31.9476 15.9876L22.3438 10.3807C27.0624 10.5473 30.7818 11.9351 33.502 14.4887C33.8351 14.8218 34.1681 15.1549 34.5012 15.5435C35.3339 16.4872 36.0001 17.5419 36.6107 18.7077C36.8883 19.2629 37.1659 19.8735 37.3879 20.4842C37.499 20.7617 37.7765 20.9283 38.0541 20.9283C38.1651 20.9283 38.2206 20.9283 38.3317 20.8727C38.7202 20.7062 38.8868 20.3176 38.7202 19.929C37.8875 17.7085 36.7218 15.821 35.2784 14.2667C35.6115 13.545 35.8891 12.8233 36.0001 12.0461C36.3332 10.0476 35.778 7.93812 34.5012 6.32823Z" fill="#4AB3FF"/>
<path d="M45.1605 23.1503C45.0495 22.9283 44.8275 22.7617 44.4944 22.7617C44.2168 22.7617 43.9948 22.9283 43.8837 23.1503C41.2191 28.5906 37.8883 30.256 35.2236 31.5884C34.0579 32.199 32.9476 32.7541 32.1149 33.5313C30.8936 34.6416 30.2274 36.2515 30.2829 38.0279C30.2829 38.361 30.3385 38.6386 30.394 38.9716L31.7263 38.1944L41.3856 32.6986C38.832 36.6956 35.8343 39.1937 32.2814 40.304C31.8373 40.415 31.3377 40.5815 30.8936 40.637C29.6723 40.8591 28.3955 40.9701 27.0632 40.8591C26.4525 40.8036 25.7864 40.7481 25.1757 40.637C24.7871 40.5815 24.3985 40.8591 24.343 41.2477C24.2875 41.6363 24.5651 42.0249 24.9537 42.0804C26.0084 42.2469 27.0077 42.3024 28.0069 42.3024C29.2282 42.3024 30.4495 42.1914 31.5598 41.9138C32.0039 42.58 32.5035 43.1907 33.1141 43.6348C34.4464 44.6895 36.0563 45.3002 37.7773 45.3002C38.1103 45.3002 38.4989 45.2447 38.832 45.2447C39.7757 45.1336 40.6084 44.8005 41.3301 44.3564C42.0518 43.9123 42.7179 43.3017 43.2176 42.58C50.1012 32.31 45.3826 23.4834 45.1605 23.1503Z" fill="#4AB3FF"/>
<path d="M7.18582 25.3149C5.29836 26.0365 3.74398 27.5354 2.9668 29.4784C2.30064 31.1993 2.35615 33.0312 3.07782 34.5856C8.46262 45.6883 18.455 46.0214 18.8991 46.0214C19.1767 46.0214 19.3988 45.9103 19.5098 45.6328C19.6208 45.4107 19.6208 45.1331 19.4543 44.9111C16.068 39.8594 16.29 36.14 16.5121 33.1422C16.5676 31.8654 16.6786 30.5886 16.401 29.4784C16.068 27.8685 15.0132 26.4806 13.4588 25.6479C13.1813 25.4814 12.9037 25.3704 12.6261 25.2593V26.8137L12.5706 37.9164C10.3501 33.7529 9.68392 29.867 10.5721 26.2586C10.6832 25.8145 10.7942 25.3149 10.9607 24.8707C11.3493 23.705 11.9045 22.5947 12.6816 21.4289C13.0147 20.9293 13.4033 20.3742 13.7919 19.8745C14.014 19.5415 14.014 19.0974 13.6809 18.8753C13.3478 18.6532 12.9037 18.7088 12.6816 18.9863C11.1828 20.8183 10.128 22.7612 9.51738 24.7597C8.68468 24.8707 7.90749 25.0373 7.18582 25.3149Z" fill="#4AB3FF"/>
</svg>
