<svg width="51" height="50" viewBox="0 0 51 50" fill="none" xmlns="http://www.w3.org/2000/svg">
<g id="Switch container">
<g id="Switch">
<path id="Vector" d="M35 6.33018C33.8342 4.88684 32.2798 3.99862 30.5034 3.88759C18.1794 2.94387 12.9057 11.4374 12.6836 11.826C12.5726 12.0481 12.5726 12.3256 12.6836 12.5477C12.7946 12.7697 13.0722 12.8808 13.3498 12.8808C19.4007 12.4922 22.5095 14.5462 25.0076 16.2116C26.1179 16.9332 27.1171 17.5994 28.2274 17.9325C28.7825 18.099 29.3376 18.2101 29.8928 18.2101C30.9475 18.2101 32.0023 17.877 33.0015 17.2663C33.2791 17.0998 33.5011 16.9332 33.7787 16.7112L32.4464 15.9895L22.8426 10.3827C27.5612 10.5492 31.2806 11.937 34.0008 14.4907C34.3338 14.8237 34.6669 15.1568 35 15.5454C35.8327 16.4891 36.4989 17.5439 37.1095 18.7097C37.3871 19.2648 37.6647 19.8755 37.8867 20.4861C37.9977 20.7637 38.2753 20.9302 38.5529 20.9302C38.6639 20.9302 38.7194 20.9302 38.8304 20.8747C39.219 20.7082 39.3856 20.3196 39.219 19.931C38.3863 17.7104 37.2205 15.823 35.7772 14.2686C36.1103 13.5469 36.3878 12.8253 36.4989 12.0481C36.8319 10.0496 36.2768 7.94007 35 6.33018Z" fill="#4AB3FF"/>
<path id="Vector_2" d="M45.6601 23.1503C45.549 22.9283 45.327 22.7617 44.9939 22.7617C44.7163 22.7617 44.4943 22.9283 44.3832 23.1503C41.7186 28.5906 38.3878 30.256 35.7232 31.5884C34.5574 32.199 33.4471 32.7541 32.6144 33.5313C31.3931 34.6416 30.7269 36.2515 30.7825 38.0279C30.7825 38.361 30.838 38.6386 30.8935 38.9716L32.2258 38.1944L41.8851 32.6986C39.3315 36.6956 36.3338 39.1937 32.7809 40.304C32.3368 40.415 31.8372 40.5815 31.3931 40.637C30.1718 40.8591 28.895 40.9701 27.5627 40.8591C26.952 40.8036 26.2859 40.7481 25.6752 40.637C25.2866 40.5815 24.898 40.8591 24.8425 41.2477C24.787 41.6363 25.0646 42.0249 25.4532 42.0804C26.5079 42.2469 27.5072 42.3024 28.5064 42.3024C29.7277 42.3024 30.949 42.1914 32.0593 41.9138C32.5034 42.58 33.003 43.1907 33.6136 43.6348C34.946 44.6895 36.5559 45.3002 38.2768 45.3002C38.6098 45.3002 38.9984 45.2447 39.3315 45.2447C40.2752 45.1336 41.108 44.8005 41.8296 44.3564C42.5513 43.9123 43.2175 43.3017 43.7171 42.58C50.6007 32.31 45.8821 23.4834 45.6601 23.1503Z" fill="#4AB3FF"/>
<path id="Vector_3" d="M7.68533 25.3158C5.79787 26.0375 4.2435 27.5364 3.46631 29.4793C2.80015 31.2003 2.85566 33.0322 3.57734 34.5866C8.96214 45.6893 18.9545 46.0223 19.3987 46.0223C19.6762 46.0223 19.8983 45.9113 20.0093 45.6337C20.1203 45.4117 20.1203 45.1341 19.9538 44.9121C16.5675 39.8603 16.7895 36.1409 17.0116 33.1432C17.0671 31.8664 17.1781 30.5896 16.9006 29.4793C16.5675 27.8694 15.5127 26.4816 13.9583 25.6489C13.6808 25.4824 13.4032 25.3713 13.1256 25.2603V26.8147L13.0701 37.9174C10.8496 33.7539 10.1834 29.8679 11.0716 26.2596C11.1827 25.8155 11.2937 25.3158 11.4602 24.8717C11.8488 23.7059 12.404 22.5957 13.1812 21.4299C13.5142 20.9303 13.9028 20.3751 14.2914 19.8755C14.5135 19.5424 14.5135 19.0983 14.1804 18.8763C13.8473 18.6542 13.4032 18.7097 13.1812 18.9873C11.6823 20.8192 10.6275 22.7622 10.0169 24.7607C9.18419 24.8717 8.407 25.0383 7.68533 25.3158Z" fill="#4AB3FF"/>
</g>
</g>
</svg>
