<svg width="43" height="43" viewBox="0 0 43 43" fill="none" xmlns="http://www.w3.org/2000/svg">
<g id="connection 1" clip-path="url(#clip0_298_20552)">
<g id="Group">
<g id="Vector">
<mask id="path-1-inside-1_298_20552" fill="white">
<path d="M14.204 27.1143L7.17036 34.1479C6.51328 33.7789 5.75641 33.5676 4.95073 33.5676C2.44222 33.5675 0.401367 35.6083 0.401367 38.1168C0.401367 40.6253 2.44222 42.6661 4.95073 42.6661C7.45924 42.6661 9.50001 40.6253 9.50001 38.1168C9.50001 37.3111 9.28857 36.5542 8.9197 35.8971L15.9533 28.8635C15.2948 28.3615 14.7061 27.7727 14.204 27.1143Z"/>
</mask>
<path d="M14.204 27.1143L7.17036 34.1479C6.51328 33.7789 5.75641 33.5676 4.95073 33.5676C2.44222 33.5675 0.401367 35.6083 0.401367 38.1168C0.401367 40.6253 2.44222 42.6661 4.95073 42.6661C7.45924 42.6661 9.50001 40.6253 9.50001 38.1168C9.50001 37.3111 9.28857 36.5542 8.9197 35.8971L15.9533 28.8635C15.2948 28.3615 14.7061 27.7727 14.204 27.1143Z" fill="#4AB3FF"/>
<path d="M14.204 27.1143L24.1438 19.5346L15.4746 8.16601L5.36516 18.2754L14.204 27.1143ZM7.17036 34.1479L1.05041 45.0473L9.3106 49.6853L16.0092 42.9867L7.17036 34.1479ZM4.95073 33.5676L4.95032 46.0676H4.95073V33.5676ZM8.9197 35.8971L0.0808665 27.0583L-6.61707 33.7562L-1.98025 42.016L8.9197 35.8971ZM15.9533 28.8635L24.7922 37.7023L34.9024 27.5921L23.5322 18.9231L15.9533 28.8635ZM5.36516 18.2754L-1.66847 25.3091L16.0092 42.9867L23.0428 35.9531L5.36516 18.2754ZM13.2903 23.2485C10.8269 21.8653 7.97065 21.0676 4.95073 21.0676V46.0676C3.54218 46.0676 2.19965 45.6925 1.05041 45.0473L13.2903 23.2485ZM4.95114 21.0676C-4.46104 21.0673 -12.0986 28.7045 -12.0986 38.1168H12.9014C12.9014 42.512 9.34547 46.0677 4.95032 46.0676L4.95114 21.0676ZM-12.0986 38.1168C-12.0986 47.5288 -4.46134 55.1661 4.95073 55.1661V30.1661C9.34577 30.1661 12.9014 33.7217 12.9014 38.1168H-12.0986ZM4.95073 55.1661C14.3631 55.1661 22 47.5286 22 38.1168H-2.99999C-2.99999 33.722 0.555389 30.1661 4.95073 30.1661V55.1661ZM22 38.1168C22 35.096 21.2018 32.2402 19.8197 29.7782L-1.98025 42.016C-2.62462 40.8682 -2.99999 39.5262 -2.99999 38.1168H22ZM17.7585 44.736L24.7922 37.7023L7.11449 20.0247L0.0808665 27.0583L17.7585 44.736ZM23.5322 18.9231C23.763 19.0991 23.9683 19.3045 24.1438 19.5346L4.26421 34.6939C5.44399 36.241 6.8267 37.6238 8.37449 38.8039L23.5322 18.9231Z" fill="#4AB3FF" mask="url(#path-1-inside-1_298_20552)"/>
</g>
<g id="Vector_2">
<mask id="path-3-inside-2_298_20552" fill="white">
<path d="M28.8265 15.9962L35.8601 8.96259C36.5172 9.33154 37.2741 9.5429 38.0798 9.5429C40.5883 9.5429 42.6291 7.50213 42.6291 4.99362C42.6291 2.4851 40.5883 0.444336 38.0798 0.444336C35.5712 0.444336 33.5305 2.48519 33.5305 4.9937C33.5305 5.79938 33.7419 6.55625 34.1108 7.21333L27.0771 14.247C27.7356 14.749 28.3244 15.3377 28.8265 15.9962Z"/>
</mask>
<path d="M28.8265 15.9962L35.8601 8.96259C36.5172 9.33154 37.2741 9.5429 38.0798 9.5429C40.5883 9.5429 42.6291 7.50213 42.6291 4.99362C42.6291 2.4851 40.5883 0.444336 38.0798 0.444336C35.5712 0.444336 33.5305 2.48519 33.5305 4.9937C33.5305 5.79938 33.7419 6.55625 34.1108 7.21333L27.0771 14.247C27.7356 14.749 28.3244 15.3377 28.8265 15.9962Z" fill="#4AB3FF"/>
<path d="M28.8265 15.9962L18.8861 23.5751L27.5551 34.9453L37.6653 24.835L28.8265 15.9962ZM35.8601 8.96259L41.9801 -1.93678L33.7199 -6.57484L27.0213 0.123753L35.8601 8.96259ZM34.1108 7.21333L42.9496 16.0522L49.6475 9.35424L45.0107 1.09442L34.1108 7.21333ZM27.0771 14.247L18.2383 5.40813L8.1287 15.5177L19.4977 24.1869L27.0771 14.247ZM37.6653 24.835L44.6989 17.8014L27.0213 0.123753L19.9877 7.15738L37.6653 24.835ZM29.7402 19.862C32.2036 21.2451 35.0598 22.0429 38.0798 22.0429V-2.9571C39.4883 -2.9571 40.8308 -2.58207 41.9801 -1.93678L29.7402 19.862ZM38.0798 22.0429C47.4915 22.0429 55.1291 14.406 55.1291 4.99362H30.1291C30.1291 0.598275 33.685 -2.9571 38.0798 -2.9571V22.0429ZM55.1291 4.99362C55.1291 -4.41875 47.4915 -12.0557 38.0798 -12.0557V12.9443C33.685 12.9443 30.1291 9.38896 30.1291 4.99362H55.1291ZM38.0798 -12.0557C28.6674 -12.0557 21.0305 -4.41808 21.0305 4.9937H46.0305C46.0305 9.38846 42.4751 12.9443 38.0798 12.9443V-12.0557ZM21.0305 4.9937C21.0305 8.01449 21.8287 10.8702 23.2108 13.3322L45.0107 1.09442C45.6551 2.24226 46.0305 3.58428 46.0305 4.9937H21.0305ZM25.2719 -1.6255L18.2383 5.40813L35.916 23.0858L42.9496 16.0522L25.2719 -1.6255ZM19.4977 24.1869C19.2682 24.0119 19.0628 23.8068 18.8861 23.5751L38.7669 8.41738C37.5861 6.86871 36.2029 5.48614 34.6566 4.30704L19.4977 24.1869Z" fill="#4AB3FF" mask="url(#path-3-inside-2_298_20552)"/>
</g>
<g id="Vector_3">
<mask id="path-5-inside-3_298_20552" fill="white">
<path d="M4.95073 26.1046C7.03042 26.1046 8.78734 24.7013 9.32766 22.7922H12.4094C12.3547 22.3875 12.3258 21.9747 12.3258 21.5552C12.3258 21.1357 12.3547 20.723 12.4094 20.3182H9.32766C8.78734 18.4092 7.03042 17.0059 4.95073 17.0059C2.44222 17.0059 0.401367 19.0467 0.401367 21.5552C0.401367 24.0637 2.44222 26.1046 4.95073 26.1046Z"/>
</mask>
<path d="M4.95073 26.1046C7.03042 26.1046 8.78734 24.7013 9.32766 22.7922H12.4094C12.3547 22.3875 12.3258 21.9747 12.3258 21.5552C12.3258 21.1357 12.3547 20.723 12.4094 20.3182H9.32766C8.78734 18.4092 7.03042 17.0059 4.95073 17.0059C2.44222 17.0059 0.401367 19.0467 0.401367 21.5552C0.401367 24.0637 2.44222 26.1046 4.95073 26.1046Z" fill="#4AB3FF"/>
<path d="M9.32766 22.7922V10.2922H-0.125543L-2.6999 19.3881L9.32766 22.7922ZM12.4094 22.7922V35.2922H26.7115L24.7969 21.1188L12.4094 22.7922ZM12.4094 20.3182L24.7969 21.9916L26.7115 7.81824H12.4094V20.3182ZM9.32766 20.3182L-2.6999 23.7223L-0.125543 32.8182H9.32766V20.3182ZM4.95073 38.6046C12.7878 38.6046 19.3373 33.3262 21.3552 26.1963L-2.6999 19.3881C-1.76258 16.0763 1.27303 13.6046 4.95073 13.6046V38.6046ZM9.32766 35.2922H12.4094V10.2922H9.32766V35.2922ZM24.7969 21.1188C24.8151 21.2539 24.8258 21.4002 24.8258 21.5552H-0.174151C-0.174151 22.5492 -0.105693 23.521 0.0218992 24.4656L24.7969 21.1188ZM24.8258 21.5552C24.8258 21.7102 24.8151 21.8566 24.7969 21.9916L0.0218992 18.6449C-0.105693 19.5894 -0.174151 20.5612 -0.174151 21.5552H24.8258ZM12.4094 7.81824H9.32766V32.8182H12.4094V7.81824ZM21.3552 16.9142C19.3373 9.78422 12.7878 4.50586 4.95073 4.50586V29.5059C1.27302 29.5059 -1.76258 27.0341 -2.6999 23.7223L21.3552 16.9142ZM4.95073 4.50586C-4.46134 4.50586 -12.0986 12.1432 -12.0986 21.5552H12.9014C12.9014 25.9503 9.34578 29.5059 4.95073 29.5059V4.50586ZM-12.0986 21.5552C-12.0986 30.9673 -4.46134 38.6046 4.95073 38.6046V13.6046C9.34577 13.6046 12.9014 17.1602 12.9014 21.5552H-12.0986Z" fill="#4AB3FF" mask="url(#path-5-inside-3_298_20552)"/>
</g>
<g id="Vector_4">
<mask id="path-7-inside-4_298_20552" fill="white">
<path d="M38.0767 17.0059C35.997 17.0059 34.2401 18.4092 33.6998 20.3182H30.6182C30.6728 20.723 30.7017 21.1357 30.7017 21.5552C30.7017 21.9747 30.6728 22.3875 30.6182 22.7922H33.6998C34.2401 24.7013 35.997 26.1046 38.0767 26.1046C40.5852 26.1046 42.6261 24.0637 42.6261 21.5552C42.6261 19.0467 40.5852 17.0059 38.0767 17.0059Z"/>
</mask>
<path d="M38.0767 17.0059C35.997 17.0059 34.2401 18.4092 33.6998 20.3182H30.6182C30.6728 20.723 30.7017 21.1357 30.7017 21.5552C30.7017 21.9747 30.6728 22.3875 30.6182 22.7922H33.6998C34.2401 24.7013 35.997 26.1046 38.0767 26.1046C40.5852 26.1046 42.6261 24.0637 42.6261 21.5552C42.6261 19.0467 40.5852 17.0059 38.0767 17.0059Z" fill="#4AB3FF"/>
<path d="M33.6998 20.3182V32.8182H43.153L45.7274 23.7223L33.6998 20.3182ZM30.6182 20.3182V7.81824H16.3161L18.2307 21.9916L30.6182 20.3182ZM30.6182 22.7922L18.2307 21.1188L16.3161 35.2922H30.6182V22.7922ZM33.6998 22.7922L45.7274 19.3881L43.153 10.2922H33.6998V22.7922ZM38.0767 4.50586C30.2396 4.50586 23.6902 9.78421 21.6722 16.9142L45.7274 23.7223C44.79 27.0341 41.7544 29.5059 38.0767 29.5059V4.50586ZM33.6998 7.81824H30.6182V32.8182H33.6998V7.81824ZM18.2307 21.9916C18.2124 21.8566 18.2017 21.7102 18.2017 21.5552H43.2017C43.2017 20.5612 43.1332 19.5894 43.0056 18.6449L18.2307 21.9916ZM18.2017 21.5552C18.2017 21.4002 18.2124 21.2539 18.2307 21.1188L43.0056 24.4656C43.1332 23.521 43.2017 22.5492 43.2017 21.5552H18.2017ZM30.6182 35.2922H33.6998V10.2922H30.6182V35.2922ZM21.6722 26.1963C23.6902 33.3262 30.2397 38.6046 38.0767 38.6046V13.6046C41.7544 13.6046 44.79 16.0763 45.7274 19.3881L21.6722 26.1963ZM38.0767 38.6046C47.4888 38.6046 55.1261 30.9673 55.1261 21.5552H30.1261C30.1261 17.1602 33.6817 13.6046 38.0767 13.6046V38.6046ZM55.1261 21.5552C55.1261 12.1432 47.4888 4.50586 38.0767 4.50586V29.5059C33.6817 29.5059 30.1261 25.9503 30.1261 21.5552H55.1261Z" fill="#4AB3FF" mask="url(#path-7-inside-4_298_20552)"/>
</g>
<g id="Vector_5">
<mask id="path-9-inside-5_298_20552" fill="white">
<path d="M20.2763 9.37063V12.4524C20.681 12.3977 21.0937 12.3688 21.5132 12.3688C21.9327 12.3688 22.3455 12.3977 22.7502 12.4524V9.37063C24.6593 8.83031 26.0626 7.07339 26.0626 4.9937C26.0626 2.48519 24.0217 0.444336 21.5132 0.444336C19.0047 0.444336 16.9639 2.48519 16.9639 4.9937C16.9639 7.07339 18.3672 8.83031 20.2763 9.37063Z"/>
</mask>
<path d="M20.2763 9.37063V12.4524C20.681 12.3977 21.0937 12.3688 21.5132 12.3688C21.9327 12.3688 22.3455 12.3977 22.7502 12.4524V9.37063C24.6593 8.83031 26.0626 7.07339 26.0626 4.9937C26.0626 2.48519 24.0217 0.444336 21.5132 0.444336C19.0047 0.444336 16.9639 2.48519 16.9639 4.9937C16.9639 7.07339 18.3672 8.83031 20.2763 9.37063Z" fill="#4AB3FF"/>
<path d="M20.2763 9.37063H32.7762V-0.0825739L23.6803 -2.65693L20.2763 9.37063ZM20.2763 12.4524H7.77625V26.7545L21.9496 24.8398L20.2763 12.4524ZM22.7502 12.4524L21.0768 24.8398L35.2502 26.7545V12.4524H22.7502ZM22.7502 9.37063L19.3461 -2.65693L10.2502 -0.0825739V9.37063H22.7502ZM7.77625 9.37063V12.4524H32.7762V9.37063H7.77625ZM21.9496 24.8398C21.8146 24.8581 21.6682 24.8688 21.5132 24.8688V-0.131183C20.5193 -0.131183 19.5474 -0.0627239 18.6029 0.0648679L21.9496 24.8398ZM21.5132 24.8688C21.3583 24.8688 21.2119 24.8581 21.0768 24.8398L24.4236 0.0648679C23.4791 -0.0627239 22.5072 -0.131183 21.5132 -0.131183V24.8688ZM35.2502 12.4524V9.37063H10.2502V12.4524H35.2502ZM26.1543 21.3982C33.2842 19.3802 38.5626 12.8308 38.5626 4.9937H13.5626C13.5626 1.31599 16.0343 -1.71961 19.3461 -2.65693L26.1543 21.3982ZM38.5626 4.9937C38.5626 -4.41837 30.9253 -12.0557 21.5132 -12.0557V12.9443C17.1182 12.9443 13.5626 9.38874 13.5626 4.9937H38.5626ZM21.5132 -12.0557C12.1012 -12.0557 4.46387 -4.41837 4.46387 4.9937H29.4639C29.4639 9.38875 25.9083 12.9443 21.5132 12.9443V-12.0557ZM4.46387 4.9937C4.46387 12.8308 9.74223 19.3802 16.8722 21.3982L23.6803 -2.65693C26.9921 -1.71962 29.4639 1.31599 29.4639 4.9937H4.46387Z" fill="#4AB3FF" mask="url(#path-9-inside-5_298_20552)"/>
</g>
<g id="Vector_6">
<mask id="path-11-inside-6_298_20552" fill="white">
<path d="M22.7502 33.7399V30.6582C22.3455 30.7129 21.9327 30.7417 21.5132 30.7417C21.0937 30.7417 20.681 30.7129 20.2763 30.6582V33.7399C18.3672 34.2802 16.9639 36.0372 16.9639 38.1169C16.9639 40.6254 19.0047 42.6662 21.5132 42.6662C24.0217 42.6662 26.0626 40.6254 26.0626 38.1169C26.0626 36.0372 24.6593 34.2802 22.7502 33.7399Z"/>
</mask>
<path d="M22.7502 33.7399V30.6582C22.3455 30.7129 21.9327 30.7417 21.5132 30.7417C21.0937 30.7417 20.681 30.7129 20.2763 30.6582V33.7399C18.3672 34.2802 16.9639 36.0372 16.9639 38.1169C16.9639 40.6254 19.0047 42.6662 21.5132 42.6662C24.0217 42.6662 26.0626 40.6254 26.0626 38.1169C26.0626 36.0372 24.6593 34.2802 22.7502 33.7399Z" fill="#4AB3FF"/>
<path d="M22.7502 33.7399H10.2502V43.1931L19.3461 45.7675L22.7502 33.7399ZM22.7502 30.6582H35.2502V16.3561L21.0768 18.2707L22.7502 30.6582ZM20.2763 30.6582L21.9496 18.2707L7.77625 16.3561V30.6582H20.2763ZM20.2763 33.7399L23.6803 45.7675L32.7762 43.1931V33.7399H20.2763ZM35.2502 33.7399V30.6582H10.2502V33.7399H35.2502ZM21.0768 18.2707C21.2119 18.2525 21.3583 18.2417 21.5132 18.2417V43.2417C22.5072 43.2417 23.4791 43.1733 24.4236 43.0457L21.0768 18.2707ZM21.5132 18.2417C21.6682 18.2417 21.8146 18.2525 21.9496 18.2707L18.6029 43.0457C19.5474 43.1733 20.5193 43.2417 21.5132 43.2417V18.2417ZM7.77625 30.6582V33.7399H32.7762V30.6582H7.77625ZM16.8722 21.7124C9.74222 23.7303 4.46387 30.2798 4.46387 38.1169H29.4639C29.4639 41.7946 26.9921 44.8302 23.6803 45.7675L16.8722 21.7124ZM4.46387 38.1169C4.46387 47.5289 12.1012 55.1662 21.5132 55.1662V30.1662C25.9083 30.1662 29.4639 33.7218 29.4639 38.1169H4.46387ZM21.5132 55.1662C30.9253 55.1662 38.5626 47.5289 38.5626 38.1169H13.5626C13.5626 33.7218 17.1182 30.1662 21.5132 30.1662V55.1662ZM38.5626 38.1169C38.5626 30.2798 33.2842 23.7303 26.1543 21.7124L19.3461 45.7675C16.0343 44.8302 13.5626 41.7946 13.5626 38.1169H38.5626Z" fill="#4AB3FF" mask="url(#path-11-inside-6_298_20552)"/>
</g>
<g id="Vector_7">
<mask id="path-13-inside-7_298_20552" fill="white">
<path d="M4.95073 9.54298C5.75641 9.54298 6.51328 9.33154 7.17036 8.96267L14.204 15.9963C14.706 15.3378 15.2948 14.749 15.9533 14.247L8.9197 7.21333C9.28865 6.55625 9.50001 5.79938 9.50001 4.9937C9.50001 2.48519 7.45924 0.444336 4.95073 0.444336C2.44222 0.444336 0.401367 2.48519 0.401367 4.9937C0.401367 7.50221 2.44222 9.54298 4.95073 9.54298Z"/>
</mask>
<path d="M4.95073 9.54298C5.75641 9.54298 6.51328 9.33154 7.17036 8.96267L14.204 15.9963C14.706 15.3378 15.2948 14.749 15.9533 14.247L8.9197 7.21333C9.28865 6.55625 9.50001 5.79938 9.50001 4.9937C9.50001 2.48519 7.45924 0.444336 4.95073 0.444336C2.44222 0.444336 0.401367 2.48519 0.401367 4.9937C0.401367 7.50221 2.44222 9.54298 4.95073 9.54298Z" fill="#4AB3FF"/>
<path d="M7.17036 8.96267L16.0092 0.123835L9.31127 -6.5741L1.05145 -1.93728L7.17036 8.96267ZM14.204 15.9963L5.36516 24.8351L15.4754 34.9454L24.1444 23.5751L14.204 15.9963ZM15.9533 14.247L23.5322 24.1873L34.9024 15.5184L24.7922 5.40813L15.9533 14.247ZM8.9197 7.21333L-1.97967 1.09338L-6.61773 9.35357L0.0808661 16.0522L8.9197 7.21333ZM4.95073 22.043C7.97151 22.043 10.8273 21.2447 13.2893 19.8626L1.05145 -1.93728C2.1993 -2.58165 3.54132 -2.95702 4.95073 -2.95702V22.043ZM-1.66847 17.8015L5.36516 24.8351L23.0428 7.15746L16.0092 0.123835L-1.66847 17.8015ZM24.1444 23.5751C23.9684 23.8059 23.763 24.0114 23.5322 24.1873L8.37449 4.30658C6.82674 5.48663 5.44367 6.8697 4.26361 8.41746L24.1444 23.5751ZM24.7922 5.40813L17.7585 -1.6255L0.0808661 16.0522L7.11449 23.0858L24.7922 5.40813ZM19.8191 13.3333C21.2023 10.8699 22 8.01363 22 4.9937H-2.99999C-2.99999 3.58513 -2.62495 2.24261 -1.97967 1.09338L19.8191 13.3333ZM22 4.9937C22 -4.41808 14.3631 -12.0557 4.95073 -12.0557V12.9443C0.555387 12.9443 -2.99999 9.38845 -2.99999 4.9937H22ZM4.95073 -12.0557C-4.46134 -12.0557 -12.0986 -4.41837 -12.0986 4.9937H12.9014C12.9014 9.38875 9.34578 12.9443 4.95073 12.9443V-12.0557ZM-12.0986 4.9937C-12.0986 14.4061 -4.46105 22.043 4.95073 22.043V-2.95702C9.34548 -2.95702 12.9014 0.598355 12.9014 4.9937H-12.0986Z" fill="#4AB3FF" mask="url(#path-13-inside-7_298_20552)"/>
</g>
<g id="Vector_8">
<mask id="path-15-inside-8_298_20552" fill="white">
<path d="M38.0798 33.5676C37.2741 33.5676 36.5172 33.779 35.8601 34.1479L28.8265 27.1143C28.3244 27.7727 27.7356 28.3615 27.0771 28.8636L34.1108 35.8972C33.7418 36.5543 33.5305 37.3112 33.5305 38.1169C33.5305 40.6254 35.5712 42.6662 38.0798 42.6662C40.5883 42.6662 42.6291 40.6254 42.6291 38.1169C42.6291 35.6083 40.5883 33.5676 38.0798 33.5676Z"/>
</mask>
<path d="M38.0798 33.5676C37.2741 33.5676 36.5172 33.779 35.8601 34.1479L28.8265 27.1143C28.3244 27.7727 27.7356 28.3615 27.0771 28.8636L34.1108 35.8972C33.7418 36.5543 33.5305 37.3112 33.5305 38.1169C33.5305 40.6254 35.5712 42.6662 38.0798 42.6662C40.5883 42.6662 42.6291 40.6254 42.6291 38.1169C42.6291 35.6083 40.5883 33.5676 38.0798 33.5676Z" fill="#4AB3FF"/>
<path d="M35.8601 34.1479L27.0213 42.9867L33.7192 49.6847L41.979 45.0478L35.8601 34.1479ZM28.8265 27.1143L37.6653 18.2754L27.5551 8.1652L18.8861 19.5354L28.8265 27.1143ZM27.0771 28.8636L19.4983 18.9232L8.12809 27.5922L18.2383 37.7024L27.0771 28.8636ZM34.1108 35.8972L45.0101 42.0172L49.6482 33.757L42.9496 27.0584L34.1108 35.8972ZM38.0798 21.0676C35.059 21.0676 32.2032 21.8658 29.7412 23.2479L41.979 45.0478C40.8312 45.6922 39.4892 46.0676 38.0798 46.0676V21.0676ZM44.6989 25.3091L37.6653 18.2754L19.9876 35.9531L27.0213 42.9867L44.6989 25.3091ZM18.8861 19.5354C19.0621 19.3046 19.2675 19.0992 19.4983 18.9232L34.656 38.804C36.2037 37.6239 37.5868 36.2409 38.7669 34.6931L18.8861 19.5354ZM18.2383 37.7024L25.2719 44.7361L42.9496 27.0584L35.916 20.0248L18.2383 37.7024ZM23.2114 29.7773C21.8282 32.2407 21.0305 35.0969 21.0305 38.1169H46.0305C46.0305 39.5254 45.6554 40.868 45.0101 42.0172L23.2114 29.7773ZM21.0305 38.1169C21.0305 47.5286 28.6674 55.1662 38.0798 55.1662V30.1662C42.4751 30.1662 46.0305 33.7221 46.0305 38.1169H21.0305ZM38.0798 55.1662C47.4918 55.1662 55.1291 47.5289 55.1291 38.1169H30.1291C30.1291 33.7218 33.6847 30.1662 38.0798 30.1662V55.1662ZM55.1291 38.1169C55.1291 28.7045 47.4915 21.0676 38.0798 21.0676V46.0676C33.685 46.0676 30.1291 42.5122 30.1291 38.1169H55.1291Z" fill="#4AB3FF" mask="url(#path-15-inside-8_298_20552)"/>
</g>
<path id="Vector_9" d="M21.9781 21.5545C21.9781 21.81 21.7709 22.0171 21.5154 22.0171C21.2599 22.0171 21.0527 21.81 21.0527 21.5545C21.0527 21.2989 21.2599 21.0918 21.5154 21.0918C21.7709 21.0918 21.9781 21.2989 21.9781 21.5545Z" fill="#4AB3FF" stroke="#4AB3FF" stroke-width="12.5"/>
</g>
</g>
<defs>
<clipPath id="clip0_298_20552">
<rect width="42.2222" height="42.2222" fill="white" transform="translate(0.401367 0.444336)"/>
</clipPath>
</defs>
</svg>
