<svg width="50" height="50" viewBox="0 0 50 50" fill="none" xmlns="http://www.w3.org/2000/svg">
<g id="Icon">
<g id="B5auHx">
<g id="Group">
<g id="Vector">
<mask id="path-1-inside-1_298_22279" fill="white">
<path d="M11.81 35.059C11.7418 35.1026 11.6519 35.0896 11.5987 35.0285C10.0589 33.2583 8.46353 31.5325 7.00061 29.7009C4.73951 26.8699 2.89134 23.7859 1.85382 20.279C0.671861 16.2838 0.798297 12.3806 2.98219 8.73439C5.29448 4.87383 8.72613 2.61327 13.2217 2.17445C18.1021 1.69806 22.0775 3.49683 25.1727 7.27905C25.2256 7.3437 25.2762 7.36494 25.3368 7.30737C26.2338 6.45437 27.0348 5.58302 27.955 4.86437C35.8063 -1.26706 47.5546 3.25404 49.3171 13.0613C49.9308 16.4762 49.251 19.7 47.8908 22.8204C46.5223 25.9598 44.5884 28.7408 42.3706 31.3274C41.283 32.5958 40.1249 33.8037 38.9971 35.0377C38.9662 35.0715 38.9184 35.0843 38.8747 35.0703C38.8261 35.0548 38.7931 35.0096 38.7931 34.9586V34.5146C38.7931 31.8345 38.7969 29.1543 38.7921 26.4741C38.7866 23.4914 36.8202 21.289 33.8479 20.9581C33.4569 20.9146 33.304 20.7778 33.203 20.3902C32.6114 18.1197 30.565 16.5033 28.2112 16.4618C26.3031 16.4281 24.3934 16.4281 22.4852 16.461C20.1053 16.5021 18.0584 18.1263 17.4665 20.4231C17.3711 20.7932 17.2164 20.9132 16.8483 20.9547C13.8385 21.2942 11.8897 23.4846 11.886 26.5088C11.8828 29.154 11.8853 31.7991 11.8853 34.4443C11.8853 34.6033 11.8853 34.7624 11.8853 34.9214C11.8853 34.9771 11.8569 35.029 11.81 35.059Z"/>
</mask>
<path d="M11.81 35.059C11.7418 35.1026 11.6519 35.0896 11.5987 35.0285C10.0589 33.2583 8.46353 31.5325 7.00061 29.7009C4.73951 26.8699 2.89134 23.7859 1.85382 20.279C0.671861 16.2838 0.798297 12.3806 2.98219 8.73439C5.29448 4.87383 8.72613 2.61327 13.2217 2.17445C18.1021 1.69806 22.0775 3.49683 25.1727 7.27905C25.2256 7.3437 25.2762 7.36494 25.3368 7.30737C26.2338 6.45437 27.0348 5.58302 27.955 4.86437C35.8063 -1.26706 47.5546 3.25404 49.3171 13.0613C49.9308 16.4762 49.251 19.7 47.8908 22.8204C46.5223 25.9598 44.5884 28.7408 42.3706 31.3274C41.283 32.5958 40.1249 33.8037 38.9971 35.0377C38.9662 35.0715 38.9184 35.0843 38.8747 35.0703C38.8261 35.0548 38.7931 35.0096 38.7931 34.9586V34.5146C38.7931 31.8345 38.7969 29.1543 38.7921 26.4741C38.7866 23.4914 36.8202 21.289 33.8479 20.9581C33.4569 20.9146 33.304 20.7778 33.203 20.3902C32.6114 18.1197 30.565 16.5033 28.2112 16.4618C26.3031 16.4281 24.3934 16.4281 22.4852 16.461C20.1053 16.5021 18.0584 18.1263 17.4665 20.4231C17.3711 20.7932 17.2164 20.9132 16.8483 20.9547C13.8385 21.2942 11.8897 23.4846 11.886 26.5088C11.8828 29.154 11.8853 31.7991 11.8853 34.4443C11.8853 34.6033 11.8853 34.7624 11.8853 34.9214C11.8853 34.9771 11.8569 35.029 11.81 35.059Z" fill="#4AB3FF"/>
<path d="M7.00061 29.7009L81.23 -29.5865L81.23 -29.5865L7.00061 29.7009ZM1.85382 20.279L92.9507 -6.67197V-6.67197L1.85382 20.279ZM2.98219 8.73439L84.4817 57.5486L2.98219 8.73439ZM13.2217 2.17445L22.451 96.7251H22.451L13.2217 2.17445ZM27.955 4.86437L-30.5173 -70.0088L-30.5174 -70.0087L27.955 4.86437ZM49.3171 13.0613L-44.185 29.8648L-44.185 29.8649L49.3171 13.0613ZM47.8908 22.8204L134.976 60.7822L134.977 60.7819L47.8908 22.8204ZM42.3706 31.3274L114.489 93.1652L114.489 93.1651L42.3706 31.3274ZM38.7931 34.5146H133.793V34.5141L38.7931 34.5146ZM38.7921 26.4741L133.792 26.3014V26.3014L38.7921 26.4741ZM33.8479 20.9581L44.3592 -73.4586L44.3591 -73.4586L33.8479 20.9581ZM33.203 20.3902L-58.7272 44.3448L-58.7271 44.3452L33.203 20.3902ZM28.2112 16.4618L29.8878 -78.5234H29.8877L28.2112 16.4618ZM22.4852 16.461L24.1235 111.447L22.4852 16.461ZM17.4665 20.4231L109.461 44.1294L109.461 44.1289L17.4665 20.4231ZM16.8483 20.9547L27.496 115.356L27.4964 115.356L16.8483 20.9547ZM11.886 26.5088L-83.1139 26.3939V26.394L11.886 26.5088ZM11.8853 34.4443L106.885 34.4451V34.4446L11.8853 34.4443ZM11.8853 34.9214L106.885 34.9212L11.8853 34.9214ZM38.9971 35.0377L109.123 99.1261L38.9971 35.0377ZM25.3368 7.30737L-40.1286 -61.5351L25.3368 7.30737ZM11.5987 35.0285L-60.0777 97.3782L11.5987 35.0285ZM83.2751 -27.3212C82.6001 -28.0972 81.979 -28.7995 81.5659 -29.2661C81.0754 -29.8202 80.8771 -30.0434 80.6564 -30.2948C80.2455 -30.7628 80.6021 -30.3726 81.23 -29.5865L-67.2288 88.9883C-65.138 91.606 -63.2522 93.7749 -62.1147 95.0703C-60.167 97.2885 -60.9508 96.3745 -60.0777 97.3782L83.2751 -27.3212ZM81.23 -29.5865C84.1018 -25.991 89.5184 -18.2736 92.9507 -6.67197L-89.2431 47.2299C-83.7357 65.8454 -74.6228 79.7309 -67.2288 88.9883L81.23 -29.5865ZM92.9507 -6.67197C94.9835 0.199025 96.8157 10.1045 95.8439 22.0672C94.8334 34.5083 90.9699 46.716 84.4817 57.5486L-78.5173 -40.0798C-97.3882 -8.5733 -96.1112 24.015 -89.2431 47.2299L92.9507 -6.67197ZM84.4817 57.5486C79.0747 66.5761 70.7501 76.2799 58.7869 83.9984C46.7255 91.7803 33.9678 95.6009 22.451 96.7251L3.99241 -92.3762C-31.7077 -88.8914 -61.3719 -68.7055 -78.5173 -40.0798L84.4817 57.5486ZM22.451 96.7251C10.4067 97.9007 -3.74252 96.4368 -17.9149 90.2937C-31.8704 84.2447 -41.8284 75.4098 -48.3472 67.444L98.6926 -52.8859C76.8926 -79.5249 42.6077 -96.1455 3.9924 -92.3762L22.451 96.7251ZM90.8021 76.1498C91.7104 75.2861 92.46 74.5457 92.7381 74.2712C93.1971 73.818 92.9509 74.0617 92.7571 74.2495C92.4673 74.5304 91.7359 75.2345 90.7299 76.1372C89.706 77.0559 88.2515 78.313 86.4275 79.7374L-30.5174 -70.0087C-34.9257 -66.566 -38.1734 -63.4477 -39.4828 -62.1785C-39.849 -61.8235 -40.1586 -61.5193 -40.3589 -61.3219C-40.4605 -61.2218 -40.5517 -61.1318 -40.6132 -61.071C-40.6892 -60.9959 -40.7117 -60.9736 -40.7483 -60.9375C-40.9015 -60.7863 -40.5884 -61.0979 -40.1286 -61.5351L90.8021 76.1498ZM86.4273 79.7375C37.5735 117.89 -33.3734 90.0256 -44.185 29.8648L142.819 -3.74221C128.483 -83.5175 34.0391 -120.424 -30.5173 -70.0088L86.4273 79.7375ZM-44.185 29.8649C-47.8525 9.45722 -42.8345 -6.79172 -39.1949 -15.1412L134.977 60.7819C141.337 46.1917 147.714 23.4952 142.819 -3.74225L-44.185 29.8649ZM-39.1948 -15.1414C-35.6726 -23.2212 -31.5482 -28.4108 -29.748 -30.5104L114.489 93.1651C120.725 85.8925 128.717 75.1408 134.976 60.7822L-39.1948 -15.1414ZM-29.7479 -30.5105C-29.4521 -30.8555 -29.2374 -31.0962 -29.1446 -31.1996C-29.0563 -31.298 -29.0419 -31.3123 -29.1659 -31.1777C-29.3247 -31.0054 -29.4554 -30.8648 -29.8286 -30.4622C-30.1375 -30.1289 -30.6101 -29.6185 -31.129 -29.0508L109.123 99.1261C109.694 98.5014 109.137 99.1167 110.564 97.5686C111.41 96.6506 112.856 95.0699 114.489 93.1652L-29.7479 -30.5105ZM133.793 34.9586V34.5146H-56.2069V34.9586H133.793ZM133.793 34.5141C133.793 32.0199 133.797 29.0915 133.792 26.3014L-56.2078 26.6468C-56.2031 29.217 -56.2069 31.649 -56.2069 34.5152L133.793 34.5141ZM133.792 26.3014C133.699 -24.9069 95.4751 -67.7679 44.3592 -73.4586L23.3366 115.375C3.54716 113.172 -17.3619 103.941 -33.344 86.0911C-49.3127 68.2559 -56.1717 46.4978 -56.2078 26.6469L133.792 26.3014ZM44.3591 -73.4586C52.0122 -72.6066 74.9424 -69.2729 96.3127 -50.3943C117.261 -31.8885 123.436 -10.0799 125.133 -3.56492L-58.7271 44.3452C-56.9285 51.2479 -50.6271 73.3187 -29.4793 92.0007C-7.90954 111.055 15.2926 114.479 23.3367 115.375L44.3591 -73.4586ZM125.133 -3.56451C113.815 -46.9985 74.9328 -77.7284 29.8878 -78.5234L26.5347 111.447C-13.8028 110.735 -48.5927 83.238 -58.7272 44.3448L125.133 -3.56451ZM29.8877 -78.5234C26.86 -78.5769 23.8451 -78.5765 20.8469 -78.5248L24.1235 111.447C24.9416 111.433 25.7461 111.433 26.5348 111.447L29.8877 -78.5234ZM20.8469 -78.5248C-24.426 -77.744 -63.3173 -46.789 -74.5283 -3.28258L109.461 44.1289C99.434 83.0416 64.6366 110.748 24.1235 111.447L20.8469 -78.5248ZM-74.5281 -3.28309C-72.4962 -11.1681 -65.8093 -33.4133 -43.9705 -51.8231C-22.6437 -69.8011 -0.214357 -72.7231 6.20032 -73.4467L27.4964 115.356C34.2791 114.591 56.9699 111.588 78.4898 93.4473C100.522 74.8746 107.334 52.3845 109.461 44.1294L-74.5281 -3.28309ZM6.20068 -73.4467C-16.169 -70.9236 -39.7019 -60.63 -57.6405 -40.5283C-75.5576 -20.4507 -83.0869 4.02091 -83.1139 26.3939L106.886 26.6237C106.863 45.9725 100.31 67.8368 84.1202 85.9782C67.9094 104.144 46.8558 113.172 27.496 115.356L6.20068 -73.4467ZM-83.1139 26.394C-83.1172 29.1122 -83.1147 31.9232 -83.1147 34.444L106.885 34.4446C106.885 31.6751 106.883 29.1957 106.886 26.6237L-83.1139 26.394ZM-83.1147 34.4435C-83.1147 34.6032 -83.1147 34.763 -83.1147 34.9216L106.885 34.9212C106.885 34.7617 106.885 34.6035 106.885 34.4451L-83.1147 34.4435ZM-83.1147 34.9216C-83.1147 2.56502 -66.6183 -27.5575 -39.3578 -44.9839L62.9778 115.102C90.3321 97.6154 106.885 67.3892 106.885 34.9212L-83.1147 34.9216ZM67.8429 -55.4053C107.137 -42.8244 133.793 -6.29461 133.793 34.9586H-56.2069C-56.2069 76.3138 -29.4844 112.934 9.90646 125.546L67.8429 -55.4053ZM-31.129 -29.0508C-6.14471 -56.3888 32.5014 -66.7209 67.8429 -55.4053L9.90646 125.546C45.3353 136.889 84.0771 126.532 109.123 99.1261L-31.129 -29.0508ZM-48.347 67.4443C-45.1087 71.4014 -28.0802 92.5267 3.88567 99.9051C45.4122 109.49 76.64 89.6172 90.8021 76.1498L-40.1286 -61.5351C-26.027 -74.9449 5.14522 -94.7999 46.6181 -85.2271C78.5303 -77.861 95.507 -56.7786 98.6924 -52.8862L-48.347 67.4443ZM-60.0777 97.3782C-29.1671 132.913 23.1752 140.546 62.9778 115.102L-39.3578 -44.9839C0.308316 -70.3406 52.4709 -62.7335 83.2751 -27.3212L-60.0777 97.3782Z" fill="#4AB3FF" mask="url(#path-1-inside-1_298_22279)"/>
</g>
<g id="Vector_2">
<mask id="path-3-inside-2_298_22279" fill="white">
<path d="M18.4814 24.4997C19.7867 24.4988 20.8419 23.4425 20.8452 22.1371C20.8488 20.7209 21.5272 20.035 22.9282 20.0336C24.5917 20.0319 26.2553 20.0286 27.9188 20.035C29.0826 20.0394 29.8153 20.7578 29.8398 21.9287C29.8406 21.9672 29.8413 22.0057 29.842 22.0442C29.8657 23.4006 30.943 24.5005 32.2996 24.5006C32.6148 24.5007 32.9302 24.495 33.2452 24.5021C34.508 24.5303 35.217 25.25 35.2185 26.5147C35.2217 29.3173 35.2196 32.1199 35.2196 34.9226C35.2196 38.8287 35.2203 42.7349 35.2191 46.641C35.2187 48.027 34.5049 48.7398 33.1172 48.7401C27.9339 48.741 22.7506 48.741 17.5673 48.74C16.1793 48.7398 15.4695 48.0284 15.4693 46.638C15.4685 39.9643 15.4686 33.2905 15.4693 26.6168C15.4694 25.1919 16.1605 24.5062 17.6025 24.5013C17.8948 24.5004 18.1871 24.4999 18.4814 24.4997ZM26.4003 34.364C26.1241 34.3645 25.9491 34.0583 26.1 33.827C26.9119 32.5826 27.7356 31.3456 28.5301 30.0901C28.7109 29.8044 28.8667 29.4642 28.9045 29.1343C28.995 28.3433 28.5301 27.6294 27.82 27.336C27.0766 27.029 26.3309 27.2089 25.7418 27.8785C23.7076 30.1909 21.6861 32.5144 19.6519 34.8267C19.109 35.4438 18.8814 36.1129 19.2323 36.8956C19.583 37.6779 20.2296 37.9672 21.0551 37.96C22.1752 37.9501 23.2954 37.9563 24.4155 37.9594C24.6451 37.96 24.771 38.2331 24.6465 38.426C24.6196 38.4677 24.5934 38.5082 24.567 38.5486C23.7365 39.8225 22.8938 41.0887 22.079 42.3726C21.5363 43.2279 21.7016 44.1582 22.4585 44.7597C23.1925 45.3429 24.1812 45.2607 24.8713 44.5448C25.1625 44.2427 25.4301 43.9179 25.7069 43.602C27.4943 41.5619 29.2823 39.5224 31.0675 37.4803C31.462 37.029 31.7109 36.5205 31.5949 35.899C31.4165 34.9433 30.7297 34.3794 29.6946 34.368C28.6163 34.3561 27.5379 34.3619 26.4003 34.364Z"/>
</mask>
<path d="M18.4814 24.4997C19.7867 24.4988 20.8419 23.4425 20.8452 22.1371C20.8488 20.7209 21.5272 20.035 22.9282 20.0336C24.5917 20.0319 26.2553 20.0286 27.9188 20.035C29.0826 20.0394 29.8153 20.7578 29.8398 21.9287C29.8406 21.9672 29.8413 22.0057 29.842 22.0442C29.8657 23.4006 30.943 24.5005 32.2996 24.5006C32.6148 24.5007 32.9302 24.495 33.2452 24.5021C34.508 24.5303 35.217 25.25 35.2185 26.5147C35.2217 29.3173 35.2196 32.1199 35.2196 34.9226C35.2196 38.8287 35.2203 42.7349 35.2191 46.641C35.2187 48.027 34.5049 48.7398 33.1172 48.7401C27.9339 48.741 22.7506 48.741 17.5673 48.74C16.1793 48.7398 15.4695 48.0284 15.4693 46.638C15.4685 39.9643 15.4686 33.2905 15.4693 26.6168C15.4694 25.1919 16.1605 24.5062 17.6025 24.5013C17.8948 24.5004 18.1871 24.4999 18.4814 24.4997ZM26.4003 34.364C26.1241 34.3645 25.9491 34.0583 26.1 33.827C26.9119 32.5826 27.7356 31.3456 28.5301 30.0901C28.7109 29.8044 28.8667 29.4642 28.9045 29.1343C28.995 28.3433 28.5301 27.6294 27.82 27.336C27.0766 27.029 26.3309 27.2089 25.7418 27.8785C23.7076 30.1909 21.6861 32.5144 19.6519 34.8267C19.109 35.4438 18.8814 36.1129 19.2323 36.8956C19.583 37.6779 20.2296 37.9672 21.0551 37.96C22.1752 37.9501 23.2954 37.9563 24.4155 37.9594C24.6451 37.96 24.771 38.2331 24.6465 38.426C24.6196 38.4677 24.5934 38.5082 24.567 38.5486C23.7365 39.8225 22.8938 41.0887 22.079 42.3726C21.5363 43.2279 21.7016 44.1582 22.4585 44.7597C23.1925 45.3429 24.1812 45.2607 24.8713 44.5448C25.1625 44.2427 25.4301 43.9179 25.7069 43.602C27.4943 41.5619 29.2823 39.5224 31.0675 37.4803C31.462 37.029 31.7109 36.5205 31.5949 35.899C31.4165 34.9433 30.7297 34.3794 29.6946 34.368C28.6163 34.3561 27.5379 34.3619 26.4003 34.364Z" fill="#4AB3FF"/>
<path d="M22.9282 20.0336L22.8318 -74.9663H22.8318L22.9282 20.0336ZM27.9188 20.035L27.5561 115.034H27.5562L27.9188 20.035ZM29.8398 21.9287L124.819 19.9472L124.819 19.9466L29.8398 21.9287ZM33.2452 24.5021L31.1192 119.478L31.1199 119.478L33.2452 24.5021ZM35.2185 26.5147L-59.7814 26.6255V26.6256L35.2185 26.5147ZM35.2196 34.9226L-59.7804 34.9228V34.9228L35.2196 34.9226ZM35.2191 46.641L130.219 46.6698V46.6698L35.2191 46.641ZM33.1172 48.7401L33.1345 143.74H33.1345L33.1172 48.7401ZM17.5673 48.74L17.5488 143.74H17.549L17.5673 48.74ZM15.4693 46.638L-79.5307 46.6489V46.649L15.4693 46.638ZM15.4693 26.6168L-79.5307 26.6072V26.6072L15.4693 26.6168ZM17.6025 24.5013L17.284 -70.4981H17.2838L17.6025 24.5013ZM28.5301 30.0901L-51.7448 -20.7128L-51.7454 -20.7119L28.5301 30.0901ZM28.9045 29.1343L123.288 39.9419L123.288 39.9406L28.9045 29.1343ZM27.82 27.336L-8.44918 115.14L-8.44914 115.14L27.82 27.336ZM25.7418 27.8785L-45.5858 -34.8698L-45.586 -34.8697L25.7418 27.8785ZM19.6519 34.8267L-51.6761 -27.9214L-51.6761 -27.9213L19.6519 34.8267ZM19.2323 36.8956L105.92 -1.9663L105.92 -1.96635L19.2323 36.8956ZM21.0551 37.96L21.8947 132.956H21.8949L21.0551 37.96ZM24.567 38.5486L104.148 90.4312L104.149 90.4309L24.567 38.5486ZM22.079 42.3726L-58.1326 -8.53015L-58.1327 -8.52997L22.079 42.3726ZM22.4585 44.7597L81.5618 -29.6163L81.5612 -29.6169L22.4585 44.7597ZM24.8713 44.5448L93.27 110.474L93.2701 110.474L24.8713 44.5448ZM25.7069 43.602L-45.7481 -19.0013L-45.7492 -19.0001L25.7069 43.602ZM31.0675 37.4803L-40.4569 -25.0438L-40.457 -25.0437L31.0675 37.4803ZM31.5949 35.899L124.982 18.4666L124.982 18.4664L31.5949 35.899ZM29.6946 34.368L28.6511 129.362H28.6514L29.6946 34.368ZM24.6465 38.426L104.471 89.933L24.6465 38.426ZM26.4003 34.364L26.227 -60.6358L26.4003 34.364ZM29.842 22.0442L-65.1435 23.7066L29.842 22.0442ZM18.4814 24.4997L18.4188 -70.5003H18.4188L18.4814 24.4997ZM115.845 22.3763C115.812 35.2635 112.712 63.3121 88.876 87.3901C64.8293 111.681 36.464 115.02 23.0246 115.034L22.8318 -74.9663C7.99141 -74.9513 -21.4136 -71.2684 -46.1506 -46.2804C-70.6771 -21.5051 -74.1185 7.5945 -74.1545 21.898L115.845 22.3763ZM23.0245 115.034C24.8234 115.032 26.1847 115.029 27.5561 115.034L28.2815 -74.9643C26.3259 -74.9718 24.36 -74.9679 22.8318 -74.9663L23.0245 115.034ZM27.5562 115.034C8.42313 114.961 -16.6588 108.6 -37.3341 88.2498C-58.0035 67.9054 -64.742 42.9586 -65.1395 23.9107L124.819 19.9466C124.397 -0.272228 117.28 -26.1636 95.9472 -47.161C74.6085 -68.1642 48.5783 -74.8868 28.2815 -74.9643L27.5562 115.034ZM-65.1396 23.9101C-65.141 23.8387 -65.1423 23.7709 -65.1435 23.7066L124.827 20.3817C124.825 20.2405 124.822 20.0956 124.819 19.9472L-65.1396 23.9101ZM32.2929 119.501C32.6361 119.501 32.9231 119.499 33.0361 119.499C33.0671 119.498 33.0972 119.498 33.1139 119.498C33.1343 119.498 33.1426 119.498 33.1486 119.498C33.1608 119.498 33.1338 119.498 33.0884 119.498C33.0021 119.498 32.7664 119.499 32.4496 119.497C32.1277 119.495 31.6715 119.491 31.1192 119.478L35.3712 -70.4741C34.0041 -70.5047 32.9018 -70.5022 32.4566 -70.5008C32.3324 -70.5003 32.2265 -70.4998 32.1599 -70.4995C32.1265 -70.4993 32.0955 -70.4991 32.0764 -70.499C32.0537 -70.4989 32.0444 -70.4988 32.036 -70.4988C31.9913 -70.4986 32.1207 -70.4994 32.3064 -70.4994L32.2929 119.501ZM31.1199 119.478C14.3842 119.104 -11.5066 113.58 -33.0872 91.5973C-54.7072 69.5746 -59.7618 43.5036 -59.7814 26.6255L130.218 26.4039C130.197 8.26105 124.787 -18.8021 102.497 -41.5079C80.2457 -64.1734 53.3689 -70.0714 35.3705 -70.4741L31.1199 119.478ZM-59.7814 26.6256C-59.7783 29.3555 -59.7804 32.0197 -59.7804 34.9228L130.22 34.9223C130.22 32.2202 130.222 29.2791 130.218 26.4038L-59.7814 26.6256ZM-59.7804 34.9228C-59.7804 38.8532 -59.7797 42.7253 -59.7808 46.6122L130.219 46.6698C130.22 42.7444 130.22 38.8042 130.22 34.9223L-59.7804 34.9228ZM-59.7808 46.6122C-59.7764 31.953 -55.8622 4.37746 -32.4392 -19.0124C-9.03774 -42.3809 18.5046 -46.2573 33.0998 -46.2599L33.1345 143.74C49.1174 143.737 77.7106 139.504 101.816 115.433C125.943 91.34 130.214 62.7151 130.219 46.6698L-59.7808 46.6122ZM33.0998 -46.2599C27.9278 -46.259 22.7564 -46.259 17.5856 -46.26L17.549 143.74C22.7448 143.741 27.94 143.741 33.1345 143.74L33.0998 -46.2599ZM17.5857 -46.26C32.13 -46.2571 59.782 -42.4028 83.2402 -18.8976C106.666 4.57538 110.468 32.1775 110.469 46.627L-79.5307 46.649C-79.5289 62.4888 -75.3724 91.1418 -51.2445 115.318C-27.0844 139.527 1.61655 143.737 17.5488 143.74L17.5857 -46.26ZM110.469 46.6271C110.469 39.9611 110.469 33.2943 110.469 26.6264L-79.5307 26.6072C-79.5314 33.2867 -79.5314 39.9674 -79.5307 46.6489L110.469 46.6271ZM110.469 26.6264C110.468 39.8497 107.256 68.314 82.8935 92.4773C58.7439 116.429 30.6009 119.458 17.9213 119.501L17.2838 -70.4981C3.16212 -70.4507 -26.0475 -67.0763 -50.9032 -42.4242C-75.9722 -17.5606 -79.5292 11.959 -79.5307 26.6072L110.469 26.6264ZM17.921 119.501C18.1078 119.5 18.312 119.5 18.5439 119.5L18.4188 -70.5003C18.0621 -70.5001 17.6818 -70.4994 17.284 -70.4981L17.921 119.501ZM105.663 85.7372C105.821 85.4953 107.549 82.8784 108.806 80.892L-51.7454 -20.7119C-52.0774 -20.1873 -51.9973 -20.3302 -53.4634 -18.0831L105.663 85.7372ZM108.805 80.893C112.862 74.4825 120.973 60.1582 123.288 39.9419L-65.4788 18.3266C-64.2755 7.81895 -61.509 -0.588739 -59.1578 -6.33712C-56.7467 -12.2317 -54.0695 -17.0395 -51.7448 -20.7128L108.805 80.893ZM123.288 39.9406C128.564 -6.14153 101.03 -45.209 64.089 -60.468L-8.44914 115.14C-43.9694 100.468 -70.5739 62.828 -65.4789 18.3279L123.288 39.9406ZM64.0891 -60.468C46.7094 -67.647 25.3542 -70.4684 3.17721 -64.7948C-18.6388 -59.2135 -34.8472 -47.0768 -45.5858 -34.8698L97.0695 90.6269C86.9199 102.164 71.379 113.876 50.2689 119.277C28.7978 124.77 8.18721 122.012 -8.44918 115.14L64.0891 -60.468ZM-45.586 -34.8697C-46.7032 -33.5997 -47.8026 -32.343 -48.8023 -31.2003C-49.8306 -30.025 -50.759 -28.9638 -51.6761 -27.9214L90.9798 97.5748C92.097 96.3049 93.1964 95.0481 94.196 93.9055C95.2242 92.7303 96.1527 91.6691 97.0697 90.6267L-45.586 -34.8697ZM-51.6761 -27.9213C-58.3819 -20.2987 -68.5464 -6.36176 -73.3465 13.9507C-78.591 36.143 -75.5063 57.7987 -67.4553 75.7576L105.92 -1.96635C113.62 15.2099 116.643 36.1397 111.56 57.6475C106.922 77.2754 97.1427 90.5692 90.9798 97.5748L-51.6761 -27.9213ZM-67.4553 75.7576C-59.6249 93.2246 -45.8264 109.996 -25.7002 121.028C-7.00565 131.276 10.7176 133.055 21.8947 132.956L20.2155 -57.0363C30.5671 -57.1278 47.5543 -55.4901 65.6315 -45.5805C85.1404 -34.8862 98.4403 -18.651 105.92 -1.9663L-67.4553 75.7576ZM21.8949 132.956C22.305 132.953 22.6471 132.955 24.1559 132.959L24.6751 -57.0402C23.9436 -57.0422 22.0453 -57.0525 20.2153 -57.0363L21.8949 132.956ZM-55.1785 -13.0809C-55.1442 -13.1341 -55.0873 -13.2222 -55.0145 -13.3338L104.149 90.4309C104.274 90.2385 104.383 90.0695 104.471 89.933L-55.1785 -13.0809ZM-55.0143 -13.334C-55.1736 -13.0898 -56.9171 -10.4455 -58.1326 -8.53015L102.291 93.2754C102.705 92.6229 102.647 92.7348 104.148 90.4312L-55.0143 -13.334ZM-58.1327 -8.52997C-69.3443 9.13703 -76.2553 32.9199 -71.9628 59.057C-67.6702 85.1949 -53.4576 105.776 -36.6441 119.136L81.5612 -29.6169C97.6177 -16.8577 111.369 2.95714 115.526 28.2657C119.682 53.5733 112.96 76.4634 102.291 93.2752L-58.1327 -8.52997ZM-36.6448 119.136C5.19473 152.384 61.1238 143.824 93.27 110.474L-43.5274 -21.3841C-12.7614 -53.3026 41.1902 -61.6979 81.5618 -29.6163L-36.6448 119.136ZM93.2701 110.474C95.049 108.628 96.3983 107.086 96.9538 106.448C97.1082 106.271 97.2374 106.121 97.3212 106.024C97.3917 105.942 97.4776 105.843 97.4783 105.842C97.5415 105.768 97.381 105.955 97.163 106.204L-45.7492 -19.0001C-46.1056 -18.5933 -46.4033 -18.2474 -46.4772 -18.1615C-46.6253 -17.9896 -46.4964 -18.1396 -46.3648 -18.2908C-46.0851 -18.6122 -45.0152 -19.8405 -43.5275 -21.3839L93.2701 110.474ZM97.1619 106.205C98.9213 104.197 100.762 102.098 102.592 100.004L-40.457 -25.0437C-42.1969 -23.0534 -43.9328 -21.0734 -45.7481 -19.0013L97.1619 106.205ZM102.592 100.004C113.164 87.9107 132.516 58.8265 124.982 18.4666L-61.792 53.3314C-65.0576 35.8372 -63.1064 18.6795 -57.5313 3.67159C-52.372 -10.2167 -45.0601 -19.778 -40.4569 -25.0438L102.592 100.004ZM124.982 18.4664C121.366 -0.903143 111.067 -22.598 90.7527 -39.0485C70.7549 -55.243 48.3956 -60.4324 30.7378 -60.6263L28.6514 129.362C12.0287 129.18 -9.46961 124.278 -28.8207 108.607C-48.4879 92.6805 -58.3547 71.7455 -61.792 53.3316L124.982 18.4664ZM30.7381 -60.6263C28.8684 -60.6468 26.8915 -60.637 26.227 -60.6358L26.5735 129.364C28.1842 129.361 28.3642 129.359 28.6511 129.362L30.7381 -60.6263ZM24.1574 132.959C-17.314 132.846 -47.5378 107.097 -60.9005 79.3971C-73.8486 52.5563 -74.7336 17.2253 -55.1785 -13.0809L104.471 89.933C124.151 59.4338 123.265 23.8698 110.228 -3.1559C96.7762 -31.0411 66.3746 -56.9269 24.6737 -57.0402L24.1574 132.959ZM-53.4635 -18.083C-97.2095 48.9673 -44.9389 129.494 26.5735 129.364L26.227 -60.6358C97.1872 -60.7653 149.108 19.1493 105.663 85.7371L-53.4635 -18.083ZM-65.1435 23.7066C-64.2496 74.7748 -22.9524 119.496 32.2924 119.501L32.3069 -70.4994C84.8383 -70.4954 123.981 -27.9735 124.827 20.3817L-65.1435 23.7066ZM-74.1545 21.8981C-74.0264 -28.985 -32.7857 -70.4666 18.4188 -70.5003L18.5439 119.5C72.3591 119.464 115.71 75.8699 115.845 22.3762L-74.1545 21.8981Z" fill="#4AB3FF" mask="url(#path-3-inside-2_298_22279)"/>
</g>
</g>
</g>
</g>
</svg>
