<svg width="49" height="49" viewBox="0 0 49 49" fill="none" xmlns="http://www.w3.org/2000/svg">
<g clip-path="url(#clip0_3028_26642)">
<path d="M24.7335 0.0976562C30.6139 7.94022 36.4427 15.7139 42.3084 23.5368C42.1309 23.6071 41.9867 23.6724 41.8374 23.7222C36.261 25.5829 30.6846 27.4439 25.1047 29.2942C24.9051 29.3604 24.6486 29.3814 24.4539 29.317C18.8419 27.4586 13.2344 25.5868 7.6266 23.7159C7.48448 23.6685 7.34677 23.6079 7.16016 23.5352C13.0175 15.7232 18.852 7.94183 24.7335 0.0976562ZM24.7192 5.00859C20.436 10.7213 16.2321 16.3283 11.9442 22.0472C16.2884 21.5637 20.5005 21.0949 24.7192 20.6253V5.00859Z" fill="#4AB3FF"/>
<path d="M24.7344 47.0153C18.8805 39.696 13.0774 32.4401 7.27416 25.1841C7.28707 25.1567 7.29997 25.1293 7.31288 25.1019C7.46567 25.162 7.61955 25.2195 7.77109 25.2826C13.299 27.5848 18.8276 29.8854 24.3518 32.1965C24.6282 32.3122 24.8494 32.3084 25.1234 32.1938C30.6623 29.8783 36.2053 27.5724 41.7477 25.2653C41.8832 25.2089 42.022 25.1605 42.2051 25.1708C36.3968 32.4332 30.5885 39.6956 24.7344 47.0153ZM16.8263 32.2354C16.7988 32.2657 16.7713 32.2959 16.7439 32.3261C19.3789 35.6202 22.014 38.9143 24.732 42.312C24.732 40.0371 24.7381 37.9179 24.7179 35.7989C24.7166 35.6613 24.5417 35.4601 24.4 35.3992C22.9872 34.7925 21.5642 34.2097 20.1446 33.619C19.0381 33.1586 17.9324 32.6967 16.8263 32.2354Z" fill="#4AB3FF"/>
</g>
<defs>
<clipPath id="clip0_3028_26642">
<rect width="48" height="48" fill="white" transform="translate(0.5 0.0976562)"/>
</clipPath>
</defs>
</svg>
