<svg width="36" height="36" viewBox="0 0 36 36" fill="none" xmlns="http://www.w3.org/2000/svg">
<g clip-path="url(#clip0_3955_10918)">
<path d="M1.05469 7.64683C1.63716 7.64683 2.10937 7.17462 2.10937 6.59215V2.10937H6.59215C7.17462 2.10937 7.64683 1.63716 7.64683 1.05469C7.64683 0.472219 7.17462 0 6.59215 0H2.10937C0.946266 0 0 0.946266 0 2.10937V6.59215C0 7.17469 0.472219 7.64683 1.05469 7.64683Z" fill="#C6E7FF"/>
<path d="M33.889 0H29.4062C28.8238 0 28.3516 0.472219 28.3516 1.05469C28.3516 1.63716 28.8238 2.10937 29.4062 2.10937H33.889V6.59215C33.889 7.17462 34.3612 7.64683 34.9437 7.64683C35.5262 7.64683 35.9984 7.17462 35.9984 6.59215V2.10937C35.9984 0.946266 35.0521 0 33.889 0Z" fill="#C6E7FF"/>
<path d="M34.9437 28.3438C34.3612 28.3438 33.889 28.816 33.889 29.3984V33.8812H29.4062C28.8238 33.8812 28.3516 34.3534 28.3516 34.9359C28.3516 35.5184 28.8238 35.9906 29.4062 35.9906H33.889C35.0521 35.9906 35.9984 35.0443 35.9984 33.8812V29.3984C35.9984 28.8159 35.5262 28.3438 34.9437 28.3438Z" fill="#C6E7FF"/>
<path d="M6.59215 33.8812H2.10937V29.3984C2.10937 28.816 1.63716 28.3438 1.05469 28.3438C0.472219 28.3438 0 28.816 0 29.3984V33.8812C0 35.0443 0.946266 35.9906 2.10937 35.9906H6.59215C7.17462 35.9906 7.64683 35.5184 7.64683 34.9359C7.64683 34.3534 7.17462 33.8812 6.59215 33.8812Z" fill="#C6E7FF"/>
<path d="M9.6975 10.625C5.55616 12.3124 1.96523 15.3712 0.0232031 18.2455C-0.00773438 18.2919 -0.00773438 18.3516 0.0232031 18.398C2.31117 21.7871 5.8275 24.3148 10.0266 25.7183C5.98683 21.5515 5.83587 14.9731 9.6975 10.625Z" fill="#C6E7FF"/>
<path d="M26.3073 10.625C30.2062 15.015 29.9778 21.6355 26 25.7077C30.1906 24.3022 33.6992 21.7787 35.9816 18.398C36.0125 18.3516 36.0125 18.2919 35.9816 18.2455C34.0111 15.3282 30.4139 12.2982 26.3073 10.625Z" fill="#C6E7FF"/>
<path d="M18.0022 9C13.0438 9 9.00781 13.0337 9.00781 17.9944C9.00781 24.7807 16.2972 29.228 22.3672 25.8525C25.2662 24.2395 26.9966 21.3019 26.9966 17.9944C26.9966 13.0353 22.9623 9 18.0022 9ZM19.9766 23.2045C16.3981 24.5563 12.4327 21.9671 12.4327 17.9944C12.4327 13.5783 17.2919 11.0706 20.7542 13.1505C24.8384 15.4781 24.3873 21.5376 19.9766 23.2045Z" fill="#C6E7FF"/>
<path d="M19.712 14.9811C17.346 13.6739 14.5391 15.3793 14.5391 17.9898C14.5391 20.4415 16.983 22.0777 19.2268 21.227C22.0124 20.1735 22.2035 16.4071 19.712 14.9811Z" fill="#C6E7FF"/>
</g>
<defs>
<clipPath id="clip0_3955_10918">
<rect width="36" height="36" fill="white"/>
</clipPath>
</defs>
</svg>
