<svg width="51" height="50" viewBox="0 0 51 50" fill="none" xmlns="http://www.w3.org/2000/svg">
<g clip-path="url(#clip0_338_21940)">
<path d="M25.5 17.7734C22.2685 17.7734 19.543 20.4013 19.543 23.6328C19.543 26.8644 22.2685 29.4922 25.5 29.4922C28.7315 29.4922 31.457 26.8644 31.457 23.6328C31.457 20.4013 28.7315 17.7734 25.5 17.7734Z" fill="#0094FF"/>
<path d="M49.6434 18.6317C48.5009 17.4891 46.6433 17.4891 45.5007 18.6317L31.7105 32.4218H19.2929L5.50281 18.6317C4.36013 17.4891 2.50271 17.4891 1.36003 18.6317C0.21853 19.7732 0.21853 21.6329 1.36003 22.7745L15.1502 36.5646V48.5351C15.1502 49.3441 15.806 50 16.615 50H34.3885C35.1974 50 35.8533 49.3441 35.8533 48.5351V36.5646L49.6434 22.7745C50.7849 21.633 50.7849 19.7733 49.6434 18.6317Z" fill="#0094FF"/>
<path d="M46.6348 3.02842C46.3157 2.90537 38.5677 0 25.5 0C12.4323 0 4.68428 2.90537 4.36523 3.02842C3.80166 3.24727 3.42969 3.78945 3.42969 4.39453V14.8452C4.99463 14.8452 6.4667 15.4546 7.57246 16.5604L7.92646 16.9144C11.0878 16.0758 17.2252 14.8438 25.5 14.8438C33.7748 14.8438 39.9122 16.0758 43.0735 16.9145L43.4275 16.5604C44.5333 15.4546 46.0053 14.8452 47.5703 14.8452V4.39453C47.5703 3.78945 47.1983 3.24727 46.6348 3.02842Z" fill="#0094FF"/>
</g>
<defs>
<clipPath id="clip0_338_21940">
<rect width="50" height="50" fill="white" transform="translate(0.5)"/>
</clipPath>
</defs>
</svg>
