<svg width="33" height="32" viewBox="0 0 33 32" fill="none" xmlns="http://www.w3.org/2000/svg">
<g clip-path="url(#clip0_1_11533)">
<path d="M16.5312 6.95312C16.9196 6.95312 17.2344 6.63831 17.2344 6.25V4.70312C17.2344 4.31481 16.9196 4 16.5312 4C16.1429 4 15.8281 4.31481 15.8281 4.70312V6.25C15.8281 6.63831 16.1429 6.95312 16.5312 6.95312Z" fill="#0094FF"/>
<path d="M11.7273 7.20563L12.9122 8.19994C13.2116 8.45115 13.6548 8.40882 13.9028 8.11327C14.1524 7.8158 14.1136 7.37232 13.8161 7.12271L12.6312 6.1284C12.3336 5.87874 11.8902 5.9176 11.6406 6.21507C11.391 6.51249 11.4298 6.95602 11.7273 7.20563Z" fill="#0094FF"/>
<path d="M20.1503 8.19993L21.3352 7.20561C21.6328 6.956 21.6715 6.51247 21.4219 6.21505C21.1723 5.91758 20.7288 5.87877 20.4313 6.12838L19.2464 7.12269C18.9489 7.3723 18.9101 7.81583 19.1597 8.11325C19.4086 8.40983 19.852 8.45024 20.1503 8.19993Z" fill="#0094FF"/>
<path d="M10.2031 22.3281H13.0156V23.7344H10.2031V22.3281Z" fill="#0094FF"/>
<path d="M22.3622 23.5284L20.2528 21.419C19.9783 21.1444 19.9783 20.6992 20.2528 20.4247L22.3622 18.3153C22.494 18.1835 22.6729 18.1094 22.8594 18.1094H27.0781V16.0469C27.0781 14.8837 26.1319 13.9375 24.9688 13.9375H7.50781C6.95019 13.9375 6.42856 13.7808 5.98438 13.5093V25.1875C5.98438 26.7383 7.24606 28 8.79688 28H24.9688C26.1483 28 27.0781 27.0318 27.0781 25.9049V23.7344H22.8594C22.6729 23.7344 22.494 23.6602 22.3622 23.5284ZM14.4219 24.4375C14.4219 24.8258 14.1071 25.1406 13.7188 25.1406H9.5C9.11169 25.1406 8.79688 24.8258 8.79688 24.4375V21.625C8.79688 21.2367 9.11169 20.9219 9.5 20.9219H13.7188C14.1071 20.9219 14.4219 21.2367 14.4219 21.625V24.4375Z" fill="#0094FF"/>
<path d="M23.1506 19.5156L21.7444 20.9219L23.1506 22.3281H28.0156V19.5156H23.1506Z" fill="#0094FF"/>
<path d="M7.50781 12.5312H25.6719V11.5938C25.6719 10.4288 24.7275 9.48438 23.5625 9.48438H7.50781C6.66645 9.48438 5.98438 10.1665 5.98438 11.0078C5.98438 11.8492 6.66645 12.5312 7.50781 12.5312Z" fill="#0094FF"/>
</g>
<defs>
<clipPath id="clip0_1_11533">
<rect width="24" height="24" fill="white" transform="translate(5 4)"/>
</clipPath>
</defs>
</svg>
