<svg width="47" height="47" viewBox="0 0 47 47" fill="none" xmlns="http://www.w3.org/2000/svg">
<path d="M33.0647 5.65332L28.8672 8.16895L24.6841 5.65332L20.4866 8.16895L16.3034 5.65332L12.1059 8.16895L7.90844 5.65332L3.71094 8.16895V38.6439C3.71094 40.5414 5.24906 42.0796 7.14656 42.0796H27.5044C24.4699 39.9377 22.4789 36.4115 22.4789 32.4239C22.4789 25.9063 27.7804 20.6048 34.2981 20.6048C35.3187 20.6048 36.3034 20.7485 37.2478 20.9929V8.16895L33.0647 5.65332ZM19.5047 33.4848H10.6957C9.98131 33.4848 9.402 32.9054 9.402 32.191C9.402 31.4766 9.98131 30.8973 10.6957 30.8973H19.5047C20.2192 30.8973 20.7985 31.4766 20.7985 32.191C20.7985 32.9054 20.2192 33.4848 19.5047 33.4848ZM21.5503 26.4324H10.6972C9.98275 26.4324 9.40344 25.8531 9.40344 25.1386C9.40344 24.4242 9.98275 23.8449 10.6972 23.8449H21.5503C22.2647 23.8449 22.8441 24.4242 22.8441 25.1386C22.8441 25.8531 22.2647 26.4324 21.5503 26.4324ZM30.2687 19.3685H10.6957C9.98131 19.3685 9.402 18.7892 9.402 18.0748C9.402 17.3603 9.98131 16.781 10.6957 16.781H30.2687C30.9832 16.781 31.5625 17.3603 31.5625 18.0748C31.5625 18.7892 30.9832 19.3685 30.2687 19.3685Z" fill="#4AB3FF"/>
<path d="M34.2957 22.7607C28.9583 22.7607 24.6328 27.0876 24.6328 32.4236C24.6328 37.7596 28.9597 42.0865 34.2957 42.0865C39.6317 42.0865 43.9586 37.7596 43.9586 32.4236C43.9586 27.0876 39.6317 22.7607 34.2957 22.7607ZM35.5851 37.0711V37.3456C35.5851 38.0601 35.0058 38.6394 34.2914 38.6394C33.5942 38.6394 33.0336 38.0845 33.0077 37.3931C32.529 37.3241 32.0762 37.1127 31.7254 36.7749C31.2712 36.3351 31.0196 35.7457 31.0196 35.1132C31.0196 34.3987 31.5989 33.8194 32.3134 33.8194C32.9301 33.8194 33.4447 34.2492 33.5755 34.8271C34.5789 34.7581 35.3422 34.4936 35.3566 34.1932C35.3609 34.209 35.1136 33.9402 34.0024 33.6857C31.6722 33.1567 30.5453 32.0829 30.6545 30.4916C30.7106 29.6607 31.1346 28.3943 32.9991 27.7791V27.5016C32.9991 26.7872 33.5784 26.2079 34.2928 26.2079C34.9914 26.2079 35.5506 26.7627 35.5765 27.4556C36.0509 27.5246 36.4979 27.7273 36.8516 28.0694C37.3015 28.5036 37.5588 29.1116 37.5588 29.7369C37.5588 30.4514 36.9795 31.0307 36.2651 31.0307C35.6498 31.0307 35.1338 30.6009 35.0029 30.0244C33.9564 30.0934 33.2578 30.3436 33.2363 30.6684C33.2334 30.6541 33.4231 30.9013 34.576 31.1629C37.4107 31.8084 37.9714 33.1999 37.9441 34.255C37.9239 34.9594 37.6163 36.4012 35.5851 37.0711Z" fill="#4AB3FF"/>
</svg>
