<svg width="51" height="50" viewBox="0 0 51 50" fill="none" xmlns="http://www.w3.org/2000/svg">
<g clip-path="url(#clip0_338_22024)">
<path d="M10.3491 9.15884C9.49683 9.15884 8.72137 8.95625 8.02275 8.55105C7.32414 8.13188 6.76525 7.57299 6.34608 6.87437C5.94088 6.17576 5.73828 5.40029 5.73828 4.54798C5.73828 3.70965 5.94088 2.94816 6.34608 2.26351C6.76525 1.5649 7.32414 1.01299 8.02275 0.607795C8.72137 0.202598 9.49683 0 10.3491 0C11.1875 0 11.949 0.202598 12.6336 0.607795C13.3183 1.01299 13.8632 1.5649 14.2684 2.26351C14.6875 2.94816 14.8971 3.70965 14.8971 4.54798C14.8971 5.40029 14.6875 6.17576 14.2684 6.87437C13.8632 7.57299 13.3183 8.13188 12.6336 8.55105C11.949 8.95625 11.1875 9.15884 10.3491 9.15884ZM7.93892 26.219C7.33811 26.219 6.83511 26.0094 6.42991 25.5903C6.02471 25.1711 5.82212 24.6751 5.82212 24.1022V15.5512C5.82212 14.7827 6.01074 14.0841 6.38799 13.4553C6.76525 12.8126 7.27523 12.3026 7.91796 11.9254C8.56069 11.5341 9.26629 11.3385 10.0348 11.3385H20.6817V4.17073C20.6817 3.56992 20.8843 3.06692 21.2895 2.66172C21.7086 2.24255 22.2116 2.03297 22.7985 2.03297C23.3853 2.03297 23.8883 2.24255 24.3075 2.66172C24.7266 3.06692 24.9362 3.56992 24.9362 4.17073V13.4344C24.9362 14.0212 24.7266 14.5242 24.3075 14.9434C23.8883 15.3486 23.3853 15.5512 22.7985 15.5512H17.7475C17.6497 15.5512 17.5868 15.5931 17.5588 15.6769C17.5309 15.7468 17.5519 15.8097 17.6217 15.8655L23.1338 21.3986L42.9814 9.51514C43.4845 9.20775 44.0154 9.12391 44.5743 9.26364C45.1472 9.40336 45.5943 9.72472 45.9156 10.2277C46.1951 10.7307 46.258 11.2687 46.1043 11.8415C45.9645 12.4004 45.6432 12.8266 45.1402 13.12L34.7238 19.3866L24.2446 27.225C23.7556 27.6023 23.2316 27.8817 22.6727 28.0634C22.1278 28.231 21.5689 28.3149 20.996 28.3149C20.2974 28.3149 19.6128 28.1821 18.9421 27.9167C18.2714 27.6512 17.6706 27.26 17.1397 26.743L16.6157 26.219H7.93892ZM9.88805 22.0693H12.6755L10.433 19.8267C10.3212 19.7149 10.2024 19.694 10.0767 19.7638C9.95093 19.8197 9.88805 19.9175 9.88805 20.0572V22.0693ZM21.3104 49.5667C20.7515 49.455 20.3044 49.1476 19.9691 48.6446C19.6477 48.1555 19.5429 47.6246 19.6547 47.0517L21.6877 36.845L20.3882 30.3059C20.486 30.3199 20.5839 30.3269 20.6817 30.3269C20.7934 30.3269 20.8982 30.3269 20.996 30.3269C21.7785 30.3269 22.5539 30.2011 23.3224 29.9496C24.1049 29.6981 24.8594 29.2999 25.5859 28.755L25.9841 36.4887C26.0121 36.7821 26.0051 37.0406 25.9632 37.2641L23.8464 47.8901C23.7206 48.4769 23.3993 48.924 22.8823 49.2314C22.3793 49.5528 21.8553 49.6645 21.3104 49.5667ZM23.8673 7.33546C22.9871 7.33546 22.2326 7.02807 21.6038 6.41329C20.989 5.79851 20.6817 5.05099 20.6817 4.17073C20.6817 3.29048 20.989 2.54296 21.6038 1.92818C22.2326 1.29942 22.9871 0.985047 23.8673 0.985047C24.7476 0.985047 25.5021 1.29942 26.1309 1.92818C26.7596 2.54296 27.074 3.29048 27.074 4.17073C27.074 5.05099 26.7596 5.79851 26.1309 6.41329C25.5021 7.02807 24.7476 7.33546 23.8673 7.33546Z" fill="#4AB3FF"/>
</g>
<defs>
<clipPath id="clip0_338_22024">
<rect width="50" height="50" fill="white" transform="translate(0.832031)"/>
</clipPath>
</defs>
</svg>
