<svg width="49" height="48" viewBox="0 0 49 48" fill="none" xmlns="http://www.w3.org/2000/svg">
<g id="flash 1" clip-path="url(#clip0_298_20569)">
<g id="Group">
<g id="Group_2">
<path id="Vector" d="M31.3169 40.0532L39.7478 24.8025C41.204 22.5023 41.2248 19.5754 39.8124 17.2575C38.5268 15.0638 36.1683 13.7016 33.605 13.7021C33.6042 13.7021 33.6035 13.7021 33.6027 13.7021H32.1429L32.298 10.2841L32.2998 10.2441L32.3011 10.204C32.3262 9.43435 32.2295 8.68259 32.0261 7.97027C38.0276 10.7441 42.1953 16.8114 42.2099 23.8551C42.2081 31.178 37.7054 37.4497 31.3169 40.0532ZM15.816 34.0194H17.2646L17.1032 37.4219C17.1032 37.4228 17.1031 37.4237 17.1031 37.4245C17.0655 38.2155 17.1572 38.9888 17.3618 39.7209C11.3846 36.9446 7.23753 30.8907 7.23145 23.8657C7.22512 16.5528 11.708 10.2844 18.0778 7.66704L9.52319 23.2554C8.25302 25.5024 8.27888 28.2623 9.60074 30.4884L9.63824 30.5516L9.67722 30.6139C10.9885 32.7084 13.2759 33.9919 15.7476 34.019L15.7818 34.0194H15.816ZM33.6151 26.2021C33.6118 26.2021 33.6084 26.2021 33.605 26.2021L33.6151 26.2021Z" fill="#4AB3FF" stroke="#4AB3FF" stroke-width="12.5"/>
</g>
</g>
</g>
<defs>
<clipPath id="clip0_298_20569">
<rect width="47.4785" height="47.4785" fill="white" transform="translate(0.981445 0.111328)"/>
</clipPath>
</defs>
</svg>
