<svg width="48" height="48" viewBox="0 0 48 48" fill="none" xmlns="http://www.w3.org/2000/svg">
<g clip-path="url(#clip0_3028_25448)">
<path d="M9.13663 9.28494V44.1467H11.3029V43.4408C11.3029 30.5138 11.3044 17.5868 11.3012 4.65974C11.3008 2.90927 12.002 1.58013 13.6338 0.863905C14.1166 0.65196 14.688 0.555183 15.2194 0.553211C20.9848 0.53181 26.7505 0.530056 32.516 0.544662C34.7953 0.550435 36.3916 2.16352 36.4317 4.45261C36.4481 5.3903 36.435 6.32851 36.435 7.26649C36.435 19.3067 36.435 31.3469 36.435 43.3871V44.1404H38.5833V9.18296C39.919 9.27236 41.2316 9.20686 42.4691 9.48055C44.1445 9.85106 45.156 11.4016 45.1577 13.2032C45.1627 18.7458 45.1596 24.2884 45.1596 29.831C45.1596 34.4015 45.1596 38.972 45.1596 43.5425V44.1837C45.3658 44.1837 45.517 44.1767 45.6673 44.1848C46.6731 44.2392 47.3542 44.9374 47.3297 45.8849C47.3059 46.8027 46.6096 47.4555 45.6073 47.458C42.4528 47.466 39.2981 47.4613 36.1435 47.4614C30.8736 47.4615 25.6037 47.4614 20.3338 47.4614C16.9232 47.4614 13.5126 47.4615 10.102 47.4614C7.52738 47.4613 4.95267 47.4723 2.37815 47.4558C1.06558 47.4474 0.274259 46.1751 0.86878 45.0655C1.22181 44.4067 1.82455 44.1785 2.57833 44.1684V43.4932C2.57835 33.4145 2.57686 23.3357 2.57961 13.2569C2.58018 11.1534 3.95006 9.50235 5.95693 9.30284C6.98411 9.20072 8.02983 9.28494 9.13663 9.28494ZM26.6134 44.1437H29.8467C29.8604 44.042 29.8769 43.9765 29.877 43.9109C29.8784 39.8362 29.8952 35.7613 29.8707 31.6866C29.8607 30.039 28.6723 28.9201 27.0221 28.9152C24.9928 28.9092 22.9635 28.9133 20.9342 28.9138C18.9609 28.9142 17.8594 30.0097 17.8584 31.9794C17.8565 35.8496 17.8578 39.7198 17.8578 43.59C17.8578 43.7719 17.8578 43.9537 17.8578 44.1523H21.1312V32.2249H26.6134V44.1437ZM19.5351 8.65924C19.1432 8.74078 18.7018 8.7349 18.3686 8.92178C17.6136 9.34518 17.6251 11.3004 18.3433 11.796C18.7758 12.0944 20.2295 12.0929 20.6628 11.7936C21.3589 11.3128 21.3609 9.32745 20.6302 8.91815C20.3238 8.74652 19.9223 8.74467 19.5351 8.65924ZM26.5621 10.326C26.6168 10.6861 26.6085 11.0595 26.7365 11.3782C26.9497 11.9092 27.444 12.0145 27.9676 12.0002C28.6182 11.9823 29.4554 12.1771 29.6984 11.3943C29.8965 10.7562 29.8944 9.9603 29.6995 9.32004C29.4556 8.51921 28.6118 8.76202 27.9689 8.72968C27.4437 8.70326 26.9525 8.79644 26.7354 9.33373C26.6127 9.63726 26.616 9.99168 26.5621 10.326ZM19.5009 15.2321C19.1562 15.2872 18.7755 15.272 18.4662 15.413C17.7745 15.7284 17.8643 16.3967 17.8549 17.0096C17.8463 17.5752 17.8613 18.2335 18.4722 18.3818C19.1197 18.539 19.8666 18.5525 20.5099 18.3901C21.2179 18.2114 21.1298 17.4781 21.1315 16.878C21.133 16.291 21.1797 15.6719 20.5103 15.3989C20.2077 15.2755 19.8508 15.2854 19.5009 15.2321ZM26.5649 16.9115C26.6187 17.2393 26.605 17.6375 26.754 17.9606C27.0483 18.5986 27.6752 18.5508 28.2611 18.5522C28.8341 18.5536 29.532 18.5934 29.6955 17.9573C29.8644 17.3001 29.9098 16.5126 29.704 15.8816C29.4197 15.0102 28.5118 15.3251 27.8283 15.2821C27.3254 15.2504 26.9008 15.4275 26.7178 15.9166C26.6084 16.2089 26.6166 16.5453 26.5649 16.9115ZM21.1665 23.4426C21.1233 23.1285 21.1412 22.7692 21.0189 22.4666C20.7161 21.7171 20.0244 21.8408 19.3992 21.825C18.8149 21.8102 18.1554 21.8162 17.9985 22.4686C17.8495 23.0882 17.8433 23.7981 17.9896 24.4175C18.1482 25.0887 18.8211 25.1098 19.4247 25.1021C20.0605 25.0941 20.7349 25.1584 21.0288 24.4195C21.1434 24.1314 21.1222 23.7892 21.1665 23.4426ZM26.548 23.41C26.6181 23.7933 26.6049 24.2144 26.7731 24.5426C27.191 25.3576 29.2671 25.3813 29.6832 24.5618C30.0403 23.8588 30.0371 23.0511 29.6853 22.3468C29.2866 21.5488 27.1812 21.5758 26.7697 22.3657C26.6139 22.6647 26.6195 23.0477 26.548 23.41Z" fill="#4AB3FF"/>
</g>
<defs>
<clipPath id="clip0_3028_25448">
<rect width="48" height="48" fill="white"/>
</clipPath>
</defs>
</svg>
