<svg width="50" height="50" viewBox="0 0 50 50" fill="none" xmlns="http://www.w3.org/2000/svg">
<g id="Icon">
<g id="Vector">
<mask id="path-1-inside-1_298_22272" fill="white">
<path d="M24.4588 48.7399C22.2698 48.6126 19.5407 48.5061 16.8215 48.2797C14.5702 48.0922 12.3583 47.6419 10.2376 46.8211C6.58627 45.4078 4.30351 42.7493 3.14868 39.0627C2.47592 36.9151 2.14404 34.7059 1.95161 32.4704C1.613 28.5366 1.60162 24.5969 1.78604 20.6579C1.93129 17.5557 2.25213 14.4759 3.21438 11.4927C4.57095 7.28712 7.42281 4.66954 11.6306 3.44858C14.0743 2.73948 16.5788 2.42971 19.1085 2.26183C22.6266 2.02836 26.1469 2.02186 29.6661 2.18621C32.5751 2.32206 35.4619 2.62286 38.2836 3.41958C42.8693 4.71439 45.7518 7.66231 47.0192 12.2262C47.5718 14.2159 47.8755 16.2463 48.0512 18.3002C48.3865 22.219 48.3988 26.1435 48.2159 30.0674C48.0763 33.0632 47.763 36.0366 46.8913 38.9318C45.5424 43.412 42.5623 46.1641 38.0882 47.3868C35.7237 48.0329 33.3103 48.3545 30.8696 48.4808C28.9152 48.5819 26.9587 48.6407 24.4588 48.7399ZM23.5794 19.527C23.2967 19.527 23.0675 19.2978 23.0675 19.0151C23.0672 17.9234 23.0837 16.8314 23.0622 15.7401C23.0391 14.5627 22.1982 13.7214 21.0953 13.73C19.9973 13.7385 19.1758 14.6086 19.1714 15.7767C19.1671 16.8835 19.1704 17.9904 19.1704 19.0972C19.1704 19.3481 18.967 19.5515 18.7161 19.5515C17.601 19.5512 16.5321 19.5503 15.4631 19.5519C14.2227 19.5538 13.3412 20.3616 13.3413 21.4927C13.3413 22.6232 14.2176 23.4339 15.4643 23.4427C16.5269 23.4503 17.5897 23.4435 18.6524 23.4454C18.9289 23.4458 19.1463 23.6841 19.1463 23.9606V26.7929C19.1463 27.0756 18.9171 27.3047 18.6344 27.3048C17.5413 27.305 16.4479 27.2889 15.3552 27.31C14.1812 27.3327 13.333 28.1773 13.3414 29.2737C13.3499 30.3707 14.2206 31.1917 15.3905 31.1966C16.4987 31.2012 17.607 31.1976 18.7152 31.1977C18.8034 31.1977 18.8915 31.1977 18.9764 31.1977C19.0684 31.1977 19.1659 31.26 19.1661 31.352C19.1682 32.5346 19.1682 33.7173 19.1707 34.8999C19.1733 36.1391 19.9822 37.0198 21.1148 37.0193C22.2483 37.0187 23.0575 36.1456 23.0666 34.8981C23.0742 33.8368 23.0673 32.7754 23.0692 31.7141C23.0697 31.4385 23.3071 31.2219 23.5826 31.2219H26.4228C26.7053 31.2219 26.9343 31.4509 26.9343 31.7334C26.9346 32.8251 26.9189 33.9171 26.9394 35.0084C26.9614 36.1817 27.806 37.0279 28.9059 37.0191C30.0049 37.0102 30.8256 36.1409 30.8304 34.9714C30.8349 33.8645 30.8314 32.7577 30.8314 31.6508C30.8314 31.4005 31.0343 31.1976 31.2846 31.1977C32.4009 31.198 33.4704 31.1991 34.5398 31.1972C35.7809 31.195 36.6619 30.3856 36.6605 29.2534C36.6591 28.1216 35.7834 27.3141 34.5355 27.3063C33.4729 27.2996 32.4101 27.3057 31.3474 27.3038C31.0724 27.3033 30.8562 27.0665 30.8562 26.7915V23.8444C30.8562 23.6324 31.0209 23.4457 31.2329 23.4454C32.3563 23.4437 33.4799 23.4564 34.6031 23.4407C35.8116 23.4237 36.6703 22.5892 36.6603 21.4725C36.6503 20.359 35.7742 19.5549 34.5632 19.552C33.5612 19.5496 32.5592 19.5515 31.5573 19.5515C31.1564 19.5515 30.8314 19.2265 30.8315 18.8256C30.8319 17.8082 30.8326 16.8274 30.8309 15.8467C30.8288 14.6084 30.0178 13.7283 28.8843 13.7298C27.7515 13.7312 26.9432 14.6054 26.9351 15.8517C26.9282 16.913 26.9345 17.9744 26.9326 19.0358C26.9321 19.3108 26.6952 19.527 26.4202 19.527H23.5794Z"/>
</mask>
<path d="M24.4588 48.7399C22.2698 48.6126 19.5407 48.5061 16.8215 48.2797C14.5702 48.0922 12.3583 47.6419 10.2376 46.8211C6.58627 45.4078 4.30351 42.7493 3.14868 39.0627C2.47592 36.9151 2.14404 34.7059 1.95161 32.4704C1.613 28.5366 1.60162 24.5969 1.78604 20.6579C1.93129 17.5557 2.25213 14.4759 3.21438 11.4927C4.57095 7.28712 7.42281 4.66954 11.6306 3.44858C14.0743 2.73948 16.5788 2.42971 19.1085 2.26183C22.6266 2.02836 26.1469 2.02186 29.6661 2.18621C32.5751 2.32206 35.4619 2.62286 38.2836 3.41958C42.8693 4.71439 45.7518 7.66231 47.0192 12.2262C47.5718 14.2159 47.8755 16.2463 48.0512 18.3002C48.3865 22.219 48.3988 26.1435 48.2159 30.0674C48.0763 33.0632 47.763 36.0366 46.8913 38.9318C45.5424 43.412 42.5623 46.1641 38.0882 47.3868C35.7237 48.0329 33.3103 48.3545 30.8696 48.4808C28.9152 48.5819 26.9587 48.6407 24.4588 48.7399ZM23.5794 19.527C23.2967 19.527 23.0675 19.2978 23.0675 19.0151C23.0672 17.9234 23.0837 16.8314 23.0622 15.7401C23.0391 14.5627 22.1982 13.7214 21.0953 13.73C19.9973 13.7385 19.1758 14.6086 19.1714 15.7767C19.1671 16.8835 19.1704 17.9904 19.1704 19.0972C19.1704 19.3481 18.967 19.5515 18.7161 19.5515C17.601 19.5512 16.5321 19.5503 15.4631 19.5519C14.2227 19.5538 13.3412 20.3616 13.3413 21.4927C13.3413 22.6232 14.2176 23.4339 15.4643 23.4427C16.5269 23.4503 17.5897 23.4435 18.6524 23.4454C18.9289 23.4458 19.1463 23.6841 19.1463 23.9606V26.7929C19.1463 27.0756 18.9171 27.3047 18.6344 27.3048C17.5413 27.305 16.4479 27.2889 15.3552 27.31C14.1812 27.3327 13.333 28.1773 13.3414 29.2737C13.3499 30.3707 14.2206 31.1917 15.3905 31.1966C16.4987 31.2012 17.607 31.1976 18.7152 31.1977C18.8034 31.1977 18.8915 31.1977 18.9764 31.1977C19.0684 31.1977 19.1659 31.26 19.1661 31.352C19.1682 32.5346 19.1682 33.7173 19.1707 34.8999C19.1733 36.1391 19.9822 37.0198 21.1148 37.0193C22.2483 37.0187 23.0575 36.1456 23.0666 34.8981C23.0742 33.8368 23.0673 32.7754 23.0692 31.7141C23.0697 31.4385 23.3071 31.2219 23.5826 31.2219H26.4228C26.7053 31.2219 26.9343 31.4509 26.9343 31.7334C26.9346 32.8251 26.9189 33.9171 26.9394 35.0084C26.9614 36.1817 27.806 37.0279 28.9059 37.0191C30.0049 37.0102 30.8256 36.1409 30.8304 34.9714C30.8349 33.8645 30.8314 32.7577 30.8314 31.6508C30.8314 31.4005 31.0343 31.1976 31.2846 31.1977C32.4009 31.198 33.4704 31.1991 34.5398 31.1972C35.7809 31.195 36.6619 30.3856 36.6605 29.2534C36.6591 28.1216 35.7834 27.3141 34.5355 27.3063C33.4729 27.2996 32.4101 27.3057 31.3474 27.3038C31.0724 27.3033 30.8562 27.0665 30.8562 26.7915V23.8444C30.8562 23.6324 31.0209 23.4457 31.2329 23.4454C32.3563 23.4437 33.4799 23.4564 34.6031 23.4407C35.8116 23.4237 36.6703 22.5892 36.6603 21.4725C36.6503 20.359 35.7742 19.5549 34.5632 19.552C33.5612 19.5496 32.5592 19.5515 31.5573 19.5515C31.1564 19.5515 30.8314 19.2265 30.8315 18.8256C30.8319 17.8082 30.8326 16.8274 30.8309 15.8467C30.8288 14.6084 30.0178 13.7283 28.8843 13.7298C27.7515 13.7312 26.9432 14.6054 26.9351 15.8517C26.9282 16.913 26.9345 17.9744 26.9326 19.0358C26.9321 19.3108 26.6952 19.527 26.4202 19.527H23.5794Z" fill="#4AB3FF"/>
<path d="M24.4588 48.7399L18.9447 143.58L23.5829 143.849L28.2253 143.665L24.4588 48.7399ZM16.8215 48.2797L24.7066 -46.3925L24.7065 -46.3925L16.8215 48.2797ZM10.2376 46.8211L-24.053 135.417L-24.0529 135.417L10.2376 46.8211ZM3.14868 39.0627L93.8049 10.6646V10.6646L3.14868 39.0627ZM1.95161 32.4704L96.6016 24.3231V24.3231L1.95161 32.4704ZM1.78604 20.6579L-93.11 16.2149L-93.11 16.2149L1.78604 20.6579ZM3.21438 11.4927L93.6272 40.6564L93.6272 40.6564L3.21438 11.4927ZM11.6306 3.44858L38.1046 94.6852H38.1046L11.6306 3.44858ZM19.1085 2.26183L12.8179 -92.5297H12.8179L19.1085 2.26183ZM29.6661 2.18621L34.0978 -92.7104H34.0978L29.6661 2.18621ZM38.2836 3.41958L12.4689 94.845H12.4689L38.2836 3.41958ZM47.0192 12.2262L-44.5163 37.6475L47.0192 12.2262ZM48.0512 18.3002L142.705 10.2013L142.705 10.2008L48.0512 18.3002ZM48.2159 30.0674L-46.681 25.6441L-46.681 25.6442L48.2159 30.0674ZM46.8913 38.9318L137.858 66.32L137.858 66.3199L46.8913 38.9318ZM38.0882 47.3868L63.1311 139.027L63.1312 139.027L38.0882 47.3868ZM30.8696 48.4808L35.7798 143.354H35.7799L30.8696 48.4808ZM23.0622 15.7401L118.044 13.8718L118.044 13.8715L23.0622 15.7401ZM21.0953 13.73L21.8338 108.727H21.834L21.0953 13.73ZM19.1714 15.7767L-75.8279 15.413V15.4131L19.1714 15.7767ZM15.4631 19.5519L15.6082 114.552H15.6084L15.4631 19.5519ZM13.3413 21.4927L-81.6587 21.4948L13.3413 21.4927ZM15.4643 23.4427L16.1396 -71.5549L16.1393 -71.5549L15.4643 23.4427ZM15.3552 27.31L17.1908 122.292H17.1909L15.3552 27.31ZM13.3414 29.2737L-81.6557 30.0069V30.0069L13.3414 29.2737ZM15.3905 31.1966L14.9919 126.196H14.9921L15.3905 31.1966ZM18.7152 31.1977L18.7128 126.198H18.7134L18.7152 31.1977ZM19.1707 34.8999L114.17 34.703V34.7027L19.1707 34.8999ZM21.1148 37.0193L21.0695 -57.9807H21.0694L21.1148 37.0193ZM23.0666 34.8981L-71.9309 34.2104V34.2106L23.0666 34.8981ZM26.9394 35.0084L121.923 33.2243V33.224L26.9394 35.0084ZM28.9059 37.0191L28.143 -57.9779H28.1429L28.9059 37.0191ZM30.8304 34.9714L-64.1688 34.5846V34.5848L30.8304 34.9714ZM34.5398 31.1972L34.3734 -63.8027H34.3733L34.5398 31.1972ZM36.6605 29.2534L131.66 29.1363V29.1362L36.6605 29.2534ZM34.5355 27.3063L33.9367 122.304H33.9368L34.5355 27.3063ZM34.6031 23.4407L35.933 118.431H35.933L34.6031 23.4407ZM36.6603 21.4725L131.656 20.6203V20.6202L36.6603 21.4725ZM34.5632 19.552L34.3345 114.552H34.3348L34.5632 19.552ZM30.8309 15.8467L125.831 15.6845L125.831 15.6844L30.8309 15.8467ZM28.8843 13.7298L28.7631 -81.2701H28.7629L28.8843 13.7298ZM26.9351 15.8517L121.933 16.4718V16.4717L26.9351 15.8517ZM30.8315 18.8256L-64.1684 18.7936L30.8315 18.8256ZM31.2846 31.1977L31.2608 126.198L31.2846 31.1977ZM18.9764 31.1977L18.977 126.198L18.9764 31.1977ZM18.7161 19.5515L18.7369 -75.4485L18.7161 19.5515ZM29.9729 -46.0999C29.0957 -46.1509 28.2468 -46.1951 27.642 -46.2265C26.9529 -46.2622 26.5015 -46.2853 26.025 -46.3113C25.5808 -46.3356 25.2676 -46.3543 25.0319 -46.3697C24.7976 -46.385 24.7001 -46.3931 24.7066 -46.3925L8.93646 142.952C11.6088 143.174 13.9985 143.315 15.653 143.405C18.1757 143.543 17.7764 143.512 18.9447 143.58L29.9729 -46.0999ZM24.7065 -46.3925C29.8408 -45.9649 36.757 -44.7822 44.528 -41.7744L-24.0529 135.417C-12.0403 140.066 -0.700455 142.149 8.93659 142.952L24.7065 -46.3925ZM44.5281 -41.7744C55.6482 -37.4704 66.9072 -30.2753 76.3818 -19.744C85.6795 -9.40933 90.9534 1.56184 93.8049 10.6646L-87.5075 67.4609C-78.5611 96.0208 -57.2331 122.574 -24.053 135.417L44.5281 -41.7744ZM93.8049 10.6646C95.9703 17.5773 96.4763 22.8671 96.6016 24.3231L-92.6984 40.6177C-92.1882 46.5447 -91.0184 56.2529 -87.5075 67.4609L93.8049 10.6646ZM96.6016 24.3231C96.6566 24.9618 96.6652 25.3701 96.6667 25.499C96.6681 25.6239 96.6629 25.5107 96.6821 25.101L-93.11 16.2149C-93.4385 23.2322 -93.4822 31.5122 -92.6984 40.6177L96.6016 24.3231ZM96.6821 25.101C96.6765 25.22 96.6012 26.93 96.2391 29.4649C95.864 32.0914 95.1305 35.9959 93.6272 40.6564L-87.1984 -17.6709C-92.0074 -2.76225 -92.827 10.1714 -93.11 16.2149L96.6821 25.101ZM93.6272 40.6564C89.956 52.0377 83.0507 64.5666 71.6462 75.3574C60.3922 86.0059 48.1332 91.7752 38.1046 94.6852L-14.8435 -87.7881C-47.5593 -78.2949 -75.5991 -53.6311 -87.1985 -17.6709L93.6272 40.6564ZM38.1046 94.6852C31.212 96.6852 26.0781 97.0083 25.3992 97.0533L12.8179 -92.5297C7.07959 -92.1488 -3.06339 -91.2063 -14.8435 -87.7881L38.1046 94.6852ZM25.3992 97.0533C25.1278 97.0713 24.9702 97.073 24.9411 97.0732C24.913 97.0734 25.0055 97.0721 25.2344 97.0828L34.0978 -92.7104C27.5255 -93.0173 20.3896 -93.0321 12.8179 -92.5297L25.3992 97.0533ZM25.2343 97.0828C24.9637 97.0701 19.6682 96.8778 12.4689 94.845L64.0982 -88.0058C51.2556 -91.632 40.1865 -92.426 34.0978 -92.7104L25.2343 97.0828ZM12.4689 94.845C1.25084 91.6775 -11.9976 85.1887 -23.6702 73.379C-35.2964 61.6164 -41.5102 48.4716 -44.5163 37.6475L138.555 -13.1952C128.553 -49.2095 101.127 -77.5504 64.0982 -88.0058L12.4689 94.845ZM-44.5163 37.6475C-46.0006 32.3031 -46.4506 28.1795 -46.6029 26.3996L142.705 10.2008C142.202 4.31314 141.144 -3.87117 138.555 -13.1952L-44.5163 37.6475ZM-46.6029 26.3992C-46.6562 25.7766 -46.6646 25.379 -46.666 25.2537C-46.6674 25.1322 -46.6624 25.2437 -46.681 25.6441L143.113 34.4907C143.44 27.4829 143.479 19.2467 142.705 10.2013L-46.6029 26.3992ZM-46.681 25.6442C-46.6725 25.4622 -46.4761 19.5181 -44.0751 11.5437L137.858 66.3199C142.002 52.5551 142.825 40.6643 143.113 34.4906L-46.681 25.6442ZM-44.0751 11.5436C-40.5903 -0.030951 -33.704 -13.1431 -21.8096 -24.456C-10.07 -35.6216 2.76573 -41.4438 13.0451 -44.253L63.1312 139.027C97.4574 129.646 126.567 103.819 137.858 66.32L-44.0751 11.5436ZM13.0452 -44.253C18.7926 -45.8236 23.3923 -46.2594 25.9593 -46.3922L35.7799 143.354C43.2283 142.968 52.6549 141.889 63.1311 139.027L13.0452 -44.253ZM25.9594 -46.3922C24.7376 -46.329 24.4098 -46.3329 20.6923 -46.1854L28.2253 143.665C29.5076 143.614 33.0928 143.493 35.7798 143.354L25.9594 -46.3922ZM118.067 18.9945C118.067 18.4873 118.069 18.9198 118.072 17.6209C118.075 16.8229 118.075 15.4616 118.044 13.8718L-71.9194 17.6085C-71.9292 17.1099 -71.9261 16.8402 -71.9269 17.134C-71.9273 17.2976 -71.928 17.4265 -71.9295 17.788C-71.9308 18.0878 -71.9326 18.5379 -71.9325 19.0357L118.067 18.9945ZM118.044 13.8715C117.073 -35.4638 77.2604 -81.7096 20.3567 -81.2671L21.834 108.727C-32.864 109.152 -70.9951 64.5892 -71.9194 17.6088L118.044 13.8715ZM20.3569 -81.2671C-37.7437 -80.8155 -75.6438 -32.6805 -75.8279 15.413L114.171 16.1405C113.995 61.8977 77.7383 108.293 21.8338 108.727L20.3569 -81.2671ZM-75.8279 15.4131C-75.833 16.7513 -75.8296 18.3765 -75.8296 19.0953L114.17 19.0991C114.17 17.6043 114.167 17.0158 114.171 16.1404L-75.8279 15.4131ZM18.7369 -75.4485C17.7054 -75.4488 16.4967 -75.4498 15.3179 -75.448L15.6084 114.552C16.5675 114.55 17.4965 114.551 18.6952 114.551L18.7369 -75.4485ZM15.3181 -75.448C-30.0925 -75.3786 -81.6601 -39.925 -81.6587 21.4948L108.341 21.4906C108.342 46.8878 97.8694 72.0644 78.0738 90.1807C58.8378 107.785 35.6181 114.521 15.6082 114.552L15.3181 -75.448ZM-81.6587 21.4948C-81.6574 82.6657 -30.4585 118.119 14.7892 118.44L16.1393 -71.5549C35.9907 -71.4138 59.1103 -64.6474 78.2727 -47.0094C97.9861 -28.8642 108.341 -3.7534 108.341 21.4906L-81.6587 21.4948ZM14.7889 118.44C15.7194 118.447 16.5644 118.447 17.1514 118.446C17.8517 118.445 18.1268 118.445 18.4836 118.445L18.8211 -71.5545C16.5417 -71.5585 17.0451 -71.5484 16.1396 -71.5549L14.7889 118.44ZM-75.8537 23.9606V26.7929H114.146V23.9606H-75.8537ZM18.6131 -67.6952C18.1039 -67.6951 18.5187 -67.6969 17.2322 -67.7001C16.4381 -67.7021 15.091 -67.7026 13.5196 -67.6723L17.1909 122.292C16.7121 122.301 16.458 122.299 16.7571 122.299C16.9229 122.3 17.0548 122.3 17.4149 122.302C17.7145 122.303 18.1617 122.305 18.6556 122.305L18.6131 -67.6952ZM13.5197 -67.6723C-35.5395 -66.7242 -82.097 -27.1725 -81.6557 30.0069L108.339 28.5405C108.763 83.5271 63.9019 121.39 17.1908 122.292L13.5197 -67.6723ZM-81.6557 30.0069C-81.2061 88.2635 -32.913 125.995 14.9919 126.196L15.789 -63.8026C61.3542 -63.6114 107.906 -27.5221 108.339 28.5405L-81.6557 30.0069ZM14.9921 126.196C16.3536 126.201 18.0295 126.198 18.7128 126.198L18.7176 -63.8023C17.1844 -63.8024 16.6438 -63.799 15.7888 -63.8026L14.9921 126.196ZM18.7134 126.198C18.8029 126.198 18.8921 126.198 18.977 126.198L18.9758 -63.8023C18.8909 -63.8023 18.8039 -63.8023 18.717 -63.8023L18.7134 126.198ZM-75.8338 31.5204C-75.8325 32.2386 -75.8311 34.1447 -75.8291 35.0971L114.17 34.7027C114.168 33.2899 114.169 32.8307 114.166 31.1837L-75.8338 31.5204ZM-75.8291 35.0968C-75.7346 80.6634 -40.1108 132.049 21.1602 132.019L21.0694 -57.9807C46.4092 -57.9928 71.573 -47.5757 89.7136 -27.8075C107.35 -8.58922 114.129 14.6452 114.17 34.703L-75.8291 35.0968ZM21.1602 132.019C82.1321 131.99 117.735 81.0092 118.064 35.5857L-71.9309 34.2106C-71.7876 14.4071 -65.0441 -8.76025 -47.3286 -27.9728C-29.1052 -47.7361 -3.99167 -57.9687 21.0695 -57.9807L21.1602 132.019ZM118.064 35.5859C118.071 34.6491 118.071 33.7992 118.07 33.2111C118.069 32.5072 118.068 32.2375 118.069 31.8823L-71.9306 31.5459C-71.9347 33.8335 -71.9245 33.3176 -71.9309 34.2104L118.064 35.5859ZM23.5826 126.222H26.4228V-63.7781H23.5826V126.222ZM-68.0656 31.7523C-68.0655 32.2622 -68.0674 31.8722 -68.0705 33.1383C-68.0724 33.925 -68.0729 35.2497 -68.0439 36.7928L121.923 33.224C121.931 33.6757 121.928 33.9088 121.929 33.6038C121.929 33.4355 121.93 33.3 121.932 32.9427C121.933 32.6442 121.934 32.2021 121.934 31.7145L-68.0656 31.7523ZM-68.0439 36.7924C-67.1167 86.1579 -27.2829 132.473 29.6689 132.016L28.1429 -57.9779C82.8948 -58.4176 121.039 -13.7945 121.923 33.2243L-68.0439 36.7924ZM29.6689 132.016C87.7591 131.549 125.634 83.4266 125.83 35.3579L-64.1688 34.5848C-63.9827 -11.1448 -27.7493 -57.529 28.143 -57.9779L29.6689 132.016ZM125.83 35.3581C125.835 34.0053 125.831 32.3466 125.831 31.653L-64.1686 31.6487C-64.1686 33.1687 -64.1653 33.7237 -64.1688 34.5846L125.83 35.3581ZM31.2608 126.198C32.2806 126.198 33.5109 126.199 34.7063 126.197L34.3733 -63.8027C33.4298 -63.801 32.5211 -63.802 31.3085 -63.8023L31.2608 126.198ZM34.7062 126.197C80.2212 126.117 131.736 90.5328 131.66 29.1363L-58.3394 29.3705C-58.3707 3.9875 -47.9384 -21.2105 -28.1476 -39.3623C-8.9116 -57.0054 14.3325 -63.7676 34.3734 -63.8027L34.7062 126.197ZM131.66 29.1362C131.585 -32.0742 80.3096 -67.4071 35.1343 -67.6918L33.9368 122.304C14.1774 122.18 -8.95701 115.487 -28.1789 97.8417C-47.9683 79.6751 -58.3083 54.5501 -58.3394 29.3705L131.66 29.1362ZM35.1344 -67.6918C34.2472 -67.6974 33.4357 -67.6972 32.8589 -67.6967C32.1832 -67.6961 31.8798 -67.6954 31.5145 -67.696L31.1804 122.304C33.3891 122.308 32.9695 122.298 33.9367 122.304L35.1344 -67.6918ZM125.856 26.7915V23.8444H-64.1438V26.7915H125.856ZM31.3787 118.445C31.7519 118.445 31.7733 118.446 32.7503 118.448C33.4636 118.449 34.6159 118.45 35.933 118.431L33.2732 -71.55C33.4671 -71.5527 33.496 -71.5508 33.0859 -71.5516C32.8423 -71.552 32.7073 -71.5526 32.3128 -71.5535C31.9909 -71.5544 31.56 -71.5552 31.0871 -71.5545L31.3787 118.445ZM35.933 118.431C83.7363 117.762 132.185 79.5204 131.656 20.6203L-58.3358 22.3248C-58.5605 -2.72026 -48.6134 -27.4865 -29.7419 -45.6244C-11.1674 -63.4767 12.0724 -71.2532 33.2732 -71.55L35.933 118.431ZM131.656 20.6202C131.116 -39.5692 80.7224 -75.3372 34.7917 -75.4477L34.3348 114.552C13.8499 114.502 -9.20878 107.466 -28.1213 90.135C-47.4847 72.3905 -58.1084 47.6706 -58.3358 22.3249L131.656 20.6202ZM34.792 -75.4477C33.6444 -75.4505 32.3115 -75.4485 31.5578 -75.4485L31.5567 114.551C32.807 114.551 33.478 114.55 34.3345 114.552L34.792 -75.4477ZM125.832 18.8576C125.832 17.8992 125.833 16.7892 125.831 15.6845L-64.1689 16.0088C-64.1674 16.8657 -64.1681 17.7172 -64.1684 18.7936L125.832 18.8576ZM125.831 15.6844C125.753 -30.1308 89.8896 -81.3481 28.7631 -81.2701L29.0056 108.73C3.70266 108.762 -21.4592 98.3929 -39.6262 78.6495C-57.3038 59.4379 -64.1345 36.1604 -64.1689 16.009L125.831 15.6844ZM28.7629 -81.2701C-32.2316 -81.1922 -67.7666 -30.1584 -68.0629 15.2317L121.933 16.4717C121.804 36.2856 115.071 59.446 97.3877 78.6591C79.1959 98.4245 54.0954 108.698 29.0058 108.73L28.7629 -81.2701ZM-68.0629 15.2316C-68.0687 16.1302 -68.0685 16.9504 -68.068 17.5293C-68.0674 18.211 -68.0666 18.506 -68.0672 18.8681L121.932 19.2035C121.936 16.976 121.927 17.4206 121.933 16.4718L-68.0629 15.2316ZM26.4202 -75.4729H23.5794V114.527H26.4202V-75.4729ZM31.5573 -75.4485C83.6206 -75.4485 125.849 -33.2364 125.832 18.8576L-64.1684 18.7936C-64.1863 71.6894 -21.3078 114.551 31.5573 114.551V-75.4485ZM125.856 23.8444C125.856 69.0211 90.3324 118.355 31.378 118.445L31.0877 -71.5545C-28.2906 -71.4638 -64.1438 -21.7563 -64.1438 23.8444H125.856ZM125.831 31.6527C125.83 83.8699 83.4942 126.211 31.2608 126.198L31.3085 -63.8023C-21.4255 -63.8155 -64.1675 -21.0688 -64.1686 31.649L125.831 31.6527ZM31.5145 -67.696C88.5317 -67.5958 125.856 -20.3071 125.856 26.7915H-64.1438C-64.1438 74.4401 -26.3868 122.202 31.1804 122.304L31.5145 -67.696ZM-68.0672 18.8683C-67.9667 -38.168 -20.6579 -75.4729 26.4202 -75.4729V114.527C74.0483 114.527 121.831 76.7896 121.932 19.2032L-68.0672 18.8683ZM26.4228 126.222C-25.778 126.222 -68.055 83.9059 -68.0656 31.7528L121.934 31.714C121.924 -21.0041 79.1887 -63.7781 26.4228 -63.7781V126.222ZM118.069 31.8831C117.968 88.9275 70.6499 126.222 23.5826 126.222V-63.7781C-24.0357 -63.7781 -71.8282 -26.0504 -71.9306 31.5451L118.069 31.8831ZM18.977 126.198C-1.01525 126.198 -21.1911 119.848 -38.1264 107.066C-55.8033 93.7234 -75.7709 68.0277 -75.8338 31.5157L114.166 31.1884C114.103 -5.4156 94.0864 -31.1885 76.3378 -44.585C59.3307 -57.4218 39.0601 -63.8024 18.9758 -63.8023L18.977 126.198ZM-75.8537 26.7929C-75.8537 -25.4108 -33.5356 -67.6828 18.6117 -67.6952L18.6571 122.305C71.3697 122.292 114.146 79.562 114.146 26.7929H-75.8537ZM-71.9325 19.0362C-71.9208 71.7515 -29.1883 114.527 23.5794 114.527V-75.4729C75.7817 -75.4729 118.056 -33.1558 118.067 18.994L-71.9325 19.0362ZM18.4839 118.445C-38.5588 118.344 -75.8537 71.028 -75.8537 23.9606H114.146C114.146 -23.6599 76.4165 -71.4524 18.8208 -71.5545L18.4839 118.445ZM-75.8296 19.0935C-75.8276 -33.1202 -33.4951 -75.46 18.7369 -75.4485L18.6952 114.551C71.429 114.563 114.168 71.8164 114.17 19.1009L-75.8296 19.0935Z" fill="#4AB3FF" mask="url(#path-1-inside-1_298_22272)"/>
</g>
</g>
</svg>
