<svg width="51" height="51" viewBox="0 0 51 51" fill="none" xmlns="http://www.w3.org/2000/svg">
<g clip-path="url(#clip0_7075_105472)">
<path d="M13.5195 35.5625H1.80078C0.991797 35.5625 0.335938 36.2184 0.335938 37.0273V48.7461C0.335938 49.5551 0.991797 50.2109 1.80078 50.2109H13.5195C14.3285 50.2109 14.9844 49.5551 14.9844 48.7461V37.0273C14.9844 36.2184 14.3285 35.5625 13.5195 35.5625Z" fill="#0094FF"/>
<path d="M9.125 32.6328V28.6289H23.8711V32.6328H26.8008V28.6289H41.5469V32.6328H44.4766V27.1641C44.4766 26.3551 43.8207 25.6992 43.0117 25.6992H26.8008V21.6953H23.8711V25.6992H7.66016C6.85117 25.6992 6.19531 26.3551 6.19531 27.1641V32.6328H9.125Z" fill="#0094FF"/>
<path d="M17.5273 18.7656H33.1523C33.9613 18.7656 34.6172 18.1098 34.6172 17.3008V1.67578C34.6172 0.866797 33.9613 0.210938 33.1523 0.210938H17.5273C16.7184 0.210938 16.0625 0.866797 16.0625 1.67578V17.3008C16.0625 18.1098 16.7184 18.7656 17.5273 18.7656Z" fill="#0094FF"/>
<path d="M31.1992 35.5625H19.4805C18.6715 35.5625 18.0156 36.2184 18.0156 37.0273V48.7461C18.0156 49.5551 18.6715 50.2109 19.4805 50.2109H31.1992C32.0082 50.2109 32.6641 49.5551 32.6641 48.7461V37.0273C32.6641 36.2184 32.0082 35.5625 31.1992 35.5625Z" fill="#0094FF"/>
<path d="M48.8711 35.5625H37.1523C36.3434 35.5625 35.6875 36.2184 35.6875 37.0273V48.7461C35.6875 49.5551 36.3434 50.2109 37.1523 50.2109H48.8711C49.6801 50.2109 50.3359 49.5551 50.3359 48.7461V37.0273C50.3359 36.2184 49.6801 35.5625 48.8711 35.5625Z" fill="#0094FF"/>
</g>
<defs>
<clipPath id="clip0_7075_105472">
<rect width="50" height="50" fill="white" transform="translate(0.335938 0.210938)"/>
</clipPath>
</defs>
</svg>
