<svg width="48" height="49" viewBox="0 0 48 49" fill="none" xmlns="http://www.w3.org/2000/svg">
<path d="M17 30.1302C17 32.7075 19.0893 34.7969 21.6667 34.7969H26C28.7614 34.7969 31 32.5583 31 29.7969C31 27.0355 28.7614 24.7969 26 24.7969H22C19.2386 24.7969 17 22.5583 17 19.7969C17 17.0355 19.2386 14.7969 22 14.7969H26.3333C28.9107 14.7969 31 16.8862 31 19.4635M24 11.7969V14.7969M24 34.7969V37.7969M44 24.7969C44 35.8426 35.0457 44.7969 24 44.7969C12.9543 44.7969 4 35.8426 4 24.7969C4 13.7512 12.9543 4.79688 24 4.79688C35.0457 4.79688 44 13.7512 44 24.7969Z" stroke="#4AB3FF" stroke-width="4" stroke-linecap="round" stroke-linejoin="round"/>
</svg>
