<svg width="50" height="50" viewBox="0 0 50 50" fill="none" xmlns="http://www.w3.org/2000/svg">
<path fill-rule="evenodd" clip-rule="evenodd" d="M17.6957 31.155L18.304 25.6274C18.3338 25.3541 18.2006 25.0899 17.9634 24.9518C17.7262 24.8138 17.43 24.8284 17.2073 24.99L5.42667 33.5272C5.25534 33.6514 5.14991 33.847 5.14089 34.0578C5.13118 34.2694 5.21928 34.4733 5.37881 34.6121L17.1595 44.8577C17.3752 45.045 17.6832 45.0811 17.9363 44.9486C18.1895 44.8154 18.3352 44.5414 18.304 44.2577L17.6963 38.7829C20.276 38.778 28.6044 38.7621 31.8159 38.785C39.1372 38.837 43.9635 34.8264 45.1032 30.6993C45.9009 27.8096 44.9714 24.8235 41.8847 22.9334C41.6364 22.7815 41.3208 22.8009 41.0926 22.9805C40.8644 23.1609 40.7728 23.464 40.863 23.7408C41.7224 26.3682 40.3636 28.1751 38.4256 29.3418C36.3273 30.6042 33.5611 31.155 31.8208 31.155H17.6957ZM32.7836 18.6696L32.2065 24.2013C32.178 24.4732 32.3126 24.7368 32.5498 24.8742C32.7863 25.0108 33.0818 24.9955 33.3038 24.8346L45.0845 16.2974C45.2558 16.1732 45.3612 15.9776 45.3702 15.7667C45.3799 15.5552 45.2919 15.3513 45.1323 15.2125L33.3517 4.96687C33.1366 4.78028 32.8293 4.74353 32.5762 4.87532C32.3237 5.00711 32.1766 5.2797 32.2065 5.5634L32.7829 11.0417C30.2143 11.0466 21.9074 11.0625 18.6952 11.0396C11.3739 10.9876 6.54758 14.9982 5.40794 19.1253C4.61027 22.015 5.53973 25.0011 8.6264 26.8912C8.87472 27.0431 9.19032 27.0237 9.41853 26.8441C9.64673 26.6637 9.7383 26.3606 9.64812 26.0838C8.78871 23.4564 10.1475 21.6495 12.0855 20.4828C14.1838 19.2204 16.95 18.6696 18.6903 18.6696H32.7836Z" fill="#4AB3FF"/>
</svg>
