<svg width="49" height="49" viewBox="0 0 49 49" fill="none" xmlns="http://www.w3.org/2000/svg">
<g clip-path="url(#clip0_3028_26654)">
<path d="M30.6049 33.2605H32.1021V35.5438H30.6409V38.6064H32.1098V40.8834H28.9824C29.2066 42.7875 28.6426 44.3432 27.0766 45.4441C26.1849 46.0709 25.1777 46.3364 24.0958 46.2343C22.7816 46.1103 21.7106 45.5109 20.8795 44.4803C20.048 43.4491 19.8614 42.2508 20.0165 40.93H16.8878V38.6186H18.3564V35.5728H16.8799V33.2895H18.3656C18.3656 32.1468 18.4017 31.0539 18.3369 29.9671C18.323 29.7346 17.982 29.4524 17.7262 29.3144C15.5706 28.1506 13.8019 26.5693 12.4177 24.5475C12.1977 24.226 12.1856 24.0145 12.4417 23.6926C15.8846 19.3664 19.7686 15.4856 24.0947 12.0428C24.4187 11.7849 24.6108 11.7951 24.9283 12.0494C29.2423 15.5059 33.1196 19.3948 36.5681 23.7147C36.7947 23.9986 36.8065 24.1883 36.6006 24.4911C35.2232 26.5165 33.4785 28.1323 31.3055 29.2657C30.8073 29.5256 30.5713 29.8481 30.5949 30.4254C30.6325 31.3457 30.6049 32.2687 30.6049 33.2605ZM27.5467 33.2403V32.6896C27.5467 29.0658 27.5511 25.4419 27.5393 21.8181C27.5382 21.4883 27.6301 21.2557 27.8676 21.0303C28.4535 20.4744 29.0156 19.8934 29.578 19.3317C29.2126 18.9512 28.8778 18.6025 28.5132 18.2229C27.8198 18.9207 27.1601 19.6073 26.4733 20.2656C26.1513 20.5742 26.0124 20.9066 26.014 21.3572C26.0274 25.1558 26.0217 28.9545 26.0217 32.7532C26.0217 32.9078 26.0217 33.0625 26.0217 33.2403H27.5467ZM22.9634 33.2522V32.7038C22.9634 29.1595 22.9284 25.6146 22.9862 22.0712C23.0021 21.0965 22.7648 20.3702 22.0108 19.751C21.4546 19.2944 20.9851 18.7323 20.5059 18.2465C20.1002 18.6279 19.7561 18.9515 19.3817 19.3035C19.9723 19.8936 20.5341 20.4751 21.1203 21.0309C21.3589 21.257 21.4467 21.4914 21.4456 21.8201C21.4341 25.4438 21.4384 29.0676 21.4384 32.6914V33.2522H22.9634Z" fill="#4AB3FF"/>
<path d="M30.9274 42.4309C31.3087 42.4309 31.691 42.4478 32.0708 42.4247C32.3042 42.4105 32.5892 42.4047 32.7542 42.2734C33.1564 41.9533 33.4854 42.0993 33.8774 42.2766C35.6209 43.065 37.412 43.7249 39.3342 43.8932C40.0394 43.955 40.7716 43.9424 41.468 43.8245C43.0717 43.5531 44.0245 42.4879 44.2601 40.8646C44.5045 39.18 44.1575 37.5658 43.629 35.9915C43.2559 34.88 42.7617 33.8093 42.3258 32.7186C42.233 32.4862 42.1229 32.373 41.8299 32.4289C40.5622 32.671 39.3553 32.1198 38.6886 31.0282C38.0369 29.9612 38.1011 28.6333 38.8544 27.6217C38.9391 27.5078 39.0285 27.3975 39.1443 27.249C38.7795 26.7335 38.4256 26.2082 38.0431 25.7045C37.8749 25.483 37.8584 25.3247 38.0161 25.0798C39.1389 23.3357 39.8717 21.4353 40.2578 19.397C40.3006 19.1713 40.4252 18.9531 40.5451 18.7512C41.9534 16.3807 43.2014 13.9385 43.9185 11.2575C44.0087 10.9201 44.0814 10.5778 44.1527 10.2357C44.1946 10.0347 44.2178 9.82974 44.2582 9.56961C42.7572 9.68526 41.4333 9.31308 40.364 8.24755C39.2934 7.18063 38.9002 5.86439 39.0351 4.25639C38.0789 4.51108 37.1918 4.72688 36.3191 4.99012C35.9778 5.09306 35.7355 5.09511 35.4812 4.80756C35.2216 4.51397 34.9016 4.27381 34.5711 3.97708C36.0569 3.39219 37.5286 2.95343 39.0725 2.804C39.4359 2.76884 39.6574 2.63865 39.8812 2.34068C41.0626 0.768156 42.6556 0.11776 44.5759 0.539794C46.4331 0.947948 47.6378 2.15501 48.05 4.01018C48.4768 5.93151 47.8098 7.50674 46.2668 8.72394C46.0852 8.86721 45.8598 9.08198 45.8389 9.28274C45.5871 11.707 44.7483 13.9446 43.7141 16.1212C42.4335 18.8164 40.8334 21.3184 39.0578 23.7097C38.8427 23.9995 38.8128 24.1883 39.046 24.4835C39.4889 25.0443 39.8694 25.6541 40.3066 26.2199C40.4039 26.3458 40.641 26.4566 40.7921 26.4334C42.0376 26.2421 43.2343 26.7739 43.8972 27.8497C44.5548 28.9169 44.513 30.2546 43.7439 31.2505C43.5363 31.5193 43.5276 31.7086 43.669 32.0005C44.6145 33.9516 45.3938 35.9622 45.7402 38.1166C45.9492 39.4169 45.9921 40.7186 45.5812 41.9887C44.9175 44.0399 43.4407 45.1171 41.3487 45.3939C38.9521 45.711 36.7093 45.0574 34.52 44.2025C33.284 43.7199 32.0933 43.1217 30.8822 42.5755C30.8972 42.5273 30.9123 42.4791 30.9274 42.4309Z" fill="#4AB3FF"/>
<path d="M11.3512 22.602C10.6768 21.2066 10.2732 19.7871 10.1058 18.3135C9.56055 13.5134 11.0354 9.41503 14.4546 6.00765C14.6454 5.81753 14.7973 5.7522 15.0687 5.87491C17.9354 7.1714 20.588 8.82376 23.1196 10.6801C23.1435 10.6977 23.1554 10.7317 23.1989 10.7968C18.8281 14.2803 14.887 18.207 11.3512 22.602Z" fill="#4AB3FF"/>
<path d="M25.7893 10.6389C27.6155 9.4993 29.4445 8.32471 31.309 7.20959C32.1509 6.70604 33.0659 6.32513 33.9428 5.8789C34.1533 5.77177 34.2927 5.78462 34.4805 5.95529C38.8844 9.95672 40.2909 17.0239 37.741 22.3937C37.7142 22.4501 37.6744 22.5004 37.6795 22.4923C35.8045 20.4568 33.9876 18.3494 32.0233 16.3898C30.0576 14.4287 27.9447 12.6152 25.7893 10.6389Z" fill="#4AB3FF"/>
<path d="M10.2977 24.0095C10.3411 24.0525 10.3555 24.0619 10.3632 24.0751C10.6178 24.5137 11.0726 24.9549 11.0674 25.3907C11.0626 25.7996 10.5732 26.204 10.2938 26.608C8.34467 29.4265 6.58292 32.3482 5.46962 35.6109C5.14309 36.5678 4.92413 37.5614 4.62902 38.636C6.21578 38.5108 7.5392 38.877 8.60788 39.9373C9.68119 41.0023 10.0848 42.314 9.94898 43.9186C10.7855 43.715 11.5781 43.5771 12.3327 43.3252C13.37 42.979 14.3776 42.5441 15.4004 42.1536C15.5407 42.1 15.7612 42.0032 15.8326 42.0621C16.4285 42.5542 17.1287 42.408 17.802 42.4314C17.8899 42.4345 17.9777 42.4399 18.0655 42.4442C18.0803 42.4887 18.095 42.5333 18.1097 42.5778C16.8279 43.1481 15.5595 43.7514 14.2607 44.2799C12.8146 44.8682 11.3119 45.2671 9.75062 45.4332C9.55187 45.4543 9.31145 45.6091 9.19264 45.7752C7.97522 47.4768 5.90423 48.1922 3.96972 47.5539C2.01859 46.9101 0.727355 45.0665 0.821204 42.9843C0.889247 41.4747 1.59297 40.2947 2.81136 39.405C2.96989 39.2892 3.14179 39.0802 3.15938 38.8999C3.38974 36.5391 4.19856 34.3571 5.19433 32.2343C6.54317 29.3589 8.25806 26.706 10.1551 24.1663C10.1922 24.1166 10.2387 24.0739 10.2977 24.0095Z" fill="#4AB3FF"/>
<path d="M32.7703 4.59183C30.8375 5.74566 28.8803 6.89218 26.9477 8.07867C26.191 8.54323 25.4955 9.1068 24.7562 9.60136C24.6385 9.68014 24.382 9.70648 24.2808 9.63245C21.711 7.75246 19.0301 6.05822 16.1309 4.70836C20.2507 1.38556 27.566 0.719218 32.7703 4.59183Z" fill="#4AB3FF"/>
<path d="M8.46902 15.7473C8.38912 17.7351 8.66264 19.5639 9.2087 21.3432C8.07064 22.0992 6.52047 21.9069 5.52064 20.9045C4.49264 19.8739 4.31057 18.229 5.16772 17.061C5.45283 16.6726 5.42114 16.4077 5.23254 16.0173C4.31744 14.1226 3.57521 12.1646 3.24232 10.0745C3.06121 8.93735 3.01522 7.79864 3.27998 6.66252C3.79618 4.4474 5.42752 3.03158 7.69133 2.80022C10.022 2.56203 12.1928 3.17711 14.4042 3.97607C13.9951 4.34946 13.6365 4.70137 13.2466 5.01406C13.1579 5.08512 12.9554 5.04402 12.8137 5.01435C11.6813 4.77714 10.5588 4.47766 9.41679 4.30748C8.80112 4.21574 8.13935 4.26599 7.52243 4.3811C5.63731 4.73285 4.66937 6.03648 4.6449 8.1858C4.62465 9.96358 5.10092 11.6438 5.72329 13.286C6.00438 14.0277 6.35389 14.7431 6.65558 15.4774C6.76562 15.7452 6.90339 15.8055 7.19851 15.7619C7.59567 15.7032 8.008 15.7473 8.46902 15.7473Z" fill="#4AB3FF"/>
</g>
<defs>
<clipPath id="clip0_3028_26654">
<rect width="48" height="48" fill="white" transform="translate(0.5 0.0976562)"/>
</clipPath>
</defs>
</svg>
