<svg width="51" height="51" viewBox="0 0 51 51" fill="none" xmlns="http://www.w3.org/2000/svg">
<g clip-path="url(#clip0_7075_105699)">
<path d="M37.9062 39.4141C38.9849 39.4141 39.8594 38.5396 39.8594 37.4609C39.8594 36.3823 38.9849 35.5078 37.9062 35.5078C36.8276 35.5078 35.9531 36.3823 35.9531 37.4609C35.9531 38.5396 36.8276 39.4141 37.9062 39.4141Z" fill="#0094FF"/>
<path d="M49.803 39.9101L48.6819 38.9863C48.7532 38.4824 48.7884 37.9726 48.7884 37.4619C48.7884 36.9511 48.7532 36.4414 48.6819 35.9375L49.803 35.0136C50.3558 34.5586 50.4993 33.7705 50.1409 33.1504L47.7591 29.0254C47.4017 28.4053 46.6478 28.1357 45.9769 28.3867L44.6146 28.8965C43.8109 28.2676 42.9193 27.7519 41.9759 27.3701L41.7376 25.9385C41.6195 25.2324 41.0081 24.7148 40.2923 24.7148H35.5296C34.8138 24.7148 34.2025 25.2324 34.0843 25.9385L33.8461 27.3701C32.9027 27.7519 32.0101 28.2676 31.2064 28.8965L29.8451 28.3867C29.1742 28.1357 28.4203 28.4053 28.0619 29.0254L25.681 33.1504C25.3226 33.7705 25.4652 34.5586 26.018 35.0136L27.14 35.9375C27.0687 36.4414 27.0336 36.9511 27.0336 37.4619C27.0336 37.9726 27.0687 38.4824 27.14 38.9863L26.018 39.9101C25.4652 40.3652 25.3226 41.1533 25.681 41.7734L28.0619 45.8974C28.4203 46.5175 29.1742 46.788 29.8451 46.537L31.2064 46.0263C32.0101 46.6552 32.9027 47.1718 33.8461 47.5526L34.0843 48.9853C34.2025 49.6913 34.8138 50.2089 35.5296 50.2089H40.2923C41.0081 50.2089 41.6195 49.6913 41.7376 48.9853L41.9759 47.5526C42.9193 47.1718 43.8109 46.6552 44.6146 46.0263L45.9769 46.537C46.6478 46.789 47.4017 46.5175 47.7591 45.8974L50.1409 41.7734C50.4993 41.1533 50.3558 40.3652 49.803 39.9101ZM37.9105 42.3447C35.2181 42.3447 33.0277 40.1542 33.0277 37.4619C33.0277 34.7695 35.2181 32.5791 37.9105 32.5791C40.6029 32.5791 42.7933 34.7695 42.7933 37.4619C42.7933 40.1542 40.6029 42.3447 37.9105 42.3447Z" fill="#0094FF"/>
<path d="M15.2871 19.8047C17.6332 19.8047 19.5352 17.9028 19.5352 15.5566C19.5352 13.2105 17.6332 11.3086 15.2871 11.3086C12.941 11.3086 11.0391 13.2105 11.0391 15.5566C11.0391 17.9028 12.941 19.8047 15.2871 19.8047Z" fill="#0094FF"/>
<path d="M27.1103 25.7655L30.04 20.6903C30.3984 20.0702 30.2548 19.2822 29.7021 18.8271L28.1758 17.5702C28.2793 16.9062 28.331 16.2314 28.331 15.5556C28.331 14.8798 28.2793 14.206 28.1758 13.541L29.7021 12.2841C30.2548 11.8291 30.3984 11.041 30.04 10.4209L27.1103 5.34568C26.7519 4.72557 25.998 4.45604 25.3281 4.70701L23.4736 5.40135C22.4228 4.55467 21.2393 3.8701 19.9854 3.38475L19.6611 1.43457C19.543 0.728514 18.9316 0.210938 18.2158 0.210938H12.3565C11.6407 0.210938 11.0293 0.728514 10.9112 1.43457L10.587 3.38475C9.33305 3.8701 8.14946 4.55467 7.09869 5.40135L5.2442 4.70701C4.57428 4.45604 3.82038 4.72557 3.46198 5.34568L0.532306 10.4209C0.173909 11.041 0.317463 11.8291 0.870196 12.2841L2.39656 13.541C2.29304 14.206 2.24128 14.8798 2.24128 15.5556C2.24128 16.2314 2.29304 16.9062 2.39656 17.5702L0.870196 18.8271C0.317463 19.2822 0.173909 20.0702 0.532306 20.6903L3.46198 25.7655C3.82038 26.3856 4.57428 26.6561 5.2442 26.4052L7.09869 25.7099C8.14946 26.5565 9.33305 27.2411 10.587 27.7265L10.9112 29.6766C11.0293 30.3827 11.6407 30.9003 12.3565 30.9003H18.2158C18.9316 30.9003 19.543 30.3827 19.6611 29.6766L19.9854 27.7265C21.2393 27.2411 22.4228 26.5565 23.4736 25.7099L25.3281 26.4052C25.999 26.6561 26.7519 26.3856 27.1103 25.7655ZM15.2862 22.7333C11.3282 22.7333 8.10845 19.5136 8.10845 15.5556C8.10845 11.5976 11.3282 8.3779 15.2862 8.3779C19.2441 8.3779 22.4639 11.5976 22.4639 15.5556C22.4639 19.5136 19.2441 22.7333 15.2862 22.7333Z" fill="#0094FF"/>
<path d="M35.0627 6.27051L36.4446 5.00586V19.3291C36.4446 20.1387 37.1008 20.7939 37.9094 20.7939C38.719 20.7939 39.3742 20.1387 39.3742 19.3291V5.00684L40.7561 6.27051C41.0373 6.52832 41.3918 6.65527 41.7444 6.65527C42.1408 6.65527 42.5364 6.49512 42.8254 6.17969C43.3713 5.58301 43.3303 4.65625 42.7336 4.10938L38.8987 0.599609C38.6291 0.345703 38.2688 0.21875 37.9094 0.21875C37.5491 0.21875 37.1897 0.345703 36.9201 0.599609L33.0852 4.10938C32.4885 4.65625 32.4475 5.58301 32.9934 6.17969C33.5393 6.77637 34.466 6.81738 35.0627 6.27051Z" fill="#0094FF"/>
<path d="M16.2737 34.2158C16.0041 33.9619 15.6448 33.8359 15.2844 33.8359C14.9241 33.8359 14.5647 33.9619 14.2951 34.2158L10.4602 37.7266C9.86351 38.2725 9.82249 39.1992 10.3684 39.7959C10.9143 40.3936 11.841 40.4336 12.4377 39.8877L13.8196 38.623V48.7471C13.8196 49.5557 14.4758 50.2119 15.2844 50.2119C16.094 50.2119 16.7492 49.5557 16.7492 48.7471V38.623L18.1311 39.8877C18.4123 40.1455 18.7668 40.2725 19.1194 40.2725C19.5159 40.2725 19.9114 40.1123 20.2004 39.7959C20.7463 39.1992 20.7053 38.2725 20.1086 37.7266L16.2737 34.2158Z" fill="#0094FF"/>
</g>
<defs>
<clipPath id="clip0_7075_105699">
<rect width="50" height="50" fill="white" transform="translate(0.335938 0.210938)"/>
</clipPath>
</defs>
</svg>
