<svg width="48" height="48" viewBox="0 0 48 48" fill="none" xmlns="http://www.w3.org/2000/svg">
<g clip-path="url(#clip0_3028_25620)">
<path d="M47.8841 8.78083C46.7231 13.4248 45.558 18.0687 44.4073 22.7147C44.3309 23.0287 44.209 23.1465 43.8805 23.196C41.5193 23.5555 39.9906 24.89 39.3605 27.1975C39.2531 27.5962 39.028 27.5549 38.7573 27.5549H23.4745C22.9849 26.6501 22.6379 25.7989 22.109 25.0842C21.2868 23.9769 20.1072 23.3695 18.7335 23.2105C18.3389 23.165 18.1964 22.9957 18.1096 22.6362C16.9631 17.9881 15.8042 13.3442 14.6494 8.70024C14.4056 7.72105 14.732 7.29553 15.7422 7.29553C22.7205 7.29341 29.6988 7.29341 36.6791 7.29341C40.0299 7.29341 43.3827 7.29341 46.7334 7.29553C47.8303 7.29553 48.1506 7.70869 47.8841 8.78083Z" fill="#4AB3FF"/>
<path d="M6.65081 46.901V29.3561C8.80928 29.152 10.8342 29.4326 12.5917 30.8107C13.8029 31.7605 15.1495 32.4169 16.6729 32.6691C17.23 32.7613 17.7991 32.8137 18.3637 32.8217C19.8764 32.8432 21.39 32.8106 22.9025 32.8377C24.295 32.8626 25.3174 33.5405 25.9834 34.7486C26.3452 35.4049 26.3479 36.089 26.0664 36.7848C25.9338 37.1126 25.7422 37.2443 25.3684 37.2407C23.6322 37.2237 21.8955 37.2285 20.1592 37.2493C18.2143 37.2725 16.5133 37.9991 14.962 39.1225C14.5282 39.4367 14.422 39.9373 14.6792 40.3411C14.949 40.7647 15.472 40.8844 15.9404 40.5661C16.9732 39.8645 18.0448 39.2593 19.3038 39.0897C19.7958 39.0234 20.2963 38.9957 20.7931 38.9937C23.1829 38.9842 25.5732 39.0118 27.9625 38.9747C28.6217 38.9645 29.3061 38.8623 29.9312 38.657C35.1985 36.9273 40.4533 35.1597 45.7174 33.4204C46.062 33.3066 46.4682 33.2482 46.819 33.3117C47.4715 33.4298 47.8652 33.8972 47.974 34.5466C48.0882 35.2278 47.7988 35.7598 47.2212 36.1177C46.0387 36.8504 44.847 37.5684 43.6586 38.2917C39.536 40.8013 35.4037 43.2952 31.2962 45.8294C30.1005 46.5671 28.8561 46.9196 27.447 46.9137C20.7416 46.8854 14.036 46.901 7.33054 46.901C7.11258 46.901 6.89462 46.901 6.65081 46.901Z" fill="#4AB3FF"/>
<path d="M4.86885 37.6891C4.86885 40.6435 4.86954 43.5979 4.86845 46.5523C4.86809 47.5066 4.58893 47.7891 3.64857 47.79C2.35985 47.7913 1.07111 47.7938 -0.2176 47.7889C-0.991712 47.786 -1.30678 47.4682 -1.30705 46.6856C-1.30911 40.6738 -1.30906 34.6619 -1.30717 28.6501C-1.30693 27.8586 -1.00875 27.5564 -0.22238 27.5529C1.10069 27.5471 2.42381 27.5479 3.74688 27.5524C4.56672 27.5552 4.8667 27.8532 4.86756 28.6714C4.87072 31.6773 4.86881 34.6832 4.86885 37.6891Z" fill="#4AB3FF"/>
<path d="M19.2412 5.53682C19.1407 4.94925 19.0253 4.41382 18.9631 3.87228C18.893 3.26244 19.3902 2.87859 20.0538 3.03812C20.7536 3.20637 21.4479 3.40262 22.1351 3.6168C23.2703 3.97056 24.2415 3.74236 25.1362 2.94795C26.6514 1.60258 28.2192 0.316329 29.7345 -1.02895C30.2576 -1.49338 30.7144 -1.57286 31.3522 -1.24935C33.3711 -0.225284 35.4314 0.717352 37.4457 1.75005C38.349 2.21318 39.2456 2.33187 40.2304 2.17524C41.2807 2.00821 42.3405 1.89592 43.3991 1.7878C44.2169 1.70427 44.5518 2.07885 44.4307 2.87723C44.32 3.6066 44.1891 4.33434 44.1185 5.06774C44.0823 5.44329 43.9548 5.55491 43.5811 5.5455C42.5681 5.52 41.5541 5.53682 40.5405 5.53682C33.6685 5.53682 26.7965 5.53682 19.9246 5.53682H19.2412Z" fill="#4AB3FF"/>
<path d="M44.486 24.9C46.4365 24.9082 48.0177 26.5134 48.0002 28.4674C47.9826 30.4285 46.3581 31.9599 44.3264 31.9306C42.4714 31.9039 40.951 30.3053 40.963 28.3943C40.9752 26.4537 42.5499 24.8918 44.486 24.9Z" fill="#4AB3FF"/>
<path d="M18.9205 31.1875C17.9783 31.0342 17.0362 30.8804 16.0939 30.7275C15.1538 30.575 14.7638 29.9333 14.5995 29.0742C14.3035 27.5263 15.1234 25.9126 16.5602 25.2385C18.0129 24.5569 19.7202 24.939 20.7571 26.1776C21.7764 27.3953 21.8303 29.1867 20.9035 30.4747C20.6033 30.892 20.2696 31.1732 19.71 31.0814C19.4594 31.0403 19.1965 31.0745 18.9391 31.0745C18.9329 31.1121 18.9267 31.1498 18.9205 31.1875Z" fill="#4AB3FF"/>
</g>
<defs>
<clipPath id="clip0_3028_25620">
<rect width="48" height="48" fill="white"/>
</clipPath>
</defs>
</svg>
