<svg width="45" height="46" viewBox="0 0 45 46" fill="none" xmlns="http://www.w3.org/2000/svg">
<g id="Button container" clip-path="url(#clip0_298_20925)">
<g id="Button container_2">
<g id="Button">
<path id="Vector" d="M22.6866 45.1477C16.4153 45.1477 9.66577 43.5176 9.66577 39.9394C9.66577 37.8985 11.919 36.2837 16.0096 35.3936L16.564 37.9392C13.0621 38.7008 12.2699 39.7741 12.2699 39.9394C12.2699 40.6082 15.852 42.5436 22.6866 42.5436C29.5212 42.5436 33.1033 40.6082 33.1033 39.9394C33.1033 39.7741 32.3111 38.7008 28.8092 37.9392L29.3636 35.3936C33.4542 36.2837 35.7074 37.8985 35.7074 39.9394C35.7074 43.5176 28.958 45.1477 22.6866 45.1477Z" fill="#4AB3FF"/>
</g>
<g id="Button_2">
<path id="Vector_2" d="M27.2441 13.7246H25.291V15.0267H27.2441C27.6027 15.0267 27.8952 14.7342 27.8952 14.3757C27.8952 14.0171 27.6027 13.7246 27.2441 13.7246Z" fill="#4AB3FF"/>
<path id="Vector_3" d="M22.6869 0.704102C14.7893 0.704102 8.36401 7.12936 8.36401 15.027C8.36401 18.2696 9.4779 21.4472 11.501 23.9725L22.6869 38.1168L33.8729 23.9725C35.896 21.4472 37.0098 18.2696 37.0098 15.027C37.0098 7.12936 30.5846 0.704102 22.6869 0.704102ZM20.0828 21.5374H17.4786V11.1208H20.0828V21.5374ZM27.2442 17.6312H25.2911V21.5374H22.6869V17.6312V16.3291V11.1208H27.2442C29.0397 11.1208 30.4994 12.5805 30.4994 14.376C30.4994 16.1715 29.0397 17.6312 27.2442 17.6312Z" fill="#4AB3FF"/>
</g>
</g>
</g>
<defs>
<clipPath id="clip0_298_20925">
<rect width="44.4444" height="44.4444" fill="white" transform="translate(0.464355 0.703125)"/>
</clipPath>
</defs>
</svg>
