<svg width="46" height="45" viewBox="0 0 46 45" fill="none" xmlns="http://www.w3.org/2000/svg">
<g clip-path="url(#clip0_298_22458)">
<path d="M17.2957 19.9329V30.1996H29.029V19.9329H17.2957ZM33.4291 3.7995C29.6011 2.9635 26.1691 1.93679 23.1624 0.866211C20.1557 1.93679 16.7237 2.9635 12.8957 3.7995C9.74242 4.48879 6.79442 4.95807 4.0957 5.26621V19.9035C4.0957 29.7595 9.83042 38.7062 18.7624 42.8422L23.1624 44.8662L27.5624 42.8422C36.4944 38.7062 42.2291 29.7596 42.2291 19.9035V5.26621C39.5306 4.95821 36.5826 4.48879 33.4291 3.7995ZM31.9624 30.1995C31.9624 31.8128 30.6424 33.1328 29.0291 33.1328H17.2957C15.6824 33.1328 14.3624 31.8128 14.3624 30.1995V19.9328C14.3624 18.3195 15.6824 16.9995 17.2957 16.9995V15.5328C17.2957 12.2914 19.9211 9.66607 23.1624 9.66607C26.4037 9.66607 29.0291 12.2914 29.0291 15.5328V16.9995C30.6426 16.9995 31.9624 18.3195 31.9624 19.9328V30.1995ZM17.2957 19.9329V30.1996H29.029V19.9329H17.2957ZM26.0957 15.5328C26.0957 13.9195 24.7757 12.5995 23.1624 12.5995C21.5491 12.5995 20.2291 13.9195 20.2291 15.5328V16.9995H26.0958L26.0957 15.5328Z" fill="#4AB3FF"/>
</g>
<defs>
<clipPath id="clip0_298_22458">
<rect width="44" height="44" fill="white" transform="translate(1.16602 0.866211)"/>
</clipPath>
</defs>
</svg>
