<svg width="45" height="46" viewBox="0 0 45 46" fill="none" xmlns="http://www.w3.org/2000/svg">
<g id="Switch container">
<g id="Switch">
<path id="Vector" fill-rule="evenodd" clip-rule="evenodd" d="M15.1976 29.155L15.8059 23.6274C15.8357 23.3541 15.7026 23.0899 15.4654 22.9518C15.2281 22.8138 14.9319 22.8284 14.7093 22.99L2.92862 31.5272C2.7573 31.6514 2.65186 31.847 2.64285 32.0578C2.63314 32.2694 2.72123 32.4733 2.88076 32.6121L14.6614 42.8577C14.8772 43.045 15.1851 43.0811 15.4383 42.9486C15.6915 42.8154 15.8371 42.5414 15.8059 42.2577L15.1983 36.7829C17.7779 36.778 26.1064 36.7621 29.3179 36.785C36.6392 36.837 41.4655 32.8264 42.6051 28.6993C43.4028 25.8096 42.4734 22.8235 39.3867 20.9334C39.1384 20.7815 38.8228 20.8009 38.5946 20.9805C38.3663 21.1609 38.2748 21.464 38.365 21.7408C39.2244 24.3682 37.8655 26.1751 35.9275 27.3418C33.8293 28.6042 31.0631 29.155 29.3228 29.155H15.1976ZM30.2855 16.6696L29.7084 22.2013C29.68 22.4732 29.8145 22.7368 30.0518 22.8742C30.2883 23.0108 30.5838 22.9955 30.8057 22.8346L42.5864 14.2974C42.7577 14.1732 42.8632 13.9776 42.8722 13.7667C42.8819 13.5552 42.7938 13.3513 42.6343 13.2125L30.8536 2.96687C30.6386 2.78028 30.3313 2.74353 30.0781 2.87532C29.8256 3.00711 29.6786 3.2797 29.7084 3.5634L30.2848 9.04172C27.7163 9.04657 19.4093 9.06252 16.1971 9.03963C8.87583 8.98761 4.04954 12.9982 2.9099 17.1253C2.11222 20.015 3.04169 23.0011 6.12835 24.8912C6.37668 25.0431 6.69228 25.0237 6.92048 24.8441C7.14869 24.6637 7.24025 24.3606 7.15008 24.0838C6.29066 21.4564 7.64949 19.6495 9.5875 18.4828C11.6857 17.2204 14.452 16.6696 16.1923 16.6696H30.2855Z" fill="#4AB3FF"/>
</g>
</g>
</svg>
