<svg width="49" height="49" viewBox="0 0 49 49" fill="none" xmlns="http://www.w3.org/2000/svg">
<g clip-path="url(#clip0_3028_26648)">
<g clip-path="url(#clip1_3028_26648)">
<path d="M11.4744 9.38069V2.24666C11.4744 2.11355 11.4813 1.98188 11.4933 1.85156C10.8923 2.20625 10.3315 2.63825 9.8251 3.14468L5.23843 7.73144C4.732 8.23787 4.3 8.79857 3.94531 9.39959C4.07536 9.38762 4.20694 9.38069 4.34032 9.38069H11.4744Z" fill="#4AB3FF"/>
<path d="M19.7266 22.1592L17.0117 21.4805L20.054 26.8045L23.0963 21.4805L20.3814 22.1592C20.1665 22.213 19.9416 22.213 19.7266 22.1592Z" fill="#4AB3FF"/>
<path d="M23.7796 18.5274L20.0519 12.0039L16.3242 18.5274L20.0519 19.4593L23.7796 18.5274Z" fill="#4AB3FF"/>
<path d="M25.8376 38.1071C25.4647 38.1071 25.127 37.9559 24.8825 37.7116C20.998 34.1287 21.934 40.8815 17.161 40.9992C15.9299 40.9991 15.002 40.3333 14.615 39.1723C14.1705 37.8393 14.5058 35.9737 14.2631 35.2152C12.714 35.2214 11.5105 37.7474 11.2106 38.633C10.9719 39.338 10.2071 39.7185 9.50151 39.4813C8.79591 39.2443 8.41476 38.4823 8.6502 37.7762C8.93649 36.9173 10.6822 32.5152 14.269 32.5152C15.5 32.5152 16.428 33.181 16.815 34.342C17.2593 35.675 16.9242 37.5406 17.1668 38.2991C18.909 38.292 19.3074 33.9611 22.9451 33.9611C23.5787 33.9611 24.1865 34.1362 24.7254 34.3785C25.1827 32.1277 26.288 30.0589 27.9494 28.3976L37.3089 19.0379V2.05312C37.3089 1.30756 36.7045 0.703125 35.9589 0.703125H15.7148C14.8639 0.703125 14.1729 1.39424 14.1729 2.24365V10.7291C14.1729 11.4747 13.5684 12.0791 12.8229 12.0791H4.33884C3.4753 12.0791 2.79688 12.7818 2.79688 13.6211V45.4331C2.79688 46.1787 3.40132 46.7831 4.14688 46.7831H35.9589C36.7045 46.7831 37.3089 46.1787 37.3089 45.4331V31.5323L34.1964 34.6447C31.9637 36.8775 28.9952 38.1071 25.8376 38.1071ZM13.0967 18.7353L18.8808 8.61331C19.3808 7.71286 20.7251 7.71313 21.225 8.61331L27.009 18.7353C27.2463 19.1503 27.2463 19.6598 27.009 20.0749L21.225 30.1969C20.725 31.0974 19.3806 31.0971 18.8808 30.1969L13.0967 20.0749C12.8596 19.6598 12.8596 19.1503 13.0967 18.7353Z" fill="#4AB3FF"/>
<path d="M44.9827 18.7672L43.8267 17.6112C43.4753 17.2598 42.9054 17.2598 42.5539 17.6112L29.8599 30.3053C28.4877 31.6774 27.6066 33.4097 27.3047 35.2892C29.1842 34.9875 30.9165 34.1063 32.2887 32.734L44.9827 20.04C45.3341 19.6885 45.3341 19.1187 44.9827 18.7672Z" fill="#4AB3FF"/>
</g>
</g>
<defs>
<clipPath id="clip0_3028_26648">
<rect width="48" height="48" fill="white" transform="translate(0.5 0.0976562)"/>
</clipPath>
<clipPath id="clip1_3028_26648">
<rect width="46.08" height="46.08" fill="white" transform="translate(0.980469 0.703125)"/>
</clipPath>
</defs>
</svg>
