<svg width="51" height="50" viewBox="0 0 51 50" fill="none" xmlns="http://www.w3.org/2000/svg">
<g clip-path="url(#clip0_338_22018)">
<path d="M25.4886 49.6562C23.5663 49.6562 21.7541 49.2967 20.0519 48.5777C18.3645 47.8587 16.8751 46.8535 15.5838 45.5622C14.3071 44.2856 13.3093 42.7962 12.5903 41.0941C11.8713 39.4066 11.5118 37.6017 11.5118 35.6794C11.5118 33.7425 11.8713 31.9303 12.5903 30.2428C13.3093 28.5406 14.3071 27.0512 15.5838 25.7746C16.8751 24.4833 18.3645 23.4781 20.0519 22.7591C21.7541 22.0401 23.5663 21.6806 25.4886 21.6806C27.4255 21.6806 29.2378 22.0401 30.9253 22.7591C32.6274 23.4781 34.1168 24.4833 35.3934 25.7746C36.6701 27.0512 37.6679 28.5406 38.3869 30.2428C39.1206 31.9303 39.4874 33.7425 39.4874 35.6794C39.4874 37.6017 39.1206 39.4066 38.3869 41.0941C37.6679 42.7962 36.6701 44.2856 35.3934 45.5622C34.1168 46.8535 32.6274 47.8587 30.9253 48.5777C29.2378 49.2967 27.4255 49.6562 25.4886 49.6562ZM21.5047 42.8769L25.5106 39.9495L29.5166 42.8769C29.9421 43.1851 30.3163 43.2144 30.6391 42.965C30.9766 42.7302 31.0647 42.3707 30.9032 41.8865L29.3185 37.1541L33.3685 34.2487C33.6179 34.0726 33.7573 33.8599 33.7867 33.6104C33.8307 33.3463 33.772 33.1188 33.6106 32.9281C33.4492 32.7226 33.1924 32.6199 32.8402 32.6199L27.8658 32.6639L26.347 27.9096C26.1856 27.4254 25.9068 27.1833 25.5106 27.1833C25.1144 27.1833 24.8356 27.4254 24.6742 27.9096L23.1555 32.6639L18.181 32.6199C17.8289 32.6199 17.5647 32.7226 17.3886 32.9281C17.2272 33.1188 17.1685 33.3463 17.2126 33.6104C17.2566 33.8599 17.4033 34.08 17.6528 34.2707L21.7028 37.1541L20.118 41.8865C19.9566 42.3707 20.0373 42.7302 20.3601 42.965C20.6976 43.2144 21.0791 43.1851 21.5047 42.8769ZM12.0841 25.2023L4.7985 12.0839C4.62241 11.7904 4.54171 11.4896 4.55638 11.1815C4.57105 10.8733 4.67377 10.5798 4.86453 10.301L10.6534 1.47472L20.6242 19.3915C18.9221 19.8904 17.3446 20.6461 15.8919 21.6586C14.4392 22.6564 13.1699 23.8376 12.0841 25.2023ZM20.5582 11.8858L13.8449 0H37.1543L30.441 11.8858H20.5582ZM30.375 19.3915L40.3459 1.47472L46.1347 10.301C46.3254 10.5798 46.4282 10.8733 46.4428 11.1815C46.4575 11.4896 46.3841 11.7904 46.2227 12.0839L38.9152 25.2023C37.8293 23.8376 36.56 22.6564 35.1073 21.6586C33.6693 20.6461 32.0918 19.8904 30.375 19.3915Z" fill="#4AB3FF"/>
</g>
<defs>
<clipPath id="clip0_338_22018">
<rect width="50" height="50" fill="white" transform="translate(0.5)"/>
</clipPath>
</defs>
</svg>
