<svg width="51" height="51" viewBox="0 0 51 51" fill="none" xmlns="http://www.w3.org/2000/svg">
<g clip-path="url(#clip0_7075_105626)">
<path d="M37.6172 6.32031H40.5469V9.25H37.6172V6.32031Z" fill="#0094FF"/>
<path d="M29.375 1.28516H32.3047V4.21484H29.375V1.28516Z" fill="#0094FF"/>
<path d="M0.664062 9.08984H3.59375V12.0195H0.664062V9.08984Z" fill="#0094FF"/>
<path d="M20.3906 32.7305H23.3203V35.6602H20.3906V32.7305Z" fill="#0094FF"/>
<path d="M46.2656 0.894531H49.1953V3.82422H46.2656V0.894531Z" fill="#0094FF"/>
<path d="M16.6094 49.5244H28.9229V45.6211H19.5576L16.6094 49.5244Z" fill="#0094FF"/>
<path d="M44.7031 19.4492L50.6602 28.8242V11.5391L44.7031 19.4492Z" fill="#0094FF"/>
<path d="M43.7344 40.1777H50.668V28.8242L43.7344 35.6602V40.1777Z" fill="#0094FF"/>
<path d="M34.2559 39.1758L31.8516 42.2266V49.5273H50.6621V43.1074H39.0098L34.2559 39.1758Z" fill="#0094FF"/>
<path d="M24.5999 5.67453C20.9877 3.83234 14.2828 0.925801 8.02891 0.985273L7.54688 1.4673C7.54688 1.4673 14.7646 4.42141 20.7795 9.49494L24.5999 5.67453Z" fill="#0094FF"/>
<path d="M6.86104 35.8559L31.4301 11.2868L27.2878 7.14453L27.2824 7.1499C27.2824 7.1499 27.2797 7.14824 27.2773 7.14678L22.948 11.4762C22.9493 11.4775 22.9507 11.4789 22.9521 11.4803L2.71875 31.7136L6.86104 35.8559Z" fill="#0094FF"/>
<path d="M32.8957 13.957L29.0703 17.7824C34.15 23.795 37.1206 31.0024 37.1206 31.0024L37.6026 30.5204C37.6621 24.2627 34.7433 17.5621 32.8957 13.957Z" fill="#0094FF"/>
</g>
<defs>
<clipPath id="clip0_7075_105626">
<rect width="50" height="50" fill="white" transform="translate(0.664062 0.210938)"/>
</clipPath>
</defs>
</svg>
