<svg width="48" height="48" viewBox="0 0 48 48" fill="none" xmlns="http://www.w3.org/2000/svg">
<g id="fi_191" clip-path="url(#clip0_298_20544)">
<g id="Group">
<g id="Vector">
<mask id="path-1-inside-1_298_20544" fill="white">
<path d="M33.5876 0.110352H13.6921C11.788 0.110352 10.251 1.65429 10.251 3.55493V43.9559C10.251 45.8548 11.788 47.397 13.6921 47.397H33.5876C35.4882 47.397 37.0287 45.8548 37.0287 43.9559V3.55493C37.0287 1.65429 35.4882 0.110352 33.5876 0.110352ZM18.7306 2.20226H28.5525C28.8007 2.20226 29.0023 2.57273 29.0023 3.03109C29.0023 3.48945 28.8007 3.86165 28.5525 3.86165H18.7306C18.4807 3.86165 18.2826 3.48945 18.2826 3.03109C18.2826 2.57273 18.4807 2.20226 18.7306 2.20226ZM23.6416 43.9972C22.4302 43.9972 21.4446 43.0116 21.4446 41.7985C21.4446 40.5854 22.4302 39.6032 23.6416 39.6032C24.8495 39.6032 25.8351 40.5854 25.8351 41.7985C25.8351 43.0116 24.8495 43.9972 23.6416 43.9972ZM34.4509 36.4688H12.8305V5.92254H34.4509V36.4688Z"/>
</mask>
<path d="M33.5876 0.110352H13.6921C11.788 0.110352 10.251 1.65429 10.251 3.55493V43.9559C10.251 45.8548 11.788 47.397 13.6921 47.397H33.5876C35.4882 47.397 37.0287 45.8548 37.0287 43.9559V3.55493C37.0287 1.65429 35.4882 0.110352 33.5876 0.110352ZM18.7306 2.20226H28.5525C28.8007 2.20226 29.0023 2.57273 29.0023 3.03109C29.0023 3.48945 28.8007 3.86165 28.5525 3.86165H18.7306C18.4807 3.86165 18.2826 3.48945 18.2826 3.03109C18.2826 2.57273 18.4807 2.20226 18.7306 2.20226ZM23.6416 43.9972C22.4302 43.9972 21.4446 43.0116 21.4446 41.7985C21.4446 40.5854 22.4302 39.6032 23.6416 39.6032C24.8495 39.6032 25.8351 40.5854 25.8351 41.7985C25.8351 43.0116 24.8495 43.9972 23.6416 43.9972ZM34.4509 36.4688H12.8305V5.92254H34.4509V36.4688Z" fill="#4AB3FF"/>
<path d="M34.4509 36.4688V48.9688H46.9509V36.4688H34.4509ZM12.8305 36.4688H0.330532V48.9688H12.8305V36.4688ZM12.8305 5.92254V-6.57746H0.330532V5.92254H12.8305ZM34.4509 5.92254H46.9509V-6.57746H34.4509V5.92254ZM33.5876 -12.3896H13.6921V12.6104H33.5876V-12.3896ZM13.6921 -12.3896C4.86003 -12.3896 -2.24902 -5.2248 -2.24902 3.55493H22.751C22.751 8.53339 18.716 12.6104 13.6921 12.6104V-12.3896ZM-2.24902 3.55493V43.9559H22.751V3.55493H-2.24902ZM-2.24902 43.9559C-2.24902 52.7461 4.87224 59.897 13.6921 59.897V34.897C18.7038 34.897 22.751 38.9635 22.751 43.9559H-2.24902ZM13.6921 59.897H33.5876V34.897H13.6921V59.897ZM33.5876 59.897C42.3959 59.897 49.5287 52.7543 49.5287 43.9559H24.5287C24.5287 38.9553 28.5806 34.897 33.5876 34.897V59.897ZM49.5287 43.9559V3.55493H24.5287V43.9559H49.5287ZM49.5287 3.55493C49.5287 -5.23296 42.4081 -12.3896 33.5876 -12.3896V12.6104C28.5684 12.6104 24.5287 8.54155 24.5287 3.55493H49.5287ZM18.7306 14.7023H28.5525V-10.2977H18.7306V14.7023ZM28.5525 14.7023C21.9302 14.7023 18.7158 9.9386 17.8859 8.41052C16.7924 6.39693 16.5023 4.47162 16.5023 3.03109H41.5023C41.5023 1.1322 41.1114 -1.20753 39.855 -3.52094C38.8623 -5.34885 35.423 -10.2977 28.5525 -10.2977V14.7023ZM16.5023 3.03109C16.5023 1.59101 16.7921 -0.327653 17.8788 -2.33426C18.6949 -3.84125 21.9045 -8.63835 28.5525 -8.63835V16.3616C35.4487 16.3616 38.8832 11.3785 39.8622 9.57077C41.1117 7.26347 41.5023 4.92953 41.5023 3.03109H16.5023ZM28.5525 -8.63835H18.7306V16.3616H28.5525V-8.63835ZM18.7306 -8.63835C25.3816 -8.63835 28.5965 -3.83848 29.4244 -2.29763C30.5063 -0.283742 30.7826 1.62701 30.7826 3.03109H5.78258C5.78258 4.89352 6.15793 7.21956 7.40142 9.53413C8.39079 11.3757 11.8297 16.3616 18.7306 16.3616V-8.63835ZM30.7826 3.03109C30.7826 4.43555 30.5061 6.35298 29.4173 8.37385C28.5757 9.93588 25.3558 14.7023 18.7306 14.7023V-10.2977C11.8555 -10.2977 8.41167 -5.34613 7.40851 -3.48427C6.15814 -1.16357 5.78258 1.16828 5.78258 3.03109H30.7826ZM23.6416 31.4973C29.3401 31.4973 33.9446 36.1144 33.9446 41.7985H8.94456C8.94456 49.9088 15.5203 56.4972 23.6416 56.4972V31.4973ZM33.9446 41.7985C33.9446 47.5081 29.3146 52.1032 23.6416 52.1032V27.1032C15.5458 27.1032 8.94456 33.6627 8.94456 41.7985H33.9446ZM23.6416 52.1032C17.9523 52.1032 13.3351 47.4954 13.3351 41.7985H38.3351C38.3351 33.6755 31.7467 27.1032 23.6416 27.1032V52.1032ZM13.3351 41.7985C13.3351 36.1272 17.9268 31.4973 23.6416 31.4973V56.4972C31.7722 56.4972 38.3351 49.896 38.3351 41.7985H13.3351ZM34.4509 23.9688H12.8305V48.9688H34.4509V23.9688ZM25.3305 36.4688V5.92254H0.330532V36.4688H25.3305ZM12.8305 18.4225H34.4509V-6.57746H12.8305V18.4225ZM21.9509 5.92254V36.4688H46.9509V5.92254H21.9509Z" fill="#4AB3FF" mask="url(#path-1-inside-1_298_20544)"/>
</g>
</g>
</g>
<defs>
<clipPath id="clip0_298_20544">
<rect width="47.2867" height="47.2867" fill="white" transform="translate(-0.00976562 0.111328)"/>
</clipPath>
</defs>
</svg>
