<svg width="49" height="49" viewBox="0 0 49 49" fill="none" xmlns="http://www.w3.org/2000/svg">
<g clip-path="url(#clip0_338_24373)">
<path d="M32.3704 28.9204L28.7986 23.4879C28.7482 23.413 28.7017 23.3343 28.659 23.2631L28.6222 23.205C28.5892 23.1488 28.5601 23.0907 28.5388 23.0326C27.9842 23.1994 27.418 23.1094 26.9507 22.7683C26.7645 22.6315 26.5997 22.4591 26.462 22.2511C26.3321 22.0563 26.2022 21.8576 26.0703 21.659C26.0451 21.6815 26.0161 21.7002 25.9889 21.7208L25.9366 21.7545C25.8823 21.792 25.8299 21.8276 25.7737 21.8614L19.0004 26.0252C18.9345 26.0646 18.8686 26.1058 18.7968 26.1395C18.1414 26.4694 17.4085 26.415 16.8403 25.999C16.8112 25.9784 16.7802 25.9559 16.7492 25.9315C16.1306 25.4237 15.9464 24.5917 16.2877 23.8627C16.4467 23.5235 16.6192 23.1619 16.8267 22.8077C17.901 20.9712 19.3786 19.3334 21.4747 17.6507C21.7307 17.4445 21.9925 17.2515 22.2445 17.0622C22.3551 16.9798 22.4637 16.8973 22.5722 16.8149C22.6595 16.7493 22.7545 16.6968 22.8553 16.6593C22.5897 15.8854 22.8806 15.0684 23.6484 14.5943C24.8041 13.8784 26.3321 12.9358 27.8912 11.9914C28.1491 11.8359 28.3992 11.7759 28.5815 11.729C28.6241 11.7197 28.6687 11.7103 28.7133 11.6953C29.0779 11.5829 29.4696 11.6485 29.7701 11.8677C29.7992 11.8902 29.8283 11.9146 29.8554 11.9389C29.8903 11.9689 29.9253 11.997 29.9582 12.0232C30.0106 12.0645 30.0726 12.1095 30.1347 12.1675C30.2239 12.0813 30.3286 12.012 30.443 11.9595C30.6621 11.8602 30.8773 11.759 31.0926 11.6578C31.5075 11.4629 31.9361 11.2624 32.3743 11.0788C32.3743 9.06057 32.3685 7.04048 32.3569 5.02226C32.3414 2.24697 29.997 0.056354 27.133 0.0507267C21.6085 0.0413593 16.0841 0.0413593 10.5577 0.0507267C7.66842 0.056354 5.31244 2.32568 5.3105 5.11221C5.30275 17.7275 5.30275 30.3446 5.3105 42.9599C5.3105 45.7464 7.66842 48.0195 10.5538 48.0251C16.0782 48.0364 21.6046 48.0364 27.1291 48.0195C27.6526 48.0176 28.1936 47.9239 28.6959 47.7778C30.7785 47.1762 32.4015 45.2142 32.386 42.7294C32.3588 38.127 32.3646 33.5228 32.3704 28.9204ZM14.3292 5.49823C14.3292 4.87047 14.8237 4.42823 15.5857 4.41885C16.6832 4.40574 17.7827 4.41511 18.8802 4.41511V4.43009C20.0282 4.43009 21.1742 4.42073 22.3221 4.43572C22.7894 4.44135 23.1035 4.70369 23.2722 5.11596C23.4429 5.53196 23.3789 5.95173 23.0318 6.23095C22.7914 6.42395 22.4346 6.57762 22.1262 6.58137C19.9467 6.61135 17.7652 6.60198 15.5838 6.59449C14.8527 6.59261 14.3292 6.1185 14.3292 5.49823ZM18.8511 43.6551C17.6043 43.6608 16.6018 42.7088 16.5843 41.5039C16.5669 40.3233 17.5869 39.3226 18.8162 39.3132C20.0844 39.3039 21.1082 40.2783 21.1063 41.4907C21.1024 42.6826 20.096 43.6514 18.8511 43.6551Z" fill="#4AB3FF"/>
<path d="M32.8746 20.6367C31.7828 21.3077 30.7129 21.9653 29.625 22.6339C29.6694 22.7067 29.7215 22.7983 29.7794 22.8864C33.2434 28.1553 36.7077 33.424 40.1722 38.6926C40.5663 39.292 40.8262 39.346 41.453 38.9608C42.0737 38.5793 42.6964 38.2008 43.3148 37.8157C43.7235 37.5611 43.8057 37.2395 43.5477 36.8468C40.0099 31.4617 36.4691 26.0784 32.9285 20.695C32.9129 20.6713 32.8895 20.6526 32.8746 20.6367Z" fill="#4AB3FF"/>
<path d="M29.0661 12.7668C28.8572 12.8312 28.6603 12.8529 28.5088 12.9447C27.0923 13.803 25.682 14.671 24.2737 15.5419C23.8953 15.7759 23.8136 16.1307 24.0536 16.4972C25.1792 18.2164 26.308 19.9335 27.4414 21.6479C27.687 22.0194 28.0399 22.0876 28.4272 21.8506C29.8398 20.9862 31.251 20.1196 32.66 19.2497C33.0485 19.0099 33.1271 18.6768 32.881 18.3011C31.7551 16.5822 30.6273 14.8643 29.4903 13.1523C29.3941 13.0074 29.2247 12.908 29.0661 12.7668Z" fill="#4AB3FF"/>
<path d="M30.9375 12.9768C31.6363 14.0412 32.2998 15.0517 32.976 16.0816C33.0267 16.0565 33.0981 16.0277 33.1625 15.9883C35.4167 14.6047 37.6697 13.2192 39.9248 11.8369C40.1797 11.6806 40.3638 11.4883 40.3334 11.1774C40.3086 10.9233 40.1633 10.7256 39.9147 10.6548C39.7171 10.5986 39.4977 10.5963 39.2884 10.5989C37.0897 10.6267 35.023 11.2066 33.0201 12.0309C32.3184 12.3197 31.638 12.657 30.9375 12.9768Z" fill="#4AB3FF"/>
<path d="M25.3258 20.7964C24.6432 19.7595 23.9785 18.7499 23.2885 17.7019C22.9351 17.9698 22.568 18.2345 22.2163 18.517C20.4879 19.9052 18.9536 21.4593 17.8377 23.3639C17.6551 23.6757 17.4984 24.0026 17.3451 24.3292C17.2179 24.6002 17.286 24.8979 17.5028 25.0758C17.7363 25.2675 17.9938 25.2769 18.2611 25.1431C18.3057 25.1208 18.348 25.0939 18.3904 25.0678C20.6435 23.6834 22.8964 22.299 25.1492 20.9141C25.2075 20.8783 25.2631 20.8383 25.3258 20.7964Z" fill="#4AB3FF"/>
</g>
<defs>
<clipPath id="clip0_338_24373">
<rect width="48" height="48" fill="white" transform="translate(0.5 0.0383301)"/>
</clipPath>
</defs>
</svg>
