<svg width="51" height="50" viewBox="0 0 51 50" fill="none" xmlns="http://www.w3.org/2000/svg">
<g id="Button container">
<g id="Button container_2">
<g id="Button">
<path id="Vector" d="M36.0942 43.4969C34.3482 43.4969 32.7609 42.3858 32.1259 40.6397C32.1259 40.481 32.1259 40.3223 31.9672 40.3223H17.8402C17.8402 40.481 17.8402 40.6397 17.6815 40.6397C17.2053 42.3858 15.618 43.4969 13.872 43.4969C12.9196 43.4969 12.2847 44.1318 12.2847 45.0842C12.2847 46.0366 12.9196 46.6715 13.872 46.6715H36.0942C37.0466 46.6715 37.6815 46.0366 37.6815 45.0842C37.6815 44.1318 37.0466 43.4969 36.0942 43.4969Z" fill="#4AB3FF"/>
</g>
<path id="Vector_2" d="M42.4447 3.81445H7.52411C4.8257 3.81445 2.76221 5.87794 2.76221 8.57636V32.3859C2.76221 35.0843 4.8257 37.1478 7.52411 37.1478H18.4765H31.3336H42.4447C45.1432 37.1478 47.2066 35.0843 47.2066 32.3859V8.57636C47.2066 5.87794 45.1432 3.81445 42.4447 3.81445ZM39.2701 22.8621H31.3336C30.8574 22.8621 30.3813 22.5446 30.0638 22.2272L28.6352 20.0049L26.5717 25.0843C26.2543 25.5605 25.6193 26.0367 24.9844 26.0367C24.3495 26.0367 23.8733 25.7192 23.5559 25.0843L21.3336 20.6398L19.7463 22.2272C19.4289 22.7033 19.1114 22.8621 18.6352 22.8621H10.6987C9.74633 22.8621 9.11141 22.2271 9.11141 21.2748C9.11141 20.3224 9.74633 19.6875 10.6987 19.6875H18.0003L20.6987 16.9891C21.0162 16.6716 21.6511 16.5129 22.1273 16.5129C22.6035 16.6716 23.0797 16.9891 23.2384 17.3065L24.8257 20.4811L26.7305 15.8779C26.8892 15.4018 27.5241 14.9256 28.0003 14.9256C28.6352 14.9256 29.1114 15.0843 29.4289 15.5605L32.1273 19.6875H39.2701C40.2225 19.6875 40.8574 20.3224 40.8574 21.2748C40.8574 22.2271 40.2225 22.8621 39.2701 22.8621Z" fill="#4AB3FF"/>
</g>
</g>
</svg>
