<svg width="51" height="50" viewBox="0 0 51 50" fill="none" xmlns="http://www.w3.org/2000/svg">
<g id="Button container">
<g id="Button container_2">
<g id="Button">
<path id="Vector" d="M25.9604 35.5464C28.0099 35.5464 29.6714 34.028 29.6714 32.155C29.6714 30.282 28.0099 28.7637 25.9604 28.7637C23.911 28.7637 22.2495 30.282 22.2495 32.155C22.2495 34.028 23.911 35.5464 25.9604 35.5464Z" fill="#4AB3FF"/>
<path id="Vector_2" d="M48.7473 11.3301C42.7036 5.80698 34.5067 2.7041 25.9597 2.7041C17.4127 2.7041 9.21574 5.80698 3.17209 11.3301C3.06222 11.4305 3.00049 11.5667 3.00049 11.7088C3.00049 11.8508 3.06222 11.987 3.17209 12.0874L5.9342 14.6116C6.04408 14.712 6.19311 14.7684 6.34851 14.7684C6.5039 14.7684 6.65293 14.712 6.76281 14.6116C9.28379 12.3077 12.2766 10.4802 15.5704 9.23331C18.8643 7.98645 22.3946 7.3447 25.9598 7.3447C29.525 7.3447 33.0553 7.98645 36.3491 9.23331C39.643 10.4802 42.6358 12.3077 45.1568 14.6116C45.2112 14.6613 45.2758 14.7008 45.3469 14.7277C45.418 14.7546 45.4942 14.7685 45.5711 14.7685C45.6481 14.7685 45.7243 14.7546 45.7954 14.7277C45.8665 14.7008 45.9311 14.6613 45.9855 14.6116L48.7475 12.0874C48.8573 11.9869 48.919 11.8507 48.919 11.7087C48.919 11.5667 48.8572 11.4305 48.7473 11.3301Z" fill="#4AB3FF"/>
<path id="Vector_3" d="M38.9445 20.8265C39.0214 20.8266 39.0976 20.8128 39.1687 20.7859C39.2398 20.759 39.3044 20.7195 39.3587 20.6697L42.1209 18.1454C42.2308 18.045 42.2925 17.9088 42.2925 17.7668C42.2925 17.6248 42.2308 17.4886 42.1209 17.3881C39.999 15.4489 37.4798 13.9106 34.7073 12.8611C31.9349 11.8117 28.9633 11.2715 25.9624 11.2715C22.9615 11.2715 19.99 11.8117 17.2175 12.8611C14.445 13.9106 11.9259 15.4489 9.80393 17.3881C9.69405 17.4886 9.63232 17.6248 9.63232 17.7668C9.63232 17.9088 9.69405 18.045 9.80393 18.1454L12.5661 20.6697C12.676 20.7701 12.825 20.8265 12.9804 20.8265C13.1358 20.8265 13.2849 20.7701 13.3947 20.6697C16.7279 17.6236 21.2486 15.9124 25.9624 15.9124C30.6762 15.9124 35.1969 17.6236 38.5301 20.6697C38.5844 20.7195 38.649 20.759 38.7201 20.7859C38.7912 20.8128 38.8675 20.8266 38.9445 20.8265Z" fill="#4AB3FF"/>
<path id="Vector_4" d="M32.3095 26.8849C32.3865 26.885 32.4627 26.8711 32.5338 26.8442C32.6049 26.8173 32.6695 26.7779 32.7239 26.7281L35.4859 24.2034C35.5403 24.1537 35.5834 24.0946 35.6129 24.0297C35.6424 23.9647 35.6575 23.8951 35.6575 23.8247C35.6575 23.7544 35.6424 23.6848 35.6129 23.6198C35.5834 23.5548 35.5403 23.4958 35.4859 23.4461C32.9585 21.1364 29.5307 19.8389 25.9566 19.8389C22.3824 19.8389 18.9546 21.1364 16.4273 23.4461C16.3728 23.4958 16.3297 23.5548 16.3002 23.6198C16.2708 23.6848 16.2556 23.7544 16.2556 23.8247C16.2556 23.8951 16.2708 23.9647 16.3002 24.0297C16.3297 24.0946 16.3728 24.1537 16.4273 24.2034L19.1889 26.7281C19.2433 26.7778 19.3079 26.8173 19.379 26.8442C19.4501 26.8711 19.5263 26.8849 19.6032 26.8849C19.6802 26.8849 19.7564 26.8711 19.8275 26.8442C19.8986 26.8173 19.9632 26.7778 20.0176 26.7281C20.7975 26.0153 21.7233 25.45 22.7423 25.0642C23.7613 24.6785 24.8534 24.48 25.9563 24.48C27.0592 24.48 28.1514 24.6785 29.1703 25.0642C30.1893 25.45 31.1152 26.0153 31.895 26.7281C31.9494 26.7779 32.014 26.8174 32.0851 26.8443C32.1563 26.8712 32.2325 26.885 32.3095 26.8849Z" fill="#4AB3FF"/>
<path id="Vector_5" d="M39.2417 37.8672H12.6792C11.7471 37.8681 10.8535 38.2069 10.1944 38.8093C9.53534 39.4116 9.16461 40.2282 9.16357 41.08V43.9359C9.16461 44.7877 9.53534 45.6044 10.1944 46.2067C10.8535 46.809 11.7471 47.1478 12.6792 47.1488H39.2417C40.1738 47.1478 41.0674 46.809 41.7265 46.2067C42.3856 45.6044 42.7563 44.7877 42.7573 43.9359V41.08C42.7563 40.2282 42.3856 39.4116 41.7265 38.8093C41.0674 38.2069 40.1738 37.8681 39.2417 37.8672ZM40.4136 43.9359C40.4132 44.2199 40.2897 44.4921 40.07 44.6928C39.8503 44.8936 39.5524 45.0066 39.2417 45.0069H12.6792C12.3685 45.0066 12.0706 44.8936 11.8509 44.6928C11.6312 44.4921 11.5077 44.2199 11.5073 43.9359V41.08C11.5077 40.7961 11.6312 40.5239 11.8509 40.3231C12.0706 40.1223 12.3685 40.0094 12.6792 40.0091H39.2417C39.5524 40.0094 39.8503 40.1223 40.07 40.3231C40.2897 40.5239 40.4132 40.7961 40.4136 41.08V43.9359Z" fill="#4AB3FF"/>
<path id="Vector_6" d="M25.9604 43.5784C26.6077 43.5784 27.1323 43.0989 27.1323 42.5075C27.1323 41.916 26.6077 41.4365 25.9604 41.4365C25.3132 41.4365 24.7886 41.916 24.7886 42.5075C24.7886 43.0989 25.3132 43.5784 25.9604 43.5784Z" fill="#4AB3FF"/>
<path id="Vector_7" d="M30.7783 43.5784C31.4255 43.5784 31.9502 43.0989 31.9502 42.5075C31.9502 41.916 31.4255 41.4365 30.7783 41.4365C30.1311 41.4365 29.6064 41.916 29.6064 42.5075C29.6064 43.0989 30.1311 43.5784 30.7783 43.5784Z" fill="#4AB3FF"/>
<path id="Vector_8" d="M35.5916 43.5784C36.2388 43.5784 36.7634 43.0989 36.7634 42.5075C36.7634 41.916 36.2388 41.4365 35.5916 41.4365C34.9443 41.4365 34.4197 41.916 34.4197 42.5075C34.4197 43.0989 34.9443 43.5784 35.5916 43.5784Z" fill="#4AB3FF"/>
<path id="Vector_9" d="M21.1472 43.5784C21.7944 43.5784 22.3191 43.0989 22.3191 42.5075C22.3191 41.916 21.7944 41.4365 21.1472 41.4365C20.5 41.4365 19.9753 41.916 19.9753 42.5075C19.9753 43.0989 20.5 43.5784 21.1472 43.5784Z" fill="#4AB3FF"/>
<path id="Vector_10" d="M16.3296 43.5784C16.9768 43.5784 17.5015 43.0989 17.5015 42.5075C17.5015 41.916 16.9768 41.4365 16.3296 41.4365C15.6824 41.4365 15.1577 41.916 15.1577 42.5075C15.1577 43.0989 15.6824 43.5784 16.3296 43.5784Z" fill="#4AB3FF"/>
</g>
</g>
</g>
</svg>
