<svg width="51" height="50" viewBox="0 0 51 50" fill="none" xmlns="http://www.w3.org/2000/svg">
<path d="M46.2816 11.9639L25.8996 0.196289C25.4464 -0.0654297 24.888 -0.0654297 24.4348 0.196289L4.05273 11.9639C3.59951 12.2255 3.32031 12.7091 3.32031 13.2324V36.7676C3.32031 37.2909 3.59951 37.7745 4.05273 38.0361L24.4348 49.8037C24.888 50.0654 25.4464 50.0654 25.8996 49.8037L46.2816 38.0361C46.7349 37.7745 47.0141 37.2909 47.0141 36.7676V13.2324C47.0141 12.7091 46.735 12.2255 46.2816 11.9639ZM19.6757 29.707C19.6757 30.516 19.0198 31.1719 18.2108 31.1719H16.6418C16.0504 31.1719 15.5171 30.8163 15.2896 30.2704L12.6151 23.8516V29.707C12.5431 31.6485 9.75684 31.6471 9.68545 29.707V20.293C9.68545 19.484 10.3413 18.8281 11.1503 18.8281H12.7193C13.3107 18.8281 13.844 19.1837 14.0715 19.7296L16.746 26.1485V20.293C16.8181 18.3515 19.6043 18.3529 19.6757 20.293V29.707ZM29.8742 21.7578H25.1672V24.3196H28.3052C30.2467 24.3917 30.2452 27.1779 28.3052 27.2493H25.1672V29.707C25.0951 31.6485 22.3089 31.6471 22.2375 29.707V20.293C22.2375 19.484 22.8934 18.8281 23.7023 18.8281H29.8742C31.8157 18.9002 31.8143 21.6864 29.8742 21.7578ZM40.0728 21.7578H38.3996V29.707C38.3275 31.6485 35.5413 31.6471 35.4699 29.707V21.7578H33.7968C31.8553 21.6857 31.8567 18.8995 33.7968 18.8281H40.0728C42.0143 18.9002 42.0128 21.6864 40.0728 21.7578Z" fill="#0094FF"/>
</svg>
