<svg width="49" height="48" viewBox="0 0 49 48" fill="none" xmlns="http://www.w3.org/2000/svg">
<g clip-path="url(#clip0_3955_12116)">
<path d="M22.9397 16.6861L13.7491 13.4688C13.7491 16.4063 13.7243 16.3854 13.8167 16.6626C13.944 17.0605 14.2457 17.3909 14.6503 17.546C24.6643 21.3979 23.9602 21.1702 24.3341 21.1702C24.7048 21.1702 23.992 21.4021 34.017 17.546C34.5541 17.3396 34.9191 16.824 34.9191 16.2331V13.6225L25.6685 16.7067C24.7809 17.0025 23.8211 16.9951 22.9397 16.6861Z" fill="#4AB3FF"/>
<path d="M9.39993 8.90238C9.73845 9.12668 8.60615 8.68249 23.8689 14.0242C24.162 14.1279 24.4805 14.1304 24.7785 14.0317C30.0958 12.2591 33.4931 11.1266 37.7547 9.70601V17.6391C37.7547 18.0273 37.9122 18.3799 38.1673 18.634C39.0487 19.5155 40.5679 18.888 40.5679 17.6391C40.5679 8.0484 40.5653 7.83151 40.565 7.83273C40.6073 7.23287 40.2293 6.62813 39.6058 6.42024C24.5894 1.41516 24.6674 1.40625 24.3341 1.40625C23.9881 1.40625 24.0887 1.40916 9.74876 6.4268C8.67901 6.80114 8.46671 8.23501 9.39993 8.90238Z" fill="#4AB3FF"/>
<path d="M8.79297 31.0469H11.6286V33.8816H8.79297V31.0469Z" fill="#4AB3FF"/>
<path d="M46.9255 7.75H43.379V17.6345C43.379 19.9619 41.4857 21.8542 39.1593 21.8542C37.6617 21.8542 36.3442 21.0703 35.595 19.8916C35.2075 20.1113 35.8511 19.8433 25.8474 23.6912C24.889 24.0601 23.8102 24.073 22.8167 23.6912L13.6383 20.1607C12.0085 19.5333 10.9339 17.9699 10.9339 16.2223V12.4742L8.81746 11.7325C7.12675 11.1417 5.99117 9.54104 5.99117 7.75H1.73861C0.962179 7.75 0.332031 8.38015 0.332031 9.15658V39.5228C0.332031 40.2992 0.962179 40.9293 1.73861 40.9293H14.4529V43.7641H10.2109C9.43448 43.7641 8.80433 44.3942 8.80433 45.1706C8.80433 45.948 9.43448 46.5772 10.2109 46.5772H38.4532C39.2296 46.5772 39.8597 45.948 39.8597 45.1706C39.8597 44.3942 39.2296 43.7641 38.4532 43.7641H34.2111V40.9293H46.9255C47.7019 40.9293 48.332 40.2992 48.332 39.5228V9.15658C48.332 8.38015 47.7019 7.75 46.9255 7.75ZM14.4419 35.2805C14.4419 36.0579 13.8118 36.6871 13.0353 36.6871H7.3865C6.61007 36.6871 5.97992 36.0579 5.97992 35.2805V29.6326C5.97992 28.8553 6.61007 28.226 7.3865 28.226H13.0353C13.8118 28.226 14.4419 28.8553 14.4419 29.6326V35.2805ZM41.2776 36.6871H18.6832C17.9068 36.6871 17.2766 36.0579 17.2766 35.2805C17.2766 34.5041 17.9068 33.8739 18.6832 33.8739H41.2776C42.054 33.8739 42.6842 34.5041 42.6842 35.2805C42.6842 36.0579 42.054 36.6871 41.2776 36.6871ZM41.2776 31.0392H18.6832C17.9068 31.0392 17.2766 30.4091 17.2766 29.6326C17.2766 28.8553 17.9068 28.226 18.6832 28.226H41.2776C42.054 28.226 42.6842 28.8553 42.6842 29.6326C42.6842 30.4091 42.054 31.0392 41.2776 31.0392Z" fill="#4AB3FF"/>
</g>
<defs>
<clipPath id="clip0_3955_12116">
<rect width="48" height="48" fill="white" transform="translate(0.332031)"/>
</clipPath>
</defs>
</svg>
