<svg width="46" height="46" viewBox="0 0 46 46" fill="none" xmlns="http://www.w3.org/2000/svg">
<g id="Button" clip-path="url(#clip0_298_20950)">
<path id="Vector" d="M44.2622 9.48091C43.9636 7.49774 43.0327 5.664 41.6079 4.25258C40.1831 2.84115 38.3407 1.92749 36.3548 1.64757C27.4609 0.38831 18.4339 0.38831 9.53999 1.64757C7.55683 1.94617 5.72309 2.87713 4.31166 4.3019C2.90024 5.72667 1.98658 7.5691 1.70666 9.55498C0.44739 18.4489 0.44739 27.4759 1.70666 36.3698C2.00526 38.353 2.93622 40.1867 4.36099 41.5981C5.78576 43.0096 7.62818 43.9232 9.61407 44.2031C14.0431 44.8321 18.511 45.1477 22.9844 45.1476C27.4825 45.1484 31.9751 44.8328 36.4289 44.2031C38.412 43.9045 40.2458 42.9736 41.6572 41.5488C43.0686 40.124 43.9823 38.2816 44.2622 36.2957C44.8912 31.8667 45.2068 27.3988 45.2067 22.9254C45.2074 18.4273 44.8919 13.9347 44.2622 9.48091ZM35.9474 28.1396V35.8883C35.9474 36.3795 35.7523 36.8505 35.405 37.1978C35.0577 37.5451 34.5867 37.7402 34.0955 37.7402C33.6044 37.7402 33.1334 37.5451 32.7861 37.1978C32.4388 36.8505 32.2437 36.3795 32.2437 35.8883V28.1396C31.1616 27.7623 30.2237 27.0576 29.56 26.1233C28.8964 25.189 28.5398 24.0714 28.5398 22.9254C28.5398 21.7793 28.8964 20.6617 29.56 19.7274C30.2237 18.7931 31.1616 18.0885 32.2437 17.7111V9.96239C32.2437 9.47125 32.4388 9.00022 32.7861 8.65293C33.1334 8.30564 33.6044 8.11054 34.0955 8.11054C34.5867 8.11054 35.0577 8.30564 35.405 8.65293C35.7523 9.00022 35.9474 9.47125 35.9474 9.96239V17.7111C37.0295 18.0885 37.9674 18.7931 38.6311 19.7274C39.2947 20.6617 39.6513 21.7793 39.6513 22.9254C39.6513 24.0714 39.2947 25.189 38.6311 26.1233C37.9674 27.0576 37.0295 27.7623 35.9474 28.1396ZM6.31777 17.3698C6.32129 16.2246 6.67919 15.1086 7.34233 14.175C8.00548 13.2414 8.94135 12.536 10.0215 12.1555V9.96239C10.0215 9.47125 10.2166 9.00022 10.5639 8.65293C10.9112 8.30564 11.3822 8.11054 11.8733 8.11054C12.3645 8.11054 12.8355 8.30564 13.1828 8.65293C13.5301 9.00022 13.7252 9.47125 13.7252 9.96239V12.1555C14.8073 12.5329 15.7452 13.2376 16.4088 14.1719C17.0725 15.1062 17.429 16.2238 17.429 17.3698C17.429 18.5158 17.0725 19.6334 16.4088 20.5677C15.7452 21.502 14.8073 22.2067 13.7252 22.5841V35.8883C13.7252 36.3795 13.5301 36.8505 13.1828 37.1978C12.8355 37.5451 12.3645 37.7402 11.8733 37.7402C11.3822 37.7402 10.9112 37.5451 10.5639 37.1978C10.2166 36.8505 10.0215 36.3795 10.0215 35.8883V22.5841C8.94135 22.2036 8.00548 21.4982 7.34233 20.5646C6.67919 19.6309 6.32129 18.5149 6.31777 17.3698ZM17.4289 32.1846C17.4324 31.0395 17.7903 29.9235 18.4534 28.9899C19.1166 28.0562 20.0525 27.3508 21.1326 26.9704V9.96239C21.1326 9.47125 21.3277 9.00022 21.675 8.65293C22.0223 8.30564 22.4933 8.11054 22.9844 8.11054C23.4756 8.11054 23.9466 8.30564 24.2939 8.65293C24.6412 9.00022 24.8363 9.47125 24.8363 9.96239V26.9704C25.7938 27.3116 26.6392 27.9095 27.2799 28.6986C27.9207 29.4878 28.3322 30.4379 28.4695 31.4451C28.6068 32.4523 28.4647 33.4779 28.0586 34.4098C27.6525 35.3417 26.9981 36.144 26.1668 36.7292C25.3356 37.3143 24.3595 37.6597 23.3452 37.7276C22.331 37.7956 21.3176 37.5834 20.4157 37.1144C19.5139 36.6453 18.7583 35.9374 18.2315 35.068C17.7048 34.1986 17.4271 33.2011 17.4289 32.1846Z" fill="#4AB3FF"/>
<path id="Vector_2" d="M11.8719 19.2223C12.8946 19.2223 13.7237 18.3932 13.7237 17.3704C13.7237 16.3477 12.8946 15.5186 11.8719 15.5186C10.8491 15.5186 10.02 16.3477 10.02 17.3704C10.02 18.3932 10.8491 19.2223 11.8719 19.2223Z" fill="#4AB3FF"/>
<path id="Vector_3" d="M34.094 24.7779C35.1168 24.7779 35.9459 23.9488 35.9459 22.9261C35.9459 21.9033 35.1168 21.0742 34.094 21.0742C33.0713 21.0742 32.2422 21.9033 32.2422 22.9261C32.2422 23.9488 33.0713 24.7779 34.094 24.7779Z" fill="#4AB3FF"/>
<path id="Vector_4" d="M22.9827 34.0367C24.0055 34.0367 24.8346 33.2076 24.8346 32.1849C24.8346 31.1621 24.0055 30.333 22.9827 30.333C21.96 30.333 21.1309 31.1621 21.1309 32.1849C21.1309 33.2076 21.96 34.0367 22.9827 34.0367Z" fill="#4AB3FF"/>
</g>
<defs>
<clipPath id="clip0_298_20950">
<rect width="44.4444" height="44.4444" fill="white" transform="translate(0.762207 0.703125)"/>
</clipPath>
</defs>
</svg>
