<svg width="33" height="32" viewBox="0 0 33 32" fill="none" xmlns="http://www.w3.org/2000/svg">
<g clip-path="url(#clip0_1_11522)">
<path d="M5 12.0869V25.3913C5 26.6879 6.05113 27.7391 7.34783 27.7391H26.6522C27.9488 27.7391 29 26.688 29 25.3913V12.0869H5ZM17.2609 23.0434H8.91303C8.48098 23.0434 8.13041 22.6929 8.13041 22.2608C8.13041 21.8288 8.48098 21.4782 8.91303 21.4782H17.2609C17.6929 21.4782 18.0435 21.8288 18.0435 22.2608C18.0435 22.6929 17.6929 23.0434 17.2609 23.0434ZM25.087 19.913H8.91303C8.48098 19.913 8.13041 19.5624 8.13041 19.1304C8.13041 18.6983 8.48098 18.3477 8.91303 18.3477H25.0869C25.519 18.3477 25.8695 18.6983 25.8695 19.1304C25.8695 19.5624 25.519 19.913 25.087 19.913ZM25.087 16.7826H8.91303C8.48098 16.7826 8.13041 16.432 8.13041 15.9999C8.13041 15.5679 8.48098 15.2173 8.91303 15.2173H25.0869C25.519 15.2173 25.8695 15.5679 25.8695 15.9999C25.8695 16.432 25.519 16.7826 25.087 16.7826Z" fill="#0094FF"/>
<path d="M26.6522 4.26074H7.34783C6.05113 4.26074 5 5.31191 5 6.60857V10.5216H29V6.60857C29 5.31191 27.9489 4.26074 26.6522 4.26074ZM8.91303 8.9564C8.48084 8.9564 8.13041 8.60601 8.13041 8.17377C8.13041 7.74159 8.4808 7.39115 8.91303 7.39115C9.34527 7.39115 9.69566 7.74154 9.69566 8.17377C9.69566 8.60601 9.34527 8.9564 8.91303 8.9564ZM12.0435 8.9564C11.6113 8.9564 11.2609 8.60601 11.2609 8.17377C11.2609 7.74159 11.6113 7.39115 12.0435 7.39115C12.4757 7.39115 12.8261 7.74154 12.8261 8.17377C12.8261 8.60601 12.4757 8.9564 12.0435 8.9564ZM15.1739 8.9564C14.7417 8.9564 14.3913 8.60601 14.3913 8.17377C14.3913 7.74159 14.7417 7.39115 15.1739 7.39115C15.6061 7.39115 15.9565 7.74154 15.9565 8.17377C15.9565 8.60601 15.6061 8.9564 15.1739 8.9564Z" fill="#0094FF"/>
</g>
<defs>
<clipPath id="clip0_1_11522">
<rect width="24" height="24" fill="white" transform="translate(5 4)"/>
</clipPath>
</defs>
</svg>
