<svg width="33" height="32" viewBox="0 0 33 32" fill="none" xmlns="http://www.w3.org/2000/svg">
<g clip-path="url(#clip0_1_11517)">
<path d="M18.4062 4H5.70312C5.31481 4 5 4.31481 5 4.70312V6.85938H18.4062V4Z" fill="#0094FF"/>
<path d="M28.2969 4H26.8438V6.85938H29V4.70312C29 4.31481 28.6852 4 28.2969 4Z" fill="#0094FF"/>
<path d="M19.8125 4H21.9219V6.85938H19.8125V4Z" fill="#0094FF"/>
<path d="M23.3281 4H25.4375V6.85938H23.3281V4Z" fill="#0094FF"/>
<path d="M5 27.2969C5 27.6852 5.31481 28 5.70312 28H12.0758V8.26562H5V27.2969ZM7.86172 10.375H9.26328C9.65159 10.375 9.96641 10.6898 9.96641 11.0781C9.96641 11.4664 9.65159 11.7812 9.26328 11.7812H7.86172C7.47341 11.7812 7.15859 11.4664 7.15859 11.0781C7.15859 10.6898 7.47341 10.375 7.86172 10.375ZM7.86172 13.1875H9.26328C9.65159 13.1875 9.96641 13.5023 9.96641 13.8906C9.96641 14.2789 9.65159 14.5938 9.26328 14.5938H7.86172C7.47341 14.5938 7.15859 14.2789 7.15859 13.8906C7.15859 13.5023 7.47341 13.1875 7.86172 13.1875ZM7.85938 16H9.26562C9.65394 16 9.96875 16.3148 9.96875 16.7031C9.96875 17.0914 9.65394 17.4062 9.26562 17.4062H7.85938C7.47106 17.4062 7.15625 17.0914 7.15625 16.7031C7.15625 16.3148 7.47106 16 7.85938 16Z" fill="#0094FF"/>
<path d="M21.2188 20.922C24.1428 20.922 26.1836 18 25.1796 15.2591L21.5667 17.3165C21.1041 17.5809 20.5156 17.2486 20.5156 16.7056V12.5481C18.5242 12.8838 17.0023 14.6202 17.0023 16.7056C17.0023 19.0305 18.8938 20.922 21.2188 20.922Z" fill="#0094FF"/>
<path d="M21.9219 12.5481V15.496L24.4818 14.0383C23.849 13.2656 22.9477 12.7211 21.9219 12.5481Z" fill="#0094FF"/>
<path d="M13.482 28H28.2969C28.6852 28 29 27.6852 29 27.2969V8.26562H13.482V28ZM21.2187 11.0828C24.3191 11.0828 26.8414 13.6059 26.8414 16.7055C26.8414 19.8058 24.3191 22.3281 21.2187 22.3281C18.1184 22.3281 15.5961 19.8058 15.5961 16.7055C15.5961 13.6052 18.1184 11.0828 21.2187 11.0828ZM16.2992 23.7344H26.143C26.5313 23.7344 26.8461 24.0492 26.8461 24.4375C26.8461 24.8258 26.5313 25.1406 26.143 25.1406H16.2992C15.9109 25.1406 15.5961 24.8258 15.5961 24.4375C15.5961 24.0492 15.9109 23.7344 16.2992 23.7344Z" fill="#0094FF"/>
</g>
<defs>
<clipPath id="clip0_1_11517">
<rect width="24" height="24" fill="white" transform="translate(5 4)"/>
</clipPath>
</defs>
</svg>
