<svg width="36" height="36" viewBox="0 0 36 36" fill="none" xmlns="http://www.w3.org/2000/svg">
<g clip-path="url(#clip0_3946_11196)">
<path d="M29.3251 24.6534L25.8252 25.0428L24.1288 28.1312L20.745 27.1482L20.5938 27.269L25.3557 35.9933L27.8075 30.7564L33.7897 31.7211L29.3692 24.2578L29.3251 24.6534Z" fill="#4AB3FF"/>
<path d="M11.86 28.1334L10.1636 25.0451L6.6636 24.6556L6.62021 24.2656L2.21484 31.7228L8.19375 30.7587L10.6467 35.998L15.3974 27.2731L15.2439 27.1505L11.86 28.1334Z" fill="#4AB3FF"/>
<path d="M17.9989 26.654L20.2878 24.8246L23.0997 25.6416L24.5097 23.0743L27.4223 22.7504L27.7463 19.8378L30.3135 18.4277L29.4966 15.6158L31.3259 13.3269L29.4966 11.038L30.3135 8.22608L27.7464 6.81607L27.4224 3.9035L24.5098 3.57951L23.0997 1.01228L20.2878 1.82915L17.9989 0L15.71 1.82929L12.8982 1.01243L11.4881 3.57958L8.57559 3.90357L8.25153 6.81614L5.68437 8.22622L6.50116 11.0382L4.67188 13.327L6.50116 15.6159L5.68437 18.4278L8.25146 19.8378L8.57552 22.7504L11.488 23.0744L12.8982 25.6416L15.71 24.8247L17.9989 26.654ZM17.9989 6.18332C21.9379 6.18332 25.1425 9.388 25.1425 13.327C25.1425 17.2661 21.9379 20.4707 17.9989 20.4707C14.0599 20.4707 10.8552 17.266 10.8552 13.327C10.8552 9.38793 14.0599 6.18332 17.9989 6.18332Z" fill="#4AB3FF"/>
<path d="M19.9346 17.9732C22.505 16.9077 23.7251 13.9602 22.6596 11.3897C21.5941 8.81917 18.6466 7.59909 16.0761 8.66456C13.5056 9.73002 12.2856 12.6776 13.3511 15.2481C14.4166 17.8186 17.3641 19.0386 19.9346 17.9732Z" fill="#4AB3FF"/>
</g>
<defs>
<clipPath id="clip0_3946_11196">
<rect width="36" height="36" fill="white"/>
</clipPath>
</defs>
</svg>
