<svg width="49" height="49" viewBox="0 0 49 49" fill="none" xmlns="http://www.w3.org/2000/svg">
<g clip-path="url(#clip0_338_24386)">
<path d="M43.3777 34.3171V36.0309H43.9268C44.8555 36.0309 45.7843 36.0288 46.7109 36.0331C47.8091 36.0395 48.4847 36.6894 48.4869 37.734C48.4912 38.7829 47.8177 39.4499 46.7345 39.4564C45.662 39.465 44.5917 39.4628 43.5214 39.465C43.487 39.465 43.4527 39.4821 43.3455 39.5079C43.3455 40.0355 43.3498 40.5803 43.3455 41.1273C43.3348 42.2341 42.687 42.8775 41.5738 42.8861C41.0418 42.8904 40.5099 42.8861 39.9179 42.8861C39.9179 44.0487 39.9265 45.1683 39.9157 46.2858C39.905 47.5728 38.8304 48.3342 37.6057 47.9331C36.9021 47.7036 36.501 47.1459 36.4946 46.3459C36.486 45.222 36.4924 44.098 36.4924 42.9312H34.7765V44.5549C34.7765 45.1447 34.7829 45.7324 34.7744 46.3223C34.7593 47.3647 34.0837 48.0297 33.0584 48.0275C32.0331 48.0254 31.3618 47.3583 31.3532 46.3116C31.3446 45.1898 31.3511 44.068 31.3511 42.9183H29.6351V43.4653C29.6351 44.3575 29.6372 45.252 29.6351 46.1443C29.633 47.3411 29.0152 48.0232 27.9342 48.0275C26.8446 48.0339 26.2118 47.3519 26.2097 46.1679C26.2075 45.0997 26.2097 44.0294 26.2097 42.8861C25.652 42.8861 25.1243 42.8883 24.5967 42.8861C23.417 42.8797 22.7864 42.2448 22.7821 41.0629C22.7799 40.5482 22.7799 40.0334 22.7799 39.4585C21.6195 39.4585 20.502 39.465 19.3824 39.4564C18.0783 39.4457 17.3061 38.326 17.7458 37.0948C17.9817 36.432 18.5437 36.0417 19.318 36.0352C20.354 36.0245 21.3879 36.0331 22.4239 36.0309C22.5268 36.0309 22.6298 36.0202 22.7542 36.0116V34.3171H22.1879C19.5818 34.3171 16.9758 34.3171 14.3697 34.315C13.117 34.315 12.4971 33.693 12.4971 32.4425C12.4971 27.3526 12.4971 22.2648 12.4993 17.177C12.4993 16.8896 12.4864 16.6687 12.1904 16.4628C10.9871 15.6284 10.5024 14.1033 10.9399 12.722C11.3775 11.345 12.6838 10.3497 14.0951 10.3218C15.6137 10.2918 16.9286 11.1905 17.4348 12.6062C17.926 13.9854 17.5034 15.504 16.328 16.3898C16.0191 16.6194 15.914 16.8381 15.914 17.2156C15.929 21.572 15.9226 25.9283 15.9226 30.2825V30.8509H22.7499V29.1736H22.1515C21.2227 29.1736 20.2939 29.18 19.3652 29.1715C18.3142 29.1629 17.645 28.4979 17.6407 27.4748C17.6342 26.4217 18.3035 25.7567 19.3888 25.7482C20.4591 25.7417 21.5316 25.7439 22.6019 25.7417C22.6362 25.7417 22.6684 25.7267 22.7799 25.7031C22.7799 25.1926 22.7778 24.665 22.7821 24.1373C22.7864 22.9576 23.4191 22.3249 24.601 22.3206C25.1158 22.3163 25.6284 22.3184 26.2097 22.3184C26.2097 21.1623 26.2032 20.0448 26.2097 18.9251C26.2204 17.6167 27.3315 16.8467 28.5669 17.2821C29.2297 17.5159 29.6244 18.0779 29.633 18.8501C29.6415 19.8861 29.6351 20.9221 29.6351 21.9581C29.6351 22.061 29.6458 22.164 29.6544 22.2927L36.4924 22.3077V20.4502C36.4924 19.914 36.4839 19.3777 36.4946 18.8436C36.516 17.8377 37.1938 17.1792 38.1977 17.177C39.2036 17.1749 39.8986 17.8269 39.9136 18.8265C39.9308 19.9676 39.9179 21.1065 39.9179 22.3184C40.497 22.3184 41.0418 22.3163 41.5888 22.3206C42.6956 22.3313 43.3369 22.9769 43.3455 24.0944C43.3498 24.6242 43.3455 25.1562 43.3455 25.7482C44.5102 25.7482 45.6298 25.7396 46.7473 25.7503C48.0343 25.7589 48.7936 26.8356 48.3925 28.0625C48.163 28.7618 47.6032 29.165 46.8053 29.1715C45.6813 29.18 44.5574 29.1736 43.3905 29.1736V30.8895H45.0164C45.6041 30.8895 46.1939 30.8831 46.7838 30.8917C47.8241 30.9067 48.4912 31.5824 48.4869 32.6098C48.4847 33.6329 47.8177 34.3043 46.7688 34.315C45.6491 34.3236 44.5273 34.3171 43.3777 34.3171Z" fill="#4AB3FF"/>
<path d="M17.6392 22.3177C17.6392 20.7483 17.6309 19.2512 17.6511 17.7545C17.6533 17.5911 17.7894 17.4008 17.914 17.2719C19.4236 15.7109 19.7833 13.4186 18.8185 11.4278C17.9008 9.5339 15.8359 8.39863 13.7121 8.62028C11.4617 8.85515 9.70044 10.3545 9.21547 12.5113C8.80767 14.3249 9.23254 15.9325 10.5308 17.2934C10.6527 17.4212 10.7683 17.6197 10.7704 17.7869C10.789 19.2677 10.7812 20.7489 10.7812 22.3177C10.2587 22.3177 9.74981 22.3178 9.24089 22.3177C8.59836 22.3176 7.95565 22.3271 7.31335 22.3149C6.32501 22.2962 5.64799 21.6494 5.64625 20.6723C5.6372 15.5852 5.64261 10.4981 5.64398 5.41096C5.64399 5.35903 5.65745 5.30711 5.67525 5.17844C5.85643 5.17844 6.04447 5.17844 6.23251 5.17844C11.105 5.17844 15.9775 5.17798 20.85 5.17876C22.1776 5.17898 22.7784 5.7781 22.7787 7.10243C22.7796 11.547 22.7799 15.9915 22.7785 20.436C22.7781 21.6916 22.1592 22.3145 20.9139 22.3172C19.8457 22.3195 18.7775 22.3177 17.6392 22.3177Z" fill="#4AB3FF"/>
<path d="M3.90592 20.5702C2.76967 19.4362 1.69746 18.374 0.639905 17.2974C0.544621 17.2004 0.505211 17.0105 0.505016 16.8636C0.49846 11.9218 0.499752 6.98001 0.501066 2.03822C0.501079 1.98764 0.516596 1.93706 0.547973 1.74538C0.932193 2.14682 1.25261 2.49124 1.58349 2.82528C2.26141 3.5097 2.95798 4.17632 3.61689 4.87841C3.77897 5.05112 3.91209 5.33171 3.9129 5.56321C3.92973 10.4157 3.92573 15.2683 3.92498 20.1209C3.92497 20.2378 3.91537 20.3547 3.90592 20.5702Z" fill="#4AB3FF"/>
<path d="M21.0838 3.4628C20.7606 3.4628 20.5882 3.4628 20.4159 3.4628C15.668 3.4628 10.9201 3.45897 6.17224 3.47031C5.80597 3.47118 5.54128 3.37945 5.28156 3.1122C4.31197 2.11455 3.31779 1.14079 2.26244 0.087842C2.47335 0.0642781 2.5989 0.0380383 2.72446 0.0379843C7.56158 0.0359017 12.3987 0.034182 17.2358 0.0435733C17.431 0.0439509 17.6823 0.0940783 17.8122 0.219627C18.8767 1.24869 19.9185 2.30116 21.0838 3.4628Z" fill="#4AB3FF"/>
</g>
<defs>
<clipPath id="clip0_338_24386">
<rect width="48" height="48" fill="white" transform="translate(0.5 0.0383301)"/>
</clipPath>
</defs>
</svg>
