<svg width="50" height="50" viewBox="0 0 50 50" fill="none" xmlns="http://www.w3.org/2000/svg">
<g id="Icon">
<g id="Vector">
<mask id="path-1-inside-1_298_20577" fill="white">
<path d="M12.2226 44.6679H0V26.3341C0 26.0099 0.128774 25.699 0.357991 25.4698C0.587209 25.2406 0.898095 25.1118 1.22226 25.1118H11.0003C11.3245 25.1118 11.6354 25.2406 11.8646 25.4698C12.0938 25.699 12.2226 26.0099 12.2226 26.3341V44.6679ZM30.5565 6.77792C30.5565 6.45376 30.4277 6.14287 30.1985 5.91366C29.9692 5.68444 29.6584 5.55566 29.3342 5.55566H19.5561C19.232 5.55566 18.9211 5.68444 18.6919 5.91366C18.4626 6.14287 18.3339 6.45376 18.3339 6.77792V44.6679H30.5565V6.77792ZM47.6681 15.3337H37.89C37.5658 15.3337 37.255 15.4625 37.0257 15.6917C36.7965 15.9209 36.6678 16.2318 36.6678 16.556V44.6679H48.8903V16.556C48.8903 16.2318 48.7616 15.9209 48.5323 15.6917C48.3031 15.4625 47.9922 15.3337 47.6681 15.3337Z"/>
</mask>
<path d="M12.2226 44.6679H0V26.3341C0 26.0099 0.128774 25.699 0.357991 25.4698C0.587209 25.2406 0.898095 25.1118 1.22226 25.1118H11.0003C11.3245 25.1118 11.6354 25.2406 11.8646 25.4698C12.0938 25.699 12.2226 26.0099 12.2226 26.3341V44.6679ZM30.5565 6.77792C30.5565 6.45376 30.4277 6.14287 30.1985 5.91366C29.9692 5.68444 29.6584 5.55566 29.3342 5.55566H19.5561C19.232 5.55566 18.9211 5.68444 18.6919 5.91366C18.4626 6.14287 18.3339 6.45376 18.3339 6.77792V44.6679H30.5565V6.77792ZM47.6681 15.3337H37.89C37.5658 15.3337 37.255 15.4625 37.0257 15.6917C36.7965 15.9209 36.6678 16.2318 36.6678 16.556V44.6679H48.8903V16.556C48.8903 16.2318 48.7616 15.9209 48.5323 15.6917C48.3031 15.4625 47.9922 15.3337 47.6681 15.3337Z" fill="#4AB3FF"/>
<path d="M12.2226 44.6679V59.6684H27.223V44.6679H12.2226ZM0 44.6679H-15.0004V59.6684H0V44.6679ZM29.3342 5.55566V20.5561V5.55566ZM19.5561 5.55566V20.5561V5.55566ZM18.3339 44.6679H3.33343V59.6684H18.3339V44.6679ZM30.5565 44.6679V59.6684H45.5569V44.6679H30.5565ZM36.6678 44.6679H21.6673V59.6684H36.6678V44.6679ZM48.8903 44.6679V59.6684H63.8908V44.6679H48.8903ZM12.2226 29.6675H0V59.6684H12.2226V29.6675ZM15.0004 44.6679V26.3341H-15.0004V44.6679H15.0004ZM15.0004 26.3341C15.0004 29.9883 13.5488 33.4928 10.9649 36.0767L-10.2489 14.8629C-13.2913 17.9052 -15.0004 22.0315 -15.0004 26.3341H15.0004ZM10.9649 36.0767C8.38098 38.6606 4.87643 40.1122 1.22226 40.1122V10.1114C-3.08024 10.1114 -7.20656 11.8205 -10.2489 14.8629L10.9649 36.0767ZM1.22226 40.1122H11.0003V10.1114H1.22226V40.1122ZM11.0003 40.1122C7.34615 40.1122 3.84161 38.6606 1.25768 36.0767L22.4715 14.8629C19.4291 11.8205 15.3028 10.1114 11.0003 10.1114V40.1122ZM1.25768 36.0767C-1.32624 33.4928 -2.77786 29.9883 -2.77786 26.3341H27.223C27.223 22.0315 25.5139 17.9052 22.4715 14.8629L1.25768 36.0767ZM-2.77786 26.3341V44.6679H27.223V26.3341H-2.77786ZM45.5569 6.77792C45.5569 2.47542 43.8477 -1.65089 40.8054 -4.69326L19.5916 16.5206C17.0076 13.9366 15.556 10.4321 15.556 6.77792H45.5569ZM40.8054 -4.69326C37.763 -7.73561 33.6367 -9.44478 29.3342 -9.44478V20.5561C25.68 20.5561 22.1755 19.1045 19.5916 16.5206L40.8054 -4.69326ZM29.3342 -9.44478H19.5561V20.5561H29.3342V-9.44478ZM19.5561 -9.44478C15.2536 -9.44478 11.1273 -7.73561 8.08495 -4.69326L29.2988 16.5206C26.7149 19.1045 23.2103 20.5561 19.5561 20.5561V-9.44478ZM8.08495 -4.69326C5.04259 -1.65089 3.33343 2.47542 3.33343 6.77792H33.3343C33.3343 10.4321 31.8827 13.9366 29.2988 16.5206L8.08495 -4.69326ZM3.33343 6.77792V44.6679H33.3343V6.77792H3.33343ZM18.3339 59.6684H30.5565V29.6675H18.3339V59.6684ZM45.5569 44.6679V6.77792H15.556V44.6679H45.5569ZM47.6681 0.333288H37.89V30.3342H47.6681V0.333288ZM37.89 0.333288C33.5875 0.333288 29.4612 2.04243 26.4188 5.08481L47.6327 26.2986C45.0487 28.8826 41.5442 30.3342 37.89 30.3342V0.333288ZM26.4188 5.08481C23.3764 8.12718 21.6673 12.2535 21.6673 16.556H51.6682C51.6682 20.2101 50.2166 23.7147 47.6327 26.2986L26.4188 5.08481ZM21.6673 16.556V44.6679H51.6682V16.556H21.6673ZM36.6678 59.6684H48.8903V29.6675H36.6678V59.6684ZM63.8908 44.6679V16.556H33.8899V44.6679H63.8908ZM63.8908 16.556C63.8908 12.2535 62.1816 8.12718 59.1393 5.08481L37.9254 26.2986C35.3415 23.7147 33.8899 20.2101 33.8899 16.556H63.8908ZM59.1393 5.08481C56.0969 2.04243 51.9706 0.333288 47.6681 0.333288V30.3342C44.0139 30.3342 40.5094 28.8826 37.9254 26.2986L59.1393 5.08481Z" fill="#4AB3FF" mask="url(#path-1-inside-1_298_20577)"/>
</g>
</g>
</svg>
