<svg width="46" height="45" viewBox="0 0 46 45" fill="none" xmlns="http://www.w3.org/2000/svg">
<g clip-path="url(#clip0_298_22448)">
<g clip-path="url(#clip1_298_22448)">
<path d="M5.9668 44.8662H2.78711C2.0752 44.8662 1.49805 44.2891 1.49805 43.5771V28.1084C1.49805 27.3965 2.0752 26.8193 2.78711 26.8193H5.9668C6.6787 26.8193 7.25586 27.3965 7.25586 28.1084V43.5771C7.25586 44.2891 6.6787 44.8662 5.9668 44.8662Z" fill="#4AB3FF"/>
<path d="M43.8869 30.8422C42.8931 30.2952 41.6803 30.3325 40.722 30.9395L36.0057 33.9265C35.8632 35.1433 35.3274 36.2725 34.4546 37.1663C33.3937 38.2524 31.9748 38.8506 30.459 38.8506H24.0501C23.356 38.8506 22.7587 38.3172 22.7261 37.6238C22.6912 36.8836 23.2811 36.2725 24.0137 36.2725H30.459C32.1416 36.2725 33.506 34.8835 33.4659 33.192C33.4271 31.5501 32.045 30.2568 30.4025 30.2568H23.1543L22.3135 29.6262C20.639 28.3703 18.5641 27.6787 16.4709 27.6787C14.7065 27.6787 12.9741 28.1586 11.461 29.0663L9.83398 30.0426V43.1475H31.5011C32.7539 43.1475 33.9797 42.7823 35.0283 42.0967L44.0894 36.1721C44.9714 35.5953 45.498 34.6218 45.498 33.5679C45.498 32.4335 44.8807 31.3891 43.8869 30.8422Z" fill="#4AB3FF"/>
<path d="M19.7168 0.866211C13.7936 0.866211 8.97461 5.68516 8.97461 11.6084C8.97461 17.5316 13.7936 22.3506 19.7168 22.3506C25.64 22.3506 30.459 17.5316 30.459 11.6084C30.459 5.68516 25.64 0.866211 19.7168 0.866211ZM21.0059 16.9426V17.1943C21.0059 17.9062 20.4287 18.4834 19.7168 18.4834C19.0049 18.4834 18.4277 17.9062 18.4277 17.1943V16.9415C17.386 16.5173 16.5821 15.5944 16.3484 14.443C16.2068 13.7454 16.6574 13.065 17.3551 12.9232C18.0527 12.7817 18.7333 13.2323 18.875 13.9299C18.9557 14.3275 19.3099 14.6161 19.7169 14.6161C20.1907 14.6161 20.5763 14.2306 20.5763 13.7567C20.5763 13.2829 20.1907 12.8974 19.7169 12.8974C17.8214 12.8974 16.2794 11.3553 16.2794 9.45988C16.2794 8.02025 17.1694 6.78516 18.4278 6.27409V6.02246C18.4278 5.31055 19.005 4.7334 19.7169 4.7334C20.4288 4.7334 21.0059 5.31055 21.0059 6.02246V6.27529C22.0477 6.69948 22.8515 7.62245 23.0853 8.77375C23.2269 9.47139 22.7762 10.1518 22.0785 10.2936C21.381 10.4353 20.7004 9.98452 20.5586 9.28688C20.4779 8.88916 20.1238 8.60059 19.7168 8.60059C19.2429 8.60059 18.8574 8.9861 18.8574 9.45996C18.8574 9.93382 19.2429 10.3193 19.7168 10.3193C21.6122 10.3193 23.1543 11.8614 23.1543 13.7568C23.1543 15.1965 22.2642 16.4316 21.0059 16.9426Z" fill="#4AB3FF"/>
<path d="M45.3714 18.2089C45.1592 17.756 44.7042 17.4666 44.204 17.4666H42.3277C41.1884 12.9669 38.6198 8.89486 35.018 5.91206C33.3426 4.52451 31.476 3.40397 29.4902 2.57373C31.6872 4.94973 33.0321 8.12478 33.0321 11.6084C33.0321 12.6799 32.9041 13.7218 32.6642 14.7207C33.2626 15.5785 33.7688 16.4995 34.1668 17.4666H33.0321C32.532 17.4666 32.077 17.756 31.8648 18.2089C31.6526 18.6619 31.7217 19.1967 32.0419 19.5809L37.6278 26.2841C37.8727 26.578 38.2355 26.7479 38.6181 26.7479C39.0007 26.7479 39.3635 26.5779 39.6083 26.2841L45.1943 19.5809C45.5145 19.1967 45.5836 18.6618 45.3714 18.2089Z" fill="#4AB3FF"/>
</g>
</g>
<defs>
<clipPath id="clip0_298_22448">
<rect width="45" height="45" fill="white" transform="translate(0.833984)"/>
</clipPath>
<clipPath id="clip1_298_22448">
<rect width="44" height="44" fill="white" transform="translate(1.49805 0.866211)"/>
</clipPath>
</defs>
</svg>
