<svg width="38" height="39" viewBox="0 0 38 39" fill="none" xmlns="http://www.w3.org/2000/svg">
<g id="Money" clip-path="url(#clip0_298_22578)">
<path id="Vector" d="M26.8672 0.753906C23.826 0.753906 21.0704 1.98518 19.0592 3.96878L19.0502 3.96008L4.52344 18.4869L6.09768 20.0611L15.8989 10.2599C15.8194 10.7954 15.7345 11.3297 15.7345 11.8867C15.7345 14.5545 16.7167 16.9729 18.2872 18.8925L10.9552 26.2244L12.5295 27.7987L19.8614 20.4667C21.781 22.0372 24.1994 23.0194 26.8672 23.0194C27.4242 23.0194 27.9585 22.9345 28.4939 22.855L18.6928 32.6562L20.267 34.2305L34.7938 19.7037L34.7848 19.6947C36.7687 17.6835 38 14.9279 38 11.8867C38 5.74857 33.0053 0.753906 26.8672 0.753906ZM26.8672 10.7734C28.7088 10.7734 30.2071 12.2717 30.2071 14.1132C30.2071 15.5628 29.2735 16.7868 27.9805 17.2481V18.5663H25.754V17.2481C24.4609 16.7868 23.5274 15.5628 23.5274 14.1132H25.754C25.754 14.7275 26.2529 15.2265 26.8672 15.2265C27.4816 15.2265 27.9805 14.7275 27.9805 14.1132C27.9805 13.4989 27.4816 12.9999 26.8672 12.9999C25.0254 12.9999 23.5274 11.5017 23.5274 9.66011C23.5274 8.21053 24.4609 6.98651 25.754 6.52525V5.20701H27.9805V6.52525C29.2735 6.98651 30.2071 8.21053 30.2071 9.66011H27.9805C27.9805 9.04578 27.4816 8.54684 26.8672 8.54684C26.2529 8.54684 25.754 9.04578 25.754 9.66011C25.754 10.2744 26.2529 10.7734 26.8672 10.7734Z" fill="#4AB3FF"/>
<path id="Vector_2" d="M2.16016 28.7217L11.6065 19.2754L13.1807 20.8496L3.7344 30.2959L2.16016 28.7217Z" fill="#4AB3FF"/>
<path id="Vector_3" d="M8.45703 35.0186L17.9036 25.5723L19.4779 27.1465L10.0313 36.5928L8.45703 35.0186Z" fill="#4AB3FF"/>
<path id="Vector_4" d="M1.57424 38.7538L0 37.1796L7.80656 29.373L9.3808 30.9473L1.57424 38.7538Z" fill="#4AB3FF"/>
<path id="Vector_5" d="M35.7734 32.0742H33.5469V34.3008H31.3203V36.5273H33.5469V38.7539H35.7734V36.5273H38V34.3008H35.7734V32.0742Z" fill="#4AB3FF"/>
<path id="Vector_6" d="M2.22655 7.43356H4.4531V5.20701H6.67965V2.98046H4.4531V0.753906H2.22655V2.98046H0V5.20701H2.22655V7.43356Z" fill="#4AB3FF"/>
<path id="Vector_7" d="M26.793 32H29.0195V34.2266H26.793V32Z" fill="#4AB3FF"/>
<path id="Vector_8" d="M35.7734 23.0938H38V25.3203H35.7734V23.0938Z" fill="#4AB3FF"/>
<path id="Vector_9" d="M0 11.9609H2.22655V14.1875H0V11.9609Z" fill="#4AB3FF"/>
<path id="Vector_10" d="M8.98047 5.28125H11.207V7.5078H8.98047V5.28125Z" fill="#4AB3FF"/>
</g>
<defs>
<clipPath id="clip0_298_22578">
<rect width="38" height="38" fill="white" transform="translate(0 0.753906)"/>
</clipPath>
</defs>
</svg>
