<svg width="51" height="50" viewBox="0 0 51 50" fill="none" xmlns="http://www.w3.org/2000/svg">
<g clip-path="url(#clip0_6377_60116)">
<path d="M41.9539 14.8924H37.0723C36.2633 14.8924 35.6074 14.2365 35.6074 13.4275V9.52129C35.6074 8.34229 34.7672 7.35576 33.6543 7.12891V10.4291C33.6543 11.5745 33.0854 12.6376 32.1323 13.273L30.0723 14.6463C29.8316 14.8067 29.5489 14.8924 29.2598 14.8924H27.7949V23.6814H29.2598C29.5489 23.6814 29.8316 23.7671 30.0723 23.9275L32.51 25.5526C32.5905 25.6063 32.6841 25.6347 32.7808 25.6347H40.2798C40.9659 25.6347 41.5683 25.1478 41.7121 24.4769L43.3862 16.6644C43.4794 16.2297 43.3725 15.7821 43.0931 15.4364C42.8137 15.0906 42.3984 14.8924 41.9539 14.8924Z" fill="#0094FF"/>
<path d="M46.8379 0H23.4004C21.3778 0 19.7383 1.63955 19.7383 3.66211V29.0527C19.7383 31.0753 21.3778 32.7148 23.4004 32.7148H37.3164V36.0735C37.3164 37.3786 38.8942 38.0321 39.8171 37.1094L44.2116 32.7148H46.8379C48.8604 32.7148 50.5 31.0753 50.5 29.0527V3.66211C50.5 1.63955 48.8604 0 46.8379 0ZM46.2509 17.2782L44.5768 25.0907C44.1455 27.1035 42.3383 28.5645 40.2798 28.5645H32.7808C32.1037 28.5645 31.4481 28.3659 30.8848 27.9903L28.8162 26.6113H26.3301C25.5211 26.6113 24.8652 25.9555 24.8652 25.1465V13.4277C24.8652 12.6187 25.5211 11.9629 26.3301 11.9629H28.8162L30.5071 10.8356C30.6433 10.7448 30.7246 10.593 30.7246 10.4293V5.61523C30.7246 4.80625 31.3805 4.15039 32.1895 4.15039H33.166C36.1276 4.15039 38.5371 6.55986 38.5371 9.52148V11.9629H41.9539C43.2874 11.9629 44.533 12.5577 45.3714 13.5946C46.2098 14.6316 46.5304 15.9743 46.2509 17.2782Z" fill="#0094FF"/>
<path d="M3.18555 20.7539H4.40625V23.3405C4.40625 24.5825 5.85478 25.2609 6.80889 24.4658L11.2633 20.7539H16.8086V3.66406H3.18555C1.70234 3.66406 0.5 4.86641 0.5 6.34961V18.0684C0.5 19.5516 1.70234 20.7539 3.18555 20.7539Z" fill="#0094FF"/>
<path d="M14.5805 36.5703C14.2334 36.5703 13.907 36.7056 13.6615 36.951L13.0098 37.6026C12.4379 38.1746 11.5103 38.1746 10.9383 37.6026L10.2866 36.951C10.0411 36.7055 9.71472 36.5703 9.36755 36.5703C9.02039 36.5703 8.69402 36.7056 8.44841 36.951C7.94167 37.4577 7.94167 38.2824 8.44841 38.7892L11.974 42.3147L15.4996 38.7892C16.0063 38.2824 16.0063 37.4577 15.4996 36.951C15.2542 36.7056 14.9278 36.5703 14.5805 36.5703Z" fill="#0094FF"/>
<path d="M26.0358 38.7695H23.4492V35.6445H23.4004C19.7599 35.6445 16.8086 32.6933 16.8086 29.0527V29.0039H3.18555C1.70234 29.0039 0.5 30.2063 0.5 31.6895V47.3145C0.5 48.7977 1.70234 50 3.18555 50H20.7637C22.2469 50 23.4492 48.7977 23.4492 47.3145V45.6266L27.1612 41.1722C27.9562 40.2181 27.2778 38.7695 26.0358 38.7695ZM17.5718 40.8592L13.0104 45.4205C12.7243 45.7065 12.3494 45.8496 11.9746 45.8496C11.5998 45.8496 11.2248 45.7065 10.9389 45.4205L6.37754 40.8592C4.72852 39.2101 4.72852 36.527 6.37754 34.8778C7.17647 34.0789 8.23857 33.639 9.36826 33.639C10.3253 33.639 11.2338 33.9547 11.9747 34.5368C12.7157 33.9547 13.6242 33.639 14.5812 33.639C15.7108 33.639 16.7729 34.0789 17.5719 34.8778C19.2208 36.527 19.2208 39.2102 17.5718 40.8592Z" fill="#0094FF"/>
</g>
<defs>
<clipPath id="clip0_6377_60116">
<rect width="50" height="50" fill="white" transform="translate(0.5)"/>
</clipPath>
</defs>
</svg>
