<svg width="49" height="48" viewBox="0 0 49 48" fill="none" xmlns="http://www.w3.org/2000/svg">
<g clip-path="url(#clip0_3955_12134)">
<path d="M31.6992 39.5625V40.9688C31.6992 41.7446 31.0688 42.375 30.293 42.375H19.043C18.2671 42.375 17.6367 41.7446 17.6367 40.9688V39.5625H0.667969V43.7812C0.667969 46.1076 2.56041 48 4.88672 48H44.4492C46.7755 48 48.668 46.1076 48.668 43.7812V39.5625H31.6992Z" fill="#4AB3FF"/>
<path d="M23.0455 23.5756L24.629 22.7434L26.2123 23.5756L25.9102 21.8123L27.1901 20.5653L25.4199 20.3071L24.629 18.7031L23.8365 20.3071L22.0664 20.564L23.3477 21.8123L23.0455 23.5756Z" fill="#4AB3FF"/>
<path d="M16.7225 31.125H32.6134C35.4848 28.803 37.3242 25.2533 37.3242 21.2812C37.3242 19.0799 36.7337 16.8923 35.6186 14.9558C33.3732 11.0502 29.1778 8.625 24.668 8.625C20.1581 8.625 15.9627 11.0502 13.7187 14.9545C12.6022 16.8923 12.0117 19.0799 12.0117 21.2812C12.0117 25.2533 13.8512 28.803 16.7225 31.125ZM21.9667 17.7326L24.6268 12.3466L27.2855 17.7326L33.2332 18.5978L28.9293 22.7918L29.9455 28.7135L24.6268 25.9175L19.3081 28.7135L20.3243 22.7918L16.0218 18.5992L21.9667 17.7326Z" fill="#4AB3FF"/>
<path d="M23.2617 0H26.0742V5.625H23.2617V0Z" fill="#4AB3FF"/>
<path d="M31.6992 2.8125H34.5117V8.4375H31.6992V2.8125Z" fill="#4AB3FF"/>
<path d="M14.8242 2.8125H17.6367V8.4375H14.8242V2.8125Z" fill="#4AB3FF"/>
<path d="M12.0117 33.9375V31.125H12.7448C10.5313 28.4486 9.19922 25.0177 9.19922 21.2812C9.19922 18.8459 9.81647 16.4385 10.9366 14.25H3.57422V36.75H20.4492V39.5625H28.8867V36.75H45.7617V14.25H38.4004C39.5195 16.438 40.1367 18.8451 40.1367 21.2812C40.1367 25.0177 38.8046 28.4486 36.5911 31.125H37.3242V33.9375H12.0117Z" fill="#4AB3FF"/>
</g>
<defs>
<clipPath id="clip0_3955_12134">
<rect width="48" height="48" fill="white" transform="translate(0.667969)"/>
</clipPath>
</defs>
</svg>
