<svg width="72" height="72" viewBox="0 0 72 72" fill="none" xmlns="http://www.w3.org/2000/svg">
<g clip-path="url(#clip0_4078_38251)">
<path d="M60.8531 6.77344H11.1469C4.98023 6.77344 0 11.7639 0 17.9204V42.7734C0 36.6169 4.98037 31.6265 11.1469 31.6265H38.2594C44.416 31.6265 49.4063 36.6068 49.4063 42.7734V54.0703C49.4063 60.2268 44.4262 65.2172 38.2594 65.2172H60.8532C67.0199 65.2172 72.0001 60.2267 72.0001 54.0703V17.9204C72 11.7537 67.0096 6.77344 60.8531 6.77344ZM62.9625 26.9578C62.9625 28.1227 62.018 29.0671 60.8531 29.0671C59.6881 29.0671 58.7437 28.1227 58.7437 26.9578V23.0127L51.0477 30.7087C50.2241 31.5324 48.8884 31.5324 48.0646 30.7087C47.2409 29.8849 47.2409 28.5494 48.0646 27.7256L55.7605 20.0297H51.8155C50.6506 20.0297 49.7062 19.0853 49.7062 17.9204C49.7062 16.7554 50.6506 15.811 51.8155 15.811H60.8531C62.018 15.811 62.9625 16.7554 62.9625 17.9204V26.9578Z" fill="#0094FF"/>
<path d="M45.1875 54.0609V42.7641C45.1875 38.9439 42.0795 35.8359 38.2593 35.8359H11.1468C7.3267 35.8359 4.21875 38.9439 4.21875 42.7641V54.0609C4.21875 57.8812 7.3267 60.9891 11.1469 60.9891H38.2594C42.0795 60.9891 45.1875 57.8812 45.1875 54.0609Z" fill="#0094FF"/>
</g>
<defs>
<clipPath id="clip0_4078_38251">
<rect width="72" height="72" fill="white"/>
</clipPath>
</defs>
</svg>
