<svg width="50" height="50" viewBox="0 0 50 50" fill="none" xmlns="http://www.w3.org/2000/svg">
<g id="Icon">
<g id="Vector">
<path d="M7.50792 17.4552C7.54091 7.75613 15.3465 -0.0231475 25.022 5.17534e-05C34.7447 0.0233637 42.5458 7.86462 42.4908 17.5588C42.4357 27.2641 34.6072 35.0409 24.9474 34.9863C15.2372 34.9314 7.47501 27.1285 7.50792 17.4552ZM19.9388 23.1976C19.9453 23.1981 19.9518 23.1987 19.9582 23.1993C19.9582 23.3554 19.9543 23.5117 19.9589 23.6678C19.9919 24.7864 20.5399 25.2206 21.5869 24.866C22.3951 24.5924 23.1876 24.2506 23.9472 23.8614C24.6719 23.49 25.319 23.4924 26.0495 23.8572C26.8818 24.2728 27.7604 24.601 28.6337 24.9277C29.1494 25.1207 29.6214 24.9841 29.87 24.4627C29.9907 24.2094 30.0456 23.8948 30.0317 23.6127C29.984 22.6397 29.9045 21.6678 29.8142 20.6976C29.7588 20.1031 29.8801 19.6019 30.2967 19.139C30.9092 18.4584 31.5006 17.7525 32.0358 17.0103C32.8528 15.8775 32.6242 15.2053 31.2963 14.7977C30.4236 14.5299 29.5327 14.3137 28.6396 14.1226C28.1347 14.0145 27.8121 13.7472 27.5655 13.3138C27.0744 12.4505 26.6001 11.5733 26.0446 10.7521C25.3408 9.71179 24.659 9.71125 23.9571 10.7496C23.4018 11.571 22.9256 12.4471 22.4359 13.3112C22.1894 13.7461 21.8636 14.0152 21.364 14.1271C20.4157 14.3396 19.4614 14.5482 18.5392 14.849C17.4135 15.2162 17.19 15.8903 17.8665 16.8605C18.3894 17.6103 18.9666 18.3319 19.5929 18.9971C20.1659 19.6056 20.2586 20.2712 20.1493 21.0443C20.0485 21.7577 20.0066 22.4795 19.9388 23.1976Z" fill="#4AB3FF"/>
<path d="M12.6896 34.926C20.9298 40.0384 29.0648 40.0501 37.2752 34.9472C37.3356 35.1458 37.4133 35.3704 37.4723 35.5998C38.2617 38.6719 39.0866 41.7357 39.8106 44.8232C40.0059 45.6562 40.0253 46.5819 39.8941 47.4293C39.6139 49.239 37.888 50.3171 36.1135 49.8986C34.0604 49.4143 32.2554 48.3464 30.3916 47.4203C29.2578 46.857 28.1371 46.2673 27.0005 45.7098C25.6292 45.0371 24.2564 45.079 22.8931 45.7538C20.4846 46.946 18.0845 48.1562 15.6583 49.3114C15.0162 49.6172 14.3043 49.817 13.6025 49.949C11.5639 50.3325 9.9027 48.4801 10.0222 46.8614C10.1319 45.3747 10.3672 43.8825 10.7097 42.431C11.3036 39.9136 12.023 37.4257 12.6896 34.926Z" fill="#4AB3FF"/>
</g>
</g>
</svg>
