<svg width="50" height="50" viewBox="0 0 50 50" fill="none" xmlns="http://www.w3.org/2000/svg">
<g clip-path="url(#clip0_3028_25673)">
<path d="M25.5458 15.0703C24.7258 15.0703 24.0586 15.7375 24.0586 16.5576C24.1334 18.528 26.9586 18.5274 27.0332 16.5576C27.0331 15.7374 26.3659 15.0703 25.5458 15.0703Z" fill="#4AB3FF"/>
<path d="M45.6579 12.6033L26.1325 2.84056C25.7659 2.65731 25.3345 2.65731 24.9679 2.84056L5.44245 12.6033C5.0013 12.8238 4.72266 13.2747 4.72266 13.7679V21.9653C4.72266 31.1563 9.79106 40.4176 18.6694 45.0274V28.2541L16.2138 25.7984C13.5659 27.1674 10.2614 25.1305 10.3015 22.1359C10.3015 19.88 12.1369 18.0446 14.3929 18.0446C17.3872 18.0049 19.4246 21.309 18.0552 23.957L20.8923 26.7941C21.1364 27.0382 21.2737 27.3695 21.2737 27.7148V46.2008C22.2288 46.5688 23.221 46.8854 24.2483 47.1476V20.4351C19.9181 18.9069 20.9024 12.5571 25.5504 12.4659C30.199 12.5575 31.1818 18.9077 26.8524 20.4351V47.1475C27.8766 46.8854 28.8689 46.5673 29.827 46.1963V27.7148C29.827 27.3694 29.9642 27.0382 30.2084 26.7941L33.0455 23.957C31.6765 21.3091 33.7133 18.0046 36.7079 18.0447C38.9639 18.0447 40.7993 19.88 40.7993 22.136C40.839 25.1303 37.5349 27.1678 34.8869 25.7984L32.4312 28.2542V45.0185C41.1026 40.5004 46.378 31.4487 46.378 21.9654V13.768C46.3777 13.2748 46.099 12.8238 45.6579 12.6033Z" fill="#4AB3FF"/>
<path d="M12.9062 22.1357C12.9062 22.9557 13.5734 23.623 14.3935 23.623C16.3638 23.5482 16.3634 20.7229 14.3935 20.6484C13.5735 20.6484 12.9062 21.3156 12.9062 22.1357Z" fill="#4AB3FF"/>
<path d="M38.1914 22.1357C38.1914 21.3156 37.5242 20.6484 36.7041 20.6484C34.7337 20.7232 34.7343 23.5484 36.7041 23.623C37.5241 23.623 38.1914 22.9557 38.1914 22.1357Z" fill="#4AB3FF"/>
</g>
<defs>
<clipPath id="clip0_3028_25673">
<rect width="50" height="50" fill="white"/>
</clipPath>
</defs>
</svg>
