<svg width="48" height="49" viewBox="0 0 48 49" fill="none" xmlns="http://www.w3.org/2000/svg">
<path d="M42 28.7969V33.1969C42 36.5572 42 38.2373 41.346 39.5208C40.7708 40.6498 39.8529 41.5677 38.7239 42.1429C37.4405 42.7969 35.7603 42.7969 32.4 42.7969H28M20 6.79688H15.6C12.2397 6.79688 10.5595 6.79688 9.27606 7.45084C8.14708 8.02608 7.2292 8.94396 6.65396 10.0729C6 11.3564 6 13.0366 6 16.3969V20.7969M30 18.7969L42 6.79688M42 6.79688H30M42 6.79688V18.7969M18 30.7969L6 42.7969M6 42.7969H18M6 42.7969L6 30.7969" stroke="#4AB3FF" stroke-width="4" stroke-linecap="round" stroke-linejoin="round"/>
</svg>
