<svg width="50" height="50" viewBox="0 0 50 50" fill="none" xmlns="http://www.w3.org/2000/svg">
<g id="Icon">
<g id="Group">
<g id="Vector">
<mask id="path-1-inside-1_298_22288" fill="white">
<path d="M17.2519 23.1165C13.9331 23.5757 10.5314 23.6099 7.22865 23.0465C7.2048 23.0424 7.18096 23.0383 7.15713 23.0342C4.13254 22.5071 2.58961 20.8638 2.05436 17.8451C1.6279 15.44 1.59495 13.0127 1.7569 10.5893C1.84526 9.26714 2.02783 7.93387 2.34189 6.6481C2.87716 4.45666 4.37299 3.13228 6.54864 2.65408C7.7556 2.3888 8.9976 2.22605 10.2318 2.15374C12.6106 2.01437 14.9932 2.02284 17.3528 2.44815C20.5538 3.02511 22.1699 4.55702 22.6956 7.77799C23.2508 11.1794 23.2786 14.6095 22.6393 18.0074C22.0548 21.114 20.3859 22.6828 17.2519 23.1165Z"/>
</mask>
<path d="M17.2519 23.1165C13.9331 23.5757 10.5314 23.6099 7.22865 23.0465C7.2048 23.0424 7.18096 23.0383 7.15713 23.0342C4.13254 22.5071 2.58961 20.8638 2.05436 17.8451C1.6279 15.44 1.59495 13.0127 1.7569 10.5893C1.84526 9.26714 2.02783 7.93387 2.34189 6.6481C2.87716 4.45666 4.37299 3.13228 6.54864 2.65408C7.7556 2.3888 8.9976 2.22605 10.2318 2.15374C12.6106 2.01437 14.9932 2.02284 17.3528 2.44815C20.5538 3.02511 22.1699 4.55702 22.6956 7.77799C23.2508 11.1794 23.2786 14.6095 22.6393 18.0074C22.0548 21.114 20.3859 22.6828 17.2519 23.1165Z" fill="#4AB3FF"/>
<path d="M7.15713 23.0342L23.4658 -70.5552H23.4658L7.15713 23.0342ZM2.05436 17.8451L-91.4862 34.4313L-91.4862 34.4313L2.05436 17.8451ZM1.7569 10.5893L-93.0313 4.25475L-93.0313 4.25479L1.7569 10.5893ZM2.34189 6.6481L-89.9447 -15.8933L-89.9447 -15.8933L2.34189 6.6481ZM6.54864 2.65408L-13.8451 -90.1308L-13.8452 -90.1308L6.54864 2.65408ZM10.2318 2.15374L15.7881 96.9908L15.7881 96.9908L10.2318 2.15374ZM17.3528 2.44815L0.501285 95.9413H0.501293L17.3528 2.44815ZM22.6956 7.77799L-71.0634 23.0806V23.0807L22.6956 7.77799ZM22.6393 18.0074L116.001 35.5726L116.001 35.5724L22.6393 18.0074ZM7.22865 23.0465L-8.74658 116.693L7.22865 23.0465ZM23.2039 -70.6003C23.2901 -70.5856 23.3774 -70.5706 23.4658 -70.5552L-9.15156 116.623C-9.01545 116.647 -8.88045 116.67 -8.74658 116.693L23.2039 -70.6003ZM23.4658 -70.5552C35.8693 -68.3938 55.0413 -62.064 71.7713 -44.8639C88.1494 -28.0256 93.6927 -9.46877 95.5949 1.25892L-91.4862 34.4313C-89.0487 48.1776 -82.4663 69.0654 -64.4268 87.6118C-46.0354 106.52 -24.5796 113.935 -9.15155 116.623L23.4658 -70.5552ZM95.5949 1.25894C96.9232 8.75032 96.7084 14.4804 96.5451 16.9238L-93.0313 4.25479C-93.5185 11.5449 -93.6674 22.1297 -91.4862 34.4313L95.5949 1.25894ZM96.5451 16.9238C96.3452 19.9157 95.8615 24.1416 94.6285 29.1895L-89.9447 -15.8933C-91.8058 -8.27387 -92.6547 -1.38141 -93.0313 4.25475L96.5451 16.9238ZM94.6285 29.1895C90.9474 44.2603 82.764 60.2956 68.624 73.483C54.8048 86.3712 39.4472 92.6904 26.9425 95.4389L-13.8452 -90.1308C-47.9724 -82.6297 -80.0009 -56.6043 -89.9447 -15.8933L94.6285 29.1895ZM26.9424 95.4389C22.8272 96.3434 19.0774 96.7981 15.7881 96.9908L4.67549 -92.6833C-1.08215 -92.346 -7.316 -91.5658 -13.8451 -90.1308L26.9424 95.4389ZM15.7881 96.9908C14.6625 97.0567 8.63687 97.4076 0.501285 95.9413L34.2043 -91.045C21.3495 -93.362 10.5588 -93.028 4.67548 -92.6833L15.7881 96.9908ZM0.501293 95.9413C-8.98659 94.2311 -28.2116 88.985 -45.6733 71.7673C-63.5384 54.1518 -69.2428 34.2355 -71.0634 23.0806L116.455 -7.52464C114.108 -21.9005 107.333 -44.1932 87.7282 -63.5242C68.5268 -82.4574 46.8932 -88.7579 34.2043 -91.045L0.501293 95.9413ZM-71.0634 23.0807C-72.0736 16.8916 -72.3553 9.12182 -70.7224 0.44227L116.001 35.5724C118.912 20.0973 118.575 5.46733 116.455 -7.52468L-71.0634 23.0807ZM-70.7223 0.442082C-68.5352 -11.1827 -62.215 -30.5733 -44.3979 -47.435C-26.6644 -64.2177 -7.12733 -69.4149 4.23074 -70.9866L30.2731 117.22C44.7652 115.214 66.7037 109.016 86.2012 90.5635C105.782 72.0323 113.229 50.304 116.001 35.5726L-70.7223 0.442082ZM-8.74658 116.693C5.72271 119.162 19.052 118.772 30.2732 117.22L4.23072 -70.9866C8.81427 -71.6208 15.3401 -71.9418 23.2039 -70.6003L-8.74658 116.693Z" fill="#4AB3FF" mask="url(#path-1-inside-1_298_22288)"/>
</g>
<g id="Vector_2">
<mask id="path-3-inside-2_298_22288" fill="white">
<path d="M22.6197 32.7468C23.1941 36.2195 23.2385 39.806 22.6225 43.2715C22.086 46.29 20.4641 47.8159 17.464 48.3512C15.06 48.7802 12.6327 48.8062 10.2073 48.6571C9.0182 48.584 7.82468 48.4237 6.65761 48.1839C4.12434 47.6634 2.67527 46.0273 2.14279 43.5382C1.60173 41.009 1.60841 38.4447 1.74444 35.8831C1.80683 34.7084 1.9585 33.5272 2.1969 32.3752C2.74025 29.7499 4.44528 28.2849 7.03249 27.7729C9.32568 27.3191 11.6453 27.2724 13.9646 27.3982C15.3207 27.4719 16.6848 27.6133 18.0169 27.8707C20.657 28.3808 22.1741 30.0928 22.6102 32.6894C22.6134 32.7086 22.6166 32.7277 22.6197 32.7468Z"/>
</mask>
<path d="M22.6197 32.7468C23.1941 36.2195 23.2385 39.806 22.6225 43.2715C22.086 46.29 20.4641 47.8159 17.464 48.3512C15.06 48.7802 12.6327 48.8062 10.2073 48.6571C9.0182 48.584 7.82468 48.4237 6.65761 48.1839C4.12434 47.6634 2.67527 46.0273 2.14279 43.5382C1.60173 41.009 1.60841 38.4447 1.74444 35.8831C1.80683 34.7084 1.9585 33.5272 2.1969 32.3752C2.74025 29.7499 4.44528 28.2849 7.03249 27.7729C9.32568 27.3191 11.6453 27.2724 13.9646 27.3982C15.3207 27.4719 16.6848 27.6133 18.0169 27.8707C20.657 28.3808 22.1741 30.0928 22.6102 32.6894C22.6134 32.7086 22.6166 32.7277 22.6197 32.7468Z" fill="#4AB3FF"/>
<path d="M17.464 48.3512L34.1521 141.874L34.1526 141.874L17.464 48.3512ZM10.2073 48.6571L4.37825 143.478L4.37852 143.478L10.2073 48.6571ZM6.65761 48.1839L25.7788 -44.8716L25.7784 -44.8716L6.65761 48.1839ZM2.14279 43.5382L95.0406 23.6652V23.6652L2.14279 43.5382ZM1.74444 35.8831L-93.1215 30.8451V30.8452L1.74444 35.8831ZM2.1969 32.3752L-90.8313 13.122L-90.8313 13.122L2.1969 32.3752ZM7.03249 27.7729L25.4745 120.965L25.4747 120.965L7.03249 27.7729ZM13.9646 27.3982L19.1136 -67.4618L19.1134 -67.4618L13.9646 27.3982ZM18.0169 27.8707L-0.00584638 121.145L-0.00554824 121.145L18.0169 27.8707ZM22.6102 32.6894L116.298 16.9551L116.298 16.955L22.6102 32.6894ZM-70.911 26.6459C-68.7573 14.5296 -62.4997 -4.57177 -45.3249 -21.3038C-28.4663 -37.7278 -9.88469 -43.2689 0.775447 -45.1711L34.1526 141.874C47.8128 139.436 68.7054 132.864 87.2591 114.789C106.129 96.4054 113.466 75.0318 116.156 59.8971L-70.911 26.6459ZM0.775868 -45.1712C8.44387 -46.5395 14.1922 -46.2769 16.0361 -46.1636L4.37852 143.478C11.0731 143.889 21.6761 144.1 34.1521 141.874L0.775868 -45.1712ZM16.0364 -46.1636C19.4082 -45.9563 22.6557 -45.5133 25.7788 -44.8716L-12.4635 141.239C-7.00631 142.361 -1.3718 143.124 4.37825 143.478L16.0364 -46.1636ZM25.7784 -44.8716C40.9601 -41.7521 58.2108 -33.9085 72.5455 -18.8097C86.4136 -4.20238 92.5195 11.8804 95.0406 23.6652L-90.755 63.4111C-87.7015 77.6851 -80.6047 95.8304 -65.2457 112.008C-49.42 128.678 -30.1782 137.599 -12.4632 141.239L25.7784 -44.8716ZM95.0406 23.6652C96.1576 28.8869 96.5095 33.2098 96.6197 36.0844C96.7258 38.8545 96.619 40.76 96.6104 40.9211L-93.1215 30.8452C-93.3847 35.7998 -93.9638 48.4112 -90.755 63.4111L95.0406 23.6652ZM96.6104 40.9212C96.422 44.4687 95.9676 48.0408 95.2251 51.6284L-90.8313 13.122C-92.0506 19.0136 -92.8084 24.9481 -93.1215 30.8451L96.6104 40.9212ZM95.2251 51.6284C92.0527 66.9572 84.021 84.4906 68.4553 98.9297C53.4596 112.84 37.1047 118.664 25.4745 120.965L-11.4096 -65.4195C-25.6269 -62.606 -44.128 -55.7937 -60.7588 -40.3666C-77.9597 -24.4107 -87.1155 -4.83215 -90.8313 13.122L95.2251 51.6284ZM25.4747 120.965C17.1811 122.607 10.8877 122.371 8.81576 122.258L19.1134 -67.4618C12.4029 -67.826 1.47026 -67.9683 -11.4097 -65.4194L25.4747 120.965ZM8.81563 122.258C7.16592 122.169 4.03532 121.926 -0.00584638 121.145L36.0397 -65.4037C29.3342 -66.6994 23.4756 -67.225 19.1136 -67.4618L8.81563 122.258ZM-0.00554824 121.145C-15.4148 118.168 -33.3802 110.275 -48.231 94.4022C-62.7393 78.8954 -68.8709 61.5618 -71.0774 48.4239L116.298 16.955C113.655 1.22044 106.547 -18.2675 90.511 -35.4069C74.1328 -52.9123 54.0888 -61.9163 36.0394 -65.4038L-0.00554824 121.145ZM-71.0774 48.4238C-71.0873 48.3652 -71.0969 48.3073 -71.1064 48.25L116.346 17.2436C116.33 17.148 116.314 17.0519 116.298 16.9551L-71.0774 48.4238ZM116.156 59.897C118.864 44.6608 118.479 30.1426 116.346 17.2436L-71.1064 48.25C-72.0912 42.2964 -72.3872 34.9511 -70.911 26.6461L116.156 59.897Z" fill="#4AB3FF" mask="url(#path-3-inside-2_298_22288)"/>
</g>
<g id="Vector_3">
<mask id="path-5-inside-3_298_22288" fill="white">
<path d="M26.9102 38.866C26.9988 36.1453 27.017 34.2539 27.4466 32.3888C28.05 29.7694 29.7024 28.2942 32.2856 27.7766C34.5924 27.3143 36.928 27.2716 39.2626 27.3988C40.6036 27.4719 41.9519 27.6142 43.2698 27.8665C45.8447 28.3592 47.3272 30.0066 47.868 32.5366C48.4021 35.0358 48.4031 37.5699 48.2702 40.1009C48.2062 41.3204 48.0424 42.546 47.7947 43.7421C47.2669 46.2902 45.6186 47.7423 43.1056 48.2691C40.6042 48.7935 38.0714 48.7954 35.5401 48.6621C34.3502 48.5994 33.1542 48.4441 31.9868 48.2048C29.3602 47.6665 27.8295 45.9765 27.3984 43.3745C27.1071 41.6164 27.0097 39.8261 26.9102 38.866Z"/>
</mask>
<path d="M26.9102 38.866C26.9988 36.1453 27.017 34.2539 27.4466 32.3888C28.05 29.7694 29.7024 28.2942 32.2856 27.7766C34.5924 27.3143 36.928 27.2716 39.2626 27.3988C40.6036 27.4719 41.9519 27.6142 43.2698 27.8665C45.8447 28.3592 47.3272 30.0066 47.868 32.5366C48.4021 35.0358 48.4031 37.5699 48.2702 40.1009C48.2062 41.3204 48.0424 42.546 47.7947 43.7421C47.2669 46.2902 45.6186 47.7423 43.1056 48.2691C40.6042 48.7935 38.0714 48.7954 35.5401 48.6621C34.3502 48.5994 33.1542 48.4441 31.9868 48.2048C29.3602 47.6665 27.8295 45.9765 27.3984 43.3745C27.1071 41.6164 27.0097 39.8261 26.9102 38.866Z" fill="#4AB3FF"/>
<path d="M26.9102 38.866L-68.0391 35.7712L-68.2497 42.2324L-67.583 48.6626L26.9102 38.866ZM27.4466 32.3888L-65.129 11.0654L-65.1291 11.0656L27.4466 32.3888ZM32.2856 27.7766L13.6212 -65.3716L13.6211 -65.3716L32.2856 27.7766ZM39.2626 27.3988L44.4306 -67.4602L44.4304 -67.4602L39.2626 27.3988ZM43.2698 27.8665L25.4132 121.173L25.4134 121.173L43.2698 27.8665ZM47.868 32.5366L-45.0333 52.3931L-45.0333 52.3932L47.868 32.5366ZM48.2702 40.1009L-46.5987 35.1195L-46.5988 35.1198L48.2702 40.1009ZM47.7947 43.7421L-45.2307 24.4754L-45.2308 24.4757L47.7947 43.7421ZM43.1056 48.2691L23.6138 -44.7094L23.6137 -44.7093L43.1056 48.2691ZM35.5401 48.6621L30.5434 143.53L30.5439 143.53L35.5401 48.6621ZM31.9868 48.2048L12.9138 141.27L12.9139 141.27L31.9868 48.2048ZM27.3984 43.3745L121.12 27.8469L121.12 27.8468L27.3984 43.3745ZM121.859 41.9608C121.903 40.6271 121.893 40.8401 121.911 40.3348C121.918 40.1438 121.901 40.6995 121.842 41.5888C121.717 43.4798 121.342 47.9821 120.022 53.712L-65.1291 11.0656C-66.8784 18.6605 -67.4772 25.0412 -67.7412 29.0244C-67.8694 30.9597 -67.934 32.615 -67.969 33.6021C-67.9929 34.2749 -68.0382 35.7446 -68.0391 35.7712L121.859 41.9608ZM120.022 53.7121C116.819 67.6194 109.238 84.402 94.1077 98.591C79.2814 112.495 62.9551 118.519 50.95 120.925L13.6211 -65.3716C-0.967127 -62.4485 -19.4113 -55.4275 -35.8604 -40.0021C-52.6139 -24.2911 -61.3224 -5.46127 -65.129 11.0654L120.022 53.7121ZM50.9499 120.925C42.4418 122.629 36.0069 122.362 34.0948 122.258L44.4304 -67.4602C37.8492 -67.8187 26.7431 -68.0008 13.6212 -65.3716L50.9499 120.925ZM34.0946 122.258C32.2978 122.16 29.2601 121.909 25.4132 121.173L61.1265 -65.4399C54.6436 -66.6806 48.9094 -67.2162 44.4306 -67.4602L34.0946 122.258ZM25.4134 121.173C10.0848 118.239 -7.47648 110.525 -22.1138 95.3174C-36.2746 80.6051 -42.4865 64.3087 -45.0333 52.3931L140.769 12.68C137.682 -1.76552 130.458 -20.1507 114.777 -36.4423C98.6197 -53.229 79.0297 -62.0137 61.1262 -65.4399L25.4134 121.173ZM-45.0333 52.3932C-47.1331 42.5691 -46.6022 35.1861 -46.5987 35.1195L143.139 45.0824C143.408 39.9538 143.937 27.5024 140.769 12.68L-45.0333 52.3932ZM-46.5988 35.1198C-46.3957 31.2532 -45.8987 27.7003 -45.2307 24.4754L140.82 63.0087C141.983 57.3917 142.808 51.3876 143.139 45.0821L-46.5988 35.1198ZM-45.2308 24.4757C-42.0874 9.29815 -34.2017 -7.99244 -18.999 -22.3358C-4.29816 -36.2057 11.8509 -42.2434 23.6138 -44.7094L62.5975 141.248C76.8733 138.255 95.1031 131.228 111.388 115.863C128.175 100.025 137.149 80.7342 140.82 63.0085L-45.2308 24.4757ZM23.6137 -44.7093C33.2111 -46.7213 40.4006 -46.2133 40.5363 -46.2061L30.5439 143.53C35.7422 143.804 47.9974 144.308 62.5976 141.248L23.6137 -44.7093ZM40.5367 -46.2061C44.1907 -46.0136 47.6991 -45.5493 51.0597 -44.8605L12.9139 141.27C18.6093 142.437 24.5097 143.212 30.5434 143.53L40.5367 -46.2061ZM51.0598 -44.8605C65.8481 -41.8298 83.4421 -34.1092 98.141 -18.4469C112.633 -3.00529 118.888 14.37 121.12 27.8469L-66.3237 58.9022C-63.6598 74.9811 -56.424 94.5024 -40.4024 111.574C-24.1738 128.866 -4.50115 137.701 12.9138 141.27L51.0598 -44.8605ZM121.12 27.8468C121.327 29.0954 121.458 30.0909 121.535 30.7364C121.614 31.3897 121.658 31.8565 121.674 32.0268C121.683 32.1175 121.686 32.1605 121.683 32.1233C121.678 32.0639 121.674 32.0136 121.655 31.7958C121.642 31.6389 121.612 31.2833 121.578 30.8951C121.544 30.5136 121.485 29.8557 121.403 29.0694L-67.583 48.6626C-67.6728 47.7965 -67.7263 47.1128 -67.6804 47.6608C-67.6622 47.8777 -67.5939 48.7061 -67.5094 49.6152C-67.3445 51.3892 -67.0013 54.8127 -66.3237 58.9023L121.12 27.8468Z" fill="#4AB3FF" mask="url(#path-5-inside-3_298_22288)"/>
</g>
<g id="Vector_4">
<mask id="path-7-inside-4_298_22288" fill="white">
<path d="M35.679 15.2834C35.6789 14.9796 35.4327 14.7334 35.129 14.7338C33.7541 14.7356 32.4294 14.7425 31.1051 14.725C30.7488 14.7204 30.3693 14.6717 30.0432 14.5386C29.1807 14.1865 28.7328 13.2402 28.938 12.3279C29.1279 11.4836 29.9257 10.8426 30.8242 10.8375C32.2654 10.8293 33.7066 10.8352 35.1477 10.8351C35.4413 10.8351 35.6792 10.5971 35.6792 10.3036C35.6792 10.0208 35.6792 9.74969 35.6792 9.47856C35.6794 8.3409 35.6672 7.20307 35.6832 6.06564C35.6995 4.90682 36.5531 4.02687 37.6313 4.02442C38.7438 4.02189 39.575 4.90629 39.577 6.10162C39.5793 7.49382 39.578 8.88603 39.5777 10.3175C39.5776 10.6033 39.8094 10.8351 40.0952 10.8351C41.506 10.8351 42.9169 10.8328 44.3277 10.8359C45.4987 10.8384 46.3623 11.6451 46.3872 12.7522C46.4112 13.8221 45.5314 14.7089 44.3754 14.7274C42.9801 14.7498 41.5842 14.7332 40.1885 14.7334C40.1529 14.7334 40.1173 14.7334 40.0812 14.7334C39.8031 14.7334 39.5777 14.9588 39.5777 15.2369C39.5777 16.6476 39.5799 18.0583 39.5769 19.469C39.5744 20.6471 38.769 21.4987 37.6571 21.5067C36.5347 21.5148 35.7027 20.6965 35.6848 19.5154C35.6634 18.105 35.6792 16.694 35.679 15.2834Z"/>
</mask>
<path d="M35.679 15.2834C35.6789 14.9796 35.4327 14.7334 35.129 14.7338C33.7541 14.7356 32.4294 14.7425 31.1051 14.725C30.7488 14.7204 30.3693 14.6717 30.0432 14.5386C29.1807 14.1865 28.7328 13.2402 28.938 12.3279C29.1279 11.4836 29.9257 10.8426 30.8242 10.8375C32.2654 10.8293 33.7066 10.8352 35.1477 10.8351C35.4413 10.8351 35.6792 10.5971 35.6792 10.3036C35.6792 10.0208 35.6792 9.74969 35.6792 9.47856C35.6794 8.3409 35.6672 7.20307 35.6832 6.06564C35.6995 4.90682 36.5531 4.02687 37.6313 4.02442C38.7438 4.02189 39.575 4.90629 39.577 6.10162C39.5793 7.49382 39.578 8.88603 39.5777 10.3175C39.5776 10.6033 39.8094 10.8351 40.0952 10.8351C41.506 10.8351 42.9169 10.8328 44.3277 10.8359C45.4987 10.8384 46.3623 11.6451 46.3872 12.7522C46.4112 13.8221 45.5314 14.7089 44.3754 14.7274C42.9801 14.7498 41.5842 14.7332 40.1885 14.7334C40.1529 14.7334 40.1173 14.7334 40.0812 14.7334C39.8031 14.7334 39.5777 14.9588 39.5777 15.2369C39.5777 16.6476 39.5799 18.0583 39.5769 19.469C39.5744 20.6471 38.769 21.4987 37.6571 21.5067C36.5347 21.5148 35.7027 20.6965 35.6848 19.5154C35.6634 18.105 35.6792 16.694 35.679 15.2834Z" fill="#4AB3FF"/>
<path d="M31.1051 14.725L29.8544 109.716L29.8546 109.716L31.1051 14.725ZM30.0432 14.5386L-5.86528 102.49L-5.86509 102.49L30.0432 14.5386ZM28.938 12.3279L-63.7468 -8.51608L-63.7468 -8.51591L28.938 12.3279ZM30.8242 10.8375L30.2811 -84.1606H30.281L30.8242 10.8375ZM35.6792 9.47856L-59.3204 9.46556V9.46584L35.6792 9.47856ZM35.6832 6.06564L130.674 7.39976V7.39953L35.6832 6.06564ZM37.6313 4.02442L37.4154 -90.975H37.4154L37.6313 4.02442ZM39.577 6.10162L134.577 5.94583V5.94565L39.577 6.10162ZM44.3277 10.8359L44.5353 -84.1636L44.5352 -84.1636L44.3277 10.8359ZM46.3872 12.7522L-48.5886 14.8827L-48.5886 14.8829L46.3872 12.7522ZM44.3754 14.7274L42.8533 -80.26H42.8531L44.3754 14.7274ZM40.1885 14.7334L40.1726 -80.2662H40.1725L40.1885 14.7334ZM39.5769 19.469L134.576 19.6729V19.6726L39.5769 19.469ZM37.6571 21.5067L38.3388 116.504L38.3393 116.504L37.6571 21.5067ZM35.6848 19.5154L-59.304 20.9564L-59.3039 20.9565L35.6848 19.5154ZM40.0812 14.7334L40.0871 109.733L40.0812 14.7334ZM39.5777 10.3175L-55.422 10.2973L39.5777 10.3175ZM35.129 14.7338L35.0017 -80.2658L35.129 14.7338ZM35.0017 -80.2658C33.113 -80.2632 32.7866 -80.2607 32.3555 -80.2664L29.8546 109.716C32.0723 109.746 34.3953 109.735 35.2562 109.733L35.0017 -80.2658ZM32.3557 -80.2664C35.9255 -80.2194 40.534 -79.9486 45.8541 -79.0809C51.0976 -78.2258 58.0995 -76.619 65.9515 -73.4132L-5.86509 102.49C9.6198 108.813 23.108 109.628 29.8544 109.716L32.3557 -80.2664ZM65.9517 -73.4132C111.64 -54.7599 130.72 -7.27998 121.623 33.1718L-63.7468 -8.51591C-73.2543 33.7604 -53.2781 83.1329 -5.86528 102.49L65.9517 -73.4132ZM121.623 33.172C111.877 76.509 73.6398 105.594 31.3674 105.836L30.281 -84.1606C-13.7883 -83.9086 -53.6209 -53.5417 -63.7468 -8.51608L121.623 33.172ZM31.3674 105.836C32.4593 105.829 33.1772 105.835 35.1527 105.835L35.1428 -84.1646C34.236 -84.1645 32.0714 -84.1708 30.2811 -84.1606L31.3674 105.836ZM130.679 10.301C130.679 10.0182 130.679 9.75394 130.679 9.49127L-59.3204 9.46584C-59.3204 9.74545 -59.3204 10.0235 -59.3204 10.3062L130.679 10.301ZM130.679 9.49155C130.679 9.04805 130.678 8.63813 130.677 8.33533C130.676 7.98912 130.675 7.80672 130.675 7.60122C130.674 7.213 130.676 7.22486 130.674 7.39976L-59.3071 4.73151C-59.3255 6.04385 -59.3256 7.19334 -59.3242 7.94281C-59.3222 9.05497 -59.3203 8.91624 -59.3204 9.46556L130.679 9.49155ZM130.674 7.39953C130.029 53.2772 93.3235 98.8978 37.8471 99.0238L37.4154 -90.975C-20.2174 -90.844 -58.6303 -43.4636 -59.3071 4.73175L130.674 7.39953ZM37.8471 99.0238C-19.5391 99.1542 -55.3485 51.3353 -55.4225 6.25759L134.577 5.94565C134.499 -41.5227 97.0267 -91.1104 37.4154 -90.975L37.8471 99.0238ZM-55.4225 6.25741C-55.4204 7.53307 -55.4216 8.77426 -55.422 10.2973L134.577 10.3376C134.578 8.9978 134.579 7.45457 134.577 5.94583L-55.4225 6.25741ZM40.0944 105.835C41.72 105.835 42.8425 105.832 44.1202 105.835L44.5352 -84.1636C42.9912 -84.1669 41.2921 -84.1646 40.0959 -84.1646L40.0944 105.835ZM44.1201 105.835C22.636 105.788 -0.465611 98.1268 -18.9679 80.8903C-37.7159 63.4249 -48.0377 39.4421 -48.5886 14.8827L141.363 10.6217C140.083 -46.4428 92.7308 -84.0583 44.5353 -84.1636L44.1201 105.835ZM-48.5886 14.8829C-49.8436 -41.0591 -4.26199 -79.505 42.8533 -80.26L45.8976 109.715C95.3247 108.923 142.666 68.7033 141.363 10.6216L-48.5886 14.8829ZM42.8531 -80.26C42.9961 -80.2623 42.9547 -80.2598 42.4636 -80.2607C42.2063 -80.2612 41.9714 -80.2622 41.5557 -80.2636C41.1878 -80.2648 40.6988 -80.2663 40.1726 -80.2662L40.2045 109.733C40.9011 109.733 40.7705 109.736 42.1007 109.738C43.0053 109.74 44.3595 109.74 45.8978 109.715L42.8531 -80.26ZM40.1725 -80.2662C40.1408 -80.2662 40.1086 -80.2662 40.0753 -80.2662L40.0871 109.733C40.126 109.733 40.165 109.733 40.2046 109.733L40.1725 -80.2662ZM-55.422 15.2354C-55.422 16.858 -55.4198 17.9846 -55.4225 19.2653L134.576 19.6726C134.58 18.132 134.577 16.4372 134.577 15.2384L-55.422 15.2354ZM-55.4225 19.265C-55.3768 -2.02964 -47.8169 -25.4478 -30.0755 -44.2573C-12.0589 -63.3587 12.4542 -73.3144 36.9748 -73.4905L38.3393 116.504C96.2666 116.088 134.472 68.1481 134.576 19.6729L-55.4225 19.265ZM36.9753 -73.4905C60.4059 -73.6587 84.8446 -64.8401 103.495 -46.1546C122.066 -27.549 130.342 -3.7954 130.674 18.0742L-59.3039 20.9565C-58.5276 72.1276 -17.1011 116.902 38.3388 116.504L36.9753 -73.4905ZM130.674 18.0744C130.675 18.1637 130.673 18.0787 130.673 17.5685C130.674 17.3022 130.675 17.0574 130.676 16.6413C130.677 16.2706 130.679 15.7853 130.679 15.2648L-59.3207 15.3019C-59.3206 16.0039 -59.3232 15.9292 -59.3256 17.2304C-59.3272 18.1309 -59.3267 19.4567 -59.304 20.9564L130.674 18.0744ZM40.0753 -80.2662C-12.6573 -80.263 -55.4201 -37.5165 -55.422 15.2336L134.577 15.2402C134.576 67.4341 92.2636 109.73 40.0871 109.733L40.0753 -80.2662ZM-55.422 10.2973C-55.4332 63.0625 -12.661 105.834 40.0944 105.835L40.096 -84.1646C92.2797 -84.1641 134.588 -41.8558 134.577 10.3376L-55.422 10.2973ZM35.1534 105.835C87.9066 105.832 130.68 63.0662 130.679 10.301L-59.3204 10.3062C-59.3219 -41.8719 -17.0241 -84.1615 35.1421 -84.1646L35.1534 105.835ZM35.2562 109.733C-17.0397 109.803 -59.311 67.4169 -59.3207 15.3011L130.679 15.2656C130.669 -37.4576 87.9051 -80.3367 35.0017 -80.2658L35.2562 109.733Z" fill="#4AB3FF" mask="url(#path-7-inside-4_298_22288)"/>
</g>
</g>
</g>
</svg>
