<svg width="49" height="49" viewBox="0 0 49 49" fill="none" xmlns="http://www.w3.org/2000/svg">
<g clip-path="url(#clip0_3028_26666)">
<path d="M31.809 14.4317C31.6258 14.6295 31.5283 14.7421 31.4232 14.8472C27.3122 18.9585 23.2023 23.071 19.0815 27.1724C18.9275 27.3257 18.6664 27.4538 18.4547 27.4547C14.5993 27.4714 10.7438 27.4669 6.88834 27.4662C6.81153 27.4662 6.73471 27.459 6.58211 27.4513V26.9673C6.58212 18.5315 6.58173 10.0956 6.58259 1.65983C6.58271 0.447969 7.15 -0.112817 8.37377 -0.112868C21.1585 -0.113405 33.9432 -0.113472 46.7279 -0.112749C47.9366 -0.11268 48.4997 0.457987 48.4998 1.6802C48.5003 14.4496 48.5002 27.219 48.4998 39.9883C48.4998 41.2603 47.9476 41.8049 46.6593 41.8049C38.2544 41.8053 29.8495 41.8051 21.4446 41.8051H20.9504C20.9392 41.6495 20.9214 41.5171 20.9213 41.3848C20.9198 37.5756 20.9165 33.7663 20.9302 29.9572C20.9309 29.7539 21.0239 29.4974 21.1646 29.3559C25.3203 25.1803 29.4874 21.016 33.6532 16.8505C33.7175 16.7862 33.7886 16.7286 33.9553 16.5797C33.9553 16.8327 33.9552 16.9878 33.9553 17.1428C33.9557 19.2248 33.9457 21.3068 33.9608 23.3887C33.9685 24.4537 34.8939 25.1513 35.8701 24.864C36.5161 24.6738 36.9326 24.0779 36.9351 23.3031C36.941 21.4833 36.9372 19.6635 36.9373 17.8437C36.9373 16.2861 36.9393 14.7285 36.9365 13.1709C36.9345 12.0314 36.3657 11.4516 35.2416 11.4507C31.8333 11.4482 28.4251 11.4465 25.0169 11.4529C24.1804 11.4544 23.5848 11.9727 23.4751 12.7542C23.3737 13.4766 23.8281 14.1693 24.5634 14.3657C24.7969 14.4281 25.0513 14.4285 25.2961 14.4291C27.2547 14.4338 29.2133 14.4317 31.1719 14.4317H31.809Z" fill="#4AB3FF"/>
<path d="M15.7627 30.4865C15.5729 30.685 15.4595 30.8083 15.3412 30.9267C12.9431 33.3257 10.5466 35.7262 8.14385 38.1206C7.75535 38.5078 7.47057 38.9332 7.53282 39.5038C7.59627 40.0856 7.90566 40.5147 8.44599 40.743C8.98839 40.9722 9.5037 40.8855 9.96298 40.5154C10.1065 40.3998 10.237 40.2672 10.3677 40.1366C12.7342 37.7715 15.0998 35.4053 17.4661 33.0399C17.5842 32.9219 17.7076 32.8091 17.8896 32.6357C17.9054 32.8376 17.9242 32.9663 17.9243 33.095C17.9258 37.2118 17.9273 41.3285 17.9244 45.4452C17.9235 46.7179 17.3642 47.2655 16.0822 47.2656C11.7033 47.2661 7.32453 47.2661 2.94571 47.2656C1.66912 47.2654 1.12162 46.7152 1.12147 45.4328C1.12097 41.0539 1.12097 36.6751 1.12147 32.2962C1.12162 31.019 1.67155 30.4632 2.95005 30.4624C7.05133 30.4598 11.1526 30.4612 15.2539 30.4622C15.3882 30.4623 15.5226 30.4746 15.7627 30.4865Z" fill="#4AB3FF"/>
</g>
<defs>
<clipPath id="clip0_3028_26666">
<rect width="48" height="48" fill="white" transform="translate(0.5 0.0976562)"/>
</clipPath>
</defs>
</svg>
