<svg width="50" height="30" viewBox="0 0 50 30" fill="none" xmlns="http://www.w3.org/2000/svg">
<g clip-path="url(#clip0_9643_87922)">
<path d="M6.19669 23.9717C6.39407 24.4318 6.69119 24.7843 7.08137 25.0217C7.28918 25.1482 7.4862 25.217 7.66682 25.2271C7.90903 25.2401 8.10599 25.1453 8.2522 24.9454C8.49823 24.6094 8.62942 23.8916 8.25894 22.8851C8.05065 22.3201 7.75352 21.7888 7.38853 21.1723C7.08471 21.1474 6.80686 21.104 6.56212 21.0504C6.65264 21.1938 6.73226 21.346 6.79135 21.4966C7.02604 22.0957 7.1153 23.0099 6.20465 23.9638C6.20213 23.9663 6.1992 23.9692 6.19669 23.9717ZM9.4981 29.9924C6.61995 29.8355 4.44078 27.287 3.89515 24.8147C3.89138 24.8147 3.81218 24.8113 3.81218 24.8113C2.85753 24.7591 2.14931 24.4335 1.70761 23.8432C0.995184 22.8914 1.27512 21.6193 1.2877 21.5653C1.32164 21.4164 1.44904 21.308 1.60032 21.2988C1.61373 21.2984 1.62672 21.298 1.63929 21.2988C1.77549 21.3064 1.89577 21.3945 1.9427 21.5261C2.1074 21.9861 2.3777 22.0532 2.5667 22.0633C2.89525 22.0814 3.21752 21.9127 3.22087 21.911C3.26948 21.8853 3.3248 21.871 3.37927 21.871C3.40735 21.8705 3.43543 21.8714 3.46309 21.8727C3.66299 21.8836 3.86666 21.9376 4.072 22.0329C4.16713 21.8065 4.29956 21.6209 4.46886 21.4784C4.51245 21.4413 4.56483 21.416 4.62057 21.4046C4.65241 21.3979 5.42979 21.2267 5.36022 20.6836C5.35771 20.6633 5.35687 20.6431 5.35813 20.6233C5.08196 20.512 4.73371 20.3513 4.56651 19.9579C3.66131 17.8263 3.51212 16.011 4.12229 14.563C4.23376 14.2986 4.37248 14.046 4.53591 13.8103C4.48311 13.2343 4.507 12.6507 4.60673 12.0709L0.963753 5.10736C0.908855 5.00279 0.887902 4.88219 0.903408 4.7637C0.904246 4.754 0.905084 4.7443 0.906341 4.73545L0.961239 4.33654C0.962496 4.326 0.965011 4.31419 0.967526 4.30323L0.967944 4.3007C0.97884 4.24673 0.99686 4.19486 1.022 4.14679C1.02494 4.14131 1.02787 4.13582 1.03122 4.12993C1.06014 4.0789 1.09576 4.03336 1.13725 3.99457L1.2307 3.90644C1.52908 3.6256 1.82117 3.3941 2.12332 3.19887C2.75821 2.78858 3.4589 2.53304 4.32847 2.39516C4.36829 2.38883 4.40852 2.38673 4.44874 2.38883C4.6587 2.40022 4.84519 2.52545 4.9357 2.71605L7.1995 7.48014C7.32401 7.36248 7.45263 7.24776 7.58423 7.13562C7.11864 5.8221 6.21429 3.58597 4.94157 1.86849C4.78065 1.65091 4.75802 1.3667 4.8829 1.12676C5.00737 0.888096 5.25085 0.745572 5.51905 0.755274C5.57269 0.75738 5.62885 0.759486 5.68752 0.762858C7.44344 0.858582 10.6665 1.51091 12.7623 4.77846C13.1105 4.7287 13.4596 4.69876 13.8057 4.68906L13.9927 2.17378C13.939 2.10209 13.8954 2.02451 13.8619 1.94186C13.7567 1.68169 13.7584 1.39622 13.8669 1.13731C14.0375 0.729972 14.4469 0.472327 14.8857 0.496362C15.0064 0.503109 15.1237 0.530097 15.2352 0.577324C15.7658 0.8025 16.0155 1.42025 15.7917 1.95409C15.767 2.0127 15.7369 2.0692 15.7012 2.12318L15.7171 2.24378L16.1899 1.4582C16.0029 1.20478 15.9518 0.862374 16.0788 0.558771C16.2271 0.204565 16.5829 -0.0193433 16.9643 0.00131783C17.0686 0.00722299 17.1709 0.0308344 17.2677 0.0721591C17.491 0.166614 17.6646 0.343295 17.7559 0.569313C17.8473 0.79533 17.8456 1.04369 17.7513 1.26845C17.6532 1.50205 17.4684 1.67789 17.243 1.76518L17.2321 2.82526C17.2497 2.83201 17.2677 2.83876 17.2853 2.84635C17.3226 2.86195 17.3591 2.88008 17.3943 2.90032L18.2558 1.93807C18.1444 1.70657 18.1322 1.4329 18.2353 1.18706C18.3837 0.83286 18.7395 0.608952 19.1208 0.630036C19.2252 0.635514 19.327 0.65913 19.4242 0.700452C19.6476 0.79533 19.8207 0.972012 19.9121 1.19761C20.0034 1.42362 20.0022 1.67198 19.9078 1.89674C19.8039 2.14426 19.5978 2.32769 19.3521 2.40781L19.2696 3.69602C19.3081 3.70741 19.3463 3.7209 19.384 3.73693C19.4016 3.74409 19.4188 3.75211 19.436 3.76054L20.1828 3.01249C20.0876 2.78942 20.0834 2.53347 20.1815 2.29944C20.3298 1.94523 20.6856 1.72132 21.067 1.74241C21.1713 1.74789 21.2736 1.77193 21.3704 1.81283C21.5938 1.90771 21.7668 2.08439 21.8582 2.30998C21.9495 2.536 21.9483 2.78436 21.854 3.00911C21.7278 3.30977 21.4513 3.51639 21.1361 3.55771L20.9073 4.44618L21.0037 4.37407C21.0171 4.31082 21.0364 4.24968 21.0615 4.19022C21.2321 3.78289 21.6416 3.52524 22.0803 3.54928C22.2006 3.55561 22.3184 3.58301 22.4298 3.63024C22.6863 3.73903 22.8858 3.94228 22.991 4.20245C23.0962 4.46305 23.0944 4.74852 22.9859 5.00701C22.8418 5.35109 22.5228 5.59018 22.1612 5.63909L20.4803 7.55436C21.1911 8.31588 21.8251 9.22416 22.3674 10.2581C23.6422 12.6878 23.5843 15.3215 22.2085 17.4835C21.1717 19.1124 19.5827 20.1147 18.1603 20.0371C17.4567 19.9988 16.844 19.6913 16.3872 19.1482C16.3831 19.1428 16.3784 19.1373 16.3738 19.1322C16.4245 20.3791 16.3265 21.8832 15.8944 22.3597C15.7716 22.4947 15.6141 22.5642 15.4506 22.5554C15.4476 22.5554 15.4406 22.5545 15.4376 22.5545C15.293 22.5431 15.1397 22.4972 14.9905 22.4238C15.6073 24.4706 15.9233 27.6652 12.1911 29.4329C11.3043 29.8533 10.3979 30.0413 9.4981 29.9924Z" fill="white"/>
<path d="M22.0661 10.4197C21.4614 9.26729 20.7682 8.32403 20.0152 7.56671L22.0011 5.304C22.0091 5.30442 22.0166 5.30653 22.0246 5.30653C22.3079 5.30653 22.5618 5.13702 22.6721 4.87431C22.745 4.70058 22.7463 4.5083 22.6754 4.33331C22.6046 4.15874 22.4705 4.02211 22.2979 3.94874C22.2107 3.91163 22.1189 3.89308 22.025 3.89308C21.7417 3.89308 21.4878 4.06259 21.3776 4.32529C21.3453 4.40204 21.3293 4.483 21.3256 4.56396L20.3337 5.3061L20.8755 3.20364C21.1433 3.27448 21.4291 3.14081 21.5401 2.87642C21.6613 2.58716 21.5264 2.25319 21.2388 2.13133C20.9509 2.00904 20.619 2.14482 20.4979 2.43451C20.4053 2.65547 20.4628 2.9013 20.6224 3.06027L19.4771 4.20765C19.4134 4.14356 19.3375 4.09127 19.252 4.055C19.1653 4.01832 19.0735 3.99934 18.9792 3.99934C18.9553 3.99934 18.9319 4.00229 18.9084 4.00482L19.0299 2.10813C19.2659 2.12585 19.4968 1.99554 19.594 1.76405C19.7151 1.47478 19.5802 1.14081 19.2927 1.01895C19.0048 0.896667 18.6729 1.03245 18.5518 1.32213C18.4558 1.55111 18.522 1.80621 18.6955 1.96392L17.4303 3.37653C17.3595 3.28629 17.2661 3.21249 17.1538 3.16485C17.0691 3.12858 16.9794 3.11087 16.8881 3.11003L16.9052 1.48279C17.1299 1.48701 17.3448 1.35671 17.4374 1.13576C17.559 0.846489 17.4241 0.512521 17.1361 0.390658C16.8482 0.268373 16.5168 0.40415 16.3952 0.693837C16.2846 0.957807 16.389 1.2572 16.6265 1.40057L15.5085 3.25888L15.3442 2.02675C15.3991 1.96772 15.4452 1.89941 15.4779 1.82182C15.5508 1.64766 15.5521 1.45581 15.4812 1.28081C15.4105 1.10582 15.2763 0.969195 15.1037 0.895821C15.0165 0.859137 14.9247 0.840159 14.8309 0.840159C14.5476 0.840159 14.2936 1.0101 14.1834 1.27238C14.1105 1.44653 14.1092 1.63839 14.1801 1.81338C14.2182 1.907 14.2752 1.9888 14.346 2.05669L14.1247 5.0316C13.6105 5.02738 13.0984 5.06997 12.5939 5.1543C10.4775 1.67592 7.00888 1.15431 5.50821 1.10033C5.21444 1.09022 5.04178 1.42671 5.21737 1.66411C6.59905 3.52791 7.55073 5.98079 7.98782 7.25045C7.67357 7.50557 7.3756 7.77713 7.09898 8.06513L4.62858 2.86588C4.58458 2.77269 4.484 2.71998 4.38342 2.73643C3.18153 2.92745 2.33626 3.33942 1.46627 4.15874L1.37282 4.24686C1.35354 4.265 1.33804 4.28608 1.3263 4.30885C1.32337 4.31475 1.32253 4.32108 1.32002 4.3274C1.31247 4.34511 1.30577 4.36282 1.30284 4.3818C1.30242 4.38306 1.302 4.38391 1.30158 4.38517L1.24668 4.78619C1.24584 4.78914 1.2471 4.79251 1.24668 4.79546C1.23662 4.84733 1.24333 4.9013 1.26805 4.94853L4.96677 12.0183C4.84985 12.6344 4.81967 13.2665 4.89175 13.9057C4.72413 14.1309 4.56739 14.3932 4.43874 14.6985C3.86629 16.0571 4.01548 17.7813 4.88254 19.8235C5.00574 20.1136 5.27939 20.2224 5.54383 20.3274C5.63603 20.3641 5.73157 20.402 5.82126 20.4476C6.14519 20.6116 6.80062 20.8001 7.59182 20.8418C7.98955 21.5093 8.33946 22.1102 8.58125 22.7663C9.33265 24.8072 8.29879 26.1638 6.90578 25.3171C6.2948 24.9455 5.96751 24.3835 5.79276 23.8699L5.95955 23.7261C7.56081 22.0487 5.68464 20.5129 5.70098 20.6403C5.81329 21.5135 4.69018 21.7429 4.69018 21.7429C4.44503 21.9491 4.3302 22.262 4.27907 22.5547C4.02721 22.3717 3.71416 22.214 3.3831 22.2157C3.3831 22.2157 2.07895 22.9202 1.62258 21.6434C1.62258 21.6434 1.00236 24.3569 3.8994 24.4716L4.17808 24.4729C4.73083 27.7252 8.16891 30.959 12.0466 29.1223C16.187 27.161 15.0911 23.4199 14.1612 21.1438C13.7316 20.0917 13.7697 19.2521 13.9349 18.6533C14.4625 19.7181 14.3384 20.421 14.3384 20.421C14.1779 21.5975 15.019 22.1768 15.4657 22.2123C16.0198 22.2561 16.1794 19.7194 15.9393 18.0385C16.1501 18.3148 16.3835 18.6099 16.65 18.9266C19.0061 21.7316 25.2179 16.4269 22.0661 10.4197Z" fill="#2C343B"/>
<path d="M15.6648 13.19C15.0919 11.9566 14.0254 11.0188 12.7422 10.6094C13.139 11.0846 12.8298 11.1188 12.8691 11.5468C12.9505 12.4306 13.7283 13.0804 14.6062 12.9986C14.9193 12.9691 15.2989 13.0745 15.6648 13.19Z" fill="#F15523"/>
<path d="M13.56 11.6333C13.482 11.7438 13.3299 11.7699 13.2201 11.6919C13.1103 11.6135 13.0843 11.4604 13.1619 11.3495C13.2398 11.239 13.3919 11.2129 13.5017 11.2913C13.6119 11.3698 13.6379 11.5228 13.56 11.6333Z" fill="white"/>
<path d="M10.1041 19.4331C9.68584 19.6098 9.06814 19.7536 8.36785 19.7894C7.66762 19.8299 7.02684 19.784 6.56377 19.7468C6.09986 19.7093 5.81154 19.6773 5.80148 19.7194C5.79143 19.7607 6.06759 19.8695 6.53318 19.9644C6.99792 20.0581 7.65462 20.1415 8.3855 20.0993C9.11632 20.0622 9.77553 19.8733 10.1992 19.6308C10.6279 19.391 10.8098 19.1367 10.7834 19.1122C10.7507 19.076 10.5252 19.2606 10.1041 19.4331ZM10.1091 15.4774L4.2878 3.22694C3.29041 3.41037 2.56249 3.77764 1.82031 4.46708L8.10637 16.4818L10.1091 15.4774ZM15.5533 18.1217C15.4388 17.7645 15.3152 17.5622 15.2746 17.579C15.1962 17.609 15.4397 18.4751 15.477 19.5744C15.5323 20.672 15.3533 21.5588 15.451 21.582C15.4724 21.5875 15.5042 21.5364 15.5436 21.439C15.5822 21.3412 15.6346 21.1982 15.6723 21.0152C15.759 20.6517 15.824 20.1331 15.7976 19.5609C15.7737 18.9887 15.6702 18.4772 15.5533 18.1217ZM22.1557 4.29293C22.1138 4.2748 22.0698 4.26636 22.027 4.26636C21.8972 4.26636 21.774 4.34311 21.7207 4.47087C21.6495 4.64123 21.7287 4.83731 21.8976 4.90899C21.9399 4.9267 21.9835 4.93513 22.0266 4.93513C22.1561 4.93513 22.2793 4.85839 22.333 4.73062C22.4042 4.56069 22.325 4.36461 22.1557 4.29293ZM18.7407 4.93767C18.7554 4.95327 18.7717 4.96761 18.7902 4.98067L18.7914 4.98194C18.8102 4.99501 18.8304 5.00639 18.8518 5.01525C18.871 5.02369 18.8907 5.02959 18.9104 5.03338C18.9339 5.03887 18.9574 5.04182 18.9809 5.04182C19.1103 5.04182 19.2336 4.96507 19.2872 4.83731C19.3584 4.66737 19.2792 4.4713 19.1103 4.39961C19.068 4.38148 19.0244 4.37305 18.9813 4.37305C18.8518 4.37305 18.7286 4.44979 18.6749 4.57756C18.6221 4.70363 18.6523 4.84405 18.7407 4.93767ZM21.4651 5.02115L18.7637 7.04225L18.9305 5.4091C18.8543 5.40361 18.7792 5.38886 18.708 5.35849C18.6145 5.31886 18.5337 5.2594 18.4671 5.18688L16.9756 6.54425L16.9006 4.52232C16.8943 4.52274 16.8884 4.524 16.8825 4.524C16.7887 4.524 16.6969 4.50503 16.6097 4.46834C16.5381 4.43756 16.4748 4.39412 16.4182 4.34353L15.3731 5.60348L14.9259 2.24823C14.8949 2.25203 14.8639 2.25498 14.8325 2.25498C14.8148 2.25498 14.7977 2.25118 14.7805 2.24992L14.4398 6.82973C14.3807 7.35089 15.0164 8.03867 16.1512 8.52023C17.9441 9.28091 18.5521 8.56235 18.5542 8.55689L21.5636 5.12868C21.5271 5.09621 21.494 5.06037 21.4651 5.02115ZM14.7034 1.85608C14.7457 1.87421 14.7893 1.88265 14.8325 1.88265C14.8471 1.88265 14.8618 1.88137 14.8765 1.87927C14.9892 1.86409 15.091 1.79114 15.1384 1.67813C15.2101 1.5082 15.1304 1.31212 14.9615 1.24044C14.9192 1.2223 14.8756 1.21387 14.8325 1.21387C14.703 1.21387 14.5798 1.29061 14.5265 1.41838C14.4548 1.58832 14.5345 1.7844 14.7034 1.85608ZM16.6998 4.09558C16.7166 4.10697 16.7342 4.11667 16.7534 4.1251C16.7958 4.14281 16.8394 4.15124 16.8825 4.15124C16.8838 4.15124 16.885 4.15124 16.8867 4.15124C17.0146 4.14955 17.1357 4.07323 17.1889 3.94673C17.2601 3.7768 17.1809 3.58072 17.0116 3.50904C16.9697 3.49132 16.9257 3.48247 16.883 3.48247C16.753 3.48247 16.6298 3.55964 16.5766 3.68698C16.5133 3.83794 16.5687 4.00872 16.6998 4.09558ZM6.32448 25.2838C6.16607 25.1151 5.98839 24.9056 5.82662 24.6513C5.74574 24.5244 5.66822 24.3869 5.59907 24.2393C5.56471 24.1655 5.53202 24.0892 5.50226 24.0108C5.48759 23.9716 5.47251 23.9319 5.45952 23.8914L5.44066 23.8345C5.43731 23.8236 5.43605 23.8122 5.43479 23.8008C5.43186 23.7557 5.44988 23.7097 5.48131 23.6777L5.52406 23.6406L5.57393 23.5942C5.60662 23.563 5.6393 23.5322 5.67157 23.5014C5.79436 23.3715 5.91044 23.2425 6.00096 23.1017C6.1887 22.8267 6.2918 22.5282 6.31442 22.2747C6.34041 22.0196 6.29682 21.8156 6.25031 21.6857C6.20295 21.5546 6.15518 21.4926 6.13673 21.4993C6.11495 21.5065 6.12375 21.5815 6.13297 21.7106C6.14177 21.8392 6.14763 22.0243 6.09902 22.241C6.05293 22.4569 5.9469 22.7015 5.7688 22.9364C5.68372 23.0565 5.57434 23.1691 5.46036 23.2842C5.43018 23.3117 5.39959 23.3391 5.369 23.3669L5.3229 23.4086L5.31704 23.4141L5.3141 23.4167L5.30278 23.4251C5.2898 23.4348 5.27806 23.4466 5.26591 23.4576C5.17203 23.5495 5.11797 23.6845 5.1272 23.8211C5.12971 23.8548 5.13474 23.8885 5.1448 23.921C5.1536 23.9513 5.16031 23.9678 5.16827 23.9918C5.18293 24.0365 5.1997 24.0795 5.21646 24.123C5.25041 24.209 5.2877 24.2921 5.3271 24.3722C5.40672 24.5324 5.49724 24.6791 5.59195 24.8124C5.78095 25.0789 5.98881 25.2872 6.17487 25.4436C6.54952 25.7565 6.82904 25.8725 6.84874 25.8408C6.87556 25.8012 6.64214 25.6208 6.32448 25.2838ZM12.3256 5.95221C12.2606 5.82529 12.1877 5.68192 12.1072 5.52421C11.9384 5.21049 11.7091 4.8508 11.4208 4.47551C11.1237 4.10823 10.7767 3.71481 10.3513 3.36988C9.93056 3.02032 9.49306 2.73358 9.07398 2.51473C8.6524 2.30052 8.25598 2.14534 7.91609 2.04077C7.23429 1.83415 6.79258 1.80927 6.78672 1.84469C6.77708 1.89318 7.19994 1.99438 7.84448 2.24781C8.1663 2.376 8.54054 2.54678 8.93946 2.76689C9.33594 2.9908 9.75036 3.2729 10.1544 3.60855C10.5625 3.93956 10.9016 4.31148 11.2004 4.65599C11.4908 5.00851 11.7313 5.34501 11.9199 5.63722C12.0134 5.78312 12.098 5.91595 12.1731 6.03401C12.2417 6.15461 12.3013 6.25835 12.3528 6.34181C12.455 6.51011 12.5213 6.59945 12.5406 6.59063C12.5598 6.58175 12.5309 6.47549 12.4605 6.28913C12.4253 6.19595 12.3804 6.08291 12.3256 5.95221ZM21.0351 10.3064C20.5012 9.39773 20.0553 8.91785 20.0264 8.94227C19.9887 8.97095 20.3684 9.49343 20.844 10.4127C21.0795 10.8731 21.3343 11.4302 21.5053 12.0854C21.6738 12.7382 21.7668 13.4837 21.6918 14.2575C21.6205 15.0308 21.3981 15.7485 21.1026 16.3524C20.8092 16.9596 20.44 17.4504 20.0935 17.8236C19.3903 18.5729 18.7822 18.8271 18.8086 18.8752C18.8157 18.8917 18.9745 18.8504 19.2386 18.7167C19.5013 18.583 19.8625 18.3447 20.2481 17.9783C20.629 17.6102 21.0338 17.111 21.3561 16.4814C21.6805 15.8556 21.924 15.1013 21.999 14.2862C22.0778 13.4706 21.9705 12.6863 21.7794 12.0091C21.5858 11.3306 21.2983 10.7597 21.0351 10.3064Z" fill="#97D700"/>
<path d="M11.9633 14.4323C11.3904 14.3074 10.7576 14.3361 10.1625 14.5086L10.6252 15.4818C10.634 15.5008 10.6395 15.5202 10.6432 15.54C10.644 15.5446 10.6445 15.5497 10.6453 15.5543C10.6474 15.5741 10.6483 15.594 10.6457 15.6138V15.6146L10.6453 15.6155L10.5904 16.0156C10.59 16.0186 10.5884 16.0216 10.5879 16.0249C10.5812 16.1029 10.5364 16.1759 10.4622 16.2134C10.261 16.315 10.1194 16.4799 10.0523 16.6836C9.98484 16.8872 10.0008 17.1053 10.0964 17.2971L10.6365 18.5259C10.665 18.5229 10.6931 18.5195 10.7191 18.5158C11.0011 18.4753 11.2622 18.6166 11.3846 18.8742C11.5061 19.1302 11.4512 19.4211 11.2446 19.6155C11.214 19.6442 11.1821 19.6703 11.1516 19.6977L11.2987 20.0325C11.4504 20.3576 11.3175 20.7443 10.9936 20.9079C10.8997 20.9551 10.7987 20.9792 10.6969 20.9792C10.624 20.9792 10.5506 20.9669 10.4794 20.942C10.3092 20.8826 10.173 20.7599 10.0964 20.5958L10.0218 20.4255C9.73094 20.5546 9.43464 20.649 9.14001 20.716C11.742 24.7076 11.5321 27.2528 8.62666 28.6849C8.62666 28.6849 12.8107 29.2402 13.9455 25.9208C15.0594 22.6625 11.4018 20.3348 13.5612 17.5033C13.5595 17.5021 13.557 17.5012 13.5553 17.5C13.3412 17.3447 13.2 17.1326 13.1388 16.9467C13.104 16.8544 13.0957 16.7658 13.0868 16.6916C13.0881 16.6161 13.0898 16.5524 13.1019 16.501C13.1292 16.3985 13.1656 16.3466 13.2079 16.345C13.3014 16.3382 13.3588 16.5457 13.5273 16.7468C13.6094 16.8472 13.7171 16.9429 13.8612 17.018C14.0071 17.0897 14.1865 17.1466 14.3897 17.1668C14.6328 17.1955 14.8829 17.1575 15.1445 17.0812C15.1709 17.0736 15.1977 17.0639 15.2245 17.0555C14.1756 15.5619 13.7603 14.8244 11.9633 14.4323ZM8.9062 17.8853C8.54956 17.171 8.19291 17.3511 8.07598 17.4101L8.05296 17.422C7.97586 17.4607 7.88743 17.4518 7.82035 17.4068C7.81951 17.583 7.83376 17.7668 7.8631 17.957C8.18749 18.178 8.66059 18.3307 9.14293 18.4243L8.9062 17.8853Z" fill="white"/>
<path d="M48.5735 26.2654C48.5718 26.2638 48.0794 25.7687 48.0782 25.767C47.6054 25.2585 46.9094 25.0557 46.4371 24.8693C46.4815 24.7259 46.6345 24.642 46.8494 24.6627C46.8905 24.6627 46.9337 24.666 46.9764 24.6698C47.2706 24.7048 47.6033 24.8115 47.9327 24.9806C48.04 25.0367 48.1469 25.0978 48.2516 25.1657C48.3129 25.2024 48.3857 25.1902 48.4101 25.1164L49.0323 23.6688C49.0513 23.6211 49.0328 23.5735 48.9951 23.5313C48.9934 23.5296 48.501 23.0346 48.4993 23.0329C48.4876 23.019 48.4742 23.0059 48.4587 22.9932C47.812 22.5762 46.8612 22.2937 46.0687 22.2937C44.41 22.2937 43.3007 23.1775 43.3007 24.4902C43.3007 25.1421 43.514 25.5942 43.8204 25.9213C43.8221 25.923 44.314 26.4181 44.3158 26.4198C44.7868 26.9271 45.4803 27.1353 45.9526 27.3213C45.904 27.4575 45.7536 27.5532 45.544 27.533C45.5034 27.533 45.4606 27.5292 45.4179 27.525C45.1262 27.4875 44.7969 27.3723 44.4695 27.21C44.3597 27.1539 44.2499 27.094 44.1418 27.0299C44.0811 26.9932 44.0077 27.0055 43.9834 27.0793L43.3615 28.5024C43.3372 28.5758 43.3737 28.6374 43.4349 28.6985C43.4349 28.6985 43.934 29.2007 43.9352 29.202C44.6179 29.6194 45.6056 29.9015 46.3985 29.9015C48.0199 29.9015 49.0931 29.0181 49.0931 27.7054C49.0931 27.0464 48.8794 26.5927 48.5735 26.2654ZM40.1057 25.7598C40.1045 25.7586 39.9993 25.6527 39.9976 25.651C39.706 25.3407 39.149 25.1442 38.5355 25.1409C38.8921 24.9975 39.3107 24.9081 39.6674 24.9081C39.8107 24.9081 39.9419 24.9304 40.058 24.9726C40.0886 25.065 40.1057 25.1661 40.1057 25.2753V25.7598ZM40.1057 27.2754C39.8983 27.4841 39.6913 27.5819 39.4353 27.5819C39.4332 27.5819 39.4314 27.5819 39.4298 27.5819C39.4595 27.3487 39.6552 27.2024 39.9356 27.2024C39.9947 27.2024 40.0513 27.2083 40.1057 27.2188V27.2754ZM42.1638 23.4558C42.1621 23.4546 41.6701 22.9591 41.6684 22.9574C41.166 22.5096 40.4586 22.2937 39.5325 22.2937C38.5573 22.2937 37.5817 22.5517 36.8864 22.9932C36.8135 23.0548 36.7892 23.1404 36.8257 23.2264L37.5205 24.6989C37.5339 24.7221 37.5494 24.7423 37.5653 24.7596C37.567 24.7613 37.9877 25.1847 37.9877 25.1847C36.9095 25.3651 36.2142 26.1006 36.2038 27.1404C36.1979 27.8164 36.4271 28.381 36.8337 28.7769C36.8353 28.7786 37.3277 29.2741 37.3294 29.2753C37.7346 29.673 38.318 29.9015 39.0212 29.9015C39.8036 29.9015 40.5198 29.6928 40.9552 29.3504C40.9565 29.3517 41.2594 29.6569 41.2611 29.6582C41.298 29.6941 41.3483 29.7177 41.3986 29.7177H42.9353C43.0329 29.7177 43.118 29.6317 43.118 29.5334V26.3557C43.118 24.9823 42.8096 24.028 42.1638 23.4558ZM35.4968 27.5089C35.4843 27.4832 35.4688 27.4621 35.4516 27.4453C35.4498 27.4436 34.9579 26.9481 34.9562 26.9469C34.9072 26.8959 34.8422 26.8849 34.7769 26.9317C34.4722 27.1527 34.0087 27.2998 33.6064 27.2998C33.3017 27.2998 33.0335 27.2311 32.8114 27.1071C32.6957 26.8946 32.6316 26.6412 32.6316 26.3557C32.6316 25.4845 33.2167 24.9081 34.1068 24.9081C34.5095 24.9081 34.9726 25.0552 35.2776 25.2757C35.3631 25.3374 35.4482 25.3006 35.4968 25.2024L36.2042 23.7055C36.2411 23.6443 36.2042 23.5583 36.1313 23.4967C36.1313 23.4967 35.6322 22.9945 35.6305 22.9932C34.9722 22.5762 34.0699 22.2937 33.3746 22.2937C31.9347 22.2937 30.8116 22.9 30.2048 23.9142V23.1412C30.2048 23.0907 30.1851 23.0472 30.1528 23.0164C30.1516 23.0148 29.6592 22.5193 29.6575 22.518C29.6269 22.4856 29.5837 22.4658 29.5335 22.4658H29.2166C28.6765 22.4658 28.1727 22.6648 27.8073 22.9945C27.8073 22.9945 27.3526 22.537 27.3509 22.5353C27.3186 22.5003 27.2789 22.4779 27.2289 22.4779H25.8511C25.7534 22.4779 25.6683 22.564 25.6683 22.6496V29.0299C25.6683 29.0801 25.691 29.1269 25.7257 29.161C25.7274 29.1628 26.2198 29.6578 26.2215 29.6595C26.255 29.6949 26.3016 29.7177 26.3519 29.7177H28.4979C28.5951 29.7177 28.6806 29.6317 28.6806 29.5334V25.4233C28.839 25.1164 29.2535 24.9081 29.717 24.9081H29.8083C29.74 25.2037 29.7044 25.5191 29.7044 25.8522C29.7044 26.9199 30.0707 27.8096 30.7127 28.4324C30.7144 28.4341 31.2068 28.9296 31.2085 28.9312C31.8501 29.5562 32.7695 29.9137 33.8754 29.9137C34.5702 29.9137 35.4725 29.6317 36.1313 29.2146C36.2042 29.1531 36.2411 29.0674 36.2042 29.0059L35.4968 27.5089ZM20.5712 26.9317C20.2485 26.9317 19.9615 26.8491 19.7188 26.6994C19.516 26.3772 19.4011 25.9635 19.4011 25.4845C19.4011 24.319 20.0717 23.5338 21.0715 23.5338C21.3938 23.5338 21.6813 23.6165 21.9239 23.7662C22.1268 24.0883 22.2416 24.502 22.2416 24.981C22.2416 26.1465 21.5711 26.9317 20.5712 26.9317ZM23.7113 21.7696C22.9536 20.9941 21.8707 20.5518 20.5712 20.5518C17.9738 20.5518 16.2422 22.3186 16.2422 24.981C16.2422 26.3017 16.6764 27.4039 17.4357 28.1756C17.4374 28.1773 17.9298 28.6723 17.9314 28.674C18.6891 29.4465 19.772 29.8893 21.0715 29.8893C23.6689 29.8893 25.4002 28.1225 25.4002 25.4845C25.4002 24.1516 24.966 23.043 24.2066 22.2684C24.205 22.2667 23.7125 21.7713 23.7113 21.7696Z" fill="#97D700"/>
<path d="M45.922 24.4506C45.922 24.2541 46.0926 24.1318 46.3487 24.1563C46.7635 24.1563 47.2756 24.3528 47.7508 24.6593C47.812 24.696 47.885 24.6838 47.9097 24.61L48.5316 23.1624C48.5559 23.1008 48.5194 23.0397 48.4582 22.9908C47.812 22.5733 46.8608 22.2912 46.0683 22.2912C44.41 22.2912 43.3003 23.1746 43.3003 24.4873C43.3003 26.7942 45.9707 26.5977 45.9707 27.2235C45.9707 27.4074 45.8001 27.555 45.544 27.5301C45.1296 27.5301 44.6171 27.3095 44.1418 27.027C44.0806 26.9903 44.0077 27.0025 43.983 27.0763L43.3615 28.4995C43.3368 28.5733 43.3737 28.6344 43.4344 28.696C44.1171 29.113 45.1048 29.3951 45.8977 29.3951C47.5191 29.3951 48.5923 28.5117 48.5923 27.199C48.5923 24.8676 45.922 25.1008 45.922 24.4506ZM40.1057 27.2728C39.8983 27.4812 39.6909 27.5794 39.4348 27.5794C39.1301 27.5794 38.9227 27.4074 38.9227 27.1375C38.9227 26.8676 39.1301 26.696 39.4348 26.696C39.6909 26.696 39.8983 26.7942 40.1057 27.0025V27.2728ZM39.5325 22.2912C38.5569 22.2912 37.5812 22.5488 36.8864 22.9908C36.8131 23.0519 36.7888 23.1379 36.8253 23.2235L37.5205 24.696C37.5691 24.782 37.6424 24.8309 37.7032 24.7942C38.1059 24.5611 38.691 24.4017 39.1666 24.4017C39.7273 24.4017 40.1057 24.7453 40.1057 25.2729V25.7881C39.8614 25.3956 39.2274 25.1379 38.5204 25.1379C37.1425 25.1379 36.2155 25.9353 36.2038 27.1375C36.1912 28.4872 37.1182 29.3951 38.5204 29.3951C39.4105 29.3951 40.2151 29.1252 40.6174 28.696L40.7029 29.027C40.7029 29.1252 40.8006 29.2113 40.8982 29.2113H42.4345C42.5322 29.2113 42.6172 29.1252 42.6172 29.027V25.8493C42.6172 23.4078 41.6421 22.2912 39.5325 22.2912ZM33.606 24.4017C34.0087 24.4017 34.4722 24.5488 34.7769 24.7698C34.8623 24.8309 34.9474 24.7942 34.9964 24.696L35.7034 23.199C35.7403 23.1379 35.7034 23.0519 35.6305 22.9908C34.9717 22.5733 34.0695 22.2912 33.3746 22.2912C31.1674 22.2912 29.704 23.7144 29.704 25.8493C29.704 27.9842 31.1674 29.4073 33.3746 29.4073C34.0695 29.4073 34.9717 29.1252 35.6305 28.7082C35.7034 28.6467 35.7403 28.561 35.7034 28.4995L34.9964 27.0025C34.9474 26.9047 34.8623 26.8676 34.7769 26.9292C34.4722 27.1497 34.0087 27.2973 33.606 27.2973C32.7162 27.2973 32.1309 26.7204 32.1309 25.8493C32.1309 24.9781 32.7162 24.4017 33.606 24.4017ZM29.5335 22.4632H29.2162C28.57 22.4632 27.9724 22.7453 27.6069 23.199L27.4238 22.6593C27.3874 22.561 27.3262 22.4755 27.2289 22.4755H25.8511C25.7534 22.4755 25.6679 22.561 25.6679 22.6471V29.027C25.6679 29.1252 25.7534 29.2113 25.8511 29.2113H27.9971C28.0944 29.2113 28.1799 29.1252 28.1799 29.027V24.9169C28.3382 24.61 28.7531 24.4017 29.2162 24.4017H29.5335C29.6311 24.4017 29.704 24.3279 29.704 24.2301V22.6348C29.704 22.5366 29.6311 22.4632 29.5335 22.4632ZM20.5708 26.9292C19.5709 26.9292 18.9004 26.1436 18.9004 24.9781C18.9004 23.8126 19.5709 23.0274 20.5708 23.0274C21.5707 23.0274 22.2412 23.8126 22.2412 24.9781C22.2412 26.1436 21.5707 26.9292 20.5708 26.9292ZM20.5708 20.5488C17.9734 20.5488 16.2422 22.3156 16.2422 24.9781C16.2422 27.6161 17.9734 29.3829 20.5708 29.3829C23.1682 29.3829 24.8998 27.6161 24.8998 24.9781C24.8998 22.3156 23.1682 20.5488 20.5708 20.5488Z" fill="white"/>
<path d="M24.8953 20.2782C24.9112 20.2243 24.9489 20.2083 24.9916 20.2353C25.2377 20.3753 25.5323 20.4777 25.7355 20.4938C25.9065 20.4938 26.0188 20.4128 26.0188 20.2892C26.0188 19.9713 24.5156 19.9877 24.5156 18.8138C24.5156 18.0923 25.0558 17.6133 25.8692 17.6133C26.2493 17.6133 26.7304 17.7693 27.0677 18.0008C27.1105 18.0278 27.1264 18.0708 27.1105 18.0978L26.7736 18.8568C26.7572 18.9108 26.7199 18.9268 26.6771 18.8998C26.4148 18.7493 26.1098 18.6363 25.9224 18.6198C25.7569 18.6198 25.6496 18.6953 25.6496 18.8138C25.6496 19.1313 27.1641 19.1098 27.1641 20.2943C27.1641 21.0107 26.613 21.4898 25.7887 21.4898C25.3395 21.4898 24.8685 21.3497 24.6011 21.1343C24.5583 21.1018 24.542 21.0642 24.5583 21.0373L24.8953 20.2782Z" fill="#97D700"/>
<path d="M30.4563 20.4388C30.4991 20.4388 30.5364 20.4714 30.5364 20.5089V21.3324C30.5364 21.3703 30.4991 21.4079 30.4563 21.4079H27.9683C27.9306 21.4079 27.8933 21.3649 27.8828 21.3273V17.7684C27.8828 17.7199 27.9092 17.6934 27.9574 17.6934H30.3922C30.4404 17.6934 30.4777 17.7309 30.4777 17.7684V18.5814C30.4777 18.6299 30.4404 18.6624 30.3922 18.6624H28.9954V19.0874H30.1298C30.1781 19.0874 30.2048 19.1254 30.1994 19.1574L30.1244 19.9114C30.119 19.9434 30.0817 19.9813 30.0335 19.9813H28.9954V20.4388H30.4563Z" fill="#97D700"/>
<path d="M32.8653 18.9799L32.5766 20.0029H33.1545L32.8653 18.9799ZM34.7487 21.3379C34.765 21.3703 34.7436 21.4079 34.7004 21.4079H33.6411C33.5933 21.4079 33.5501 21.3813 33.5287 21.3379L33.3682 20.7729H32.3625L32.202 21.3379C32.1806 21.3813 32.1378 21.4079 32.0893 21.4079H31.0302C30.9871 21.4079 30.9657 21.3703 30.982 21.3379L32.191 17.7629C32.2074 17.7309 32.2661 17.6934 32.3197 17.6934H33.411C33.4646 17.6934 33.5233 17.7309 33.5396 17.7629L34.7487 21.3379Z" fill="#97D700"/>
<path d="M37.5708 17.6924C37.619 17.6924 37.6513 17.7299 37.6458 17.7679L37.5653 18.5859C37.5599 18.6293 37.5172 18.6614 37.4798 18.6614H36.6828V21.3319C36.6828 21.3694 36.6505 21.4073 36.6077 21.4073H35.6606C35.6179 21.4073 35.5806 21.3694 35.5806 21.3319V18.6614H34.6922C34.6549 18.6614 34.6172 18.6293 34.6172 18.5859V17.7729C34.6172 17.7299 34.6549 17.6924 34.6922 17.6924H37.5708Z" fill="#97D700"/>
<path d="M41.0239 17.6924C41.0721 17.6924 41.1044 17.7299 41.099 17.7679L41.0185 18.5859C41.013 18.6293 40.9703 18.6614 40.933 18.6614H40.1359V21.3319C40.1359 21.3694 40.1037 21.4073 40.0609 21.4073H39.1138C39.0711 21.4073 39.0338 21.3694 39.0338 21.3319V18.6614H38.1453C38.1081 18.6614 38.0703 18.6293 38.0703 18.5859V17.7729C38.0703 17.7299 38.1081 17.6924 38.1453 17.6924H41.0239Z" fill="#97D700"/>
<path d="M43.8138 20.4388C43.8515 20.4388 43.8834 20.4714 43.8834 20.5143L43.8083 21.3324C43.8033 21.3703 43.7656 21.4079 43.7229 21.4079H41.7914C41.7486 21.4079 41.7109 21.3703 41.7109 21.3324V17.7739C41.7109 17.7309 41.7486 17.6934 41.7914 17.6934H42.7385C42.7812 17.6934 42.8185 17.7309 42.8185 17.7739V20.4388H43.8138Z" fill="#97D700"/>
<path d="M47.1047 20.4388C47.1475 20.4388 47.1848 20.4714 47.1848 20.5089V21.3324C47.1848 21.3703 47.1475 21.4079 47.1047 21.4079H44.6168C44.579 21.4079 44.5417 21.3649 44.5312 21.3273V17.7684C44.5312 17.7199 44.5577 17.6934 44.6058 17.6934H47.0406C47.0888 17.6934 47.1262 17.7309 47.1262 17.7684V18.5814C47.1262 18.6299 47.0888 18.6624 47.0406 18.6624H45.6439V19.0874H46.7783C46.8265 19.0874 46.8533 19.1254 46.8479 19.1574L46.7728 19.9114C46.7674 19.9434 46.7301 19.9813 46.6819 19.9813H45.6439V20.4388H47.1047Z" fill="#97D700"/>
</g>
<defs>
<clipPath id="clip0_9643_87922">
<rect width="48.3" height="30" fill="white" transform="translate(0.90625)"/>
</clipPath>
</defs>
</svg>
