<svg width="51" height="50" viewBox="0 0 51 50" fill="none" xmlns="http://www.w3.org/2000/svg">
<g id="Button container">
<g id="Button">
<path id="Vector" d="M26.0446 15.0703C25.2246 15.0703 24.5574 15.7375 24.5574 16.5576C24.6322 18.528 27.4574 18.5274 27.5319 16.5576C27.5319 15.7374 26.8647 15.0703 26.0446 15.0703Z" fill="#4AB3FF"/>
<path id="Vector_2" d="M46.1569 12.6033L26.6315 2.84056C26.2649 2.65731 25.8335 2.65731 25.4669 2.84056L5.94147 12.6033C5.50033 12.8238 5.22168 13.2747 5.22168 13.7679V21.9653C5.22168 31.1563 10.2901 40.4176 19.1685 45.0274V28.2541L16.7128 25.7984C14.0649 27.1674 10.7604 25.1305 10.8005 22.1359C10.8005 19.88 12.6359 18.0446 14.8919 18.0446C17.8863 18.0049 19.9236 21.309 18.5542 23.957L21.3913 26.7941C21.6355 27.0382 21.7727 27.3695 21.7727 27.7148V46.2008C22.7278 46.5688 23.72 46.8854 24.7473 47.1476V20.4351C20.4172 18.9069 21.4014 12.5571 26.0494 12.4659C30.6981 12.5575 31.6809 18.9077 27.3514 20.4351V47.1475C28.3756 46.8854 29.3679 46.5673 30.326 46.1963V27.7148C30.326 27.3694 30.4632 27.0382 30.7074 26.7941L33.5445 23.957C32.1755 21.3091 34.2123 18.0046 37.2069 18.0447C39.4629 18.0447 41.2983 19.88 41.2983 22.136C41.3381 25.1303 38.0339 27.1678 35.3859 25.7984L32.9303 28.2542V45.0185C41.6016 40.5004 46.877 31.4487 46.877 21.9654V13.768C46.8767 13.2748 46.598 12.8238 46.1569 12.6033Z" fill="#4AB3FF"/>
<path id="Vector_3" d="M13.4033 22.1357C13.4033 22.9557 14.0705 23.623 14.8906 23.623C16.8609 23.5482 16.8604 20.7229 14.8906 20.6484C14.0706 20.6484 13.4033 21.3156 13.4033 22.1357Z" fill="#4AB3FF"/>
<path id="Vector_4" d="M38.6894 22.1357C38.6894 21.3156 38.0222 20.6484 37.2022 20.6484C35.2318 20.7232 35.2324 23.5484 37.2022 23.623C38.0221 23.623 38.6894 22.9557 38.6894 22.1357Z" fill="#4AB3FF"/>
</g>
</g>
</svg>
