<svg width="33" height="32" viewBox="0 0 33 32" fill="none" xmlns="http://www.w3.org/2000/svg">
<g clip-path="url(#clip0_1_11543)">
<path d="M16.2975 8.91264V12.2187C16.5272 12.1758 16.7637 12.1523 17.0056 12.1523C17.2439 12.1523 17.4767 12.1752 17.7031 12.2168V8.91161C18.7432 8.60636 19.5051 7.64406 19.5051 6.50655C19.5051 5.12444 18.3806 4 16.9985 4C15.6163 4 14.4919 5.12444 14.4919 6.50655C14.4919 7.64537 15.2556 8.60856 16.2975 8.91264Z" fill="#0094FF"/>
<path d="M17.0056 13.5579C15.6583 13.5579 14.5622 14.654 14.5622 16.0014C14.5622 17.3488 15.6583 18.445 17.0056 18.445C18.3531 18.445 19.4493 17.3488 19.4493 16.0014C19.4493 14.654 18.3531 13.5579 17.0056 13.5579Z" fill="#0094FF"/>
<path d="M19.1792 12.8268C19.5684 13.0941 19.906 13.431 20.1743 13.8194L25.2515 8.74223C25.6253 8.94675 26.0402 9.04964 26.4555 9.04964C27.0973 9.04964 27.7392 8.80528 28.2278 8.3167C29.2051 7.3394 29.2051 5.74912 28.2278 4.77183C27.2505 3.79448 25.6602 3.79448 24.6829 4.77183C23.8781 5.57662 23.7368 6.79683 24.2575 7.74839L19.1792 12.8268Z" fill="#0094FF"/>
<path d="M7.50538 9.01375C7.92064 9.01375 8.33567 8.91081 8.70946 8.7063L13.8311 13.828C14.0984 13.4388 14.4353 13.1012 14.8237 12.8328L9.70414 7.7132C9.90486 7.34814 10.012 6.93653 10.012 6.50833C10.012 5.83877 9.7513 5.20933 9.27791 4.73594C8.30061 3.75859 6.71033 3.75859 5.73303 4.73594C4.75574 5.71323 4.75574 7.30352 5.73303 8.28081C6.22166 8.76944 6.86352 9.01375 7.50538 9.01375Z" fill="#0094FF"/>
<path d="M24.0878 16.7042C24.3925 17.7453 25.3553 18.5081 26.4935 18.5081C27.8756 18.5081 29 17.3836 29 16.0015C29 14.6193 27.8756 13.4949 26.4935 13.4949C25.3553 13.4949 24.3925 14.2577 24.0878 15.2987H20.7895C20.8318 15.5268 20.8549 15.7614 20.8549 16.0015C20.8549 16.2416 20.8317 16.4763 20.7895 16.7043H24.0878V16.7042Z" fill="#0094FF"/>
<path d="M11.7148 15.2987C11.4102 14.2577 10.4474 13.4949 9.30922 13.4949C7.92711 13.4949 6.80267 14.6193 6.80267 16.0015C6.80267 17.3836 7.92711 18.5081 9.30922 18.5081C10.4474 18.5081 11.4102 17.7453 11.7148 16.7042H13.2221C13.1798 16.4762 13.1566 16.2415 13.1566 16.0014C13.1566 15.7613 13.1798 15.5267 13.2221 15.2986H11.7148V15.2987Z" fill="#0094FF"/>
<path d="M17.7031 21.1509V19.7861C17.4767 19.8277 17.2439 19.8506 17.0056 19.8506C16.7637 19.8506 16.5272 19.8271 16.2975 19.7842V21.1509C15.2564 21.4556 14.4937 22.4184 14.4937 23.5565C14.4937 24.9386 15.6181 26.0631 17.0002 26.0631C18.3824 26.0631 19.5068 24.9386 19.5068 23.5565C19.5069 22.4184 18.7441 21.4556 17.7031 21.1509Z" fill="#0094FF"/>
<path d="M26.4916 22.988C26.0634 22.988 25.6518 23.0951 25.2868 23.2959L20.1743 18.1833C19.906 18.5718 19.5684 18.9087 19.1792 19.176L24.2937 24.2905C23.773 25.242 23.9144 26.4621 24.7192 27.2669C25.2079 27.7557 25.8497 28 26.4916 28C27.1334 28 27.7754 27.7556 28.264 27.267C28.7375 26.7935 28.9982 26.1641 28.9982 25.4945C28.9982 24.825 28.7374 24.1955 28.264 23.7221C27.7907 23.2487 27.1612 22.9879 26.4916 22.988Z" fill="#0094FF"/>
<path d="M14.8238 19.1702C14.4353 18.9018 14.0984 18.5643 13.8311 18.175L8.71129 23.2949C7.75977 22.7742 6.53957 22.9156 5.73486 23.7204C4.75757 24.6977 4.75757 26.2879 5.73486 27.2652C6.22354 27.7539 6.8654 27.9983 7.5073 27.9983C8.14921 27.9983 8.79107 27.754 9.27974 27.2652C10.0845 26.4605 10.2259 25.2403 9.70518 24.2888L14.8238 19.1702Z" fill="#0094FF"/>
</g>
<defs>
<clipPath id="clip0_1_11543">
<rect width="24" height="24" fill="white" transform="translate(5 4)"/>
</clipPath>
</defs>
</svg>
