<svg width="51" height="51" viewBox="0 0 51 51" fill="none" xmlns="http://www.w3.org/2000/svg">
<g clip-path="url(#clip0_7075_105590)">
<path d="M38.9385 36.0273L41.1973 38.8184L38.9385 41.6103L36.6797 38.8184L38.9385 36.0273Z" fill="#0094FF"/>
<path d="M38.9463 27.4258C32.665 27.4258 27.5547 32.5361 27.5547 38.8174C27.5547 45.0986 32.665 50.21 38.9463 50.21C45.2275 50.21 50.3389 45.0986 50.3389 38.8174C50.3389 32.5361 45.2275 27.4258 38.9463 27.4258ZM44.2285 39.7393L40.085 44.8594C39.8076 45.2031 39.3887 45.4023 38.9463 45.4023C38.5049 45.4023 38.0859 45.2031 37.8076 44.8594L33.665 39.7393C33.2295 39.2021 33.2295 38.4336 33.665 37.8965L37.8076 32.7764C38.0859 32.4326 38.5049 32.2334 38.9463 32.2334C39.3887 32.2334 39.8076 32.4326 40.085 32.7764L44.2285 37.8965C44.6631 38.4336 44.6631 39.2021 44.2285 39.7393Z" fill="#0094FF"/>
<path d="M10.252 10.123H1.63281L10.252 1.50391V10.123Z" fill="#0094FF"/>
<path d="M10.6836 31.6562C11.4926 31.6562 12.1484 31.0004 12.1484 30.1914C12.1484 29.3824 11.4926 28.7266 10.6836 28.7266C9.87458 28.7266 9.21875 29.3824 9.21875 30.1914C9.21875 31.0004 9.87458 31.6562 10.6836 31.6562Z" fill="#0094FF"/>
<path d="M19.8711 23.7461C20.6801 23.7461 21.3359 23.0903 21.3359 22.2812C21.3359 21.4722 20.6801 20.8164 19.8711 20.8164C19.0621 20.8164 18.4062 21.4722 18.4062 22.2812C18.4062 23.0903 19.0621 23.7461 19.8711 23.7461Z" fill="#0094FF"/>
<path d="M37.8848 24.5361V1.67578C37.8848 0.867188 37.2285 0.210938 36.4199 0.210938H13.1797V11.5898C13.1797 12.3984 12.5234 13.0547 11.7148 13.0547H0.335938V48.7461C0.335938 49.5547 0.992188 50.2109 1.80078 50.2109H18.3779V44.917L9.93359 39.8457C9.49219 39.5811 9.22266 39.1045 9.22266 38.5898V34.334C7.51758 33.7295 6.29297 32.1006 6.29297 30.1914C6.29297 27.7686 8.26465 25.7969 10.6875 25.7969C13.1104 25.7969 15.082 27.7686 15.082 30.1914C15.082 32.1006 13.8574 33.7295 12.1523 34.334V37.7607L18.3779 41.5V26.415C16.6855 25.8037 15.4727 24.1816 15.4727 22.2812C15.4727 19.8584 17.4443 17.8867 19.8672 17.8867C22.29 17.8867 24.2617 19.8584 24.2617 22.2812C24.2617 24.2002 23.0254 25.834 21.3076 26.4316V50.2109H30.2734C26.8408 47.5918 24.6221 43.459 24.6221 38.8184C24.6221 31.2783 30.4805 25.0791 37.8848 24.5361ZM18.793 5.38672H32.8555C33.6641 5.38672 34.3203 6.04297 34.3203 6.85156C34.3203 7.66016 33.6641 8.31641 32.8555 8.31641H18.793C17.9844 8.31641 17.3281 7.66016 17.3281 6.85156C17.3281 6.04297 17.9844 5.38672 18.793 5.38672ZM18.793 14.1758C17.9844 14.1758 17.3281 13.5195 17.3281 12.7109C17.3281 11.9023 17.9844 11.2461 18.793 11.2461H32.8555C33.6641 11.2461 34.3203 11.9023 34.3203 12.7109C34.3203 13.5195 33.6641 14.1758 32.8555 14.1758H18.793Z" fill="#0094FF"/>
</g>
<defs>
<clipPath id="clip0_7075_105590">
<rect width="50" height="50" fill="white" transform="translate(0.335938 0.210938)"/>
</clipPath>
</defs>
</svg>
