<svg width="50" height="51" viewBox="0 0 50 51" fill="none" xmlns="http://www.w3.org/2000/svg">
<g clip-path="url(#clip0_7075_105680)">
<path d="M26.6273 23.9638C24.9386 22.9895 22.993 23.7605 22.1882 25.1509C21.2931 26.7059 21.8264 28.6993 23.3766 29.5945C26.6816 31.5023 32.6505 32.7611 36.5036 33.4182C34.0075 30.4103 29.9323 25.8714 26.6273 23.9638Z" fill="#0094FF"/>
<path d="M37.5958 25.3062H50.0033C49.5336 17.1733 45.1825 10.0824 38.7746 5.85547L32.5703 16.6024C35.3023 18.6381 37.1857 21.7473 37.5958 25.3062Z" fill="#0094FF"/>
<path d="M17.433 16.6024L11.2287 5.85547C4.8208 10.0824 0.469754 17.1733 0 25.3062H12.4076C12.8177 21.7473 14.7011 18.6381 17.433 16.6024Z" fill="#0094FF"/>
<path d="M30.0281 15.1327L36.2327 4.3853C29.5709 0.876725 20.4313 0.876823 13.7695 4.3853L19.9742 15.1327C23.0187 13.7603 26.9835 13.7603 30.0281 15.1327Z" fill="#0094FF"/>
<path d="M18.6518 37.7537C15.2685 35.7927 12.8768 32.3123 12.4077 28.2461H0C0.500177 36.8952 5.38945 44.3661 12.4742 48.4664C13.1767 48.873 14.0762 48.6332 14.4819 47.9303L19.1977 39.7627C19.6048 39.0575 19.3563 38.162 18.6518 37.7537Z" fill="#0094FF"/>
<path d="M37.3101 29.8311C39.4757 32.3162 41.0129 34.3616 41.149 34.5436C41.5005 35.0136 41.5381 35.6479 41.2446 36.1562C40.9513 36.6647 40.3832 36.9493 39.8004 36.8801C39.5746 36.8533 37.0311 36.5448 33.7927 35.9115C33.058 36.6186 32.2393 37.239 31.3514 37.7537C30.6468 38.162 30.3983 39.0575 30.8054 39.7627L35.5212 47.9303C35.927 48.6332 36.8264 48.873 37.5289 48.4664C44.6137 44.3661 49.5029 36.8952 50.0031 28.2461H37.5956C37.5331 28.7854 37.4378 29.3146 37.3101 29.8311Z" fill="#0094FF"/>
</g>
<defs>
<clipPath id="clip0_7075_105680">
<rect width="50" height="50" fill="white" transform="translate(0 0.210938)"/>
</clipPath>
</defs>
</svg>
