<svg width="48" height="48" viewBox="0 0 48 48" fill="none" xmlns="http://www.w3.org/2000/svg">
<path d="M32.5429 0H26.7617C19.7939 0 14.125 5.66878 14.125 12.6368V14.1328H17.0763C17.7257 10.902 20.5848 8.46094 24.0039 8.46094C27.9003 8.46094 31.0703 11.6309 31.0703 15.5273V29.6484C31.0703 33.5384 34.235 36.7031 38.125 36.7031C42.015 36.7031 45.1797 33.5384 45.1797 29.6484V12.6368C45.1797 5.66878 39.5108 0 32.5429 0ZM42.3672 29.6484C42.3672 31.9876 40.4642 33.8906 38.125 33.8906C35.7858 33.8906 33.8828 31.9876 33.8828 29.6484V15.5273C33.8828 10.0801 29.4512 5.64844 24.0039 5.64844C21.9671 5.64844 20.0724 6.26794 18.4982 7.32853C20.2482 4.61381 23.2987 2.8125 26.7617 2.8125H32.5429C37.96 2.8125 42.3672 7.21959 42.3672 12.6368V29.6484Z" fill="#4AB3FF"/>
<path d="M15.5339 31.0625C13.6875 31.0625 12.1127 32.2483 11.5312 33.8984H19.5367C18.9551 32.2483 17.3803 31.0625 15.5339 31.0625Z" fill="#4AB3FF"/>
<path d="M15.5273 28.2422C16.3105 28.2422 16.9453 27.6073 16.9453 26.8242C16.9453 26.0411 16.3105 25.4062 15.5273 25.4062C14.7442 25.4062 14.1094 26.0411 14.1094 26.8242C14.1094 27.6073 14.7442 28.2422 15.5273 28.2422Z" fill="#4AB3FF"/>
<path d="M7.40238 16.9375C4.88013 16.9375 2.82812 18.9895 2.82812 21.5118V43.418C2.82812 45.9403 4.88013 47.9923 7.40238 47.9923H23.6601C26.1824 47.9923 28.2344 45.9403 28.2344 43.418V21.5118C28.2344 18.9895 26.1824 16.9375 23.6601 16.9375H7.40238ZM21.1797 42.3438H9.88281C9.10619 42.3438 8.47656 41.7141 8.47656 40.9375C8.47656 40.1609 9.10619 39.5312 9.88281 39.5312H21.1797C21.9563 39.5312 22.5859 40.1609 22.5859 40.9375C22.5859 41.7141 21.9563 42.3438 21.1797 42.3438ZM19.7617 26.8164C19.7617 27.6886 19.4963 28.4999 19.0421 29.1739C21.1577 30.3933 22.5859 32.6768 22.5859 35.2891C22.5859 36.0657 21.9563 36.6953 21.1797 36.6953H9.88281C9.10619 36.6953 8.47656 36.0657 8.47656 35.2891C8.47656 32.6768 9.90484 30.3933 12.0204 29.1739C11.5663 28.4998 11.3008 27.6886 11.3008 26.8164C11.3008 24.4837 13.1986 22.5859 15.5312 22.5859C17.8639 22.5859 19.7617 24.4837 19.7617 26.8164Z" fill="#4AB3FF"/>
</svg>
