<svg width="49" height="49" viewBox="0 0 49 49" fill="none" xmlns="http://www.w3.org/2000/svg">
<g clip-path="url(#clip0_338_24392)">
<path d="M46.5091 41.0268H34.532C34.5241 40.8557 34.5101 40.6922 34.5101 40.5288C34.509 31.6144 34.5281 22.7 34.4929 13.7858C34.486 12.0507 35.8196 10.9992 37.2383 11.0388C39.4541 11.1006 41.6728 11.0532 43.8903 11.0559C45.3893 11.0577 46.4528 12.0865 46.5052 13.5916C46.5226 14.0906 46.509 14.5907 46.509 15.0902C46.5091 23.5206 46.5091 31.951 46.5091 40.3814C46.5091 40.581 46.5091 40.7805 46.5091 41.0268Z" fill="#4AB3FF"/>
<path d="M30.4983 41.0174H18.5024V40.5427C18.5024 34.2676 18.5018 27.9925 18.5027 21.7174C18.503 20.1106 19.5509 19.0467 21.163 19.0396C23.3801 19.0297 25.5973 19.0311 27.8145 19.039C29.4531 19.0448 30.4978 20.1038 30.498 21.7416C30.4988 28.001 30.4983 34.2605 30.4983 40.52V41.0174Z" fill="#4AB3FF"/>
<path d="M14.4706 41.0125H2.51278C2.50502 40.8512 2.49273 40.7144 2.49269 40.5776C2.49165 36.9712 2.48931 33.3649 2.49321 29.7585C2.49466 28.4143 3.19279 27.4417 4.38252 27.1345C4.63489 27.0693 4.90712 27.0613 5.17028 27.0606C7.38776 27.0551 9.60528 27.0532 11.8228 27.0589C13.4796 27.0631 14.4864 28.0557 14.4895 29.7008C14.4963 33.3383 14.4919 36.9759 14.4909 40.6135C14.4909 40.7361 14.4787 40.8586 14.4706 41.0125Z" fill="#4AB3FF"/>
<path d="M24.506 47.0359C17.0573 47.0359 9.60865 47.0365 2.15997 47.0352C0.972125 47.035 0.215549 46.0508 0.601521 45.0168C0.816477 44.441 1.33893 44.0646 1.96032 44.0401C2.06947 44.0358 2.17891 44.0388 2.28822 44.0388C17.0919 44.0388 31.8955 44.0386 46.6992 44.0405C46.9164 44.0405 47.1414 44.0341 47.3493 44.0853C48.1025 44.2705 48.591 44.997 48.4866 45.7415C48.3799 46.503 47.7355 47.0346 46.8989 47.0348C40.4028 47.0367 33.9067 47.0359 27.4105 47.0359C26.4424 47.0359 25.4742 47.0359 24.506 47.0359Z" fill="#4AB3FF"/>
<path d="M17.0833 5.7397C16.354 5.01629 15.7048 4.366 15.0483 3.72316C14.5433 3.22866 14.347 2.65501 14.6271 1.98542C14.8982 1.33738 15.4338 1.05135 16.115 1.04914C18.3789 1.0418 20.643 1.03645 22.9068 1.05091C23.8914 1.05721 24.4978 1.69912 24.499 2.6832C24.5015 4.93093 24.501 7.17868 24.4991 9.42642C24.4984 10.1698 24.1634 10.7151 23.5495 10.9468C22.8909 11.1953 22.3314 11.0161 21.8491 10.5223C21.2059 9.86378 20.5555 9.2124 19.7706 8.4189C19.6583 8.6048 19.5901 8.78966 19.4636 8.91639C15.6484 12.7401 11.8289 16.5595 8.00623 20.3759C7.13063 21.25 5.89983 21.2773 5.08562 20.4572C4.30309 19.669 4.31403 18.4309 5.13237 17.6063C6.69388 16.0327 8.26606 14.4697 9.83377 12.9023C12.108 10.6285 14.3817 8.35416 16.658 6.0824C16.768 5.97263 16.9007 5.88562 17.0833 5.7397Z" fill="#4AB3FF"/>
</g>
<defs>
<clipPath id="clip0_338_24392">
<rect width="48" height="48" fill="white" transform="translate(0.5 0.0383301)"/>
</clipPath>
</defs>
</svg>
