<svg width="46" height="45" viewBox="0 0 46 45" fill="none" xmlns="http://www.w3.org/2000/svg">
<g clip-path="url(#clip0_298_22466)">
<path d="M45.4963 30.6437C45.4963 25.1837 42.3639 20.3108 37.6726 17.9404C37.5269 28.4094 29.0392 36.897 18.5703 37.0427C20.9406 41.734 25.8136 44.8664 31.2736 44.8664C33.8336 44.8664 36.3231 44.1846 38.5105 42.8892L45.4342 44.8043L43.519 37.8806C44.8145 35.6932 45.4963 33.2037 45.4963 30.6437Z" fill="#4AB3FF"/>
<path d="M35.1016 17.667C35.1016 8.40286 27.5649 0.866211 18.3008 0.866211C9.03665 0.866211 1.5 8.40286 1.5 17.667C1.5 20.6862 2.30365 23.6259 3.82971 26.2067L1.56177 34.4057L9.76108 32.1381C12.3419 33.6641 15.2816 34.4678 18.3008 34.4678C27.5649 34.4678 35.1016 26.9311 35.1016 17.667ZM15.7227 13.7568H13.1445C13.1445 10.9135 15.4575 8.60059 18.3008 8.60059C21.1441 8.60059 23.457 10.9135 23.457 13.7568C23.457 15.2 22.8461 16.5871 21.7802 17.5619L19.5898 19.5667V21.5771H17.0117V18.4314L20.0397 15.6599C20.5808 15.1647 20.8789 14.489 20.8789 13.7568C20.8789 12.3352 19.7224 11.1787 18.3008 11.1787C16.8791 11.1787 15.7227 12.3352 15.7227 13.7568ZM17.0117 24.1553H19.5898V26.7334H17.0117V24.1553Z" fill="#4AB3FF"/>
</g>
<defs>
<clipPath id="clip0_298_22466">
<rect width="44" height="44" fill="white" transform="translate(1.5 0.866211)"/>
</clipPath>
</defs>
</svg>
