<svg width="37" height="37" viewBox="0 0 37 37" fill="none" xmlns="http://www.w3.org/2000/svg">
<g clip-path="url(#clip0_5015_47478)">
<path d="M32.5375 5.67773H3.79645C1.79515 5.67773 0.166992 7.30596 0.166992 9.3072V25.2497C0.166992 27.2511 1.79515 28.8792 3.79645 28.8792H7.1858V20.9007C5.44409 19.7241 4.38574 17.758 4.38574 15.6284C4.38574 13.281 5.67155 11.1322 7.74155 10.0204C8.06822 9.84495 8.46338 9.85395 8.78189 10.0445C9.10027 10.2349 9.29524 10.5787 9.29524 10.9496V13.8673L10.7481 14.8843L12.201 13.8673V10.9496C12.201 10.5786 12.3959 10.2348 12.7144 10.0444C13.0327 9.85395 13.4278 9.84488 13.7547 10.0204C15.8246 11.1321 17.1105 13.281 17.1105 15.6284C17.1105 17.758 16.0521 19.7241 14.3104 20.9007V28.8793H29.2755L34.5856 31.9407C34.912 32.1288 35.3138 32.1286 35.64 31.9402C35.9662 31.7517 36.1671 31.4036 36.1671 31.0269V9.3072C36.167 7.30596 34.5388 5.67773 32.5375 5.67773ZM26.6045 24.6606H20.2764C19.6939 24.6606 19.2217 24.1883 19.2217 23.6059C19.2217 23.0234 19.6939 22.5512 20.2764 22.5512H26.6045C27.187 22.5512 27.6592 23.0234 27.6592 23.6059C27.6592 24.1883 27.187 24.6606 26.6045 24.6606ZM30.8936 20.4418H20.2764C19.6939 20.4418 19.2217 19.9696 19.2217 19.3871C19.2217 18.8047 19.6939 18.3324 20.2764 18.3324H30.8936C31.4761 18.3324 31.9483 18.8047 31.9483 19.3871C31.9483 19.9696 31.4761 20.4418 30.8936 20.4418ZM30.8936 16.2231H20.2764C19.6939 16.2231 19.2217 15.7508 19.2217 15.1684C19.2217 14.5859 19.6939 14.1137 20.2764 14.1137H30.8936C31.4761 14.1137 31.9483 14.5859 31.9483 15.1684C31.9483 15.7508 31.4761 16.2231 30.8936 16.2231ZM30.8936 12.0043H20.2764C19.6939 12.0043 19.2217 11.5321 19.2217 10.9496C19.2217 10.3672 19.6939 9.89494 20.2764 9.89494H30.8936C31.4761 9.89494 31.9483 10.3672 31.9483 10.9496C31.9483 11.5321 31.4761 12.0043 30.8936 12.0043Z" fill="white"/>
<path d="M14.3103 13.3047V14.4174C14.3103 14.7616 14.1423 15.084 13.8604 15.2814L11.3529 17.0367C10.9898 17.2908 10.5064 17.2908 10.1433 17.0367L7.63573 15.2814C7.35377 15.084 7.18587 14.7615 7.18587 14.4174V13.3047C6.74269 13.9837 6.49512 14.7875 6.49512 15.6294C6.49512 17.1987 7.35511 18.6356 8.73949 19.3791C9.0817 19.5628 9.29517 19.9198 9.29517 20.3082V28.8803H12.2009V20.3083C12.2009 19.9199 12.4144 19.5629 12.7565 19.3791C14.1409 18.6356 15.001 17.1988 15.001 15.6294C15.001 14.7875 14.7535 13.9837 14.3103 13.3047Z" fill="white"/>
</g>
<defs>
<clipPath id="clip0_5015_47478">
<rect width="36" height="36" fill="white" transform="translate(0.166992 0.878906)"/>
</clipPath>
</defs>
</svg>
