<svg width="33" height="32" viewBox="0 0 33 32" fill="none" xmlns="http://www.w3.org/2000/svg">
<path d="M19.2237 8.85216V4.04736H9.01477C8.46587 4.04736 8.02087 4.49236 8.02087 5.04126V27.0061C8.02087 27.555 8.46587 28 9.01477 28H24.9169C25.4658 28 25.9108 27.555 25.9108 27.0061V10.7097H21.0812C20.057 10.7097 19.2237 9.87642 19.2237 8.85216ZM15.21 22.8325L13.0956 24.947C12.9585 25.084 12.7789 25.1526 12.5994 25.1526C12.4198 25.1526 12.2402 25.0841 12.1032 24.947L11.2254 24.0693C10.9513 23.7952 10.9513 23.3509 11.2254 23.0769C11.4994 22.8028 11.9437 22.8028 12.2178 23.0769L12.5994 23.4585L14.2177 21.8402C14.4917 21.5661 14.936 21.5661 15.2101 21.8402C15.4841 22.1142 15.4841 22.5585 15.21 22.8325ZM15.21 18.1543L13.0956 20.2687C12.9585 20.4058 12.7789 20.4743 12.5994 20.4743C12.4198 20.4743 12.2402 20.4058 12.1032 20.2688L11.2254 19.391C10.9513 19.117 10.9513 18.6727 11.2254 18.3986C11.4994 18.1246 11.9437 18.1246 12.2178 18.3986L12.5994 18.7802L14.2177 17.1619C14.4917 16.8879 14.936 16.8879 15.2101 17.1619C15.4841 17.4359 15.4841 17.8802 15.21 18.1543ZM15.21 13.1187L13.0956 15.2332C12.9585 15.3702 12.7789 15.4388 12.5994 15.4388C12.4198 15.4388 12.2402 15.3703 12.1032 15.2332L11.2254 14.3554C10.9513 14.0813 10.9513 13.637 11.2254 13.363C11.4994 13.0889 11.9437 13.0889 12.2178 13.363L12.5994 13.7446L14.2177 12.1263C14.4917 11.8523 14.936 11.8523 15.2101 12.1263C15.4841 12.4004 15.4841 12.8447 15.21 13.1187ZM22.2102 24.0953H17.719C17.3315 24.0953 17.0173 23.7811 17.0173 23.3936C17.0173 23.006 17.3315 22.6918 17.719 22.6918H22.2102C22.5977 22.6918 22.9119 23.006 22.9119 23.3936C22.9119 23.7811 22.5977 24.0953 22.2102 24.0953ZM17.0173 18.7153C17.0173 18.3278 17.3315 18.0136 17.719 18.0136H22.1901C22.5776 18.0136 22.8918 18.3278 22.8918 18.7153C22.8918 19.1029 22.5776 19.4171 22.1901 19.4171H17.719C17.3315 19.4171 17.0173 19.1029 17.0173 18.7153ZM22.8919 14.0371C22.8919 14.4246 22.5777 14.7388 22.1901 14.7388H17.7191C17.3315 14.7388 17.0173 14.4246 17.0173 14.0371C17.0173 13.6495 17.3315 13.3353 17.7191 13.3353H22.1901C22.5777 13.3353 22.8919 13.6495 22.8919 14.0371Z" fill="#0094FF"/>
<path d="M20.6271 8.85214C20.6271 9.10252 20.8308 9.30621 21.0812 9.30621H25.9791L20.6271 4V8.85214Z" fill="#0094FF"/>
</svg>
