<svg width="51" height="50" viewBox="0 0 51 50" fill="none" xmlns="http://www.w3.org/2000/svg">
<path d="M30.3389 4.74036C30.3389 4.10969 29.9396 3.54816 29.3439 3.34104C28.7482 3.13393 28.0867 3.32664 27.6955 3.82127L13.9712 21.1717C13.6188 21.6172 13.5521 22.2249 13.7996 22.7362C14.0471 23.2475 14.5651 23.5723 15.1331 23.5723H20.8121V35.8514C20.8121 36.4809 21.21 37.0417 21.8041 37.2497C22.3983 37.4577 23.059 37.2675 23.4516 36.7754L37.7726 18.8267C38.1276 18.3818 38.1963 17.7729 37.9495 17.2601C37.7026 16.7473 37.1838 16.4212 36.6146 16.4212H30.3389V4.74036Z" fill="#4AB3FF"/>
<path d="M9.7418 29.1762C10.1554 29.8822 9.91831 30.7897 9.21239 31.2034C7.01554 32.4904 6.24128 33.7658 6.24128 34.7481C6.24128 35.7031 6.97049 36.9363 9.0472 38.1945C10.3595 38.9896 12.0714 39.7019 14.098 40.2748L13.8926 39.9626C13.4428 39.2791 13.6323 38.3604 14.3158 37.9106C14.9993 37.4609 15.9179 37.6504 16.3677 38.3339L18.5899 41.7109C18.807 42.0408 18.8834 42.4436 18.8022 42.83C18.721 43.2164 18.4889 43.5544 18.1574 43.769L14.7362 45.9836C14.0493 46.4282 13.1321 46.2318 12.6875 45.5449C12.2429 44.858 12.4393 43.9408 13.1261 43.4963L13.576 43.205C11.2271 42.5631 9.16026 41.7274 7.51179 40.7286C5.14327 39.2935 3.27832 37.2834 3.27832 34.7481C3.27832 32.145 5.24173 30.0956 7.71462 28.6468C8.42059 28.2332 9.32817 28.4703 9.7418 29.1762Z" fill="#4AB3FF"/>
<path d="M41.2594 29.1762C41.673 28.4703 42.5805 28.2332 43.2865 28.6468C45.7594 30.0956 47.7228 32.145 47.7228 34.7481C47.7228 36.4435 46.8737 37.9163 45.6395 39.1057C44.4095 40.2911 42.7075 41.2905 40.7257 42.0983C36.7548 43.7169 31.3712 44.6842 25.5006 44.6842C24.466 44.6842 23.448 44.6542 22.4514 44.596C21.6346 44.5484 21.0111 43.8477 21.0587 43.0308C21.1063 42.214 21.8071 41.5905 22.6239 41.6381C23.5628 41.6928 24.5232 41.7212 25.5006 41.7212C31.0848 41.7212 36.0716 40.7958 39.6073 39.3546C41.3789 38.6324 42.7143 37.8098 43.5834 36.9723C44.4482 36.1388 44.7599 35.3874 44.7599 34.7481C44.7599 33.7658 43.9857 32.4904 41.7888 31.2034C41.0828 30.7897 40.8458 29.8822 41.2594 29.1762Z" fill="#4AB3FF"/>
</svg>
