<svg width="73" height="72" viewBox="0 0 73 72" fill="none" xmlns="http://www.w3.org/2000/svg">
<g clip-path="url(#clip0_4078_38246)">
<path d="M72.0938 27.5273C72.0938 12.3486 59.7451 0 44.5664 0C32.5633 0 22.3312 7.72339 18.575 18.4609C14.6979 19.8062 11.1438 22.0204 8.15662 25.0076C2.95734 30.2069 0.09375 37.1195 0.09375 44.4727C0.09375 51.8253 2.95734 58.7384 8.15662 63.9371C13.3559 69.1364 20.2685 71.9995 27.6211 71.9995C34.9737 71.9995 41.8863 69.1364 47.0856 63.9371C50.12 60.9033 52.2953 57.3311 53.6142 53.5254C64.3616 49.7747 72.0938 39.5376 72.0938 27.5273ZM25.3986 67.6758C22.6503 67.4176 20.0037 66.6815 17.5554 65.5076L31.3795 51.6846C33.6345 52.92 36.08 53.8484 38.6602 54.4147L25.3986 67.6758ZM34.5112 48.553L48.6484 34.4163C49.8365 36.9069 50.5594 39.5656 50.8138 42.2606L42.345 50.7294C39.5638 50.4651 36.9232 49.7109 34.5112 48.553ZM25.7803 41.308L41.4117 25.6767C42.3571 26.3732 43.2568 27.1456 44.1028 27.991C44.9531 28.8419 45.7244 29.7422 46.4154 30.6832L30.7852 46.3129C28.8746 44.9077 27.1855 43.2186 25.7803 41.308ZM4.41742 46.6952L17.679 33.4336C18.2454 36.0132 19.1732 38.4587 20.4086 40.7137L6.58502 54.5372C5.41168 52.0895 4.6756 49.4429 4.41742 46.6952ZM23.6462 21.4997L21.5989 23.5475C21.6978 22.9752 21.8176 22.4105 21.9576 21.8529C22.5146 21.715 23.0777 21.5969 23.6462 21.4997ZM21.3644 29.7482L29.8436 21.269C32.5913 21.5272 35.2374 22.2632 37.6857 23.4366L23.5402 37.582C22.3823 35.17 21.6286 32.53 21.3644 29.7482ZM50.5759 48.4645C50.4792 49.0265 50.3617 49.5857 50.2233 50.1405C49.6718 50.2784 49.1125 50.3965 48.5462 50.4948L50.5759 48.4645ZM11.1394 27.9904C12.9758 26.1546 15.0648 24.6638 17.3275 23.5481C17.1385 24.8478 17.0391 26.176 17.0391 27.5273C17.0391 27.7185 17.0424 27.9097 17.0462 28.1003L4.64868 40.4978C5.45343 35.7836 7.6886 31.4418 11.1394 27.9904ZM8.82513 58.2632L22.7695 44.3188C24.217 46.1931 25.9001 47.8762 27.7744 49.3237L13.8294 63.2681C12.8846 62.5715 11.9848 61.7997 11.1394 60.9543C10.2935 60.1084 9.52167 59.2086 8.82513 58.2632ZM44.1028 60.9543C40.652 64.4046 36.3096 66.6398 31.5954 67.4451L43.9935 55.0475C44.1841 55.0514 44.3747 55.0547 44.5664 55.0547C45.9139 55.0547 47.2383 54.9558 48.5341 54.7679C47.436 57.0031 45.9595 59.0977 44.1028 60.9543Z" fill="#0094FF"/>
</g>
<defs>
<clipPath id="clip0_4078_38246">
<rect width="72" height="72" fill="white" transform="translate(0.09375)"/>
</clipPath>
</defs>
</svg>
