<svg width="38" height="39" viewBox="0 0 38 39" fill="none" xmlns="http://www.w3.org/2000/svg">
<g id="Transaction" clip-path="url(#clip0_298_22567)">
<g id="Group">
<path id="Vector" d="M2.57422 1.86719V3.5144H23.7396V1.86719C23.7396 1.25332 23.2402 0.753906 22.6263 0.753906H3.6875C3.07364 0.753906 2.57422 1.25332 2.57422 1.86719Z" fill="#4AB3FF"/>
<path id="Vector_2" d="M15.5454 31.6709H2.57422V37.6402C2.57422 38.2541 3.07364 38.7535 3.6875 38.7535H19.8632C17.6161 37.0693 16.0248 34.5557 15.5454 31.6709ZM13.882 36.3915H12.432C11.8171 36.3915 11.3187 35.8931 11.3187 35.2782C11.3187 34.6634 11.8171 34.1649 12.432 34.1649H13.882C14.4968 34.1649 14.9952 34.6634 14.9952 35.2782C14.9952 35.8931 14.4968 36.3915 13.882 36.3915Z" fill="#4AB3FF"/>
<path id="Vector_3" d="M2.57422 5.74121V29.445H15.4016C15.5768 24.4414 19.0679 20.2667 23.7396 19.0592V5.74121H2.57422ZM7.00894 10.5553L9.54677 8.01757C9.98155 7.5828 10.6864 7.5828 11.1212 8.01757C11.5559 8.45227 11.5559 9.1572 11.1212 9.59198L10.4839 10.2293H18.5177C19.1326 10.2293 19.631 10.7277 19.631 11.3426C19.631 11.9574 19.1326 12.4559 18.5177 12.4559H7.79618C7.34589 12.4559 6.93991 12.1847 6.76765 11.7686C6.59532 11.3525 6.69054 10.8737 7.00894 10.5553ZM19.3049 17.1165L16.7671 19.6543C16.5498 19.8716 16.2648 19.9804 15.98 19.9804C15.6951 19.9804 15.4101 19.8716 15.1928 19.6543C14.758 19.2196 14.758 18.5146 15.1928 18.0799L15.8301 17.4425H7.79618C7.18135 17.4425 6.68289 16.9441 6.68289 16.3293C6.68289 15.7144 7.18135 15.216 7.79618 15.216H18.5177C18.968 15.216 19.374 15.4872 19.5463 15.9032C19.7185 16.3193 19.6233 16.7981 19.3049 17.1165Z" fill="#4AB3FF"/>
<path id="Vector_4" d="M35.4244 29.8398C35.4244 24.9289 31.4311 20.9336 26.5227 20.9336C21.6144 20.9336 17.6211 24.9289 17.6211 29.8398C17.6211 34.7507 21.6144 38.7461 26.5227 38.7461C31.4311 38.7461 35.4244 34.7507 35.4244 29.8398ZM29.9758 32.3565C29.7785 33.5307 28.921 34.7199 27.5801 35.159V35.5123C27.5801 36.1271 27.0817 36.6256 26.4669 36.6256C25.852 36.6256 25.3536 36.1271 25.3536 35.5123V35.2773C24.7478 35.1889 24.2205 34.9817 23.5253 34.5269C23.0107 34.1903 22.8665 33.5003 23.2031 32.9858C23.5397 32.4711 24.2295 32.3269 24.7442 32.6636C25.3812 33.0803 25.6047 33.1163 26.4594 33.1098C27.238 33.1047 27.6898 32.5243 27.7801 31.9873C27.8331 31.6715 27.8108 31.1023 27.0645 30.8385C26.0379 30.4756 24.986 30.06 24.2476 29.4808C23.4858 28.8831 23.1364 27.8552 23.3356 26.7978C23.5465 25.6791 24.3171 24.785 25.3534 24.4461V24.1673C25.3534 23.5525 25.8519 23.054 26.4667 23.054C27.0815 23.054 27.58 23.5525 27.58 24.1673V24.3777C28.2189 24.5483 28.6657 24.842 28.8525 24.9816C29.345 25.3498 29.4458 26.0473 29.0776 26.5399C28.7095 27.0324 28.0119 27.1332 27.5194 26.765C27.3335 26.626 26.8191 26.3274 26.0601 26.5561C25.6536 26.6785 25.5468 27.0877 25.5237 27.2102C25.476 27.4628 25.537 27.6623 25.6218 27.7288C26.1088 28.1108 26.9994 28.454 27.8066 28.7392C29.3747 29.2936 30.2464 30.7472 29.9758 32.3565Z" fill="#4AB3FF"/>
</g>
</g>
<defs>
<clipPath id="clip0_298_22567">
<rect width="38" height="38" fill="white" transform="translate(0 0.753906)"/>
</clipPath>
</defs>
</svg>
