<svg width="45" height="46" viewBox="0 0 45 46" fill="none" xmlns="http://www.w3.org/2000/svg">
<g id="Up" clip-path="url(#clip0_298_20897)">
<g id="Group">
<g id="Group_2">
<path id="Vector" d="M22.7776 0.704102C10.4957 0.704102 0.55542 10.6431 0.55542 22.9263C0.55542 35.2083 10.4944 45.1485 22.7776 45.1485C35.0596 45.1485 44.9999 35.2096 44.9999 22.9263C44.9999 10.6444 35.0609 0.704102 22.7776 0.704102ZM31.0481 24.5542H26.8887V33.3813C26.8887 34.1994 26.2254 34.8628 25.4072 34.8628H20.1481C19.33 34.8628 18.6666 34.1995 18.6666 33.3813V24.5542H14.5071C13.2732 24.5542 12.583 23.1306 13.339 22.1614L21.6095 11.56C22.2029 10.7995 23.3537 10.8011 23.9457 11.56L32.2162 22.1614C32.9724 23.1308 32.282 24.5542 31.0481 24.5542Z" fill="#4AB3FF"/>
</g>
</g>
</g>
<defs>
<clipPath id="clip0_298_20897">
<rect width="44.4444" height="44.4444" fill="white" transform="translate(0.555664 0.703125)"/>
</clipPath>
</defs>
</svg>
