<svg width="51" height="50" viewBox="0 0 51 50" fill="none" xmlns="http://www.w3.org/2000/svg">
<g clip-path="url(#clip0_6377_60065)">
<path d="M44.8811 23.497C44.2083 23.6826 43.7041 24.2348 43.7041 24.9327V41.0982C43.7041 42.1399 44.7618 42.8495 45.7254 42.4539C48.926 41.1398 50.833 39.4981 50.833 37.7169V19.5C50.833 19.5 48.7032 22.4423 44.8811 23.497Z" fill="#0094FF"/>
<path d="M6.78496 23.497C7.45772 23.6826 7.96191 24.2348 7.96191 24.9327V41.0982C7.96191 42.1399 6.9042 42.8495 5.94062 42.4539C2.74004 41.1398 0.833008 39.4981 0.833008 37.7169V19.5C0.833008 19.5 2.96279 22.4423 6.78496 23.497Z" fill="#0094FF"/>
<path d="M24.1729 20.5917L27.245 19.0557L24.1729 17.5195V20.5917Z" fill="#0094FF"/>
<path d="M25.833 7.4375C12.0259 7.4375 0.833008 11.0865 0.833008 15.5878C1.29697 16.4331 3.17012 18.7253 8.85488 20.8582C10.0477 21.3058 10.8916 22.3744 10.8916 23.6484V31.7363C15.0348 30.5473 20.2792 29.8984 25.833 29.8984C31.3868 29.8984 36.6312 30.5474 40.7744 31.7363V23.6484C40.7744 22.3744 41.6184 21.3058 42.8111 20.8582C48.4958 18.7253 50.369 16.4332 50.833 15.5878C50.833 11.0865 39.6401 7.4375 25.833 7.4375ZM31.1756 20.3687L23.3631 24.275C23.1564 24.3784 22.9319 24.4297 22.7081 24.4297C22.4402 24.4297 22.1731 24.3563 21.9379 24.2109C21.506 23.944 21.2432 23.4725 21.2432 22.9648V15.1523C21.2432 14.6447 21.506 14.1732 21.9379 13.9062C22.3695 13.6395 22.9087 13.615 23.3631 13.8422L31.1756 17.7484C31.6719 17.9965 31.9854 18.5037 31.9854 19.0586C31.9854 19.6135 31.6719 20.1207 31.1756 20.3687Z" fill="#0094FF"/>
</g>
<defs>
<clipPath id="clip0_6377_60065">
<rect width="50" height="50" fill="white" transform="translate(0.833008)"/>
</clipPath>
</defs>
</svg>
