<svg width="51" height="51" viewBox="0 0 51 51" fill="none" xmlns="http://www.w3.org/2000/svg">
<g clip-path="url(#clip0_7075_105511)">
<path d="M38.8984 0.210938V3.15211H47.722V11.9756H50.6631V0.210938H38.8984Z" fill="#0094FF"/>
<path d="M3.60524 3.15211H12.4288V0.210938H0.664062V11.9756H3.60524V3.15211Z" fill="#0094FF"/>
<path d="M47.722 47.2688H38.8984V50.21H50.6631V38.4453H47.722V47.2688Z" fill="#0094FF"/>
<path d="M3.60524 38.4453H0.664062V50.21H12.4288V47.2688H3.60524V38.4453Z" fill="#0094FF"/>
<path d="M10.8612 25.2101C10.8612 17.8475 16.264 11.7239 23.3131 10.5938C6.63165 11.8646 1.10969 25.0081 0.929688 25.2101C1.11292 25.4158 6.6141 38.5542 23.3131 39.8265C16.264 38.6963 10.8612 32.5728 10.8612 25.2101Z" fill="#0094FF"/>
<path d="M37.5224 25.2065C37.5224 18.6653 32.2008 13.3438 25.6596 13.3438C19.1184 13.3438 13.7969 18.6653 13.7969 25.2065C13.7969 31.7477 19.1184 37.0692 25.6596 37.0692C32.2008 37.0692 37.5224 31.7477 37.5224 25.2065ZM24.263 30.2274L19.0636 25.0281L21.1433 22.9484L24.263 26.068L30.5022 19.8288L32.5819 21.9085L24.263 30.2274Z" fill="#0094FF"/>
<path d="M50.399 25.2101C50.2163 25.0051 44.7145 11.866 28.0156 10.5938C35.0647 11.7239 40.4676 17.8475 40.4676 25.2101C40.4676 32.5728 35.0647 38.6963 28.0156 39.8265C44.6967 38.5557 50.219 25.4121 50.399 25.2101Z" fill="#0094FF"/>
</g>
<defs>
<clipPath id="clip0_7075_105511">
<rect width="50" height="50" fill="white" transform="translate(0.664062 0.210938)"/>
</clipPath>
</defs>
</svg>
