<svg width="49" height="49" viewBox="0 0 49 49" fill="none" xmlns="http://www.w3.org/2000/svg">
<path d="M42.5 42.7969H9.7C8.57989 42.7969 8.01984 42.7969 7.59202 42.5789C7.21569 42.3871 6.90973 42.0812 6.71799 41.7049C6.5 41.277 6.5 40.717 6.5 39.5969V6.79688M42.5 14.7969L31.6314 25.6655C31.2354 26.0615 31.0373 26.2595 30.809 26.3337C30.6082 26.399 30.3918 26.399 30.191 26.3337C29.9627 26.2595 29.7646 26.0615 29.3686 25.6655L25.6314 21.9282C25.2354 21.5322 25.0373 21.3342 24.809 21.26C24.6082 21.1948 24.3918 21.1948 24.191 21.26C23.9627 21.3342 23.7646 21.5322 23.3686 21.9282L14.5 30.7969M42.5 14.7969H34.5M42.5 14.7969V22.7969" stroke="#4AB3FF" stroke-width="4" stroke-linecap="round" stroke-linejoin="round"/>
</svg>
