<svg width="49" height="49" viewBox="0 0 49 49" fill="none" xmlns="http://www.w3.org/2000/svg">
<g clip-path="url(#clip0_3949_10576)">
<path d="M43.0042 28.9486C46.1287 28.9486 48.6705 26.4067 48.6705 23.2823V20.5759H45.0794C43.9765 20.5759 42.9099 20.8981 41.996 21.4938C41.894 20.9317 41.7662 20.3764 41.611 19.8301L42.6944 19.2066C44.0051 18.4499 44.9427 17.228 45.3344 15.766C45.7262 14.304 45.5252 12.777 44.7684 11.4663L43.4152 9.12231L40.3052 10.9178C39.35 11.4693 38.5878 12.2817 38.0952 13.2544C37.7047 12.7956 37.2887 12.3555 36.849 11.9353L37.3711 11.0311C38.1279 9.72032 38.3289 8.19329 37.9372 6.73141C37.5454 5.26934 36.6079 4.04745 35.297 3.29073L32.9533 1.9375L31.1576 5.04735C30.4008 6.35811 30.1998 7.88514 30.5915 9.34712C30.9833 10.8091 31.9208 12.031 33.2316 12.7877L34.2449 13.3729C37.566 16.1882 39.4691 20.2934 39.4691 24.6556C39.4691 30.8828 35.6026 36.2234 30.1445 38.4042V42.7282C30.9033 44.0129 32.1119 44.9325 33.5552 45.3192C34.0434 45.45 34.5387 45.5147 35.031 45.5147C36.0128 45.5147 36.9819 45.2571 37.855 44.753L40.1989 43.3999L38.4034 40.2899C37.8506 39.3324 37.0356 38.5688 36.0598 38.0762C36.4947 37.7066 36.9114 37.3164 37.3085 36.9069L38.4015 37.5403C39.2747 38.0445 40.2436 38.3019 41.2255 38.3019C41.7177 38.3019 42.2132 38.2372 42.7012 38.1064C44.1632 37.7147 45.3851 36.7771 46.1419 35.4663L47.4951 33.1223L44.3853 31.327C43.4303 30.7756 42.3449 30.5221 41.2543 30.5828C41.4457 30.0488 41.6121 29.503 41.7519 28.9468L43.0042 28.9486Z" fill="#4AB3FF"/>
<path d="M9.86992 24.6555C9.86992 20.2933 11.7731 16.1881 15.0941 13.3728L16.1074 12.7876C17.4182 12.0309 18.3557 10.809 18.7475 9.34702C19.1393 7.88495 18.9383 6.35801 18.1815 5.04725L16.386 1.9375L14.0421 3.29063C11.3363 4.85282 10.4059 8.32519 11.9681 11.031L12.4901 11.9352C12.0503 12.3555 11.6341 12.7958 11.2436 13.2547C10.7509 12.2818 9.9887 11.4693 9.03324 10.9177L5.92329 9.12222L4.57007 11.4661C3.81325 12.7768 3.61226 14.3039 4.00403 15.7658C4.39579 17.2278 5.33335 18.4497 6.6458 19.2074L7.72791 19.8303C7.57285 20.3767 7.44489 20.9319 7.3429 21.4941C6.42896 20.8982 5.36213 20.5758 4.25892 20.5758H0.667969V23.2822C0.667969 26.4066 3.2099 28.9485 6.33625 28.9485L7.58729 28.9468C7.72707 29.5031 7.89356 30.0489 8.08499 30.5829C6.99416 30.5222 5.90858 30.7756 4.95339 31.327L1.84355 33.1223L3.19678 35.4663C3.9535 36.7771 5.17539 37.7147 6.63745 38.1064C7.1255 38.2372 7.62067 38.3019 8.11274 38.3019C9.09492 38.3019 10.0644 38.0441 10.9388 37.5393L12.0306 36.9069C12.4276 37.3163 12.8443 37.7065 13.2792 38.0761C12.3032 38.5685 11.4881 39.3322 10.9353 40.2899L9.13973 43.3999L11.4836 44.753C12.3567 45.2572 13.3257 45.5147 14.3077 45.5147C14.7999 45.5147 15.2953 45.45 15.7834 45.3192C17.2262 44.9326 18.4343 44.0137 19.1941 42.7282V38.4039C13.7361 36.2229 9.86992 30.8824 9.86992 24.6555Z" fill="#4AB3FF"/>
<path d="M34.3849 24.6045C34.3849 19.2482 30.0273 14.8906 24.671 14.8906C19.3147 14.8906 14.957 19.2482 14.957 24.6045C14.957 29.9608 19.3146 34.3184 24.671 34.3184C30.0273 34.3184 34.3849 29.9608 34.3849 24.6045ZM27.953 29.3704H21.3904V26.558H23.2655V22.6511H21.8591V19.8387H26.0779V26.558H27.953V29.3704Z" fill="#4AB3FF"/>
<path d="M27.3272 36.8438C26.4689 37.0303 25.5783 37.1295 24.6649 37.1295C23.7519 37.1295 22.8619 37.0304 22.0039 36.844V47.0614L24.6658 46.1411L27.3273 47.0613V36.8438H27.3272Z" fill="#4AB3FF"/>
</g>
<defs>
<clipPath id="clip0_3949_10576">
<rect width="48" height="48" fill="white" transform="translate(0.667969 0.5)"/>
</clipPath>
</defs>
</svg>
