<svg width="33" height="32" viewBox="0 0 33 32" fill="none" xmlns="http://www.w3.org/2000/svg">
<g clip-path="url(#clip0_1_11527)">
<path d="M27.4356 5.56445L22.2451 7.32428L17.8524 4.04688L17.9218 9.52722L13.4467 12.6922L18.6811 14.3189L20.3078 19.5541L23.4728 15.0783L28.9531 15.1476L25.6755 10.7549L27.4356 5.56445Z" fill="#0094FF"/>
<path d="M18.0382 16.9887L17.5577 15.4422L16.0689 14.9795L12.6245 18.4243L14.6134 20.4131L18.0382 16.9887Z" fill="#0094FF"/>
<path d="M5.36401 25.6393C4.81616 26.1874 4.81616 27.08 5.36401 27.6281C5.91223 28.1763 6.80505 28.1755 7.35272 27.6281L13.6191 21.4078L11.6303 19.4187L5.36401 25.6393Z" fill="#0094FF"/>
<path d="M21.8757 20.9604V22.3669H20.4695V23.7731H21.8757V25.1794H23.282V23.7731H24.6884V22.3669H23.282V20.9604H21.8757Z" fill="#0094FF"/>
<path d="M12.0316 9.7099H13.4379V8.30347H14.8441V6.89722H13.4379V5.49097H12.0316V6.89722H10.6252V8.30347H12.0316V9.7099Z" fill="#0094FF"/>
<path d="M7.10938 15.3351C8.27265 15.3351 9.21894 14.3889 9.21894 13.2256C9.21894 12.0625 8.27265 11.1162 7.10938 11.1162C5.94629 11.1162 5 12.0625 5 13.2256C5 14.3889 5.94629 15.3351 7.10938 15.3351ZM7.10938 12.5225C7.49738 12.5225 7.81268 12.8378 7.81268 13.2256C7.81268 13.6136 7.49738 13.9289 7.10938 13.9289C6.72156 13.9289 6.40625 13.6136 6.40625 13.2256C6.40625 12.8378 6.72156 12.5225 7.10938 12.5225Z" fill="#0094FF"/>
</g>
<defs>
<clipPath id="clip0_1_11527">
<rect width="24" height="24" fill="white" transform="translate(5 4)"/>
</clipPath>
</defs>
</svg>
