<svg width="175" height="32" viewBox="0 0 175 32" fill="none" xmlns="http://www.w3.org/2000/svg">
<path fill-rule="evenodd" clip-rule="evenodd" d="M20.7026 0.963278C20.5656 0.928907 20.4006 0.928907 20.2636 0.963278L11.2948 3.70444L11.2902 3.706C10.8701 3.84657 10.6644 4.27044 10.7666 4.68084L10.7689 4.69025L10.7722 4.69938C10.9094 5.07797 11.3264 5.33167 11.7543 5.19004L20.4962 2.52252L29.4256 5.27052C29.8575 5.41361 30.2748 5.1542 30.4096 4.7483C30.5532 4.31568 30.2961 3.89554 29.89 3.75963L20.7116 0.965537L20.7026 0.963278ZM7.1134 5.66881C7.072 5.34988 7.24356 5.03735 7.5086 4.87771L7.51776 4.87219L7.5275 4.86775C7.616 4.82736 7.70841 4.80386 7.80077 4.79637C7.87704 4.78558 7.95657 4.7862 8.03743 4.79972C8.36344 4.85427 8.6073 5.10018 8.66859 5.4055L13.7994 15.4566H27.3967C27.4244 15.4566 27.4517 15.4581 27.4787 15.461L32.3217 5.42166C32.3594 5.2153 32.4822 5.03532 32.6644 4.9277C32.8854 4.77462 33.1826 4.7509 33.4387 4.86775C33.6948 4.98463 33.8405 5.21798 33.8677 5.46965L34.0261 6.39754C34.0623 6.55992 34.2168 7.64175 34.2168 9.28055C34.2168 10.9038 34.0552 13.0403 33.4626 15.4471C32.8967 17.7193 31.8723 20.4538 30.0112 23.1345C28.1501 25.8151 25.4541 28.4667 21.5759 30.5489L21.5747 30.5495L20.8571 30.9497L20.8561 30.9504C20.6118 31.0901 20.3543 31.0901 20.11 30.9504L20.109 30.9497L19.3914 30.5495L19.3902 30.5489C15.512 28.4667 12.816 25.8151 10.9549 23.1345C9.09445 20.4547 8.0694 17.7205 7.55653 15.4183C6.9643 13.0121 6.80273 10.8495 6.80273 9.2537C6.80273 7.61492 6.95729 6.53309 6.99354 6.37069L7.1134 5.66881ZM14.5938 17.0129H26.654L20.4998 28.5827L14.5938 17.0129ZM8.37686 8.23885C8.36329 8.5423 8.35441 8.88235 8.35441 9.2537C8.35441 10.7467 8.48724 12.7982 9.04422 15.0348C9.57478 17.192 10.5296 19.7212 12.2526 22.2229C13.7222 24.3335 15.7517 26.4456 18.59 28.2448L8.37686 8.23885ZM22.4433 28.215C25.2462 26.4274 27.2798 24.3431 28.74 22.2231C30.463 19.7218 31.4179 17.1661 31.9486 15.0348C32.5056 12.7982 32.6385 10.7467 32.6385 9.2537C32.6385 8.9223 32.6313 8.61583 32.6202 8.33805L28.8678 16.1163V16.1471L22.4433 28.215Z" fill="white"/>
<path fill-rule="evenodd" clip-rule="evenodd" d="M20.3431 1.5073L11.5504 4.19466L11.5493 4.19504C11.2856 4.28326 11.1499 4.54605 11.2151 4.81743C11.3069 5.06359 11.5716 5.21127 11.8298 5.12581L11.8329 5.1248L20.4983 2.48063L29.3474 5.2039L29.3502 5.20485C29.6077 5.29016 29.8744 5.14335 29.9658 4.868C30.0518 4.60889 29.906 4.34151 29.6341 4.24878L20.6352 1.50933L20.633 1.50878C20.5449 1.48666 20.4324 1.48617 20.3431 1.5073ZM20.768 0.971142L20.7835 0.975038L29.8032 3.72082L29.8068 3.72202C30.3301 3.89714 30.6875 4.4535 30.4918 5.04267C30.319 5.56327 29.7681 5.92539 29.1789 5.73203L20.4976 3.06038L12.0007 5.65315C11.4216 5.8428 10.871 5.49514 10.6923 5.0017L10.6842 4.97925L10.6784 4.95608C10.5458 4.42343 10.8138 3.85661 11.3733 3.66937L11.3814 3.66668L20.1954 0.972846L20.2021 0.971142C20.3809 0.926286 20.5892 0.926286 20.768 0.971142ZM8.00553 4.72695C8.10587 4.7136 8.20963 4.71495 8.31416 4.73245C8.73455 4.80278 9.0555 5.11328 9.15081 5.50572L14.094 15.1894H27.1799L31.8412 5.52685C31.8996 5.26669 32.0595 5.03879 32.2926 4.89792C32.5926 4.69462 32.9843 4.6685 33.3172 4.82043C33.6629 4.97817 33.8593 5.29315 33.8979 5.62463L34.051 6.5215C34.0948 6.72856 34.2433 7.80552 34.2433 9.40417C34.2433 11.0157 34.0828 13.1356 33.4948 15.5235C32.9331 17.779 31.9155 20.4965 30.0655 23.1613C28.2153 25.8262 25.5368 28.4593 21.6895 30.525L21.6876 30.5261L20.9901 30.915L20.9891 30.9156C20.664 31.1015 20.3063 31.1017 19.9813 30.9158L19.9801 30.9151L19.2823 30.526L19.2812 30.5253C15.4339 28.4597 12.7547 25.8262 10.9046 23.1613C9.05602 20.4986 8.03692 17.7817 7.52653 15.4922C6.93949 13.106 6.7793 10.9616 6.7793 9.37782C6.7793 7.77924 6.92767 6.7023 6.97158 6.49518L7.08176 5.84995C7.04643 5.43386 7.27326 5.04556 7.60632 4.84495L7.62887 4.83136L7.65282 4.82043C7.76658 4.76853 7.88582 4.7376 8.00553 4.72695ZM8.22269 5.27916C8.17133 5.27057 8.12177 5.27031 8.07493 5.27694L8.06676 5.2781L8.05854 5.27876C8.00134 5.28341 7.94368 5.29769 7.8878 5.32253C7.71514 5.42894 7.61137 5.63155 7.63625 5.82324L7.64161 5.86453L7.51578 6.60141L7.51425 6.60824C7.48476 6.74038 7.33361 7.7801 7.33361 9.37782C7.33361 10.9263 7.49045 13.0264 8.0655 15.3627L8.06623 15.3656L8.0669 15.3686C8.56359 17.5982 9.55677 20.2478 11.3599 22.8451C13.1633 25.4427 15.7774 28.015 19.5434 30.0369L19.5485 30.0397L20.2555 30.4341L20.2564 30.4346C20.411 30.523 20.559 30.523 20.7136 30.4346L20.7172 30.4325L21.4255 30.0375L21.4267 30.0369C25.1926 28.015 27.8068 25.4427 29.6101 22.8451C31.4138 20.2471 32.4075 17.5957 32.9568 15.3902C33.532 13.0535 33.6889 10.9792 33.6889 9.40417C33.6889 7.80644 33.5378 6.76672 33.5083 6.6346L33.5068 6.62776L33.3486 5.70157L33.3477 5.69301C33.3306 5.53375 33.2411 5.39499 33.0871 5.32472C32.9204 5.24866 32.733 5.26722 32.5999 5.35931L32.5917 5.36499L32.5831 5.37005C32.4751 5.43387 32.4014 5.54078 32.3784 5.66617L32.3716 5.703L27.5165 15.7674L27.3221 15.7464C27.3055 15.7446 27.2886 15.7437 27.2714 15.7437H13.7546L8.62376 5.69243L8.61624 5.65499C8.57847 5.46688 8.4281 5.31353 8.22269 5.27916ZM8.37159 7.3215L19.3346 28.7962L18.4785 28.2535C15.6589 26.4662 13.6405 24.3664 12.1786 22.2667L12.1778 22.2655C10.464 19.7773 9.51481 17.2623 8.98762 15.119C8.43409 12.8959 8.30241 10.8589 8.30241 9.37782C8.30241 9.00888 8.31124 8.67095 8.32474 8.36927L8.37159 7.3215ZM32.6312 7.35946L32.6757 8.4679C32.6868 8.74403 32.6939 9.04857 32.6939 9.37782C32.6939 10.859 32.5621 12.8963 32.0085 15.1195C31.4814 17.2363 30.5324 19.7773 28.8182 22.2658C27.3644 24.3766 25.3415 26.4488 22.5583 28.2238L21.6689 28.7911L28.4384 16.0752V16.0509L32.6312 7.35946ZM8.85699 9.49142C8.86368 10.9308 8.99979 12.8739 9.52563 14.9855C10.04 17.077 10.9654 19.5278 12.6339 21.9505C13.901 23.7702 15.5982 25.5919 17.8978 27.2009L8.85699 9.49142ZM28.9927 16.1775V16.2136L23.1738 27.1438C25.4276 25.5547 27.1124 23.7653 28.3618 21.9514C30.0302 19.5292 30.9558 17.0529 31.4707 14.9855C31.9765 12.9541 32.1217 11.0786 32.138 9.65764L28.9927 16.1775ZM14.2515 16.717H27.0038L20.4964 28.9507L14.2515 16.717ZM15.1568 17.2714L20.5066 27.7514L26.0811 17.2714H15.1568Z" fill="white"/>
<path d="M20.7005 1.23996L20.768 0.971142M20.768 0.971142C20.5892 0.926286 20.3809 0.926286 20.2021 0.971142L20.1954 0.972846L11.3814 3.66668L11.3733 3.66937C10.8138 3.85661 10.5458 4.42343 10.6784 4.95608L10.6842 4.97925L10.6923 5.0017C10.871 5.49514 11.4216 5.8428 12.0007 5.65315L20.4976 3.06038L29.1789 5.73203C29.7681 5.92539 30.319 5.56327 30.4918 5.04267C30.6875 4.4535 30.3301 3.89714 29.8068 3.72202L29.8032 3.72082L20.7835 0.975038L20.768 0.971142ZM7.65282 4.82043L7.76788 5.07257M7.65282 4.82043C7.76658 4.76853 7.88582 4.7376 8.00553 4.72695C8.10587 4.7136 8.20963 4.71495 8.31416 4.73245C8.73455 4.80278 9.0555 5.11328 9.15081 5.50572L14.094 15.1894H27.1799L31.8412 5.52685C31.8996 5.26669 32.0595 5.03879 32.2926 4.89792C32.5926 4.69462 32.9843 4.6685 33.3172 4.82043C33.6629 4.97817 33.8593 5.29315 33.8979 5.62463L34.051 6.5215C34.0948 6.72856 34.2433 7.80552 34.2433 9.40417C34.2433 11.0157 34.0828 13.1356 33.4948 15.5235C32.9332 17.779 31.9155 20.4965 30.0655 23.1613C28.2153 25.8262 25.5368 28.4593 21.6895 30.525L21.6876 30.5261L20.9901 30.915L20.9891 30.9156C20.664 31.1015 20.3063 31.1017 19.9813 30.9158L19.9801 30.9151L19.2823 30.526L19.2812 30.5253C15.4339 28.4597 12.7547 25.8262 10.9046 23.1613C9.05602 20.4986 8.03692 17.7817 7.52653 15.4922C6.93949 13.106 6.7793 10.9616 6.7793 9.37781C6.7793 7.77924 6.92767 6.7023 6.97158 6.49518L7.08176 5.84995C7.04643 5.43386 7.27326 5.04556 7.60632 4.84495L7.62887 4.83136L7.65282 4.82043ZM7.76895 5.07494L7.80594 5.15599M11.5504 4.19466L20.3431 1.5073C20.4324 1.48617 20.5449 1.48666 20.633 1.50878L20.6352 1.50933L29.6341 4.24878C29.906 4.34151 30.0518 4.60889 29.9658 4.868C29.8744 5.14335 29.6077 5.29016 29.3502 5.20485L29.3474 5.2039L20.4983 2.48063L11.8329 5.1248L11.8298 5.12582C11.5716 5.21127 11.3069 5.06359 11.2151 4.81743C11.1499 4.54605 11.2856 4.28326 11.5493 4.19504L11.5504 4.19466ZM8.07493 5.27694C8.12177 5.27031 8.17133 5.27057 8.22269 5.27916C8.4281 5.31353 8.57847 5.46688 8.61624 5.65499L8.62376 5.69243L13.7546 15.7437H27.2714C27.2886 15.7437 27.3055 15.7446 27.3221 15.7464L27.5165 15.7674L32.3716 5.703L32.3784 5.66617C32.4014 5.54078 32.4751 5.43387 32.5831 5.37005L32.5917 5.36499L32.5999 5.35931C32.733 5.26722 32.9204 5.24866 33.0871 5.32472C33.2411 5.39499 33.3306 5.53375 33.3477 5.69301L33.3486 5.70157L33.5068 6.62776L33.5083 6.6346C33.5378 6.76672 33.6889 7.80644 33.6889 9.40417C33.6889 10.9792 33.532 13.0535 32.9568 15.3902C32.4075 17.5957 31.4138 20.2471 29.6101 22.8451C27.8068 25.4427 25.1926 28.015 21.4267 30.0369L21.4255 30.0375L20.7172 30.4325L20.7144 30.4342C20.5599 30.5227 20.411 30.523 20.2564 30.4346L20.2555 30.4341L19.5485 30.0397L19.5434 30.0369C15.7774 28.015 13.1633 25.4427 11.3599 22.8451C9.55677 20.2478 8.56359 17.5982 8.0669 15.3686L8.06623 15.3656L8.0655 15.3627C7.49045 13.0264 7.33361 10.9263 7.33361 9.37781C7.33361 7.7801 7.48476 6.74038 7.51425 6.60824L7.51578 6.60141L7.64161 5.86453L7.63625 5.82324C7.61137 5.63155 7.71514 5.42894 7.8878 5.32253C7.94368 5.29769 8.00134 5.28341 8.05854 5.27876L8.06676 5.2781L8.07493 5.27694ZM8.37159 7.3215L8.32474 8.36927C8.31124 8.67095 8.30241 9.00888 8.30241 9.37781C8.30241 10.8589 8.43409 12.8959 8.98762 15.119C9.51481 17.2623 10.464 19.7773 12.1778 22.2655L12.1786 22.2667C13.6405 24.3664 15.6589 26.4662 18.4785 28.2535L19.3346 28.7962L8.37159 7.3215ZM32.6757 8.4679L32.6312 7.35946L28.4384 16.0509V16.0752L21.6689 28.7911L22.5583 28.2238C25.3415 26.4488 27.3644 24.3766 28.8182 22.2658C30.5324 19.7773 31.4814 17.2363 32.0085 15.1195C32.5621 12.8963 32.6939 10.859 32.6939 9.37781C32.6939 9.04857 32.6868 8.74403 32.6757 8.4679ZM9.52563 14.9855C8.99979 12.8739 8.86368 10.9308 8.85699 9.49142L17.8978 27.2009C15.5982 25.5919 13.901 23.7702 12.6339 21.9505C10.9654 19.5278 10.04 17.077 9.52563 14.9855ZM28.9927 16.2136V16.1775L32.138 9.65764C32.1217 11.0786 31.9765 12.9541 31.4707 14.9855C30.9558 17.0529 30.0302 19.5292 28.3618 21.9514C27.1124 23.7653 25.4276 25.5547 23.1738 27.1438L28.9927 16.2136ZM14.2515 16.717H27.0038L20.4964 28.9507L14.2515 16.717ZM20.5066 27.7514L15.1568 17.2714H26.0811L20.5066 27.7514Z" stroke="white" stroke-width="0.369543" stroke-miterlimit="10"/>
<path d="M61.0053 10.1857H48.6153C48.3972 10.1857 48.2156 10.2587 48.0339 10.441C47.8886 10.587 47.7796 10.8058 47.7796 11.0247V20.9828C47.7796 21.2017 47.8523 21.3841 48.0339 21.5664C48.1793 21.7124 48.3972 21.8218 48.6153 21.8218H61.0053V23.4997H48.6153C47.925 23.4997 47.3436 23.2443 46.8712 22.7702C46.3988 22.296 46.1445 21.7124 46.1445 21.0193V10.9882C46.1445 10.2952 46.3988 9.71154 46.8712 9.23735C47.3436 8.76315 47.925 8.50781 48.6153 8.50781H61.0053V10.1857Z" fill="white"/>
<path d="M60.4702 23.1169H60.6263V22.9608V22.3536V22.1975H60.4702H48.6156C48.2788 22.1975 47.9684 22.0341 47.7655 21.8305C47.5176 21.5817 47.4006 21.3048 47.4006 20.9792V11.0211C47.4006 10.6845 47.5627 10.3735 47.7655 10.1699C48.0134 9.92096 48.29 9.80294 48.6156 9.80294H60.4702H60.6263V9.6468V9.03968V8.88351H60.4702H48.6156C48.0299 8.88351 47.5442 9.09596 47.1402 9.50148C46.7363 9.90694 46.5241 10.3953 46.5241 10.9847V21.0157C46.5241 21.6051 46.7363 22.0935 47.1402 22.4989C47.5442 22.9045 48.0299 23.1169 48.6156 23.1169H60.4702ZM46.6028 8.96614C47.1436 8.4232 47.8206 8.125 48.6156 8.125H61.3849V10.5614H48.6156C48.5747 10.5614 48.5214 10.5641 48.4614 10.5898C48.4043 10.6141 48.354 10.6539 48.3029 10.7051C48.2558 10.7525 48.2211 10.8072 48.1978 10.8588C48.1755 10.9085 48.1591 10.9661 48.1591 11.0211V20.9792C48.1591 21.0217 48.162 21.0754 48.1876 21.1356C48.2121 21.1932 48.2518 21.2439 48.3029 21.2953C48.3502 21.3426 48.4044 21.3773 48.4556 21.4005C48.5045 21.4226 48.5614 21.439 48.6156 21.439H61.3849V23.8754H48.6156C47.8206 23.8754 47.1436 23.5772 46.6028 23.0343C46.062 22.4914 45.7656 21.8124 45.7656 21.0157V10.9847C45.7656 10.188 46.062 9.50901 46.6028 8.96614Z" fill="white" stroke="white" stroke-width="0.312331" stroke-miterlimit="10"/>
<path d="M84.259 8.50781V10.1857H72.3414V15.1466H81.9336V16.861H72.3414V21.8218H84.259V23.4997H70.6699V8.54429H84.259V8.50781Z" fill="white"/>
<path d="M72.8771 10.564H72.7209V10.7202V14.6101V14.7664H72.8771H82.3132V17.2392H72.8771H72.7209V17.3955V21.2854V21.4416H72.8771H84.6387V23.878H70.291V8.16406H84.6387V8.50685V10.564H72.8771ZM83.8802 9.07874V8.92258H83.724H71.2057H71.0496V9.07874V22.9634V23.1195H71.2057H83.724H83.8802V22.9634V22.3562V22.2001H83.724H71.9625V16.4807H81.3986H81.5547V16.3246V15.681V15.5249H81.3986H71.9625V9.80552H83.724H83.8802V9.64938V9.07874Z" fill="white" stroke="white" stroke-width="0.312331" stroke-miterlimit="10"/>
<path d="M108.821 10.9882V15.3655C108.821 16.0585 108.567 16.6421 108.095 17.1163C107.622 17.5905 107.04 17.8458 106.351 17.8458H104.062L108.749 23.4267H106.532L101.845 17.8823H96.3946C96.2856 17.8823 95.9949 17.8458 95.5953 17.8093V23.4633H93.9238V8.50781H106.351C107.04 8.50781 107.622 8.76315 108.095 9.23735C108.567 9.71154 108.821 10.2952 108.821 10.9882ZM96.3946 16.1679H106.314C106.532 16.1679 106.714 16.095 106.859 15.9491C107.005 15.8031 107.077 15.6207 107.077 15.4019V11.0247C107.077 10.8058 107.005 10.6234 106.859 10.441C106.714 10.2952 106.532 10.1857 106.314 10.1857H96.3946C96.1766 10.1857 95.9949 10.2587 95.8132 10.441C95.6679 10.587 95.5589 10.8058 95.5589 11.0247V15.4019C95.5589 15.6207 95.6316 15.8031 95.8132 15.9491C95.9586 16.095 96.1766 16.1679 96.3946 16.1679Z" fill="white"/>
<path d="M105.091 18.4781L109.562 23.8025H106.357L101.716 18.3133L101.67 18.258H101.597H96.3949C96.3345 18.258 96.2454 18.2508 96.146 18.2412L95.9748 18.2247V18.3966V23.8389H93.5449V8.125H106.351C107.145 8.125 107.823 8.42319 108.363 8.96614C108.904 9.50901 109.201 10.188 109.201 10.9847V15.3619C109.201 16.1585 108.904 16.8375 108.363 17.3804C107.823 17.9233 107.145 18.2216 106.351 18.2216H105.21H104.875L105.091 18.4781ZM94.3034 22.9243V23.0804H94.4597H95.0601H95.2163V22.9243V17.3903L95.63 17.4281C95.7849 17.4423 95.9248 17.4565 96.042 17.4684L96.1421 17.4786C96.21 17.4854 96.266 17.4908 96.3111 17.4945C96.3335 17.4963 96.3519 17.4976 96.3668 17.4985L96.3851 17.4993L96.3907 17.4994L96.3925 17.4995H96.3937H96.395H102.022L106.662 22.9886L106.709 23.044H106.781H107.6H107.935L107.719 22.7873L103.248 17.463H106.351C106.936 17.463 107.422 17.2506 107.826 16.8451C108.23 16.4395 108.442 15.9513 108.442 15.3619V10.9847C108.442 10.3953 108.23 9.90694 107.826 9.50148C107.422 9.09596 106.936 8.88351 106.351 8.88351H94.4597H94.3034V9.03968V22.9243ZM95.5637 16.2316L95.5564 16.225C95.289 16.0009 95.1799 15.7104 95.1799 15.3983V11.0211C95.1799 10.6845 95.342 10.3735 95.5448 10.1699C95.7928 9.92096 96.0693 9.80294 96.3949 9.80294H106.314C106.669 9.80294 106.941 9.98242 107.128 10.1699L107.142 10.1848L107.156 10.2012C107.346 10.4394 107.457 10.703 107.457 11.0211V15.3983C107.457 15.7106 107.349 15.9914 107.128 16.2131C106.907 16.4349 106.627 16.5436 106.314 16.5436H96.3949C96.109 16.5436 95.7945 16.4516 95.5637 16.2316ZM96.0511 15.6498L96.0675 15.663L96.0822 15.6779C96.1398 15.7355 96.2515 15.7851 96.3949 15.7851H106.314C106.371 15.7851 106.423 15.7776 106.473 15.7576C106.524 15.7371 106.561 15.7074 106.591 15.6779C106.62 15.6481 106.65 15.6105 106.67 15.5592C106.691 15.5091 106.698 15.4556 106.698 15.3983V11.0211C106.698 10.9132 106.67 10.8179 106.584 10.7023L106.576 10.6905L106.565 10.6804C106.47 10.593 106.387 10.5614 106.314 10.5614H96.3949C96.354 10.5614 96.3007 10.5641 96.2407 10.5898C96.1837 10.6141 96.1333 10.6539 96.0822 10.7051C96.0351 10.7525 96.0004 10.8072 95.9772 10.8588C95.9549 10.9085 95.9385 10.9661 95.9385 11.0211V15.3983C95.9385 15.4656 95.9495 15.5111 95.9644 15.5441C95.9785 15.5757 96.0028 15.611 96.0511 15.6498Z" fill="white"/>
<path d="M96.3668 17.4985C96.3519 17.4976 96.3335 17.4963 96.3111 17.4945C96.266 17.4908 96.21 17.4854 96.1421 17.4786L96.042 17.4684C95.9248 17.4565 95.7849 17.4423 95.63 17.4281L95.2163 17.3903V22.9243V23.0804H95.0601H94.4597H94.3034V22.9243V9.03968V8.88351H94.4597H106.351C106.936 8.88351 107.422 9.09596 107.826 9.50148C108.23 9.90694 108.442 10.3953 108.442 10.9847V15.3619C108.442 15.9513 108.23 16.4395 107.826 16.8451C107.422 17.2506 106.936 17.463 106.351 17.463H103.248L107.719 22.7873L107.935 23.044H107.6H106.781H106.709L106.662 22.9886L102.022 17.4995H96.395H96.3937M96.3668 17.4985L96.3753 17.3453M96.3668 17.4985L96.3851 17.4993L96.3907 17.4994L96.3925 17.4995H96.3937M96.3937 17.4995L96.395 17.3434M107.128 10.1699C106.941 9.98242 106.669 9.80294 106.314 9.80294H96.3949C96.0693 9.80294 95.7928 9.92096 95.5448 10.1699C95.342 10.3735 95.1799 10.6845 95.1799 11.0211V15.3983C95.1799 15.7104 95.289 16.0009 95.5564 16.225L95.5637 16.2316C95.7945 16.4516 96.109 16.5436 96.3949 16.5436H106.314C106.627 16.5436 106.907 16.4349 107.128 16.2131C107.349 15.9914 107.457 15.7106 107.457 15.3983V11.0211C107.457 10.703 107.346 10.4394 107.156 10.2012M107.128 10.1699L107.235 10.0635M107.128 10.1699L107.142 10.1848L107.156 10.2012M107.156 10.2012L107.278 10.1038M96.0511 15.6498L96.1476 15.5296M96.0511 15.6498L96.0675 15.663L96.0822 15.6779C96.1398 15.7355 96.2515 15.7851 96.3949 15.7851H106.314C106.371 15.7851 106.423 15.7776 106.473 15.7576C106.524 15.7371 106.561 15.7074 106.591 15.6779C106.62 15.6481 106.65 15.6105 106.67 15.5592C106.691 15.5091 106.698 15.4556 106.698 15.3983V11.0211C106.698 10.9132 106.67 10.8179 106.584 10.7023L106.576 10.6905L106.565 10.6804C106.47 10.593 106.387 10.5614 106.314 10.5614H96.3949C96.354 10.5614 96.3007 10.5641 96.2407 10.5898C96.1837 10.6141 96.1333 10.6539 96.0822 10.7051C96.0351 10.7525 96.0004 10.8072 95.9772 10.8588C95.9549 10.9085 95.9385 10.9661 95.9385 11.0211V15.3983C95.9385 15.4656 95.9495 15.5111 95.9644 15.5441M96.0511 15.6498C96.0028 15.611 95.9785 15.5757 95.9644 15.5441M95.9644 15.5441L96.0964 15.4849M105.091 18.4781L109.562 23.8025H106.357L101.716 18.3133L101.67 18.258H101.597H96.3949C96.3345 18.258 96.2454 18.2508 96.146 18.2412L95.9748 18.2247V18.3966V23.8389H93.5449V8.125H106.351C107.145 8.125 107.823 8.42319 108.363 8.96614C108.904 9.50901 109.201 10.188 109.201 10.9847V15.3619C109.201 16.1585 108.904 16.8375 108.363 17.3804C107.823 17.9233 107.145 18.2216 106.351 18.2216H105.21H104.875L105.091 18.4781Z" stroke="white" stroke-width="0.312331" stroke-miterlimit="10"/>
<path d="M117.723 8.50781H132.62V10.1857H126.007V23.4633H124.335V10.1857H117.723V8.50781Z" fill="white"/>
<path d="M126.543 10.5614H126.387V10.7176V23.8389H123.956V10.7176V10.5614H123.8H117.344V8.125H132.999V10.5614H126.543ZM118.102 9.6468V9.80294H118.259H124.715V22.9243V23.0804H124.871H125.472H125.628V22.9243V9.80294H132.084H132.241V9.6468V9.03968V8.88351H132.084H118.259H118.102V9.03968V9.6468Z" fill="white" stroke="white" stroke-width="0.312331" stroke-miterlimit="10"/>
<path d="M141.631 23.4633V8.50781H143.302V23.4633H141.631Z" fill="white"/>
<path d="M142.011 22.9243V23.0804H142.167H142.767H142.923V22.9243V9.03968V8.88351H142.767H142.167H142.011V9.03968V22.9243ZM141.252 23.8389V8.125H143.682V23.8389H141.252Z" fill="white" stroke="white" stroke-width="0.312331" stroke-miterlimit="10"/>
<path d="M165.684 8.50781H167.828L161.615 15.9855L167.865 23.4633H165.684L160.126 16.8245H155.329V23.4633H153.621V8.50781H155.329V15.1466H160.126L165.684 8.50781Z" fill="white"/>
<path d="M165.508 8.125H168.637L162.192 15.8812L162.109 15.9813L162.193 16.0812L168.676 23.8389H165.508L159.995 17.2561L159.948 17.2002H159.876H155.865H155.709V17.3564V23.8389H153.242V8.125H155.709V14.6076V14.7638H155.865H159.876H159.948L159.995 14.7079L165.508 8.125ZM154.001 22.9243V23.0804H154.157H154.794H154.95V22.9243V16.4416H160.303L165.815 23.0245L165.861 23.0804H165.935H166.72H167.054L166.839 22.8241L161.122 15.9827L166.807 9.13948L167.02 8.88351H166.688H165.935H165.861L165.815 8.93942L160.303 15.5223H154.95V9.03968V8.88351H154.794H154.157H154.001V9.03968V22.9243Z" fill="white" stroke="white" stroke-width="0.312331" stroke-miterlimit="10"/>
</svg>
