<svg width="165" height="24" viewBox="0 0 165 24" fill="none" xmlns="http://www.w3.org/2000/svg">
<path d="M143.017 4H139.227L135.684 20H139.474L143.017 4Z" fill="white"/>
<path d="M159.443 4H155.652L152.109 20H155.9L159.443 4Z" fill="white"/>
<path d="M146.806 4L152.108 20H148.318L143.016 4H146.806Z" fill="white"/>
<path d="M53.0607 16.2097L55.765 4H51.9747L48.4316 20H68.6445L69.4833 16.2097H53.0607Z" fill="white"/>
<path d="M73.788 4.00313L70.248 20.0031H84.3482C87.7254 20.0031 91.0681 17.2645 91.8161 13.8873L88.8646 10.097H92.6549C93.3999 6.72926 91.2747 4 87.91 4L73.788 4.00313ZM85.2027 16.2128H74.874L75.3873 13.8873H88.0196L88.0164 13.9061C87.7379 15.18 86.4765 16.2128 85.2027 16.2128ZM88.8646 10.1002H76.2324L76.7426 7.79343H87.0712C88.3419 7.79343 89.1463 8.82629 88.8646 10.1002Z" fill="white"/>
<path d="M134.084 20L135.436 13.8842L132.488 10.097H136.278C137.023 6.72926 134.898 4 131.533 4H117.414L113.871 20H117.661L119.014 13.8842H131.646L130.294 20H134.084ZM132.488 10.097H119.855L120.366 7.7903H130.694C131.965 7.7903 132.769 8.82316 132.488 10.097Z" fill="white"/>
<path d="M95.5997 4L92.0566 20H112.269L115.813 4H95.5997ZM109.321 16.2097H96.6889L98.5543 7.7903H111.187L109.321 16.2097Z" fill="white"/>
<path d="M39.8665 4H35.6756L25.8164 20H29.6036L39.8665 4H44.0574L46.8336 20H43.0433L39.8665 4Z" fill="white"/>
<path d="M23.9656 4L22.6135 10.1064H9.98122L11.3333 4H7.54304L4 20H7.7903L9.98122 10.1064L12.9327 13.8967H21.7746L20.4225 20H24.2128L27.7559 4H23.9656Z" fill="white"/>
</svg>
