<svg width="784" height="92" viewBox="0 0 784 92" fill="none" xmlns="http://www.w3.org/2000/svg">
<path d="M0.793533 27.9819L34.4347 47.4047V86.25L0.793535 66.8273L0.793533 27.9819Z" fill="#0094FF"/>
<path d="M72.2441 27.9819L38.603 47.4047V86.25L72.2441 66.8273V27.9819Z" fill="#0094FF"/>
<path d="M2.87772 24.6726L36.5186 44.0952L70.1595 24.6726L36.5186 5.25L2.87772 24.6726Z" fill="#0094FF"/>
<path fill-rule="evenodd" clip-rule="evenodd" d="M122.197 29.0297C120.098 27.5101 116.649 26.7503 111.85 26.7503H93.675V65.0796H112.36C117.138 65.0796 120.627 64.1598 122.827 62.3204C125.026 60.4809 126.126 57.6917 126.126 53.9527V53.2629C126.126 50.4837 125.436 48.3143 124.056 46.7547C122.697 45.1952 120.537 44.2554 117.578 43.9355V43.6056C120.278 43.4856 122.247 42.8058 123.487 41.5662C124.746 40.3065 125.376 38.547 125.376 36.2877V35.8678C125.376 32.8286 124.316 30.5493 122.197 29.0297ZM114.249 50.3537C113.609 49.7939 112.52 49.5139 110.98 49.5139H104.022V56.622H110.98C112.52 56.622 113.609 56.352 114.249 55.8122C114.909 55.2523 115.239 54.3926 115.239 53.2329V52.903C115.239 51.7433 114.909 50.8936 114.249 50.3537ZM113.769 35.7778C113.17 35.2379 112.13 34.968 110.65 34.968H104.022V41.7461H110.65C112.13 41.7461 113.17 41.4662 113.769 40.9064C114.389 40.3465 114.699 39.5167 114.699 38.4171V38.2071C114.699 37.1074 114.389 36.2977 113.769 35.7778Z" fill="white"/>
<path fill-rule="evenodd" clip-rule="evenodd" d="M160.537 65.9793C155.598 65.9793 151.869 64.7797 149.35 62.3803C146.85 59.961 145.601 56.612 145.601 52.3332V48.5842C145.601 44.2054 146.86 40.7864 149.38 38.3271C151.899 35.8678 155.618 34.6381 160.537 34.6381C165.475 34.6381 169.194 35.8678 171.693 38.3271C174.213 40.7864 175.472 44.2054 175.472 48.5842V52.3332C175.472 56.612 174.223 59.961 171.723 62.3803C169.224 64.7797 165.495 65.9793 160.537 65.9793ZM160.537 57.6417C161.956 57.6417 163.026 57.2218 163.746 56.382C164.485 55.5223 164.855 54.3026 164.855 52.723V48.1643C164.855 46.4648 164.485 45.1752 163.746 44.2954C163.026 43.4157 161.956 42.9758 160.537 42.9758C159.137 42.9758 158.067 43.4157 157.327 44.2954C156.588 45.1752 156.218 46.4648 156.218 48.1643V52.723C156.218 54.3026 156.588 55.5223 157.327 56.382C158.067 57.2218 159.137 57.6417 160.537 57.6417Z" fill="white"/>
<path d="M182.41 62.1104C184.73 64.6297 188.299 65.8894 193.117 65.8894C194.897 65.8894 196.566 65.7194 198.126 65.3795C199.685 65.0396 201.015 64.5997 202.115 64.0599L202.925 55.3623C201.845 55.8622 200.745 56.2621 199.625 56.562C198.526 56.8619 197.296 57.0118 195.936 57.0118C193.757 57.0118 192.158 56.502 191.138 55.4823C190.118 54.4426 189.608 52.963 189.608 51.0435V49.0941C189.608 47.2546 190.068 45.845 190.988 44.8652C191.928 43.8855 193.477 43.3957 195.637 43.3957C197.036 43.3957 198.306 43.5656 199.445 43.9055C200.585 44.2254 201.645 44.6353 202.625 45.1352L201.785 36.4676C201.085 36.1277 200.285 35.8278 199.386 35.5679C198.486 35.2879 197.506 35.078 196.446 34.938C195.387 34.7781 194.267 34.6981 193.087 34.6981C188.289 34.6981 184.73 35.9577 182.41 38.477C180.091 40.9963 178.931 44.4754 178.931 48.9141V51.4634C178.931 56.0421 180.091 59.5911 182.41 62.1104Z" fill="white"/>
<path d="M227.8 49.4188L238.025 65.0796H225.698L217.901 52.5731H217.571V65.0796H207.014V25.5207H217.571V46.8147H217.901L225.548 35.5379H237.635L227.8 49.4188Z" fill="white"/>
<path fill-rule="evenodd" clip-rule="evenodd" d="M269.61 30.7392C266.851 28.08 262.662 26.7503 257.044 26.7503H240.938V65.0796H257.044C262.682 65.0796 266.881 63.75 269.64 61.0907C272.4 58.4115 273.779 54.5725 273.779 49.5739V42.166C273.779 37.1874 272.39 33.3785 269.61 30.7392ZM261.303 37.3973C260.283 36.2777 258.733 35.7178 256.654 35.7178H251.645V56.0221H256.654C258.733 56.0221 260.283 55.4623 261.303 54.3426C262.322 53.2229 262.832 51.6234 262.832 49.5439V42.166C262.832 40.0866 262.322 38.497 261.303 37.3973Z" fill="white"/>
<path fill-rule="evenodd" clip-rule="evenodd" d="M287.982 56.7719L286.003 65.0796H275.056L285.703 26.7503H301.868L312.395 65.0796H301.448L299.501 56.7719H287.982ZM294.13 33.8583L297.561 48.4942H289.954L293.441 33.8583H294.13Z" fill="white"/>
<path d="M319.603 64.0299C321.562 65.3095 324.002 65.9493 326.921 65.9493C329.12 65.9493 330.87 65.6294 332.17 64.9896C333.489 64.3498 334.489 63.48 335.169 62.3803C335.868 61.2607 336.368 59.981 336.668 58.5414H337.008L336.758 65.0796H347.255V42.226H331.39V50.4737L336.908 50.4255V53.9827C336.588 54.4826 336.178 54.9424 335.679 55.3623C335.199 55.7822 334.599 56.1221 333.879 56.382C333.179 56.622 332.349 56.7419 331.39 56.7419C329.09 56.7419 327.411 56.1321 326.351 54.9124C325.311 53.6928 324.792 51.9733 324.792 49.7539V44.4154C324.792 41.1163 325.581 38.737 327.161 37.2774C328.74 35.8178 331.26 35.088 334.719 35.088C337.118 35.088 339.248 35.3279 341.107 35.8078C342.986 36.2877 344.706 36.8375 346.266 37.4573L345.366 28.4299C344.366 27.95 343.206 27.5201 341.887 27.1402C340.587 26.7603 339.148 26.4604 337.568 26.2405C336.008 26.0005 334.329 25.8806 332.529 25.8806C326.391 25.8806 321.722 27.3902 318.523 30.4093C315.324 33.4085 313.725 37.8372 313.725 43.6956V49.6339C313.725 53.053 314.215 55.9821 315.194 58.4214C316.174 60.8608 317.644 62.7302 319.603 64.0299Z" fill="white"/>
<path d="M130.512 65.0796H141.129V25.5207H130.512V65.0796Z" fill="white"/>
<path d="M420.207 37.6748L395.656 62.2256L387.255 53.8252L411.806 29.2744L420.207 37.6748ZM411.919 61.8579L387.595 37.5334L395.514 29.6138L419.839 53.9383L411.919 61.8579Z" fill="white"/>
<g clip-path="url(#clip0_3_1189)">
<path d="M493.58 70.4598C506.995 70.603 517.864 58.9431 517.927 46.2942C517.955 40.5046 516.177 35.3796 512.521 30.8732C512.039 30.2789 511.56 29.6674 511.186 29.0052C510.255 27.3598 510.538 25.4613 511.829 24.2227C513.222 22.886 515.231 22.5821 516.855 23.6175C517.665 24.1333 518.423 24.8181 519.009 25.5743C528.323 37.5864 528.966 52.8732 520.053 65.0585C514.739 72.322 507.658 76.6491 498.874 78.2367C482.839 81.1348 467.289 71.4606 462.211 56.81C458.154 45.1059 460.309 34.5068 468.188 25.0008C469.065 23.9419 470.14 22.9834 471.285 22.2151C473.029 21.0454 474.794 21.3469 476.24 22.807C477.52 24.1003 477.776 26.256 476.727 27.7953C476.102 28.7126 475.344 29.5454 474.606 30.382C462.593 43.9977 469.874 65.8764 487.742 69.7501C489.649 70.1635 491.632 70.2315 493.58 70.4598Z" fill="#FF1DCF"/>
<path d="M571.278 34.2138C571.098 34.4593 570.932 34.7608 570.696 34.9941C570.106 35.5784 569.485 36.1318 568.718 36.8452C568.075 36.3587 567.487 35.9078 566.892 35.4659C559.404 29.9016 546.671 33.5952 544.454 43.1063C542.77 50.3317 545.705 58.1423 553.88 60.4639C558.876 61.8829 563.616 61.3117 567.658 57.7C567.813 57.5614 567.982 57.4336 568.16 57.3261C568.276 57.2563 568.42 57.2325 568.739 57.1249C569.57 57.8995 570.467 58.7354 571.343 59.5515C567.912 64.6298 558.547 66.0752 552.789 64.4551C545.187 62.3164 539.786 55.6752 539.419 47.8564C539.047 39.9267 543.558 32.9708 550.864 30.1428C557.857 27.4361 567.26 28.9978 571.278 34.2138Z" fill="#FF1DCF"/>
<path d="M779.147 58.2204C779.946 59.1818 780.599 59.9685 781.417 60.9535C780.495 61.6907 779.754 62.4148 778.893 62.9501C774.955 65.3976 767.006 66.5331 761.529 61.8604C758.742 59.482 757.08 56.5576 756.799 52.8962C756.508 49.1143 757.032 45.5978 759.642 42.5569C763.297 38.2973 769.075 36.6268 774.492 38.4226C779.484 40.0775 783.032 45.0188 783.199 50.549C783.256 52.4498 783.033 52.713 781.063 52.7114C775.522 52.7069 769.981 52.6681 764.44 52.6467C763.809 52.6443 763.172 52.6151 762.548 52.6878C761.365 52.8257 761.025 53.2569 761.383 54.3532C761.974 56.1596 762.954 57.7249 764.428 59.0077C767.677 61.8353 774.138 61.9289 777.247 59.5757C777.795 59.1611 778.365 58.7765 779.147 58.2204ZM761.342 49.4666C761.97 49.5817 762.507 49.7625 763.045 49.7656C767.815 49.7927 772.585 49.8106 777.355 49.7798C778.782 49.7705 779.041 49.3686 778.78 47.9458C778.718 47.6074 778.612 47.2736 778.495 46.9489C776.844 42.3845 771.78 40.1941 766.907 41.9324C763.471 43.1582 761.284 46.0047 761.342 49.4666Z" fill="#FF1DCF"/>
<path d="M602.452 51.525C602.768 58.3209 596.908 65.3125 588.071 65.0893C581.025 64.9114 574.425 58.692 574.727 50.5767C574.968 44.0697 580.84 37.5587 589.013 37.6994C595.58 37.8124 602.913 43.144 602.452 51.525ZM598.297 51.3616C598.211 51.3379 598.126 51.3142 598.04 51.2906C598.024 50.944 598.005 50.5975 597.992 50.2508C597.705 42.7037 589.997 39.8472 584.629 42.4885C579.486 45.0194 577.637 51.2136 580.546 56.3824C582.367 59.6199 585.147 61.2781 588.978 61.2279C592.769 61.1782 595.406 59.3805 596.963 56.1106C597.661 54.6457 597.867 52.9516 598.297 51.3616Z" fill="#FF1DCF"/>
<path d="M731.029 51.4165C731.018 59.3619 725.112 65.0916 716.973 65.0522C709.257 65.0147 703.286 58.9172 703.322 51.1099C703.357 43.4274 709.375 37.8419 717.473 37.7197C724.278 37.617 731.424 43.3503 731.029 51.4165ZM726.561 51.0681C726.717 47.5809 725.483 44.4968 722.12 42.7079C718.8 40.9424 715.359 41.1247 712.112 43.0724C708.489 45.2465 707.039 49.3052 708.114 54.0061C709.348 59.4021 714.943 62.4872 720.286 60.8093C723.578 59.7751 726.756 56.4382 726.561 51.0681Z" fill="#FF1DCF"/>
<path d="M649.477 64.5577C649.174 64.6257 648.908 64.7195 648.637 64.7407C645.709 64.969 645.48 64.765 645.475 61.9196C645.468 58.378 645.494 54.8361 645.452 51.2949C645.436 49.9798 645.355 48.6538 645.155 47.3548C644.627 43.9092 642.18 41.7783 638.688 41.6965C637.643 41.672 636.564 41.6824 635.551 41.9039C631.418 42.8084 629.008 45.6871 628.925 49.8884C628.842 54.0535 628.913 58.2214 628.86 62.3874C628.85 63.1005 628.704 64.3266 628.361 64.4242C627.339 64.7156 626.184 64.6195 625.091 64.5378C624.872 64.5215 624.599 63.9175 624.531 63.5516C624.43 63.0132 624.483 62.4453 624.483 61.8899C624.479 54.8067 624.477 47.7236 624.477 40.6404C624.477 40.085 624.363 39.4821 624.544 38.9886C624.704 38.556 625.143 38.1136 625.571 37.9202C625.98 37.7355 626.535 37.8633 627.025 37.8591C628.052 37.8505 628.597 38.3125 628.566 39.3722C628.545 40.0533 628.562 40.7354 628.562 41.4456C629.759 41.6473 630.215 40.7849 630.839 40.3315C634.3 37.8188 638.12 37.1612 642.212 38.2238C646.306 39.2868 649.259 42.5173 649.475 46.7037C649.773 52.4522 649.673 58.2208 649.735 63.9809C649.736 64.1056 649.627 64.2315 649.477 64.5577Z" fill="#FF1DCF"/>
<path d="M675.762 43.3096C672.321 41.5553 668.927 40.8401 665.364 41.7173C664.327 41.9727 663.243 42.5258 662.469 43.2462C660.859 44.7452 661.082 46.8866 662.987 48.0023C664.165 48.6925 665.563 49.0586 666.904 49.4221C669.132 50.0263 671.444 50.359 673.627 51.0816C677.042 52.2119 678.589 54.1683 678.536 57.0739C678.478 60.2475 676.824 62.5013 673.929 63.7111C670.125 65.301 666.148 65.4479 662.157 64.4732C660.737 64.1265 659.336 63.6283 658.001 63.0349C656.33 62.292 656.238 61.8915 657.037 60.3142C657.282 59.8326 657.615 59.3952 657.981 58.8221C658.633 59.1111 659.196 59.3592 659.757 59.6089C663.099 61.0949 666.584 61.7842 670.211 61.096C671.25 60.8987 672.371 60.354 673.13 59.6337C674.803 58.0458 674.487 55.8106 672.406 54.7893C670.99 54.094 669.356 53.82 667.805 53.4081C665.644 52.8341 663.439 52.4071 661.309 51.7404C656.303 50.1738 655.577 43.4992 659.635 40.2403C661.449 38.7837 663.591 38.1129 665.835 37.8595C669.226 37.4767 672.563 37.871 675.773 39.0723C677.592 39.753 677.724 40.1374 676.764 41.82C676.495 42.2913 676.159 42.7245 675.762 43.3096Z" fill="#FF1DCF"/>
<path d="M488.843 26.6525C488.843 23.8097 488.81 20.9663 488.863 18.1244C488.88 17.2382 488.989 16.3029 489.304 15.4835C489.96 13.7777 491.319 12.8682 493.167 12.7579C494.906 12.6541 496.503 13.5732 497.163 15.2325C497.539 16.1759 497.76 17.2419 497.77 18.2553C497.826 24.0097 497.81 29.765 497.781 35.5198C497.777 36.3417 497.647 37.1828 497.439 37.98C496.955 39.8317 495.365 41.0681 493.477 41.1662C491.802 41.2532 489.981 40.1326 489.381 38.4368C489.041 37.4762 488.888 36.4112 488.864 35.3884C488.798 32.4778 488.841 29.5647 488.843 26.6525Z" fill="#FF1DCF"/>
<path d="M685.929 41.6182C685.024 41.5493 684.277 41.4689 683.527 41.4398C681.509 41.3614 681.38 41.243 681.43 39.2592C681.438 38.925 681.516 38.5924 681.583 38.1005C682.989 38.0053 684.345 37.9135 685.951 37.8049C685.989 36.4364 686.028 35.213 686.054 33.9893C686.098 31.9819 686.168 31.9126 688.245 31.928C688.526 31.9301 688.807 31.9476 689.087 31.94C690.054 31.9137 690.504 32.3911 690.508 33.3298C690.512 34.0247 690.507 34.7209 690.55 35.4138C690.596 36.1567 690.693 36.8965 690.79 37.856C692.262 37.856 693.573 37.856 694.884 37.856C695.516 37.856 696.15 37.8262 696.78 37.8622C698.227 37.9451 699.083 39.6902 698.199 40.8669C697.961 41.1837 697.363 41.3577 696.92 41.3796C695.519 41.4489 694.112 41.3922 692.708 41.4268C690.827 41.4733 690.586 41.6527 690.569 43.4423C690.529 47.6116 690.55 51.7817 690.575 55.9513C690.579 56.5698 690.693 57.1971 690.831 57.8036C691.447 60.5024 693.58 61.8558 696.328 61.2805C697.076 61.1238 697.801 60.8566 698.798 60.5632C699.217 61.4037 699.657 62.2872 700.075 63.1262C695.483 67.1534 687.762 64.8593 686.454 59.2199C686.19 58.0807 686.087 56.8845 686.073 55.7127C686.026 51.8214 686.06 47.9292 686.048 44.0373C686.046 43.2908 685.976 42.5445 685.929 41.6182Z" fill="#FF1DCF"/>
<path d="M742.843 64.3719C742.509 64.5438 742.393 64.6468 742.264 64.6637C738.895 65.1071 738.618 64.879 738.614 61.5839C738.606 54.6439 738.608 47.7039 738.606 40.7639C738.606 40.5557 738.603 40.3474 738.608 40.1393C738.65 38.0343 739.848 37.2504 741.905 37.952C742.654 38.2075 742.741 38.7838 742.794 39.4341C742.864 40.2845 742.98 41.1312 743.128 42.4366C745.798 39.2234 748.776 37.7775 752.61 37.847C752.686 38.6336 752.777 39.1701 752.784 39.7077C752.811 41.7093 752.735 41.7861 750.748 42.0718C745.796 42.784 743.203 45.627 743.084 50.6266C742.984 54.7878 742.998 58.9516 742.953 63.1141C742.948 63.5195 742.884 63.9244 742.843 64.3719Z" fill="#FF1DCF"/>
<path d="M614.424 51.3957C614.424 55.2108 614.427 59.0258 614.423 62.8409C614.421 64.5836 614.27 64.731 612.517 64.7726C610.455 64.8215 610.103 64.5963 610.097 62.8703C610.069 55.1706 610.076 47.4708 610.085 39.771C610.086 39.1024 609.93 38.1504 610.812 38.0342C611.874 37.8945 613.003 38.0297 614.059 38.2483C614.281 38.294 614.417 39.2208 614.421 39.7428C614.45 43.6269 614.437 47.5113 614.437 51.3956C614.432 51.3957 614.428 51.3957 614.424 51.3957Z" fill="#FF1DCF"/>
<path d="M615.083 29.0688C615.133 30.692 613.842 32.0326 612.231 32.0315C610.724 32.0305 609.417 30.7984 609.332 29.299C609.24 27.6594 610.464 26.2945 612.069 26.2475C613.698 26.1999 615.034 27.4497 615.083 29.0688Z" fill="#FF1DCF"/>
</g>
<defs>
<clipPath id="clip0_3_1189">
<rect width="323" height="66" fill="white" transform="translate(460.206 12.75)"/>
</clipPath>
</defs>
</svg>
