<svg width="45" height="44" viewBox="0 0 45 44" fill="none" xmlns="http://www.w3.org/2000/svg">
<path d="M38.8718 2.11509C39.4369 2.11509 40.0843 2.10763 40.7314 2.11713C41.4185 2.12722 41.9061 2.6073 41.9251 3.28778C42.0513 7.81337 41.4222 12.2188 39.7452 16.441C36.8751 23.6668 32.0241 29.1618 25.2289 32.9395C24.6017 33.2881 24.1177 33.221 23.6138 32.7174C19.5206 28.6267 15.4286 24.5348 11.3375 20.442C10.8162 19.9205 10.7487 19.4446 11.112 18.7973C15.4838 11.0085 21.9524 5.84048 30.5201 3.32024C33.2147 2.52764 35.981 2.16073 38.8718 2.11509ZM31.9312 17.0695C31.9359 14.2611 29.8329 12.1413 27.0384 12.1378C24.2448 12.1343 22.1302 14.2463 22.1191 17.0512C22.1087 19.6834 24.342 21.9125 27.0002 21.9231C29.6918 21.9339 31.9268 19.7341 31.9312 17.0695Z" fill="#4AB3FF"/>
<path d="M17.1676 33.3497C17.1452 35.1068 16.2593 36.77 14.6157 38.0457C12.8682 39.4019 10.8612 40.235 8.74919 40.7862C7.05151 41.2292 5.31725 41.5373 3.59172 41.866C2.73395 42.0294 2.05236 41.4212 2.15957 40.5893C2.57826 37.3401 3.2922 34.1645 4.8445 31.2472C5.30173 30.3879 5.87717 29.5648 6.52651 28.8398C8.21406 26.9556 10.9164 26.3687 13.2467 27.2848C15.6271 28.2206 17.1576 30.4552 17.1676 33.3497Z" fill="#4AB3FF"/>
<path d="M16.4713 8.37157C16.1502 8.67403 15.8891 8.91943 15.6286 9.16545C12.9724 11.674 10.7808 14.5387 9.03109 17.7451C8.52672 18.6694 8.43025 19.6273 8.73648 20.658C8.6045 20.6663 8.49418 20.6791 8.38385 20.6792C6.75285 20.6805 5.12185 20.6827 3.49086 20.6792C2.34418 20.6768 1.82422 19.7779 2.3895 18.7712C4.20005 15.5466 6.01765 12.3261 7.82381 9.09907C8.09659 8.6117 8.47602 8.34842 9.03788 8.34876C11.4326 8.35023 13.8273 8.34937 16.222 8.35004C16.2718 8.35006 16.3215 8.3583 16.4713 8.37157Z" fill="#4AB3FF"/>
<path d="M35.6925 27.5357V27.986C35.6925 30.2772 35.6836 32.5683 35.6981 34.8594C35.7022 35.5141 35.4411 35.9435 34.866 36.2637C31.6805 38.0372 28.4902 39.8035 25.3385 41.6357C24.2982 42.2404 23.2935 41.5641 23.3436 40.4612C23.4152 38.8853 23.3619 37.3037 23.3619 35.7245V35.4062C24.013 35.4062 24.6439 35.4608 25.2592 35.3866C25.6545 35.3389 26.0477 35.1397 26.4065 34.9437C29.775 33.1038 32.75 30.7597 35.3358 27.9225C35.4269 27.8226 35.5191 27.7236 35.6925 27.5357Z" fill="#4AB3FF"/>
<path d="M27.0154 14.4372C28.4367 14.43 29.6025 15.5751 29.6027 16.9786C29.6029 18.4538 28.5033 19.5707 27.0423 19.5793C25.5898 19.5878 24.4646 18.4718 24.4482 17.0062C24.4326 15.6151 25.6025 14.4444 27.0154 14.4372Z" fill="#4AB3FF"/>
</svg>
