<svg width="643" height="338" viewBox="0 0 643 338" fill="none" xmlns="http://www.w3.org/2000/svg">
<circle cx="89.2422" cy="168.453" r="19.8242" fill="#081871"/>
<circle cx="262.914" cy="168.453" r="19.8242" fill="#081871"/>
<circle cx="364.617" cy="168.453" r="19.8242" fill="#081871"/>
<circle cx="451.238" cy="266.277" r="19.8242" fill="#081871"/>
<circle cx="553.805" cy="168.453" r="19.8242" fill="#081871"/>
<rect x="451.238" y="50.8047" width="29.2529" height="29.2529" transform="rotate(45 451.238 50.8047)" fill="#081871"/>
<rect x="176.078" y="147.77" width="29.2529" height="29.2529" transform="rotate(45 176.078 147.77)" fill="#081871"/>
<path d="M150.066 168.234L144.066 164.77V171.698L150.066 168.234ZM113.566 168.834H144.666V167.634H113.566V168.834Z" fill="#4AB3FF"/>
<path d="M238.176 168.234L232.176 164.77V171.698L238.176 168.234ZM201.676 168.834H232.776V167.634H201.676V168.834Z" fill="#4AB3FF"/>
<path d="M340.359 168.234L334.359 164.77V171.698L340.359 168.234ZM286.41 168.834H334.959V167.634H286.41V168.834Z" fill="#4AB3FF"/>
<path d="M434.902 248.029L433.565 241.231L428.347 245.788L434.902 248.029ZM381.177 187.418L430.899 244.357L431.802 243.567L382.081 186.629L381.177 187.418Z" fill="#4AB3FF"/>
<path d="M434.902 89.3066L433.565 96.1046L428.347 91.5475L434.902 89.3066ZM381.177 149.918L430.899 92.9794L431.802 93.7687L382.081 150.707L381.177 149.918Z" fill="#4AB3FF"/>
<path d="M536.352 152.18L534.428 145.524L529.626 150.518L536.352 152.18ZM469.002 88.245L532.043 148.869L532.875 148.004L469.834 87.38L469.002 88.245Z" fill="#4AB3FF"/>
<path d="M536.352 185.344L534.428 192L529.626 187.006L536.352 185.344ZM469.002 249.278L532.043 188.654L532.875 189.519L469.834 250.143L469.002 249.278Z" fill="#4AB3FF"/>
<path d="M429.813 59.2777L426.436 53.228L422.886 59.1772L429.813 59.2777ZM107.336 149.855C119.136 134.798 140.938 110.832 167.966 87.9056C195 64.9753 227.221 43.12 259.862 32.2396L259.482 31.1012C226.634 42.0508 194.277 64.0149 167.19 86.9904C140.098 109.97 118.24 133.996 106.391 149.115L107.336 149.855ZM259.862 32.2396C290.868 21.9037 324.097 23.4869 353.608 29.9721C383.117 36.4569 408.864 47.8334 424.878 57.0305L425.475 55.9899C409.368 46.7388 383.507 35.3139 353.865 28.8001C324.226 22.2867 290.763 20.6741 259.482 31.1012L259.862 32.2396Z" fill="#4AB3FF"/>
<path d="M434.195 283.453L430.86 289.526L427.268 283.601L434.195 283.453ZM107.336 187.908C146.585 237.988 197.43 279.975 253.281 300.672C309.113 321.361 369.954 320.78 429.284 285.729L429.894 286.762C370.218 322.018 308.994 322.597 252.864 301.797C196.753 281.004 145.738 238.853 106.391 188.648L107.336 187.908Z" fill="#4AB3FF"/>
<path d="M428.741 275.273L424.444 280.708L421.886 274.269L428.741 275.273ZM190.513 187.951C212.81 221.81 244.327 254.265 283.627 273.12C322.909 291.965 369.996 297.239 423.509 276.706L423.939 277.826C370.107 298.482 322.676 293.185 283.108 274.202C243.557 255.227 211.89 222.595 189.511 188.612L190.513 187.951Z" fill="#4AB3FF"/>
<path d="M425.958 266.341L420.692 270.843L419.426 264.032L425.958 266.341ZM276.226 188.324C290.741 210.727 304.39 234.205 325.635 250.168C346.831 266.093 375.644 274.566 420.55 266.736L420.756 267.918C375.588 275.794 346.423 267.288 324.915 251.128C303.456 235.005 289.677 211.292 275.219 188.977L276.226 188.324Z" fill="#4AB3FF"/>
<path d="M343.779 153.339L341.544 146.781L336.982 151.995L343.779 153.339ZM197.292 155.48C242.263 112.758 298.96 116.433 339.328 150.242L340.098 149.322C299.302 115.154 241.915 111.433 196.466 154.61L197.292 155.48Z" fill="#4AB3FF"/>
<path d="M84.0862 174.602L81.1582 163.402H83.4622L85.4142 172.154L87.7182 163.402H90.1022L92.3262 172.154L94.2942 163.402H96.6302L93.6062 174.602H91.0302L88.8702 166.442L86.6622 174.602H84.0862Z" fill="#4AB3FF"/>
<path d="M170.266 174.602L174.362 163.402H176.81L180.89 174.602H178.602L175.578 165.866L172.538 174.602H170.266ZM172.074 172.058L172.65 170.378H178.346L178.906 172.058H172.074Z" fill="#4AB3FF"/>
<path d="M261.216 174.602V165.146H257.952V163.402H266.64V165.146H263.376V174.602H261.216Z" fill="#4AB3FF"/>
<path d="M451.514 271.973C450.789 271.973 450.149 271.835 449.594 271.557C449.05 271.28 448.623 270.875 448.314 270.341C448.015 269.797 447.866 269.141 447.866 268.373H450.026C450.026 268.715 450.079 269.013 450.186 269.269C450.293 269.515 450.447 269.707 450.65 269.845C450.863 269.973 451.135 270.037 451.466 270.037C451.775 270.037 452.026 269.979 452.218 269.861C452.421 269.733 452.57 269.557 452.666 269.333C452.762 269.099 452.81 268.821 452.81 268.501V260.581H454.97V268.501C454.97 269.621 454.655 270.48 454.026 271.077C453.407 271.675 452.57 271.973 451.514 271.973Z" fill="#4AB3FF"/>
<path d="M544.305 173.734V172.422L548.017 162.262H550.977L554.721 172.47V173.734H544.305ZM547.089 171.702H551.921L550.209 166.326C550.155 166.145 550.081 165.916 549.985 165.638C549.899 165.361 549.809 165.078 549.713 164.79C549.627 164.502 549.558 164.252 549.505 164.038C549.451 164.252 549.377 164.518 549.281 164.838C549.185 165.148 549.094 165.446 549.009 165.734C548.923 166.012 548.859 166.209 548.817 166.326L547.089 171.702ZM559.295 173.926C558.57 173.926 557.93 173.788 557.375 173.51C556.831 173.233 556.404 172.828 556.095 172.294C555.796 171.75 555.647 171.094 555.647 170.326H557.807C557.807 170.668 557.86 170.966 557.967 171.222C558.074 171.468 558.228 171.66 558.431 171.798C558.644 171.926 558.916 171.99 559.247 171.99C559.556 171.99 559.807 171.932 559.999 171.814C560.202 171.686 560.351 171.51 560.447 171.286C560.543 171.052 560.591 170.774 560.591 170.454V162.534H562.751V170.454C562.751 171.574 562.436 172.433 561.807 173.03C561.188 173.628 560.351 173.926 559.295 173.926Z" fill="#4AB3FF"/>
<path d="M446.531 76.9883V75.6763L450.243 65.5163H453.203L456.947 75.7243V76.9883H446.531ZM449.315 74.9563H454.147L452.435 69.5803C452.382 69.3989 452.307 69.1696 452.211 68.8923C452.126 68.6149 452.035 68.3323 451.939 68.0443C451.854 67.7563 451.784 67.5056 451.731 67.2923C451.678 67.5056 451.603 67.7723 451.507 68.0923C451.411 68.4016 451.32 68.7003 451.235 68.9883C451.15 69.2656 451.086 69.4629 451.043 69.5803L449.315 74.9563Z" fill="#4AB3FF"/>
<path d="M357.379 174.602L354.451 163.402H356.755L358.707 172.154L361.011 163.402H363.395L365.619 172.154L367.587 163.402H369.923L366.899 174.602H364.323L362.163 166.442L359.955 174.602H357.379Z" fill="#4AB3FF"/>
<path d="M372.528 174.602V169.874H370.888V169.002H375.232V169.874H373.6V174.602H372.528Z" fill="#4AB3FF"/>
</svg>
