<svg width="128" height="36" viewBox="0 0 128 36" fill="none" xmlns="http://www.w3.org/2000/svg">
<g clip-path="url(#clip0_3976_13714)">
<path d="M55.9252 14.3171C50.2867 14.3171 45.6602 18.9436 45.6602 24.5822V36.1484H74.4312L78.4794 28.4858H53.7565V25.4496C53.7565 23.5701 55.2023 22.1243 57.0818 22.1243H73.2746C79.3469 22.1243 84.118 17.2087 84.118 11.281C84.118 5.35326 79.2023 0.437594 73.2746 0.437594L54.0457 0.148438C49.8529 0.148438 46.383 3.61832 46.383 7.81109H72.6963C74.4312 7.81109 75.877 9.11229 76.0216 10.9918C76.0216 12.7268 74.7204 14.1725 72.9855 14.3171C72.9855 14.3171 72.9855 14.3171 72.8409 14.3171H55.9252Z" fill="#EBEBEB"/>
<path d="M18.9132 28.3412C13.2746 28.3412 8.64814 23.7147 8.64814 18.0761C8.64814 12.4376 13.2746 7.81109 18.9132 7.81109H39.5879V0.148438H18.3349C8.50356 0.293016 0.551758 8.24482 0.551758 18.0761C0.551758 27.9075 8.50356 36.0039 18.4795 36.0039H39.7325V14.3171H16.7445V21.9798H31.7807V28.3412H18.9132Z" fill="#F05F00"/>
<path d="M104.07 31.6602H102.769C101.613 31.6602 100.601 32.6722 100.601 33.8288C100.601 34.9855 101.613 35.9975 102.769 35.9975H104.07C105.227 35.9975 106.239 34.9855 106.239 33.8288C106.239 32.6722 105.227 31.6602 104.07 31.6602ZM103.926 35.13H102.769C102.046 35.13 101.468 34.5517 101.468 33.8288C101.468 33.1059 102.046 32.5276 102.769 32.5276H103.926C104.649 32.5276 105.227 33.1059 105.227 33.8288C105.227 34.5517 104.649 35.13 103.926 35.13Z" fill="#0E9FE2"/>
<path d="M95.25 33.8288C95.25 34.9855 96.262 35.9975 97.4187 35.9975H99.8765V35.13H97.4187C96.6958 35.13 96.1175 34.5517 96.1175 33.8288C96.1175 33.1059 96.6958 32.5276 97.4187 32.5276H99.8765V31.6602H97.4187C96.262 31.6602 95.25 32.6722 95.25 33.8288Z" fill="#0E9FE2"/>
<path d="M111.009 31.6602L109.997 34.2626L109.13 31.6602H107.973L106.238 35.9975H107.25L108.552 32.6722L109.564 35.5638H110.576L111.588 32.6722L112.744 35.9975H113.756L112.166 31.6602H111.009Z" fill="#0E9FE2"/>
<path d="M94.2394 36.0043C94.5588 36.0043 94.8178 35.7454 94.8178 35.426C94.8178 35.1066 94.5588 34.8477 94.2394 34.8477C93.9201 34.8477 93.6611 35.1066 93.6611 35.426C93.6611 35.7454 93.9201 36.0043 94.2394 36.0043Z" fill="#0E9FE2"/>
<path d="M110.431 4.33605C109.852 3.17943 108.985 2.16738 107.973 1.29991C106.816 0.432439 105.226 -0.145875 103.78 -0.00129624C102.334 -0.00129624 100.888 0.432439 99.7318 1.29991C98.7198 2.16738 97.8523 3.17943 97.274 4.33605C90.6234 17.0589 80.5029 35.9987 80.5029 35.9987H89.6114L103.78 8.96256L110.431 21.6855H100.166L103.78 28.6252H114.045L117.949 36.1433H127.057C127.057 35.9987 117.081 17.0589 110.431 4.33605Z" fill="#0E9FE2"/>
</g>
<defs>
<clipPath id="clip0_3976_13714">
<rect width="126.506" height="36" fill="white" transform="translate(0.551758)"/>
</clipPath>
</defs>
</svg>
