<svg width="61" height="78" viewBox="0 0 61 78" fill="none" xmlns="http://www.w3.org/2000/svg">
<path d="M52.6588 28.0073L59.4945 38.9842C61.43 42.0924 60.4707 46.1817 57.3549 48.1049L12.1567 76.003C6.10034 79.7412 -1.2428 73.6561 1.30546 67.0108L7.63127 50.5143L26.5611 54.376C32.2613 55.5388 38.0263 52.6993 40.5789 47.4717C42.8013 42.9205 40.1235 37.4968 35.159 36.4939L30.2922 35.5106C28.4923 35.147 27.5075 33.1945 28.285 31.531C28.8211 30.384 30.0527 29.7315 31.3028 29.9321L42.5765 31.7411C46.4083 32.3559 50.2185 30.8926 52.6588 28.0073Z" fill="#53C5B1"/>
<path d="M51.3341 25.88L34.4702 23.5018C28.8333 22.7069 23.3454 25.7156 20.984 30.8954C19.2122 34.7819 21.5019 39.3087 25.6826 40.1844L30.3174 41.1553C32.08 41.5245 33.0376 43.4407 32.2747 45.072C31.7268 46.2437 30.4461 46.8858 29.1795 46.624L17.6513 44.2416C14.6133 43.6137 11.5623 44.4175 9.26678 46.2493L25.374 4.24497C27.3291 -0.853721 34.2725 -1.51811 37.1591 3.11729L51.3341 25.88Z" fill="#53C5B1"/>
</svg>
