<svg width="181" height="62" viewBox="0 0 181 62" fill="none" xmlns="http://www.w3.org/2000/svg">
<mask id="mask0_1532_18455" style="mask-type:luminance" maskUnits="userSpaceOnUse" x="8" y="14" width="165" height="34">
<path d="M172.378 14H8.69141V47.95H172.378V14Z" fill="white"/>
</mask>
<g mask="url(#mask0_1532_18455)">
<path d="M31.1616 22.4051H36.902V28.1733V33.9415H41.8226C41.9865 32.9527 42.1506 31.9638 42.1506 30.975C42.1506 21.5811 34.6059 14 25.2569 14C16.8922 14 10.0035 20.0978 8.69141 28.1733H13.9399V22.4051H19.6804V28.1733H25.2569V22.4051H31.1616Z" fill="#FF4545"/>
<path d="M36.902 39.7096H31.1616H25.2569V33.9414H19.6804V39.7096H13.9399V33.9414H8.69141C10.0035 41.8521 17.0562 47.9499 25.2569 47.9499C31.3255 47.9499 36.7381 44.6538 39.6903 39.7096H36.902Z" fill="#FF4545"/>
<path d="M31.1662 28.1738H25.2617V33.9421H31.1662V28.1738Z" fill="#FF4545"/>
<path d="M51.8309 34.4375C51.995 35.2615 52.1589 35.9207 52.487 36.4151C53.1429 37.239 54.2911 37.5688 55.9312 37.5688C56.9154 37.5688 57.7354 37.404 58.2274 37.2391C59.3756 36.9095 59.8676 36.0854 59.8676 35.0966C59.8676 34.4374 59.5396 33.9429 59.0476 33.6134C58.5556 33.2837 57.5715 32.9541 56.4234 32.7892L54.2911 32.1301C52.3229 31.6357 50.8468 31.1412 50.1908 30.6469C48.8786 29.8228 48.2225 28.3396 48.2225 26.5268C48.2225 24.8787 48.8786 23.3954 50.0267 22.2418C51.3389 21.0882 53.1429 20.5938 55.4392 20.5938C57.4074 20.5938 59.2116 21.0882 60.5237 22.2418C61.9999 23.2306 62.6559 24.8787 62.8199 26.8563H59.0476C59.0476 25.7027 58.3915 24.8787 57.5715 24.3843C56.9154 24.0547 56.0953 23.8899 55.2753 23.8899C54.2911 23.8899 53.4711 24.0547 52.815 24.5491C52.1589 24.8787 51.8309 25.5378 51.8309 26.1971C51.8309 26.8563 52.1589 27.3507 52.815 27.6803C53.1429 27.8451 54.1271 28.1747 55.2753 28.5044L58.5556 29.3285C60.0316 29.658 61.0157 30.1524 61.8358 30.6469C62.984 31.471 63.476 32.7892 63.476 34.6022C63.476 36.415 62.8199 37.7334 61.5077 38.8871C60.1957 40.0408 58.2275 40.5353 55.9312 40.5353C53.4711 40.5353 51.5028 40.0408 50.0267 38.8871C48.5506 37.7334 47.8945 36.2502 47.8945 34.2725H51.8309V34.4375Z" fill="white"/>
<path d="M72.65 26.1953H76.4224L78.5546 36.2485L80.6868 26.1953H84.4591L80.3587 40.2038H76.5863L74.4542 29.9858L72.1579 40.2038H68.3856L64.4492 26.1953H68.3856L70.5178 36.2485L72.65 26.1953Z" fill="white"/>
<path d="M90.3702 24.5469H86.5977V21.0859H90.3702V24.5469ZM86.5977 26.1949H90.3702V40.2034H86.5977V26.1949Z" fill="white"/>
<path d="M96.6044 35.7544C96.6044 36.4136 96.7684 36.9079 97.0965 37.0728C97.5885 37.5672 98.4086 37.7319 99.5567 37.7319C100.213 37.7319 100.868 37.5672 101.196 37.4024C101.688 37.2376 101.853 36.9079 101.853 36.4136C101.853 36.0839 101.688 35.7544 101.36 35.4247C101.032 35.2599 99.7207 34.7654 97.5885 34.2711C95.9484 33.9414 94.9642 33.4471 94.3083 32.7879C93.6522 32.1286 93.3241 31.3046 93.3241 30.3157C93.3241 28.9973 93.8161 27.8436 94.8003 27.0196C95.7844 26.0308 97.2604 25.7012 99.0646 25.7012C100.868 25.7012 102.18 26.0308 103.329 26.69C104.477 27.3492 105.133 28.6677 105.297 30.3157H101.688C101.688 29.8214 101.525 29.4917 101.36 29.1621C101.032 28.6677 100.213 28.3381 99.2287 28.3381C98.4086 28.3381 97.9165 28.5029 97.5885 28.6677C97.2604 28.9973 97.0965 29.1621 97.0965 29.4917C97.0965 29.9861 97.2604 30.1509 97.5885 30.4806C97.9165 30.6454 99.2287 30.9749 101.36 31.4694C102.837 31.7989 103.985 32.2934 104.641 32.9526C105.297 33.6119 105.789 34.6007 105.789 35.5896C105.789 36.9079 105.297 38.0616 104.313 39.0504C103.329 40.0393 101.688 40.3689 99.5567 40.3689C97.4245 40.3689 95.7844 39.8744 94.6362 39.0504C93.6522 38.0616 92.9961 36.9079 92.9961 35.4247H96.6044V35.7544Z" fill="white"/>
<path d="M111.207 35.7544C111.207 36.4136 111.371 36.9079 111.699 37.0728C112.191 37.5672 113.011 37.7319 114.159 37.7319C114.815 37.7319 115.471 37.5672 115.799 37.4024C116.291 37.2376 116.455 36.9079 116.455 36.4136C116.455 36.0839 116.291 35.7544 115.963 35.4247C115.635 35.2599 114.323 34.7654 112.191 34.2711C110.551 33.9414 109.567 33.4471 108.91 32.7879C108.254 32.1286 107.926 31.3046 107.926 30.3157C107.926 28.9973 108.418 27.8436 109.402 27.0196C110.387 26.0308 111.863 25.7012 113.667 25.7012C115.471 25.7012 116.783 26.0308 117.931 26.69C119.079 27.3492 119.735 28.6677 119.899 30.3157H116.291C116.291 29.8214 116.127 29.4917 115.963 29.1621C115.635 28.6677 114.815 28.3381 113.831 28.3381C113.011 28.3381 112.519 28.5029 112.191 28.6677C111.863 28.9973 111.699 29.1621 111.699 29.4917C111.699 29.9861 111.863 30.1509 112.191 30.4806C112.519 30.6454 113.831 30.9749 115.963 31.4694C117.439 31.7989 118.587 32.2934 119.243 32.9526C119.899 33.6119 120.391 34.6007 120.391 35.5896C120.391 36.9079 119.899 38.0616 118.915 39.0504C117.931 40.0393 116.291 40.3689 114.159 40.3689C112.027 40.3689 110.387 39.8744 109.238 39.0504C108.254 38.0616 107.598 36.9079 107.598 35.4247H111.207V35.7544Z" fill="white"/>
<path d="M137.937 38.5575C136.462 40.0407 134.493 40.7 131.705 40.7C129.081 40.7 126.949 40.0407 125.472 38.5575C123.504 36.7446 122.52 34.1077 122.52 30.6469C122.52 27.1859 123.504 24.5491 125.472 22.7362C126.949 21.253 128.917 20.5938 131.705 20.5938C134.329 20.5938 136.462 21.253 137.937 22.7362C139.905 24.5491 140.726 27.0211 140.726 30.6469C140.726 34.1077 139.742 36.7446 137.937 38.5575ZM135.477 35.7557C136.462 34.6022 136.789 32.9542 136.789 30.8117C136.789 28.6693 136.297 27.0212 135.477 25.8675C134.493 24.7139 133.346 24.0547 131.705 24.0547C130.065 24.0547 128.917 24.7139 127.933 25.8675C126.949 27.0212 126.457 28.6693 126.457 30.8117C126.457 32.9542 126.949 34.6022 127.933 35.7557C128.917 36.9094 130.065 37.5688 131.705 37.5688C133.346 37.5688 134.493 36.9094 135.477 35.7557Z" fill="white"/>
<path d="M154.674 27.0209C155.657 27.8449 155.986 28.9985 155.986 30.8114V40.2052H152.214V31.6354C152.214 30.9762 152.049 30.3169 151.885 29.9874C151.558 29.3281 150.902 28.8337 149.917 28.8337C148.605 28.8337 147.784 29.3281 147.457 30.4817C147.293 30.9762 147.129 31.8002 147.129 32.6242V40.2052H143.52V26.1967H147.129V28.1745C147.621 27.5152 148.113 26.856 148.44 26.6912C149.261 26.1967 150.081 25.8672 151.229 25.8672C152.541 25.8672 153.853 26.1967 154.674 27.0209Z" fill="white"/>
<path d="M168.618 26.5264C169.602 27.0209 170.423 27.68 171.079 28.6689C171.571 29.4929 172.062 30.4817 172.227 31.6354C172.391 32.2947 172.391 33.2834 172.391 34.4371H162.221C162.221 35.9204 162.714 36.9092 163.698 37.4036C164.189 37.7332 164.846 37.898 165.666 37.898C166.486 37.898 167.142 37.7332 167.634 37.2387C167.962 37.074 168.126 36.7444 168.455 36.2499H172.227C172.062 37.074 171.735 37.898 170.915 38.722C169.602 40.0405 167.962 40.6997 165.666 40.6997C163.862 40.6997 162.221 40.2052 160.746 39.0517C159.269 37.898 158.613 36.0852 158.613 33.4482C158.613 30.9762 159.269 29.1632 160.582 27.8449C161.894 26.5264 163.533 25.8672 165.502 25.8672C166.486 25.8672 167.634 26.032 168.618 26.5264ZM163.042 29.6577C162.55 30.1522 162.221 30.9762 162.058 31.8002H168.29C168.29 30.8114 167.962 30.1522 167.307 29.6577C166.814 29.1632 166.158 28.8337 165.337 28.8337C164.354 28.8337 163.698 29.1632 163.042 29.6577Z" fill="white"/>
</g>
</svg>
